<svg id="Group_120" data-name="Group 120" xmlns="http://www.w3.org/2000/svg" width="309.21" height="245.459" viewBox="0 0 309.21 245.459">
  <path id="Path_113" data-name="Path 113" d="M834.018,384.435l30.81-45.817-30.747,50.746.064,5.156q-3.374.026-6.682-.112l1.528-66.272-.042-.511.056-.1.146-6.262-33.74-48.987,33.7,44.3.12,1.324,1.154-50.071-29.143-50.788,29.225,41.992L830.164,155.3v-.345l.01.34,1.935,81.756,26.56-33.209L832.2,244.093l.58,44.787,24.441-43.711-24.351,50.3.323,24.9,35.543-60.888L833.3,329.056Z" transform="translate(-559.522 -154.954)" fill="#d0cde1"/>
  <ellipse id="Ellipse_35" data-name="Ellipse 35" cx="130.614" cy="6.655" rx="130.614" ry="6.655" transform="translate(26.034 232.148)" fill="#d0cde1"/>
  <circle id="Ellipse_36" data-name="Ellipse 36" cx="3.954" cy="3.954" r="3.954" transform="translate(229.011 235.549)" fill="#3f3d56"/>
  <path id="Path_114" data-name="Path 114" d="M747.089,487.592l-10.423-27.676s1.617-5.212-2.7-4.852-15.815,4.313-15.815,4.313-3.954.359,1.438,5.93l9.345,29.293,3.055-1.438L721.93,464.05a2.007,2.007,0,0,1,1.438-2.516c1.977-.539,9.525-3.774,10.244-1.8s10.064,30.371,10.064,30.371Z" transform="translate(-513.586 -330.218)" fill="#3f3d56"/>
  <path id="Path_115" data-name="Path 115" d="M721.131,543.374l20.128,60.2a21.633,21.633,0,0,0,5.253,2.539,27.548,27.548,0,0,0,5.17,1.235,6.248,6.248,0,0,0,1.953-.155c10.35-2.067,45.85-21.051,45.85-21.051s-18.151-56.609-21.206-63.438-9.884-4.313-9.884-4.313-34.5,9.315-39.447,11.045l-.27.1a11.207,11.207,0,0,0-5.389,4.132l0,0C718.255,536.725,721.131,543.374,721.131,543.374Z" transform="translate(-515.662 -366.951)" fill="#47d147"/>
  <path id="Path_116" data-name="Path 116" d="M757.013,527.865l.1.346c1.557-.436,2.885,3.039,2.9,3.073l22.1,61.28.338-.122-2.8-7.77,30.105-13.3,2.371,6.811.339-.118-19.775-56.808-.011-.017c-.07-.111-1.737-2.717-3.715-2.192l.092.347c1.652-.44,3.167,1.8,3.308,2.02l4.185,12.024L764.9,543.786l-4.554-12.626C760.286,531,758.888,527.339,757.013,527.865Zm39.653,5.915,3.083,8.857-31.156,11.387-3.571-9.9Zm-24.395,30.442-3.557-9.86,31.153-11.385,3.061,8.794Zm30.776-12.112,3.356,9.64L775.8,574l-3.4-9.437Zm-23.521,32.222-3.606-10,30.6-12.246,3.113,8.943Z" transform="translate(-537.096 -367.557)" opacity="0.2"/>
  <path id="Path_117" data-name="Path 117" d="M726.342,557.362c1.8,2.875,21.925,63.079,21.925,63.079a11.5,11.5,0,0,0,1.3,1.82,27.543,27.543,0,0,0,5.17,1.235,6.249,6.249,0,0,0,1.953-.154c-1.236-.446-4-1.889-5.368-6.135-1.8-5.571-21.565-64.337-21.565-64.337A24.565,24.565,0,0,1,732,545.584l-.27.1a11.208,11.208,0,0,0-5.39,4.132l0,0S724.545,554.486,726.342,557.362Z" transform="translate(-518.716 -383.095)" opacity="0.2"/>
  <path id="Path_118" data-name="Path 118" d="M734.086,605.869l1.977,6.11s-1.617,12.041,6.829,19.948l1.8,6.11-1.857.05-1.961-5.866a33.308,33.308,0,0,1-6.56-19.622l-1.662-6.731Z" transform="translate(-522.866 -418.303)" fill="#3f3d56"/>
  <circle id="Ellipse_37" data-name="Ellipse 37" cx="3.954" cy="3.954" r="3.954" transform="translate(241.142 235.638)" fill="#3f3d56"/>
  <circle id="Ellipse_38" data-name="Ellipse 38" cx="3.954" cy="3.954" r="3.954" transform="translate(279.51 219.015)" fill="#3f3d56"/>
  <path id="Path_119" data-name="Path 119" d="M554.728,286.547s-9.151,1.664-9.567,5.408a43.857,43.857,0,0,0,0,7.9Z" transform="translate(-413.263 -231.809)" fill="#575a89"/>
  <path id="Path_120" data-name="Path 120" d="M565.194,368.013s-26.622,9.567-44.092,1.248-38.685-18.719-38.685-18.719-10.4.832-9.151-5.408,9.567-42.429,28.7-54.492c0,0,11.647-14.975,18.3-14.143s32.445,62.4,32.445,62.4Z" transform="translate(-371.317 -225.921)" fill="#575a89"/>
  <path id="Path_121" data-name="Path 121" d="M565.194,368.013s-26.622,9.567-44.092,1.248-38.685-18.719-38.685-18.719-10.4.832-9.151-5.408,9.567-42.429,28.7-54.492c0,0,11.647-14.975,18.3-14.143s32.445,62.4,32.445,62.4Z" transform="translate(-371.317 -225.921)" opacity="0.2"/>
  <path id="Path_122" data-name="Path 122" d="M719.651,442.547l1.664,4.16s10.815,6.655,6.24,11.231-11.463-7.7-11.463-7.7l-2.68-5.2Z" transform="translate(-511.631 -322.918)" fill="#a0616a"/>
  <path id="Path_123" data-name="Path 123" d="M278.751,463.673l-1.664,28.7,8.735,3.744,3.328-34.525Z" transform="translate(-161.828 -269.586)" fill="#a0616a"/>
  <path id="Path_124" data-name="Path 124" d="M366.087,466.593l11.647,14.975,3.328,9.983,8.319-.416,2.08-9.983L379.814,469.5Z" transform="translate(-213.807 -272.506)" fill="#a0616a"/>
  <circle id="Ellipse_39" data-name="Ellipse 39" cx="11.231" cy="11.231" r="11.231" transform="translate(140.009 24.581)" fill="#a0616a"/>
  <path id="Path_125" data-name="Path 125" d="M586.411,256.291l.832,10.4,13.311-4.16s-4.992-7.9-3.744-9.983Z" transform="translate(-437.459 -211.952)" fill="#a0616a"/>
  <path id="Path_126" data-name="Path 126" d="M563.05,272.459s7.881,2.08,12.468-2.912l9.578,4.576-12.479,46.588-26.206-7.071,4.16-9.151s-5.408-6.239.416-12.063c0,0,1.248-11.647,4.992-14.143A53.537,53.537,0,0,0,563.05,272.459Z" transform="translate(-414.097 -221.88)" fill="#d0cde1"/>
  <path id="Path_127" data-name="Path 127" d="M607.583,269.047s-14.143,11.231,1.248,44.508,28.286,61.563,33.277,59.9,22.046-14.559,16.223-19.134-30.366-19.134-33.693-38.269,4.576-38.685,4.576-38.685Z" transform="translate(-446.359 -221.588)" fill="#575a89"/>
  <path id="Path_128" data-name="Path 128" d="M418.079,144.593l35.773,60.315-9.983,4.16-30.782-41.6Z" transform="translate(-241.256 -84.447)" fill="#575a89"/>
  <path id="Path_129" data-name="Path 129" d="M506.231,372.547h-2.912L492.5,395.841s-20.382,61.563-18.3,74.042,79.451,10.8,75.29,10.4c-3.959-.381-24.556-95.234-18.511-100.456Z" transform="translate(-371.838 -282.036)" fill="#03254c"/>
  <path id="Path_130" data-name="Path 130" d="M484.175,677.875s-.832-3.328-4.16-3.328-3.328,4.576-3.328,4.576l-9.567,8.735s-8.319,10.4,2.5,10.4,10.815-2.5,10.815-2.5,2.912-2.912,5.408-1.248,8.319-1.664,7.487-3.328-2.075-12.428-2.909-10.582S484.175,677.875,484.175,677.875Z" transform="translate(-366.004 -458.413)" fill="#03254c"/>
  <path id="Path_131" data-name="Path 131" d="M632.562,655.666s.832-.416-3.328,0a19.515,19.515,0,0,1-5.823,0l2.912,11.231s-2.5,19.135,5.824,17.471,8.319-13.311,8.319-13.311-1.248-10.4-.416-11.231.416-12.063-.832-12.063-7.271-2.7-7.271-2.7S635.89,655.666,632.562,655.666Z" transform="translate(-459.068 -441.196)" fill="#03254c"/>
  <path id="Path_132" data-name="Path 132" d="M574.5,216c-.7-1.076-.346-2.538-.836-3.723-.77-1.861-3.161-2.3-5.168-2.467a15.406,15.406,0,0,0-4,.011,3.843,3.843,0,0,0-2.777,2.014c-.3.6-.222-1.27-.032-3.666a11.578,11.578,0,0,1,8.879-10.358l.084-.02a21.951,21.951,0,0,1,7.454-.686,9.7,9.7,0,0,1,6.527,3.336c.71.9,1.213,1.96,2.006,2.788,1.393,1.454,3.459,1.983,5.356,2.658a16.162,16.162,0,0,1,5.873,3.389,8.761,8.761,0,0,1,2.839,6.02c.04,2.656-1.65,5.4-4.373,5.921a3.059,3.059,0,0,0-1.306.563c-2.6,2.016.366,4.126.345,6.4-.017,1.894-2.125,3.128-4.017,3.216a7.622,7.622,0,0,1-7.591-6.031,15.885,15.885,0,0,1,.121-4.719c.212-1.8-3.655-6.025-1.1-2.925a4.447,4.447,0,0,1,.977,2.057c.425,2.476-1.828,3.309-3.249,4.682a5.889,5.889,0,0,0-1.426,6.061,6.789,6.789,0,0,1-1.234-8.573c.458-.7,1.048-1.313,1.482-2.03.678-1.119.864-3.552-1.032-3.485C576.947,216.473,575.542,217.6,574.5,216Z" transform="translate(-422.92 -179.514)" fill="#03254c"/>
  <path id="Path_133" data-name="Path 133" d="M285.409,687.53s-16.7-30.824-57.085-17.5Z" transform="translate(-228.324 -453.825)" fill="#d0cde1"/>
  <path id="Path_134" data-name="Path 134" d="M358.2,632.14s-20.652-26.251,9.156-59Z" transform="translate(-300.105 -399.188)" fill="#d0cde1"/>
</svg>
