<svg id="Group_124" data-name="Group 124" xmlns="http://www.w3.org/2000/svg" width="335.268" height="223.091" viewBox="0 0 335.268 223.091">
  <path id="Path_135" data-name="Path 135" d="M437.751,305.7a96.752,96.752,0,0,1-55.156,85.59,95.07,95.07,0,0,1-40.856,9.165q-3.048,0-6.052-.189a1048.02,1048.02,0,0,0-131.1,0q-3,.187-6.052.189a95.04,95.04,0,0,1-46.81-12.248,96.777,96.777,0,0,1-49.2-82.507c-1.065-54.142,41.792-98.408,95.564-98.657a95.491,95.491,0,0,1,72.051,32.27,95.492,95.492,0,0,1,72.051-32.27C395.959,207.287,438.816,251.553,437.751,305.7Z" transform="translate(-102.502 -177.359)" fill="#f2f2f2"/>
  <path id="Path_136" data-name="Path 136" d="M479.451,716.842a95.07,95.07,0,0,1-40.856,9.165q-3.048,0-6.052-.189a1048.02,1048.02,0,0,0-131.1,0q-3,.187-6.052.189a95.041,95.041,0,0,1-46.81-12.248C270.189,704.4,312.4,698.04,360.927,698.04,414.618,698.04,460.568,705.82,479.451,716.842Z" transform="translate(-199.358 -502.916)" fill="#2f2e41"/>
  <path id="Path_137" data-name="Path 137" d="M661.589,352.426a7.744,7.744,0,0,0-8.045-1.274c-4,1.745-5.745,6.649-5.465,11.006s2.1,8.445,3.271,12.65c1.579,5.648,1.99,11.769.138,17.334s-6.207,10.469-11.856,12.042c-5.244,1.46-10.807,0-16.05-1.464" transform="translate(-448.002 -272.515)" fill="none" stroke="#3f3d56" stroke-miterlimit="10" stroke-width="1"/>
  <path id="Path_138" data-name="Path 138" d="M745.553,320.764a4.572,4.572,0,0,0-9.129-.527l-.526,9.129,9.129.527a4.572,4.572,0,1,0,.527-9.129Z" transform="translate(-522.472 -249.559)" fill="#47d147"/>
  <path id="Path_139" data-name="Path 139" d="M716.421,391.307a4.572,4.572,0,1,0-9.129-.527l-.527,9.129,9.129.527a4.572,4.572,0,0,0,.527-9.129Z" transform="translate(-503.156 -296.332)" fill="#47d147"/>
  <path id="Path_140" data-name="Path 140" d="M681.608,322.035a4.572,4.572,0,1,0-5.872,7.009l7.009,5.872,5.873-7.009a4.572,4.572,0,0,0-7.009-5.873Z" transform="translate(-481.497 -252.523)" fill="#47d147"/>
  <path id="Path_141" data-name="Path 141" d="M759.976,337.009a7.744,7.744,0,0,0-7.414-3.371c-4.322.616-7.309,4.878-8.2,9.152s-.23,8.7-.216,13.064c.018,5.865-1.218,11.874-4.484,16.745s-8.771,8.437-14.636,8.449c-5.443.01-10.415-2.882-15.081-5.686" transform="translate(-505.264 -261.26)" fill="none" stroke="#3f3d56" stroke-miterlimit="10" stroke-width="1"/>
  <path id="Path_142" data-name="Path 142" d="M869.642,314.475a4.572,4.572,0,0,0-8.659-2.939l-2.939,8.659,8.659,2.939a4.572,4.572,0,0,0,2.939-8.659Z" transform="translate(-603.46 -244.588)" fill="#47d147"/>
  <path id="Path_143" data-name="Path 143" d="M822.772,374.709a4.572,4.572,0,1,0-8.659-2.939l-2.939,8.659,8.659,2.939a4.572,4.572,0,1,0,2.939-8.659Z" transform="translate(-572.383 -284.526)" fill="#47d147"/>
  <path id="Path_144" data-name="Path 144" d="M811.692,299.474a4.572,4.572,0,1,0-7.527,5.192l5.192,7.527L816.884,307a4.572,4.572,0,1,0-5.192-7.527Z" transform="translate(-567.2 -237.338)" fill="#47d147"/>
  <path id="Path_145" data-name="Path 145" d="M774.609,162.679a7.744,7.744,0,0,1,7.51,3.153c2.483,3.591,1.383,8.678-1.149,12.234s-6.228,6.076-9.442,9.031c-4.317,3.97-7.889,8.958-9.245,14.663s-.236,12.168,3.738,16.48c3.689,4,9.189,5.687,14.416,7.207" transform="translate(-539.602 -147.885)" fill="none" stroke="#3f3d56" stroke-miterlimit="10" stroke-width="1"/>
  <path id="Path_146" data-name="Path 146" d="M776.311,121.353a4.572,4.572,0,1,1,8.038,4.359l-4.359,8.038-8.038-4.359a4.572,4.572,0,0,1,4.359-8.038Z" transform="translate(-544.791 -118.96)" fill="#47d147"/>
  <path id="Path_147" data-name="Path 147" d="M763.931,196.664a4.572,4.572,0,1,1,8.038,4.359l-4.359,8.038-8.038-4.359a4.572,4.572,0,1,1,4.359-8.038Z" transform="translate(-536.582 -168.894)" fill="#47d147"/>
  <path id="Path_148" data-name="Path 148" d="M832.295,149.97a4.572,4.572,0,1,1,1.3,9.051l-9.051,1.3-1.3-9.051a4.572,4.572,0,0,1,9.051-1.3Z" transform="translate(-580.355 -136.92)" fill="#47d147"/>
  <rect id="Rectangle_58" data-name="Rectangle 58" width="8.424" height="4.38" transform="translate(148.428 111.559)" fill="#fbbebe"/>
  <rect id="Rectangle_59" data-name="Rectangle 59" width="8.424" height="4.38" transform="translate(148.428 111.559)" opacity="0.1"/>
  <circle id="Ellipse_40" data-name="Ellipse 40" cx="10.783" cy="10.783" r="10.783" transform="translate(122.145 26.983)" fill="#2f2e41"/>
  <path id="Path_149" data-name="Path 149" d="M561.351,442.079s-3.37-1.011-4.044-.674,2.359,3.033,2.359,3.033Z" transform="translate(-403.994 -332.71)" fill="#fbbebe"/>
  <path id="Path_150" data-name="Path 150" d="M561.351,442.079s-3.37-1.011-4.044-.674,2.359,3.033,2.359,3.033Z" transform="translate(-403.994 -332.71)" opacity="0.1"/>
  <path id="Path_151" data-name="Path 151" d="M486.1,699.54s7.75,1.011,9.1,1.011,5.054,1.348,3.033,3.033-14.826,4.043-16.511,3.033-4.043-4.044-2.359-4.38A54.5,54.5,0,0,0,486.1,699.54Z" transform="translate(-351.991 -503.911)" fill="#3f3d56"/>
  <path id="Path_152" data-name="Path 152" d="M351.694,614.265l-2.7,4.718,3.37,1.685,6.4,1.348,3.369-4.38-1.348-5.054Z" transform="translate(-231.401 -406.168)" fill="#fbbebe"/>
  <path id="Path_153" data-name="Path 153" d="M493.272,633.54s-4.38,18.532-3.706,19.543,2.022,3.707.674,4.717-6.739,1.348-6.739,1.348l1.685-9.772,2.359-11.793Z" transform="translate(-355.121 -460.15)" fill="#2f2e41"/>
  <path id="Path_154" data-name="Path 154" d="M461.913,509.6l4.38,19.88s.674,9.772-1.011,13.478S454.5,585.749,454.5,585.749s9.435.337,11.456-.674,5.431-24.35,5.431-24.35,11.079-22.15,10.742-26.53,1.674-26.632-1.185-28.31S461.913,509.6,461.913,509.6Z" transform="translate(-335.893 -375.293)" fill="#2f2e41"/>
  <path id="Path_155" data-name="Path 155" d="M455.092,741.666l4.043-4.043s10.783,5.391,12.467,5.728,5.391,3.032,1.685,4.043-17.522.337-20.891,0-10.109-.674-9.1-2.7,2.7-9.1,2.7-9.1.931-1.287,1.477.367.882,4.013,2.23,4.013S455.092,741.666,455.092,741.666Z" transform="translate(-328.398 -527.504)" fill="#3f3d56"/>
  <path id="Path_156" data-name="Path 156" d="M629.618,499.214l9.435-.674,6.4,3.37-.674,4.043-2.7.674s-7.413-3.033-11.793-2.022S629.618,499.214,629.618,499.214Z" transform="translate(-451.033 -370.639)" fill="#a0616a"/>
  <path id="Path_157" data-name="Path 157" d="M654.5,491.279s3.706,4.054,0,5.565c0,0,.674,1.174,3.37,1.511s6.4,2.7,7.413,2.7,5.391-.674,2.7-4.38S654.5,484.877,654.5,484.877s-3.033-1.348-4.043,1.348a13.109,13.109,0,0,1-1.544,3.311S653.831,490.605,654.5,491.279Z" transform="translate(-464.8 -361.356)" fill="#2f2e41"/>
  <path id="Path_158" data-name="Path 158" d="M581.5,597.461s3.033,11.456,3.033,12.13,4.043-2.7,4.043-2.7l.674-6.065s-2.7-2.7-2.7-4.38S581.5,597.461,581.5,597.461Z" transform="translate(-420.099 -435.19)" fill="#a0616a"/>
  <path id="Path_159" data-name="Path 159" d="M591.543,611.279s-2.359,3.033-4.043,2.022l1.011,11.457s.674,5.728,3.033,3.37,4.717-14.152,4.717-14.152,3.37-7.076.674-8.087a28.058,28.058,0,0,0-4.717-1.348S592.217,611.616,591.543,611.279Z" transform="translate(-424.078 -440.921)" fill="#2f2e41"/>
  <path id="Path_160" data-name="Path 160" d="M534.5,509.214l10.109,20.891s3.369,11.793,4.717,12.13,6.4-2.022,7.076-2.359-5.728-13.478-5.728-15.837-7.75-15.5-7.75-15.5Z" transform="translate(-388.936 -377.269)" fill="#ff6584"/>
  <path id="Path_161" data-name="Path 161" d="M534.5,509.214l10.109,20.891s3.369,11.793,4.717,12.13,6.4-2.022,7.076-2.359-5.728-13.478-5.728-15.837-7.75-15.5-7.75-15.5Z" transform="translate(-388.936 -377.269)" fill="#ff4d4d" opacity="0.1"/>
  <path id="Path_162" data-name="Path 162" d="M517.043,390.605s.337,7.076-1.011,11.793,1.685,20.217,1.685,20.217,5.054.337,6.4,0,19.543-.674,20.554,0,.674,12.467,0,12.13-18.2-4.043-26.619-2.7-9.435-.674-9.772-1.348-6.065-18.869-6.065-18.869l-2.022-8.761-2.7-9.435,1.685-9.1Z" transform="translate(-364.404 -295.051)" fill="#ff637f"/>
  <circle id="Ellipse_41" data-name="Ellipse 41" cx="9.098" cy="9.098" r="9.098" transform="translate(123.156 33.386)" fill="#a0616a"/>
  <circle id="Ellipse_42" data-name="Ellipse 42" cx="9.098" cy="9.098" r="9.098" transform="translate(106.14 54.782)" fill="#fbbebe"/>
  <path id="Path_163" data-name="Path 163" d="M502.5,253.1s6.065,4.043,5.054,6.4a20.7,20.7,0,0,1-3.706,5.054l-.337,3.707,5.054,1.685,12.8.674s-.674-11.456-4.717-14.489-8.761-5.054-9.435-7.75S502.5,253.1,502.5,253.1Z" transform="translate(-367.719 -204.379)" fill="#a0616a"/>
  <path id="Path_164" data-name="Path 164" d="M532.68,282.67c-2.205-4.119-8.409-3.619-9.7.873a4.064,4.064,0,0,0,.39,3.283c2.359,4.043,4.044,7.076,4.044,7.076l7.413-.674S534.977,286.961,532.68,282.67Z" transform="translate(-381.18 -225.642)" fill="#a0616a"/>
  <path id="Path_165" data-name="Path 165" d="M493.611,293.954s-8.857,5.589-8.183,9.3a99.2,99.2,0,0,1,1.348,12.467c0,2.359,2.359,9.772,5.728,11.119s3.37-2.359,8.087,2.022,9.772,6.4,9.435,7.076,1.348-6.065-1.348-8.761-5.728-10.446-3.033-13.815,5.054-12.13,5.054-12.13a2.007,2.007,0,0,0-2.359-1.685c-2.022.337-14.489-1.011-15.163-2.7A2.845,2.845,0,0,1,493.611,293.954Z" transform="translate(-356.375 -234.989)" fill="#2f2e41"/>
  <path id="Path_166" data-name="Path 166" d="M506.055,283.26s9.248-10.073,10.6-9.736,5.229,4.325,5.229,4.325L516.65,274.2l-10.6,9.63Z" transform="translate(-370.076 -221.437)" fill="#2f2e41"/>
  <path id="Path_167" data-name="Path 167" d="M447.609,313.54s1.266,13.628,2.992,14.9-13.1.936-13.1.936,3.37-10.446,1.348-11.793S447.609,313.54,447.609,313.54Z" transform="translate(-324.621 -247.975)" fill="#fbbebe"/>
  <path id="Path_168" data-name="Path 168" d="M444.348,342.885s-11.456-3.033-12.8-1.348-4.043,16.174-4.043,16.174a113.663,113.663,0,0,0,3.706,16.848c2.359,7.076,5.391,32.011,7.75,32.011s6.4-3.706,7.413-3.706,7.076-3.033,10.783-2.359a13.119,13.119,0,0,0,6.4-.337s-1.685-14.152-5.728-17.859-6.065-29.315-6.065-29.315S446.032,342.211,444.348,342.885Z" transform="translate(-317.991 -266.201)" fill="#3f3d56"/>
  <path id="Path_169" data-name="Path 169" d="M529.5,431.594s3.831,5.2,7.644,5.464l2.128-.073s-3.37,8.761-1.685,9.1,6.739-6.4,5.054-10.109-6.739-9.435-6.739-9.435Z" transform="translate(-385.621 -322.899)" fill="#fbbebe"/>
  <path id="Path_170" data-name="Path 170" d="M561.749,441.54s-5.728,5.391-3.37,7.75,5.391,0,5.391,0S566.129,445.92,561.749,441.54Z" transform="translate(-404.392 -332.845)" fill="#fbbebe"/>
  <path id="Path_171" data-name="Path 171" d="M561.749,441.54s-5.728,5.391-3.37,7.75,5.391,0,5.391,0S566.129,445.92,561.749,441.54Z" transform="translate(-404.392 -332.845)" opacity="0.1"/>
  <circle id="Ellipse_43" data-name="Ellipse 43" cx="10.783" cy="10.783" r="10.783" transform="translate(124.504 24.962)" fill="#2f2e41"/>
  <circle id="Ellipse_44" data-name="Ellipse 44" cx="6.402" cy="6.402" r="6.402" transform="translate(133.939 20.244)" fill="#2f2e41"/>
  <path id="Path_172" data-name="Path 172" d="M501.34,179.442a6.4,6.4,0,0,1,5.728-6.366,6.475,6.475,0,0,0-.673-.036,6.4,6.4,0,1,0,.674,12.768A6.4,6.4,0,0,1,501.34,179.442Z" transform="translate(-366.053 -154.817)" fill="#2f2e41"/>
  <ellipse id="Ellipse_45" data-name="Ellipse 45" cx="8.592" cy="6.402" rx="8.592" ry="6.402" transform="translate(123.156 33.723)" fill="#2f2e41"/>
  <path id="Path_173" data-name="Path 173" d="M419.261,276.9a3.544,3.544,0,0,0-.162,1.919,10.134,10.134,0,0,0,.86,1.322,1.731,1.731,0,0,1-.715,2.458,2.408,2.408,0,0,0-1.655-.28,1.078,1.078,0,0,0-.835,1.168c.119.778,1.026,1.276,1.487,1.971a5.1,5.1,0,0,1,.563,1.671,14.927,14.927,0,0,1,.673,2.72,1.78,1.78,0,0,1-1.3,2,2.6,2.6,0,0,1-2.122-1.029c-.549-.624-.919-1.364-1.421-2.021-1.633-2.135-4.423-3.13-6.313-5.067a9.381,9.381,0,0,1-2.068-9.09,5.86,5.86,0,0,1,1.989-3.158c1.073-.788,2.507-1.04,3.709-1.653a24.327,24.327,0,0,0,3.409-2.56,5.53,5.53,0,0,1,4.1-1.311,32.8,32.8,0,0,1,3.183,1.028,5.15,5.15,0,0,0,3.51-.289l-1,1.071a5.082,5.082,0,0,0,2.262.343,2.742,2.742,0,0,1-1.518,1.371,2.725,2.725,0,0,0,1.892.57,5.635,5.635,0,0,1-2.678,2.022c-.559.144-1.168.138-1.745.232a8.86,8.86,0,0,0-3.27,1.488c-.527.335-1.191.714-1.187,1.409C418.914,275.781,419.382,276.253,419.261,276.9Z" transform="translate(-303.644 -216.397)" fill="#2f2e41"/>
  <path id="Path_174" data-name="Path 174" d="M455.827,355.576s-3.033,11.12,2.359,13.478,16.511,11.12,18.533,14.152a11.315,11.315,0,0,0,4.38,4.043s8.087-6.739,6.4-8.761-8.424-8.087-8.424-8.087S461.893,351.869,455.827,355.576Z" transform="translate(-336.209 -275.522)" fill="#3f3d56"/>
  <path id="Path_175" data-name="Path 175" d="M481.594,349.084s-12.379-3.539-16.13-4.128-13.522.422-11.5,2.106,13.815,3.033,13.815,3.033l14.152,5.391Z" transform="translate(-335.357 -268.693)" fill="#a0616a"/>
  <path id="Path_176" data-name="Path 176" d="M532.743,314.551s1.011,6.739,1.011,9.1,1.685,4.38.337,4.38-2.359-1.348-2.359,0-2.022,9.435,0,9.435,7.076-1.348,8.087-1.348,4.38-.674,4.043-4.38-1.685-7.75-1.011-8.424,1.011-4.043.337-4.717-2.359-5.054-2.359-5.054Z" transform="translate(-386.505 -247.975)" fill="#2f2e41"/>
  <g id="Group_121" data-name="Group 121" transform="translate(214.816 133.082)" opacity="0.3">
    <path id="Path_177" data-name="Path 177" d="M742.668,516a2.362,2.362,0,1,0-.563,4.689l4.689.563.563-4.689a2.362,2.362,0,1,0-4.69-.563Z" transform="translate(-740.025 -513.915)" fill="#6c63ff"/>
  </g>
  <g id="Group_122" data-name="Group 122" transform="translate(270.455 111.426)" opacity="0.3">
    <path id="Path_178" data-name="Path 178" d="M908.669,450.846a2.362,2.362,0,1,0-2.319,4.115l4.114,2.319,2.319-4.114a2.362,2.362,0,1,0-4.115-2.319Z" transform="translate(-905.148 -449.644)" fill="#6c63ff"/>
  </g>
  <g id="Group_123" data-name="Group 123" transform="translate(246.153 142.517)" opacity="0.3">
    <path id="Path_179" data-name="Path 179" d="M835.668,544a2.362,2.362,0,1,0-.563,4.689l4.689.563.563-4.689a2.362,2.362,0,0,0-4.689-.563Z" transform="translate(-833.025 -541.915)" fill="#6c63ff"/>
  </g>
</svg>
