<svg id="Group_138" data-name="Group 138" xmlns="http://www.w3.org/2000/svg" xmlns:xlink="http://www.w3.org/1999/xlink" width="304.962" height="227.117" viewBox="0 0 304.962 227.117">
  <defs>
    <linearGradient id="linear-gradient" x1="0.5" y1="1" x2="0.5" gradientUnits="objectBoundingBox">
      <stop offset="0" stop-color="gray" stop-opacity="0.251"/>
      <stop offset="0.54" stop-color="gray" stop-opacity="0.122"/>
      <stop offset="1" stop-color="gray" stop-opacity="0.102"/>
    </linearGradient>
    <linearGradient id="linear-gradient-2" x1="0.5" y1="1" x2="0.5" y2="0" xlink:href="#linear-gradient"/>
    <linearGradient id="linear-gradient-3" x1="0.5" y1="1" x2="0.5" y2="0" xlink:href="#linear-gradient"/>
  </defs>
  <ellipse id="Ellipse_112" data-name="Ellipse 112" cx="131.302" cy="8.012" rx="131.302" ry="8.012" transform="matrix(0.998, -0.055, 0.055, 0.998, 7.591, 211.117)" fill="#6c63ff" opacity="0.1"/>
  <path id="Path_588" data-name="Path 588" d="M67.34,437.14c4.827,19.827,15.041,36.963,31.186,45.266,33.55,17.265,109.215,8.361,165.687-1.862a130.551,130.551,0,0,0,73.534-40.4Z" transform="translate(-64.044 -322.248)" fill="#6c63ff" opacity="0.1"/>
  <path id="Path_589" data-name="Path 589" d="M384.084,40.273H353.1a2.576,2.576,0,1,1,0-5.148h5.354a2.576,2.576,0,1,1,0-5.148h-3.825a2.576,2.576,0,1,1,0-5.148H370.8a43.948,43.948,0,0,0-12.63-3.342c-44.077-5.448-59.822-1.845-65.376,1.862a63.159,63.159,0,0,1-22.663,9.55c-27.21,5.4-78.092,11.886-124.207-2.079C123,23.878,105.961,35.608,95.75,55.21H389.466a44.471,44.471,0,0,0-3.641-15.563A2.746,2.746,0,0,1,384.084,40.273Z" transform="translate(-84.653 -18.704)" fill="#6c63ff" opacity="0.1"/>
  <path id="Path_590" data-name="Path 590" d="M244.324,297.02l-.4-.025-4.217-.239L199.3,294.486l-4.366-.247-64.344-3.613-18.034-1.019-2.853-.159-2.534-.143L56,286.43a125.992,125.992,0,0,0,1.2,34.6l43.051,1.513,3.413.124.6.019,20.437.711,1.1.036,2.356.082,20.593.725,2.823.1,9.835.346h.187l1.447.052,4.929.173h0l4.325.151,8.237.288h.173l.733.027.78.027h.17l13.13.461,3.679.132h.154l1.771.06h0l.33.014h.132l1.557.055,4.753.168h0l1.785.063,2.293.08h.085l3.147.113,9.1.321,2.5.085h.275l12.131.426,7.046.247,8.767.31,1.406.049,2.271.08,8.254.288,62.26,2.2a122.607,122.607,0,0,0,18.9-27.71Zm-117.062,19.22a2.73,2.73,0,0,1-1.785-.659h0a2.6,2.6,0,0,1-.566-.684,2.5,2.5,0,0,1-.327-1.23,2.455,2.455,0,0,1,.442-1.406h0a2.852,2.852,0,0,1,.3-.354,2.715,2.715,0,0,1,1.939-.8h5.354a2.578,2.578,0,1,1,0-5.151h-3.825q-.125.006-.25,0a2.57,2.57,0,0,1,.25-5.135h30.983a2.576,2.576,0,1,1,0,5.146H163.6a2.578,2.578,0,1,1,0,5.151h-5.354a2.576,2.576,0,1,1,0,5.146Z" transform="translate(-55.335 -212.919)" fill="#6c63ff" opacity="0.1"/>
  <path id="Path_591" data-name="Path 591" d="M362.034,152.32l-213.718,4.994-23.49.549-59.794,1.4a109.8,109.8,0,0,0-7.111,29.489H356.831a118.183,118.183,0,0,0,4.314-18.795A85.585,85.585,0,0,0,362.034,152.32ZM118.211,175.074h-5.354a2.633,2.633,0,0,1,2.677,2.573v.157a2.559,2.559,0,0,1-1.189,1.985,2.746,2.746,0,0,1-1.483.434H81.879a2.576,2.576,0,1,1,0-5.148h5.357a2.576,2.576,0,1,1,0-5.148H83.412a2.576,2.576,0,1,1,0-5.148h30.983a2.576,2.576,0,1,1,0,5.148h3.825a2.713,2.713,0,0,1,1.271.313,2.562,2.562,0,0,1,1.406,2.26,2.636,2.636,0,0,1-2.677,2.576Z" transform="translate(-57.21 -115.632)" fill="#6c63ff" opacity="0.1"/>
  <g id="Group_133" data-name="Group 133" transform="translate(160.219 99.785)" opacity="0.1">
    <path id="Path_592" data-name="Path 592" d="M645.86,470.848s7.839-18.569,22.477-25.459a31.07,31.07,0,0,0,14.338-13.38,50.065,50.065,0,0,0,3.586-8.679" transform="translate(-643.935 -412.015)" fill="none" stroke="#535461" stroke-miterlimit="10" stroke-width="2"/>
    <path id="Path_593" data-name="Path 593" d="M801.623,389.042c-1.524,1.845-9.423,4.536-9.423,4.536s.953-8,2.471-9.846a4.563,4.563,0,0,1,6.238-.684,4.154,4.154,0,0,1,.714,5.994Z" transform="translate(-750.094 -382.12)" fill="#6c63ff"/>
    <path id="Path_594" data-name="Path 594" d="M788.975,438.557c-2.323.749-10.475-1.118-10.475-1.118s5.324-6.219,7.647-6.971a4.481,4.481,0,0,1,5.62,2.685,4.228,4.228,0,0,1-2.792,5.4Z" transform="translate(-740.155 -417.031)" fill="#6c63ff"/>
    <path id="Path_595" data-name="Path 595" d="M740.8,501.193c-2.4-.478-8.457-6.041-8.457-6.041s7.869-2.792,10.264-2.3a4.269,4.269,0,0,1,3.441,5.044A4.437,4.437,0,0,1,740.8,501.193Z" transform="translate(-706.67 -462.404)" fill="#6c63ff"/>
    <path id="Path_596" data-name="Path 596" d="M686.679,539.665c-2.449-.082-9.4-4.585-9.4-4.585s7.26-4.025,9.709-3.943a4.27,4.27,0,1,1-.31,8.528Z" transform="translate(-666.728 -490.22)" fill="#6c63ff"/>
    <path id="Path_597" data-name="Path 597" d="M750.773,424.735c.313,2.337,5.62,8.569,5.62,8.569s3.5-7.323,3.182-9.659a4.41,4.41,0,0,0-4.97-3.688A4.3,4.3,0,0,0,750.773,424.735Z" transform="translate(-720.014 -409.543)" fill="#6c63ff"/>
    <path id="Path_598" data-name="Path 598" d="M690.038,467.59c1.027,2.139,8.031,6.56,8.031,6.56s1.057-7.993.03-10.132a4.517,4.517,0,0,0-5.887-2.076,4.2,4.2,0,0,0-2.175,5.648Z" transform="translate(-675.697 -439.734)" fill="#6c63ff"/>
    <path id="Path_599" data-name="Path 599" d="M638.992,521.857c.634,2.276,6.763,7.77,6.763,7.77s2.447-7.7,1.81-9.981a4.465,4.465,0,0,0-5.437-3.02,4.25,4.25,0,0,0-3.136,5.231Z" transform="translate(-638.85 -479.589)" fill="#6c63ff"/>
    <path id="Path_600" data-name="Path 600" d="M801.623,389.042c-1.524,1.845-9.423,4.536-9.423,4.536s.953-8,2.471-9.846a4.563,4.563,0,0,1,6.238-.684,4.154,4.154,0,0,1,.714,5.994Z" transform="translate(-750.094 -382.12)" opacity="0.25"/>
    <path id="Path_601" data-name="Path 601" d="M788.975,438.557c-2.323.749-10.475-1.118-10.475-1.118s5.324-6.219,7.647-6.971a4.481,4.481,0,0,1,5.62,2.685,4.228,4.228,0,0,1-2.792,5.4Z" transform="translate(-740.155 -417.031)" opacity="0.25"/>
    <path id="Path_602" data-name="Path 602" d="M740.8,501.193c-2.4-.478-8.457-6.041-8.457-6.041s7.869-2.792,10.264-2.3a4.269,4.269,0,0,1,3.441,5.044A4.437,4.437,0,0,1,740.8,501.193Z" transform="translate(-706.67 -462.404)" opacity="0.25"/>
    <path id="Path_603" data-name="Path 603" d="M686.679,539.665c-2.449-.082-9.4-4.585-9.4-4.585s7.26-4.025,9.709-3.943a4.27,4.27,0,1,1-.31,8.528Z" transform="translate(-666.728 -490.22)" opacity="0.25"/>
    <path id="Path_604" data-name="Path 604" d="M750.773,424.735c.313,2.337,5.62,8.569,5.62,8.569s3.5-7.323,3.182-9.659a4.41,4.41,0,0,0-4.97-3.688A4.3,4.3,0,0,0,750.773,424.735Z" transform="translate(-720.014 -409.543)" opacity="0.25"/>
    <path id="Path_605" data-name="Path 605" d="M690.038,467.59c1.027,2.139,8.031,6.56,8.031,6.56s1.057-7.993.03-10.132a4.517,4.517,0,0,0-5.887-2.076,4.2,4.2,0,0,0-2.175,5.648Z" transform="translate(-675.697 -439.734)" opacity="0.25"/>
    <path id="Path_606" data-name="Path 606" d="M638.992,521.857c.634,2.276,6.763,7.77,6.763,7.77s2.447-7.7,1.81-9.981a4.465,4.465,0,0,0-5.437-3.02,4.25,4.25,0,0,0-3.136,5.231Z" transform="translate(-638.85 -479.589)" opacity="0.25"/>
  </g>
  <g id="Group_134" data-name="Group 134" transform="translate(159.85 60.048)" opacity="0.1">
    <path id="Path_607" data-name="Path 607" d="M667.23,341.523s.988-20.019,12.422-31.183a29.952,29.952,0,0,0,8.91-17.194,49.26,49.26,0,0,0,.4-9.336" transform="translate(-659.069 -271.067)" fill="none" stroke="#535461" stroke-miterlimit="10" stroke-width="2"/>
    <path id="Path_608" data-name="Path 608" d="M749.764,243.056c-.8,2.224-7.328,7.282-7.328,7.282s-1.856-7.831-1.06-10.069a4.47,4.47,0,0,1,5.648-2.63,4.229,4.229,0,0,1,2.74,5.417Z" transform="translate(-712.712 -237.399)" fill="#6c63ff"/>
    <path id="Path_609" data-name="Path 609" d="M754.356,291.2c-1.922,1.45-10.266,2.287-10.266,2.287s2.875-7.567,4.808-9.014a4.558,4.558,0,0,1,6.23.741,4.154,4.154,0,0,1-.772,5.986Z" transform="translate(-714.826 -270.891)" fill="#6c63ff"/>
    <path id="Path_610" data-name="Path 610" d="M726.1,365.268c-2.43.313-10.066-3.02-10.066-3.02s6.458-5.137,8.885-5.448a4.411,4.411,0,0,1,4.989,3.66A4.317,4.317,0,0,1,726.1,365.268Z" transform="translate(-694.47 -323.988)" fill="#6c63ff"/>
    <path id="Path_611" data-name="Path 611" d="M689.758,418.777c-2.339.7-10.448-1.332-10.448-1.332s5.461-6.109,7.8-6.812a4.474,4.474,0,0,1,5.56,2.8,4.24,4.24,0,0,1-2.913,5.346Z" transform="translate(-667.833 -362.926)" fill="#6c63ff"/>
    <path id="Path_612" data-name="Path 612" d="M710.225,294.216c1.1,2.1,8.259,6.29,8.259,6.29s.771-8.02-.329-10.126a4.522,4.522,0,0,0-5.958-1.892,4.187,4.187,0,0,0-1.972,5.728Z" transform="translate(-689.919 -274.126)" fill="#6c63ff"/>
    <path id="Path_613" data-name="Path 613" d="M667.69,354.023c1.705,1.691,9.838,3.627,9.838,3.627s-1.76-7.875-3.465-9.566a4.566,4.566,0,0,0-6.277-.093,4.149,4.149,0,0,0-.1,6.032Z" transform="translate(-658.494 -316.752)" fill="#6c63ff"/>
    <path id="Path_614" data-name="Path 614" d="M638.272,421.522c1.373,1.944,9.061,5.176,9.061,5.176s-.354-8.048-1.727-9.994a4.555,4.555,0,0,0-6.17-1.1,4.165,4.165,0,0,0-1.164,5.917Z" transform="translate(-637.509 -366.129)" fill="#6c63ff"/>
  </g>
  <ellipse id="Ellipse_113" data-name="Ellipse 113" cx="4.956" cy="0.681" rx="4.956" ry="0.681" transform="translate(105.032 188.121)" fill="#6c63ff" opacity="0.1"/>
  <ellipse id="Ellipse_114" data-name="Ellipse 114" cx="4.956" cy="0.681" rx="4.956" ry="0.681" transform="translate(86.048 190.046)" fill="#6c63ff" opacity="0.1"/>
  <ellipse id="Ellipse_115" data-name="Ellipse 115" cx="4.956" cy="0.681" rx="4.956" ry="0.681" transform="translate(63.686 187.44)" fill="#6c63ff" opacity="0.1"/>
  <ellipse id="Ellipse_116" data-name="Ellipse 116" cx="3.523" cy="0.483" rx="3.523" ry="0.483" transform="translate(95.078 195.724)" fill="#6c63ff" opacity="0.1"/>
  <ellipse id="Ellipse_117" data-name="Ellipse 117" cx="3.523" cy="0.483" rx="3.523" ry="0.483" transform="translate(75.375 195.241)" fill="#6c63ff" opacity="0.1"/>
  <path id="Path_615" data-name="Path 615" d="M330.607,613.353s6.949-22.79-1.1-31.911c-6.013-6.826-12.839-6.01-15.9-5.165a5.637,5.637,0,0,0-3.646,3.02c-1.068,2.307-.876,6.041,6.667,10.417,12.63,7.312,13.419,17.345,13.419,17.345Z" transform="translate(-239.71 -422.779)" fill="#47d147"/>
  <path id="Path_616" data-name="Path 616" d="M328.49,589.51s20.489,6.406,15.9,33.844" transform="translate(-253.488 -432.781)" fill="none" stroke="#565987" stroke-miterlimit="10" stroke-width="1"/>
  <path id="Path_617" data-name="Path 617" d="M366.526,597.87s-2.82,1.9-1.922,4.758" transform="translate(-279.558 -438.845)" fill="none" stroke="#565987" stroke-miterlimit="10" stroke-width="1"/>
  <path id="Path_618" data-name="Path 618" d="M336,601.154a3.554,3.554,0,0,1,3.822-.785" transform="translate(-258.936 -440.446)" fill="none" stroke="#565987" stroke-miterlimit="10" stroke-width="1"/>
  <path id="Path_619" data-name="Path 619" d="M365.47,634.633s3.02-1.538,3.811.387" transform="translate(-280.315 -465.092)" fill="none" stroke="#565987" stroke-miterlimit="10" stroke-width="1"/>
  <path id="Path_620" data-name="Path 620" d="M386.645,647.81s-2.274-.181-2.315.906" transform="translate(-293.996 -475.065)" fill="none" stroke="#565987" stroke-miterlimit="10" stroke-width="1"/>
  <path id="Path_621" data-name="Path 621" d="M354.957,670.615s-8.138-16.56-10.376-16.2c-1.06.173-1.551,1.216-1.771,2.268a6.669,6.669,0,0,0,.442,4.031A17.892,17.892,0,0,0,354.957,670.615Z" transform="translate(-263.78 -479.86)" fill="#47d147"/>
  <path id="Path_622" data-name="Path 622" d="M349.83,665.89s8.559,12.386,10.206,12.935" transform="translate(-268.969 -488.189)" fill="none" stroke="#565987" stroke-miterlimit="10" stroke-width="1"/>
  <line id="Line_11" data-name="Line 11" x2="1.993" transform="translate(80.076 179.634)" fill="none" stroke="#565987" stroke-miterlimit="10" stroke-width="1"/>
  <line id="Line_12" data-name="Line 12" x2="3.127" y2="0.135" transform="translate(82.465 184.167)" fill="none" stroke="#565987" stroke-miterlimit="10" stroke-width="1"/>
  <line id="Line_13" data-name="Line 13" x1="0.34" y2="1.628" transform="translate(84.027 180.54)" fill="none" stroke="#565987" stroke-miterlimit="10" stroke-width="1"/>
  <line id="Line_14" data-name="Line 14" x1="0.06" y2="1.48" transform="translate(87.632 185.496)" fill="none" stroke="#565987" stroke-miterlimit="10" stroke-width="1"/>
  <path id="Path_623" data-name="Path 623" d="M386.52,670.615s8.141-16.56,10.379-16.2c1.06.173,1.551,1.216,1.771,2.268a6.669,6.669,0,0,1-.442,4.031A17.841,17.841,0,0,1,386.52,670.615Z" transform="translate(-295.585 -479.86)" fill="#47d147"/>
  <path id="Path_624" data-name="Path 624" d="M397.184,665.89S388.647,678.276,387,678.825" transform="translate(-295.933 -488.189)" fill="none" stroke="#565987" stroke-miterlimit="10" stroke-width="1"/>
  <line id="Line_15" data-name="Line 15" x1="1.993" transform="translate(100.043 179.634)" fill="none" stroke="#565987" stroke-miterlimit="10" stroke-width="1"/>
  <line id="Line_16" data-name="Line 16" x1="3.125" y2="0.135" transform="translate(96.523 184.167)" fill="none" stroke="#565987" stroke-miterlimit="10" stroke-width="1"/>
  <line id="Line_17" data-name="Line 17" x2="0.338" y2="1.628" transform="translate(97.747 180.54)" fill="none" stroke="#565987" stroke-miterlimit="10" stroke-width="1"/>
  <line id="Line_18" data-name="Line 18" x2="0.06" y2="1.48" transform="translate(94.422 185.496)" fill="none" stroke="#565987" stroke-miterlimit="10" stroke-width="1"/>
  <path id="Path_625" data-name="Path 625" d="M334.34,721.6a1.421,1.421,0,0,1-.464-.7.618.618,0,0,1,.324-.711c.3-.115.615.091.857.3s.516.445.824.4a1.271,1.271,0,0,1-.393-1.186.5.5,0,0,1,.11-.239c.165-.178.464-.1.662.039a2.461,2.461,0,0,1,.807,2.062,3.812,3.812,0,0,0,0-.849.87.87,0,0,1,.321-.752.947.947,0,0,1,.486-.115,1.008,1.008,0,0,1,.791.225.788.788,0,0,1-.03.969,3.078,3.078,0,0,1-.824.656,1.8,1.8,0,0,0-.585.549.4.4,0,0,0-.044.1h-1.771A5.014,5.014,0,0,1,334.34,721.6Z" transform="translate(-257.381 -526.978)" fill="#47d147"/>
  <path id="Path_626" data-name="Path 626" d="M447.31,697.311a1.423,1.423,0,0,1-.464-.7.618.618,0,0,1,.324-.711c.3-.115.615.09.857.3a1.139,1.139,0,0,0,.824.4,1.266,1.266,0,0,1-.393-1.186.5.5,0,0,1,.11-.239c.165-.178.464-.1.662.039a2.462,2.462,0,0,1,.807,2.062,3.807,3.807,0,0,0,0-.849.873.873,0,0,1,.318-.752.958.958,0,0,1,.489-.115,1.01,1.01,0,0,1,.791.225.785.785,0,0,1-.033.969,3.016,3.016,0,0,1-.824.656,1.766,1.766,0,0,0-.582.549.4.4,0,0,0-.044.1h-1.771A4.94,4.94,0,0,1,447.31,697.311Z" transform="translate(-339.332 -509.357)" fill="#47d147"/>
  <path id="Path_627" data-name="Path 627" d="M409.66,721.6a1.421,1.421,0,0,1-.464-.7.618.618,0,0,1,.324-.711c.3-.115.615.091.857.3s.516.445.824.4a1.266,1.266,0,0,1-.393-1.186.5.5,0,0,1,.11-.239c.165-.178.464-.1.662.039a2.461,2.461,0,0,1,.807,2.062,3.8,3.8,0,0,0,0-.849.873.873,0,0,1,.319-.752.954.954,0,0,1,.489-.115,1.01,1.01,0,0,1,.791.225.785.785,0,0,1-.033.969,3.021,3.021,0,0,1-.824.656,1.764,1.764,0,0,0-.582.549.4.4,0,0,0-.044.1h-1.771A4.936,4.936,0,0,1,409.66,721.6Z" transform="translate(-312.02 -526.978)" fill="#47d147"/>
  <path id="Path_628" data-name="Path 628" d="M300.219,678.42s-.664.868.307,2.178,1.771,2.419,1.447,3.234c0,0-1.463-2.433-2.658-2.471S298.909,679.884,300.219,678.42Z" transform="translate(-231.898 -497.278)" fill="#47d147"/>
  <path id="Path_629" data-name="Path 629" d="M300.219,678.42a1.031,1.031,0,0,0-.135.275c-1.164,1.373-1.782,2.641-.664,2.672,1.041.03,2.29,1.892,2.589,2.364a.294.294,0,0,1-.036.1c-.014.033-1.463-2.433-2.658-2.471S298.909,679.884,300.219,678.42Z" transform="translate(-231.898 -497.278)" opacity="0.1"/>
  <path id="Path_630" data-name="Path 630" d="M299.67,681.931c0,.3.033.549.074.549s.077-.247.077-.549-.041-.162-.085-.162S299.67,681.623,299.67,681.931Z" transform="translate(-232.582 -499.683)" fill="#ffd037"/>
  <path id="Path_631" data-name="Path 631" d="M297.689,683.227c.275.146.5.233.524.2s-.181-.184-.45-.329-.162-.041-.184,0S297.422,683.078,297.689,683.227Z" transform="translate(-231.026 -500.613)" fill="#ffd037"/>
  <path id="Path_632" data-name="Path 632" d="M312.111,678.42s.662.868-.308,2.178-1.771,2.419-1.447,3.234c0,0,1.463-2.433,2.655-2.471S313.421,679.884,312.111,678.42Z" transform="translate(-240.281 -497.278)" fill="#47d147"/>
  <path id="Path_633" data-name="Path 633" d="M312.21,678.42a1.14,1.14,0,0,1,.135.275c1.161,1.373,1.782,2.641.664,2.672-1.041.03-2.29,1.892-2.589,2.364a.292.292,0,0,0,.036.1c.014.033,1.463-2.433,2.655-2.471S313.52,679.884,312.21,678.42Z" transform="translate(-240.38 -497.278)" opacity="0.1"/>
  <path id="Path_634" data-name="Path 634" d="M321.024,681.931c0,.3-.033.549-.077.549s-.077-.247-.077-.549.044-.162.085-.162S321.024,681.623,321.024,681.931Z" transform="translate(-247.961 -499.683)" fill="#ffd037"/>
  <path id="Path_635" data-name="Path 635" d="M321.618,683.227c-.275.146-.5.233-.522.2s.181-.184.45-.329.162-.041.181,0S321.893,683.078,321.618,683.227Z" transform="translate(-248.124 -500.613)" fill="#ffd037"/>
  <path id="Path_636" data-name="Path 636" d="M302.41,695.072a6.813,6.813,0,0,1-2.416-.456c-.56-.4-2.856-.873-2.993-.233s-2.792,3.177-.695,3.193a17.736,17.736,0,0,0,5.428-.667C302.292,696.568,302.41,695.072,302.41,695.072Z" transform="translate(-229.558 -508.631)" fill="#a8a8a8"/>
  <path id="Path_637" data-name="Path 637" d="M296.263,699.964a17.734,17.734,0,0,0,5.428-.667c.426-.258.6-1.189.654-1.617h.06s-.118,1.5-.675,1.837a17.751,17.751,0,0,1-5.428.667c-.607,0-.824-.22-.8-.549C295.582,699.849,295.813,699.964,296.263,699.964Z" transform="translate(-229.554 -511.25)" opacity="0.2"/>
  <rect id="Rectangle_77" data-name="Rectangle 77" width="4.852" height="10.843" rx="2.426" transform="matrix(0.3, 0.954, -0.954, 0.3, 54.974, 152.43)" fill="#6c63ff"/>
  <path id="Path_638" data-name="Path 638" d="M577.675,245.086s-.851-6.51-5.423-6.648.717,8.075,1.255,8.817c.316.431.063,1.631-.2,2.556a19.008,19.008,0,0,0-.47,2.024,4.726,4.726,0,0,1-1.032,2.342,11.71,11.71,0,0,0-1.84,3.081,4.337,4.337,0,0,1-1.837-.275,14.132,14.132,0,0,0-3.764-1.293c-.03.038-.115.055-.233.052a3.781,3.781,0,0,1-.549-.069c-.025-.154-.052-.308-.091-.467,0,0-.387-.167-.824-.4v-.027h0c.1-.258.167-.535.275-.788v-.022h0a1.221,1.221,0,0,1,.349-.494c.42-.338,1.027-.222,1.535-.39a1.748,1.748,0,0,0,.168-.066l.061-.036.093-.052.066-.047.074-.055.066-.058a.7.7,0,0,1,.063-.06l.058-.069.058-.066.052-.074c.017-.025.036-.047.049-.071s.033-.052.047-.08l.044-.08.041-.082.036-.085a.89.89,0,0,0,.036-.088.3.3,0,0,1,.03-.088c.011-.03.016-.06.027-.091s0-.058.022-.091a.908.908,0,0,0,.022-.093l.017-.091a.248.248,0,0,1,.014-.1c.014-.033,0-.058,0-.085v-.107a.735.735,0,0,1,0-.077v-.335a2.8,2.8,0,0,0-.052-.335,3.154,3.154,0,0,1-.2-1.631.438.438,0,0,1,.022-.055.887.887,0,0,1,.082-.156,1.13,1.13,0,0,1,.456-.376c.159-.082.335-.145.5-.214a3.845,3.845,0,0,0,1.587-1.1h0a2.536,2.536,0,0,0,.549-1.241,1.984,1.984,0,0,0,0-.623v-.058h0a5.813,5.813,0,0,1-.247-1.1,1.4,1.4,0,0,1,.063-.431q.033-.1.074-.2l.022-.047c.03-.063.063-.126.1-.187a.205.205,0,0,0,.019-.033l.107-.17.025-.036c.038-.06.082-.121.123-.181.1-.146.209-.288.308-.437h0c.047-.069.091-.14.132-.211h0c.041-.074.08-.146.115-.22v-.036a2.456,2.456,0,0,0,.091-.236l.025-.08c.025-.091.047-.178.063-.275a.539.539,0,0,1,0-.066c0-.082.022-.165.027-.247a.416.416,0,0,1,0-.06v-.291a.664.664,0,0,0,0-.071,1.491,1.491,0,0,0-.019-.291,7.476,7.476,0,0,0-.181-1.024c-.118-.491-.327-1.054-.8-1.186a1.967,1.967,0,0,0-.747.033,3.586,3.586,0,0,1-2.219-.563,17.84,17.84,0,0,1-1.881-1.406,1.652,1.652,0,0,0-1.433-.489,3.835,3.835,0,0,0-.508.258.572.572,0,0,1-.11.033,2.623,2.623,0,0,1-.527.044h-.049c-.151-.483-.313-.961-.494-1.433a7.274,7.274,0,0,0-2.034-3.2,8.2,8.2,0,0,0-1.878-1.024c-2.013-.879-4.226-1.771-6.315-1.142a9.414,9.414,0,0,0-2.551,1.373l-3.374,2.3-.253-.077c-.494-.143-1-.228-1.3-.327l-.052-.016a2.653,2.653,0,0,1-1.922-2.175,2.344,2.344,0,0,1,.047-.481,7.73,7.73,0,0,1,.31-.975c.069-.187.127-.376.184-.566l.055-.2c.033-.121.063-.242.093-.362l.058-.275c.022-.1.038-.195.058-.294s.038-.209.052-.313a.342.342,0,0,1,.022-.146c.041-.3.071-.6.088-.9h0a4.675,4.675,0,0,1,.017-.481v-.555h0a11.275,11.275,0,0,0-1.895-5.958,3.569,3.569,0,0,0-.371,1.463.549.549,0,0,1-.055.275.357.357,0,0,1-.513.022,5,5,0,0,1-.384-.445.945.945,0,0,0-1.145-.137,1.038,1.038,0,0,0-.42,1.112,4.319,4.319,0,0,0-4.313.275,1.6,1.6,0,0,0-.744.945h0a1.1,1.1,0,0,0,.129.766c.233.456.686.868.983,1.334a11.493,11.493,0,0,0-1.8,3.877l-.242.3a8.483,8.483,0,0,0-1.549,1.227,1.644,1.644,0,0,0-.516,1.373l-4.19,5.258s-4.484,6.115-4.942,7.5c-.093.275-1.922,2.4.848,4.984s3.317,2.861,3.72,3.74c.236.513,2.043,1.45,3.506,2.139l.511.239c-.118,1.521.591,3.295,2.729,5.338a3.66,3.66,0,0,1,.063.733,24.211,24.211,0,0,0,.807,4.778s1.142,1.8-.335,2.976-1.81,1.856-.9,2.812l.027.027-.135,2.7h-.4s-3.57,2.49-4.311,3.946-2.081,5.338-2.081,5.338-.275,3.737-.673,4.292,0,2.839,0,2.839-.069,3.531.8,4.363.607,2.908.607,2.908a9.832,9.832,0,0,0,.154,1.343c-.936-.275-2.592-.456-2.878,1.705a23.075,23.075,0,0,0-.2,4.942,27.583,27.583,0,0,1-1.411,4.668c-.6,1.035-1.883,10.225,3.8,8.655a2.44,2.44,0,0,0,1.373-1.411,6.432,6.432,0,0,0,.59-.736c-.022,1.793.472,3.309,2.221,2.938,0,0,1.005-.222,1.458-2.337a21.8,21.8,0,0,0,2.471-2.886l1.623-4.047h0l.123-.31,1.51-1.62a40.771,40.771,0,0,0,7.688,1.614,18.925,18.925,0,0,0,2.306.1,17.768,17.768,0,0,0,3.981-.376c2.449.34,6.722.621,10.313-.766,5.376-2.076,1.68-6.647.739-7.617s-3.913-3.844-4.151-4.069v-.017s.549-16.617-.607-17.1-4.973-4.572-4.973-4.572l.4-2.63s1.881.209,1.949-1.455,0-4.154,0-4.154l2.471-4.432s2.993-1.776,4.352-2.378c.071.047.148.1.233.143,1.477.846,4.64,1.774,5.744,1.565,1.48-.275,4.437.371,6.315.549s2.746-1.705,2.554-1.922.763-2.337.763-2.337,1.793-8.679,1.389-10.063A9.446,9.446,0,0,1,577.675,245.086Zm-48.281,55.689c.157.077.319.151.486.225a26.233,26.233,0,0,0,2.7.955l1.68.623s-2.531.06-3.794.124a3.726,3.726,0,0,1-1.631-.755A2.8,2.8,0,0,1,529.393,300.775Zm25.39-48.49c-.03-.082-.057-.17-.082-.258.231-.058.456-.124.681-.2-.151.173-.335.379-.549.6C554.816,252.382,554.8,252.335,554.783,252.285ZM526.5,245.421s1.2-2.957,2.122-4.984q.055.244.124.486c-.038,0-.033-.044.126.371v.022a6.077,6.077,0,0,0,2.526,3.02,5.606,5.606,0,0,0,1.2.549v-.041a.4.4,0,0,0,0-.08.256.256,0,0,0,0-.049.324.324,0,0,0,0-.077l-.016-.038a.406.406,0,0,0-.041-.077l-.025-.027a.193.193,0,0,0-.038-.044c.187.118.376.231.565.346.041.022.08.049.121.074.195.113.39.22.588.327l.143.082c.233.124.472.244.711.36l.036.016.3.137.467.211a.823.823,0,0,0,.489.1.781.781,0,0,0,.3-.159l.09-.069a8.693,8.693,0,0,1,1.941-.8,1.787,1.787,0,0,0,1.252-1.565,1.662,1.662,0,0,0-.719-1.164c-.371-.275-.8-.478-1.175-.752a2.292,2.292,0,0,1-.958-2.265,1.432,1.432,0,0,1,.06-.173l.017-.041q.033-.069.074-.14c0-.014.017-.03.028-.047a1.81,1.81,0,0,1,.313-.349,5.211,5.211,0,0,1,.489-.362l3.311-2.232c.25-.17.5-.338.758-.494h0a7.463,7.463,0,0,1,.684-.373c.069-.03.137-.063.209-.091l.137-.058c.123-.047.247-.091.376-.129.069-.016.162-.033.275-.049a17.957,17.957,0,0,1-1.414,3.182,2.472,2.472,0,0,0-.258.568.705.705,0,0,0-.03.17,1.7,1.7,0,0,0,.154.714,2.129,2.129,0,0,0,.711,1.208c.115.082.222.159.316.239a1.914,1.914,0,0,1-.036.247,10.684,10.684,0,0,0-.071,1.227,10.131,10.131,0,0,0,1.922,5.956l-.11.124a10.059,10.059,0,0,1-2.023,1.8c-.088.055-.176.107-.275.157a3.1,3.1,0,0,1-.321-.7.862.862,0,0,1-1.1-.483c-.39-.763-1.6,0-1.6,0s-2.746-1.592-2.888-.9a.69.69,0,0,1-.157.291l-.162-.154s-.632.209-1.518.615a1.7,1.7,0,0,1-.988-.615c-.275-.357-.2.17-.03,1.12l-.022.014-.321-.118c-1.9-.7-6.411-2.51-6.623-4.036Zm31,6.908c-.123-.387-.722-.689-1.17-.868a9.885,9.885,0,0,0,4.989-5.258c.041-.1.08-.206.118-.31.08-.019.159-.033.236-.058a1.161,1.161,0,0,0,.785-.577,1.292,1.292,0,0,0,.08-.437c.022-.332.036-.664.044-1v-.047a24.7,24.7,0,0,0-.607-6.06l.3.244h0c.115.1.231.192.343.291a2.348,2.348,0,0,1,.275.275l.044.044c.088.088.173.178.253.275a.324.324,0,0,1,.027.036,3.26,3.26,0,0,1,.2.275l.069.107a2.434,2.434,0,0,1,.148.275l.027.055a2.677,2.677,0,0,1,.11.3l.025.069c.025.088.044.176.063.275a.63.63,0,0,0,.027.121c.017.093.027.189.038.288v.1c0,.091.014.184.019.275s0,.118,0,.176a12.338,12.338,0,0,1-1.126,5.362,20.954,20.954,0,0,1-2.919,4.627,6.156,6.156,0,0,0-.964,1.417,2.9,2.9,0,0,0-.107.3c-.472-.063-1.2-.2-1.323-.593Z" transform="translate(-392.154 -163.75)" fill="url(#linear-gradient)"/>
  <path id="Path_639" data-name="Path 639" d="M687.317,303.6c.412,1.373-1.42,9.975-1.42,9.975s-.961,2.117-.777,2.317-.687,2.076-2.609,1.892-4.942-.824-6.453-.549c-1.128.206-4.357-.714-5.868-1.551-.513-.275-.824-.563-.8-.783.118-.868,3-4.805,3-4.805a8.064,8.064,0,0,0,1.318.236c.121,0,.209-.014.239-.052a14.988,14.988,0,0,1,3.844,1.282,4.63,4.63,0,0,0,1.875.261,11.58,11.58,0,0,1,1.878-3.053,4.634,4.634,0,0,0,1.057-2.323,18.035,18.035,0,0,1,.478-2.007c.275-.917.524-2.106.2-2.534-.549-.733-5.95-8.877-1.282-8.74s5.538,6.59,5.538,6.59A9.456,9.456,0,0,0,687.317,303.6Z" transform="translate(-500.789 -217.804)" fill="#fbbebe"/>
  <path id="Path_640" data-name="Path 640" d="M614.8,331.246l-3.844,1.648-4.462,1.373s-10.228-8.306-7.619-8.924a4.464,4.464,0,0,0,1.285-.549,10.14,10.14,0,0,0,2.068-1.782,18.2,18.2,0,0,0,1.8-2.326s10.091-.48,8.512,1.922c-.615.936-.406,2.457.077,3.965.027.091.058.181.088.275A25.41,25.41,0,0,0,614.8,331.246Z" transform="translate(-449.324 -237.741)" fill="#fbbebe"/>
  <path id="Path_641" data-name="Path 641" d="M550.983,526.221s-1.771-1.647-2.416.89a26.084,26.084,0,0,0-.763,4.16,29.925,29.925,0,0,1-1.494,3.811c-.516.821-2.5,8.457,1.291,7.688,0,0,1.395-.3,1.667-3.517s2.617-12.828,2.617-12.828Z" transform="translate(-410.789 -386.488)" fill="#3f3d56"/>
  <path id="Path_642" data-name="Path 642" d="M581.944,506.7c-3.844,1.439-8.44,1.068-10.87.714-1.049-.151-1.691-.3-1.691-.3l-12.013-1.236-.242.253-1.543,1.606-1.785,4.319s-4.805,6.59-5.354,2.677a16.1,16.1,0,0,1-.1-2.581,71.241,71.241,0,0,1,1.2-9.706L560.458,501l6.864-3.57.074-3.723.016-.914.047-2.3,9.336.892,1.647,3.707.017.016c.242.225,3.317,3.111,4.239,4.034S587.436,504.641,581.944,506.7Z" transform="translate(-412.966 -360.957)" fill="#fbbebe"/>
  <path id="Path_643" data-name="Path 643" d="M556.5,552.613s-4.9.206-5.217-.673l-1.519,3.622s4.462,1.716,5.08,1.063Z" transform="translate(-414.003 -405.527)" fill="#ff4d4d"/>
  <path id="Path_644" data-name="Path 644" d="M527.613,512.66s-3.191-1.579-3.6,1.442a22.266,22.266,0,0,0-.206,4.909,26.77,26.77,0,0,1-1.442,4.632c-.618,1.03-1.922,10.137,3.877,8.581,0,0,2.128-.582,1.785-4.325s1.054-15.17,1.054-15.17Z" transform="translate(-393.712 -376.733)" fill="#3f3d56"/>
  <path id="Path_645" data-name="Path 645" d="M549.216,487.75l9.953,8.786s5.766,3.089-1.1,8.374a17.286,17.286,0,0,1-7.825.824,42.018,42.018,0,0,1-8.649-1.853s-3.569-.549-4.8,1.373-3.981,6.109-3.981,6.109-3.363,6.658-5.56-1.579l2.814-8.031a25.881,25.881,0,0,0,0-3.295c-.137-.618,1.853-3.363,2.883-2.471s2.4,2.128,3.569,2.059,4.119-.137,4.119-.137l-1.716-.618s-4.942-1.373-4.6-2.4,2.746-6.041,2.746-6.041Z" transform="translate(-397.674 -358.962)" opacity="0.1"/>
  <path id="Path_646" data-name="Path 646" d="M556.071,504.911a10.89,10.89,0,0,1-1.741.508,19.275,19.275,0,0,1-6.085.316,42.87,42.87,0,0,1-7.861-1.6c-.505-.154-.788-.253-.788-.253s-3.57-.549-4.805,1.373c-.824,1.266-2.282,3.512-3.19,4.9l-.791,1.208s-3.363,6.658-5.56-1.579l2.814-8.031a25.858,25.858,0,0,0,0-3.295,3.982,3.982,0,0,1,1.694-2.392c.426-.275.857-.368,1.189-.08a13.5,13.5,0,0,0,2.2,1.672,2.631,2.631,0,0,0,1.373.387c1.167-.069,4.119-.137,4.119-.137l-1.716-.618a26.9,26.9,0,0,1-2.746-.947c-1.068-.45-2-.988-1.845-1.455.343-1.03,2.746-6.041,2.746-6.041l12.15-1.1,3.454,3.051,1.48,1.3,5.019,4.432S562.935,499.625,556.071,504.911Z" transform="translate(-396.223 -358.962)" fill="#fbbebe"/>
  <path id="Path_647" data-name="Path 647" d="M582.786,526.849s-2.609-3.5-8.786-2.54" transform="translate(-431.588 -385.361)" fill="none" stroke="#000" stroke-miterlimit="10" stroke-width="1" opacity="0.1"/>
  <path id="Path_648" data-name="Path 648" d="M529.24,536.63l-1.991,4.563s2.2,5.047,6.453,4.292l2.617-4.742S530.41,540.128,529.24,536.63Z" transform="translate(-397.674 -394.42)" opacity="0.1"/>
  <path id="Path_649" data-name="Path 649" d="M528.241,537.63l-1.991,4.563s2.2,5.047,6.453,4.292l2.617-4.742S529.41,541.128,528.241,537.63Z" transform="translate(-396.948 -395.146)" fill="#ff4d4d"/>
  <path id="Path_650" data-name="Path 650" d="M670.966,360.094a4.913,4.913,0,0,0-.824.324c-.513-.275-.824-.563-.8-.783.118-.868,3-4.805,3-4.805a8.049,8.049,0,0,0,1.318.236A4.6,4.6,0,0,1,670.966,360.094Z" transform="translate(-500.752 -262.538)" opacity="0.1"/>
  <path id="Path_651" data-name="Path 651" d="M614.8,343.2l-3.844,1.647-4.462,1.373s-10.228-8.306-7.619-8.924a4.46,4.46,0,0,0,1.285-.549c1.538,2.021,5.168,4.119,5.168,4.119,3.037,1.1,5.8-.906,7.284-2.35A24.84,24.84,0,0,0,614.8,343.2Z" transform="translate(-449.324 -249.422)" opacity="0.1"/>
  <path id="Path_652" data-name="Path 652" d="M591.845,340.718a45.194,45.194,0,0,0-4.942,2.54l-2.54,4.393s.069,2.471,0,4.119-1.991,1.442-1.991,1.442l-.093.038c-.491.206-2.8,1.175-2.8,1.2s-4.728-.48-4.728-.48l-9.267-1.51s-2.952-.137-3.913-1.1l-.027-.027c-.928-.947-.577-1.631.92-2.787s.343-2.952.343-2.952a23.362,23.362,0,0,1-.824-4.736c0-1.785-.892-1.716-.892-1.716s-.618,0,2.128-1.785-.343-10.091.618-8.924,2.746.549,2.883-.137,2.952.892,2.952.892,1.236-.755,1.647,0a.9.9,0,0,0,1.1.48c.686,2.265,5.766,5.217,5.766,5.217,4.53,1.647,8.443-3.638,8.443-3.638s1.51.412,1.716,1.035,1.922.593,1.922.593,2.059.225,2.128.843,2.059,1.442,2.059,1.442A4.661,4.661,0,0,1,591.845,340.718Z" transform="translate(-422.181 -243.162)" fill="#fff"/>
  <path id="Path_653" data-name="Path 653" d="M583.727,411.878l-.093.588c-.491.206-2.8,1.175-2.8,1.2s-4.728-.48-4.728-.48l-9.267-1.51s-2.952-.137-3.913-1.1l-.027-.027.027-.522,1.51-.275s14.827.824,16.886,1.785Z" transform="translate(-423.535 -302.378)" opacity="0.1"/>
  <path id="Path_654" data-name="Path 654" d="M580.35,493.121c0,.341-.016.533-.016.533s-2.883-4.462-6.658-2.265a4.84,4.84,0,0,1-2.891.717,4.577,4.577,0,0,1-1.5-.39,5.908,5.908,0,0,1-2.065-1.562s-6.59,1.373-8.855,3.226-4.119-.549-4.119-.549-.645,2.82-1.45,3.514c-1.068-.45-2-.988-1.845-1.455.343-1.03,2.746-6.041,2.746-6.041l12.15-1.1L569.3,490.8l.047-2.3,9.336.892,1.648,3.707Z" transform="translate(-414.857 -358.962)" opacity="0.1"/>
  <path id="Path_655" data-name="Path 655" d="M543.53,411.75s14.827.824,16.886,1.785l2.4.343-.412,2.608s3.913,4.05,5.08,4.53.618,16.955.618,16.955-2.883-4.462-6.658-2.265-6.453-1.236-6.453-1.236-6.59,1.373-8.855,3.226-4.119-.549-4.119-.549-.755,3.295-1.647,3.638-1.1,2.54-1.1,2.54-2.471-.481-2.471-1.236a1.883,1.883,0,0,0-.549-1.579,5.446,5.446,0,0,1-.549-2.334s.275-2.059-.618-2.883-.824-4.324-.824-4.324-.414-2.265,0-2.814.687-4.256.687-4.256,1.373-3.844,2.128-5.286,4.393-3.913,4.393-3.913h.4l.137-2.677Z" transform="translate(-402.628 -303.829)" fill="#47d147"/>
  <circle id="Ellipse_118" data-name="Ellipse 118" cx="0.434" cy="0.434" r="0.434" transform="translate(156.896 112.841)" fill="#3f3d56"/>
  <circle id="Ellipse_119" data-name="Ellipse 119" cx="0.434" cy="0.434" r="0.434" transform="translate(154.584 122.682)" fill="#3f3d56"/>
  <circle id="Ellipse_120" data-name="Ellipse 120" cx="0.434" cy="0.434" r="0.434" transform="translate(157.629 119.34)" fill="#3f3d56"/>
  <path id="Path_656" data-name="Path 656" d="M557.577,424h.549s-3.295,7.551-3.476,5.445S557.577,424,557.577,424Z" transform="translate(-417.545 -312.716)" opacity="0.1"/>
  <path id="Path_657" data-name="Path 657" d="M573.262,426s-3.753,5.766-1.922,6.59,3.476-6.315,3.476-6.315Z" transform="translate(-429.292 -314.167)" opacity="0.1"/>
  <path id="Path_658" data-name="Path 658" d="M597.83,438.12s1.419,8.753,3.02,10.447a1.767,1.767,0,0,1-.275,2.883s5.629.5,7.414.868,4.53-.412,3.432-1.142-.181-8.512-.091-8.88S607.808,449.045,597.83,438.12Z" transform="translate(-448.874 -322.959)" opacity="0.1"/>
  <path id="Path_659" data-name="Path 659" d="M575.67,382.73c.318-.137,5.445-7.337,6.68-6.757S575.67,382.73,575.67,382.73Z" transform="translate(-432.799 -277.851)" opacity="0.1"/>
  <path id="Path_660" data-name="Path 660" d="M573.848,377.5s-2.059,3.157-1.464,3.707S573.848,377.5,573.848,377.5Z" transform="translate(-430.337 -278.983)" opacity="0.1"/>
  <path id="Path_661" data-name="Path 661" d="M588.07,334s2.087,4.165,1.491,4.942S588.07,334,588.07,334Z" transform="translate(-441.794 -247.427)" opacity="0.1"/>
  <path id="Path_662" data-name="Path 662" d="M670.473,354.83s-.412,2.427-.961,2.518S670.473,354.83,670.473,354.83Z" transform="translate(-500.787 -262.538)" opacity="0.1"/>
  <path id="Path_663" data-name="Path 663" d="M637.33,357.67s5.813,1.422,6.271,1.741S638.565,359.729,637.33,357.67Z" transform="translate(-477.529 -264.598)" opacity="0.1"/>
  <path id="Path_664" data-name="Path 664" d="M710.307,365.291s-.73-2.839-1.691-2.792S710.307,365.291,710.307,365.291Z" transform="translate(-529.089 -268.101)" opacity="0.1"/>
  <path id="Path_665" data-name="Path 665" d="M676.451,288.835c-.357.739-1.134,1.329-1.123,2.15a5.771,5.771,0,0,0,.275,1.134,2.29,2.29,0,0,1-.549,1.845,3.934,3.934,0,0,1-1.628,1.1,2.023,2.023,0,0,0-.977.585c-.36.519-.047,1.211.1,1.826a2.117,2.117,0,0,1-1.123,2.537c-.519.165-1.139.052-1.568.384s-.472,1-.739,1.491a1.172,1.172,0,1,1-2.139-.077,1.406,1.406,0,0,1-1.568-.64,1.872,1.872,0,0,1,.014-1.647,6.17,6.17,0,0,1,.983-1.406,20.715,20.715,0,0,0,2.982-4.585,11.932,11.932,0,0,0,1.151-5.316,4.062,4.062,0,0,0-.31-1.587,3.937,3.937,0,0,0-1.082-1.312c-.228-.2-.47-.384-.706-.574-.165-.132-.329-.275-.486-.4-.214-.19-1.065-.884-1-1.219.038-.192.615-.165,1.118-.17a2.732,2.732,0,0,0,.549-.044.549.549,0,0,0,.113-.033,4.327,4.327,0,0,1,.519-.255,1.722,1.722,0,0,1,1.463.486,18.188,18.188,0,0,0,1.922,1.392,3.756,3.756,0,0,0,2.265.549,2.053,2.053,0,0,1,.763-.033c.486.129.7.686.824,1.175A4.06,4.06,0,0,1,676.451,288.835Z" transform="translate(-497.767 -210.124)" fill="#3f3d56"/>
  <path id="Path_666" data-name="Path 666" d="M567.741,237.7a2.831,2.831,0,0,0-.313.055,5.064,5.064,0,0,0-.846.321,12.388,12.388,0,0,0-1.373.824l-3.383,2.213a2.79,2.79,0,0,0-.824.708,2.052,2.052,0,0,0,.8,2.641c.384.275.824.467,1.2.747a1.647,1.647,0,0,1,.736,1.153c.041.717-.618,1.28-1.279,1.551a9.083,9.083,0,0,0-1.982.8,1.142,1.142,0,0,1-.4.225.868.868,0,0,1-.5-.1,20.747,20.747,0,0,1-2.987-1.54.4.4,0,0,1,.124.431,5.964,5.964,0,0,1-3.408-8.69,17.361,17.361,0,0,0,1.1-1.793,2.2,2.2,0,0,0,0-2.018c-.275-.409-.755-.684-.9-1.153a1.594,1.594,0,0,1,.513-1.414c.794-.824,1.889-1.318,2.765-2.07a2.729,2.729,0,0,0,1.041-3.04c-.4-.824-1.458-1.436-1.28-2.334a1.59,1.59,0,0,1,.761-.947A4.522,4.522,0,0,1,561.7,224a1.013,1.013,0,0,1,.431-1.1.986.986,0,0,1,1.17.135,5.007,5.007,0,0,0,.39.442.376.376,0,0,0,.524-.022.517.517,0,0,0,.058-.275,3.45,3.45,0,0,1,.379-1.453,11.04,11.04,0,0,1,1.3,9.97,3.939,3.939,0,0,0-.365,1.442,2.674,2.674,0,0,0,1.971,2.155l.052.016c.3.1.824.184,1.329.324.664.184,1.3.464,1.373.988C570.46,237.48,568.609,237.584,567.741,237.7Z" transform="translate(-415.993 -165.984)" fill="#3f3d56"/>
  <path id="Path_667" data-name="Path 667" d="M529.788,252.5c-.5.549-3.111,6.727-3.111,6.727.217,1.513,4.827,3.311,6.779,4.006.527.189.862.3.862.3l1.875,1.647s-1.922,10.618-2.076,8.009-3.553-3.937-3.553-3.937-.89-.362-1.955-.854c-1.494-.684-3.339-1.612-3.57-2.12-.412-.87-.961-1.145-3.8-3.707s-.961-4.668-.868-4.942c.456-1.373,5.033-7.433,5.033-7.433l6.625-8.081s1.829-7.5,6.425-4.577-5.236,9.931-5.236,9.931S530.291,251.955,529.788,252.5Z" transform="translate(-392.181 -176.962)" fill="#fbbebe"/>
  <path id="Path_668" data-name="Path 668" d="M559.794,334.864s-1.922,10.618-2.076,8.009-3.553-3.937-3.553-3.937-.89-.362-1.955-.854c.343-2.433,2.875-4.165,4.846-5.162.527.189.862.3.862.3Z" transform="translate(-415.78 -246.644)" opacity="0.1"/>
  <path id="Path_669" data-name="Path 669" d="M563.351,331.084l-2.013-1.834s-13.02,4.119-4.234,11.922h3.7l3.394-4.509Z" transform="translate(-417.122 -243.982)" fill="#fff"/>
  <path id="Path_670" data-name="Path 670" d="M622.564,326.548c.028.091.058.181.088.274a9.9,9.9,0,0,1-10.472-3.83,18.19,18.19,0,0,0,1.8-2.326s10.091-.48,8.512,1.922C621.881,323.519,622.089,325.04,622.564,326.548Z" transform="translate(-459.284 -237.726)" opacity="0.1"/>
  <path id="Path_671" data-name="Path 671" d="M625.259,281.155a9.846,9.846,0,1,1-2.884-7A9.885,9.885,0,0,1,625.259,281.155Z" transform="translate(-454.431 -201.921)" fill="#fbbebe"/>
  <path id="Path_672" data-name="Path 672" d="M625.5,281.1a9.846,9.846,0,0,1-.769,3.825,4.45,4.45,0,0,1-1.683.027,1,1,0,0,1-.6-.275,1.1,1.1,0,0,1-.2-.549q-.157-.914-.308-1.823a3.286,3.286,0,0,1-2.746-.376c-.824-.467-1.549-1.118-2.351-1.647a3.8,3.8,0,0,0-2.7-.736,4.57,4.57,0,0,0-1.444.607A10.1,10.1,0,0,0,610.229,282a4.6,4.6,0,0,1-1.628,1.458,1.724,1.724,0,0,1-2.15-1.1,9.675,9.675,0,0,1-.107-1.576,1.225,1.225,0,0,0-.524-.912,9.885,9.885,0,0,1,19.7,1.216Z" transform="translate(-454.671 -201.871)" opacity="0.1"/>
  <path id="Path_673" data-name="Path 673" d="M603.172,271.412a9.694,9.694,0,0,0,.107,1.576,1.724,1.724,0,0,0,2.15,1.1,4.652,4.652,0,0,0,1.628-1.458,10.094,10.094,0,0,1,2.471-1.848,4.571,4.571,0,0,1,1.444-.607,3.86,3.86,0,0,1,2.7.736c.8.519,1.516,1.172,2.35,1.647a3.264,3.264,0,0,0,2.746.376l.307,1.823a1.1,1.1,0,0,0,.2.549,1,1,0,0,0,.6.275,4.444,4.444,0,0,0,2.046-.118,1.174,1.174,0,0,0,.8-.571,1.282,1.282,0,0,0,.082-.434,23.81,23.81,0,0,0-1.587-10.291A7.2,7.2,0,0,0,619.139,261a8.391,8.391,0,0,0-1.922-1.016c-2.054-.87-4.317-1.757-6.461-1.134a9.719,9.719,0,0,0-2.606,1.373l-3.844,2.551a2.4,2.4,0,0,0-.549.453,2.62,2.62,0,0,0-.415.906,17.57,17.57,0,0,1-1.576,3.536,1.757,1.757,0,0,0-.3.733,1.676,1.676,0,0,0,.159.706c.2.514.275.9.725,1.2A1.415,1.415,0,0,1,603.172,271.412Z" transform="translate(-451.515 -192.759)" fill="#3f3d56"/>
  <g id="Group_135" data-name="Group 135" transform="translate(136.765 59.027)" opacity="0.1">
    <path id="Path_674" data-name="Path 674" d="M563.132,303.865a9.219,9.219,0,0,0-1.982.8,1.143,1.143,0,0,1-.4.225.867.867,0,0,1-.5-.1,20.528,20.528,0,0,1-3.02-1.568.4.4,0,0,1,.165.458,6.057,6.057,0,0,1-3.811-3.523c-.22-.563.041.6,0,0-.06.876-.318,0,0,.824a6.057,6.057,0,0,0,3.8,3.523.4.4,0,0,0-.165-.459,20.529,20.529,0,0,0,3.02,1.568.867.867,0,0,0,.5.1,1.142,1.142,0,0,0,.4-.225,8.952,8.952,0,0,1,1.982-.8c.662-.269,1.321-.824,1.28-1.551a1.153,1.153,0,0,0-.08-.349A2.133,2.133,0,0,1,563.132,303.865Z" transform="translate(-553.432 -281.792)"/>
    <path id="Path_675" data-name="Path 675" d="M600.17,247.932a1.636,1.636,0,0,0,.049.349,7.1,7.1,0,0,1,.316-.966,10.711,10.711,0,0,0,.634-4.064,10.628,10.628,0,0,1-.634,3.24A3.933,3.933,0,0,0,600.17,247.932Z" transform="translate(-587.337 -240.622)"/>
    <path id="Path_676" data-name="Path 676" d="M678.868,289.415a5.47,5.47,0,0,0-1.738-1.845c.077.327.145.656.209.988a4.893,4.893,0,0,1,1.529,1.68,3.977,3.977,0,0,1,.308,1.507V291A4.064,4.064,0,0,0,678.868,289.415Z" transform="translate(-643.166 -272.773)"/>
    <path id="Path_677" data-name="Path 677" d="M568.31,236c.082-.4.3-.228.121-.61-.3-.621-.975-1.12-1.214-1.713a1.046,1.046,0,0,0-.066.2c-.178.9.763,1.293,1.159,2.12C568.367,236.121,568.065,235.415,568.31,236Z" transform="translate(-563.368 -233.68)"/>
    <path id="Path_678" data-name="Path 678" d="M589.511,276.92a2.033,2.033,0,0,0-.275.049,7.933,7.933,0,0,0-2.219,1.137l-3.383,2.213a2.786,2.786,0,0,0-.824.708,1.5,1.5,0,0,0-.184,1.227,1.306,1.306,0,0,1,.184-.4,2.786,2.786,0,0,1,.824-.708l3.383-2.213a8.106,8.106,0,0,1,2.158-1.118C589.294,277.516,589.407,277.217,589.511,276.92Z" transform="translate(-574.569 -265.047)"/>
    <path id="Path_679" data-name="Path 679" d="M694.211,317.11a2.51,2.51,0,0,1-.527,1.082,3.934,3.934,0,0,1-1.628,1.1,2.026,2.026,0,0,0-.978.585,1.271,1.271,0,0,0-.107,1.035.861.861,0,0,1,.107-.211,1.966,1.966,0,0,1,.977-.585,3.934,3.934,0,0,0,1.628-1.1,2.29,2.29,0,0,0,.549-1.845A.121.121,0,0,0,694.211,317.11Z" transform="translate(-653.16 -294.202)"/>
    <path id="Path_680" data-name="Path 680" d="M703.133,300.194c-.357.739-1.134,1.329-1.123,2.15a1.586,1.586,0,0,0,.063.406,14.535,14.535,0,0,1,1.06-1.733,3.018,3.018,0,0,0,.222-1.647A2.568,2.568,0,0,1,703.133,300.194Z" transform="translate(-661.214 -281.333)"/>
    <path id="Path_681" data-name="Path 681" d="M619.324,300.17a1,1,0,0,0,.6.275,4.447,4.447,0,0,0,2.046-.118,1.175,1.175,0,0,0,.8-.571,1.283,1.283,0,0,0,.083-.434c.046-.675.06-1.351.046-2.026,0,.4-.019.8-.047,1.2a1.276,1.276,0,0,1-.082.434,1.175,1.175,0,0,1-.8.571,4.447,4.447,0,0,1-2.046.118,1,1,0,0,1-.6-.275,1.1,1.1,0,0,1-.2-.549q-.156-.914-.308-1.823a3.286,3.286,0,0,1-2.746-.376c-.824-.467-1.549-1.117-2.35-1.647a3.8,3.8,0,0,0-2.7-.736,4.571,4.571,0,0,0-1.444.607,10.1,10.1,0,0,0-2.471,1.848,4.6,4.6,0,0,1-1.628,1.458,1.724,1.724,0,0,1-2.15-1.1,9.687,9.687,0,0,1-.107-1.576,1.416,1.416,0,0,0-.824-1.12c-.453-.3-.527-.684-.725-1.2-.025-.066-.052-.137-.074-.206a1.027,1.027,0,0,0-.085.324,1.674,1.674,0,0,0,.159.706c.2.513.274.9.725,1.2a1.453,1.453,0,0,1,.824,1.12,9.688,9.688,0,0,0,.107,1.576,1.724,1.724,0,0,0,2.15,1.1,4.651,4.651,0,0,0,1.628-1.458,10.1,10.1,0,0,1,2.471-1.848,4.573,4.573,0,0,1,1.444-.607,3.859,3.859,0,0,1,2.7.736c.8.519,1.516,1.172,2.35,1.647a3.263,3.263,0,0,0,2.746.376q.154.912.308,1.823A1.1,1.1,0,0,0,619.324,300.17Z" transform="translate(-588.309 -276.661)"/>
    <path id="Path_682" data-name="Path 682" d="M671.422,339c-.519.165-1.139.052-1.568.384s-.472,1-.739,1.491a1.708,1.708,0,0,1-2.235.67,1.729,1.729,0,0,1,.1-.747,1.406,1.406,0,0,1-1.568-.64,1.446,1.446,0,0,1-.14-.36,1.69,1.69,0,0,0,.14,1.183,1.406,1.406,0,0,0,1.568.64,1.73,1.73,0,0,0-.1.747,1.708,1.708,0,0,0,2.235-.67c.275-.494.294-1.145.739-1.491s1.049-.22,1.568-.384a2.073,2.073,0,0,0,1.156-2.364A1.829,1.829,0,0,1,671.422,339Z" transform="translate(-634.525 -308.965)"/>
  </g>
  <path id="Path_683" data-name="Path 683" d="M606.141,271.534a9.867,9.867,0,0,1-1.2,2.062,2.827,2.827,0,0,0-.313.055,5.066,5.066,0,0,0-.846.321,17.147,17.147,0,0,1,1.035-2.762C605.117,271.309,605.636,271.394,606.141,271.534Z" transform="translate(-453.191 -201.878)" fill="#6c63ff"/>
  <path id="Path_684" data-name="Path 684" d="M676.691,286.148c-.228-.2-.47-.384-.706-.574-.137-.549-.275-1.205-.365-1.79a2.717,2.717,0,0,0,.549-.044A7.558,7.558,0,0,1,676.691,286.148Z" transform="translate(-505.305 -210.968)" fill="#6c63ff"/>
  <path id="Path_685" data-name="Path 685" d="M891.5,345.884c.085-.041.167-.082.25-.129-.167-.033-.335-.071-.5-.113-.118.033-.239.058-.36.085a13.528,13.528,0,0,1-6.041-3.644,9.527,9.527,0,0,1-2.823-6.48c.019-1.752.662-3.46.643-5.217s-1.041-3.737-2.831-3.935a13.072,13.072,0,0,0-1.875.115,1.5,1.5,0,0,1-1.675-2.188c.478-1.343,1.551-2.427,2.013-3.775a4.534,4.534,0,0,0,.123-2.488,2.494,2.494,0,0,0-1.164-1.705c-1.06-.549-2.32.088-3.5.31-2.015.384-4.061-.491-5.8-1.562a25.345,25.345,0,0,0-5.313-3,12.788,12.788,0,0,0-3.943-.511,3.457,3.457,0,0,0-2.323.6c-.03.027-.052.058-.082.085a2.132,2.132,0,0,1,.239-.48,1.717,1.717,0,0,0-.255.189c-1.26,1.112-.379,3.235-1.12,4.723a2.471,2.471,0,0,1-.3.461,3.621,3.621,0,0,0,.489-.45c-.027.066-.052.132-.085.2a4.46,4.46,0,0,1-2.2,1.8,7.27,7.27,0,0,0-2.446,1.538c-.016.017-.028.033-.044.052a2.688,2.688,0,0,1,.439-.725,3.591,3.591,0,0,0-.5.464c-.689.8-.741,1.464-.434,1.974a2.369,2.369,0,0,0,1.672,1.216c-.038.173-.074.346-.1.522a8.711,8.711,0,0,0-.1,1.318,8.576,8.576,0,0,0,6.82,8.3,4.936,4.936,0,0,1-.044.549c-.132,1.247-.516,2.6-1.524,2.927-.942-.321-2.828,1.1-3.251,1.51s-1.922.044-3.3.091a2.764,2.764,0,0,1-1.837-.365,7.822,7.822,0,0,0-.049,2.241c.143,1.373-.988,1.42-.988,1.42a6.737,6.737,0,0,1-.275,2.974,3.336,3.336,0,0,0-.376,1.881s1.6-.137,1.458.412a.488.488,0,0,0,.093.365l-.016.524-.217,7.254-.423,4.325a.731.731,0,0,0-.472.434c-.382.868-1,2.024-1.48,2.908-1.963,1.189-4.912,3.394-4.078,5.513,1.225,3.114,2.968,2.7,4,2.334s2.886-3.248,2.886-3.248.612-1.145,1.082-1.145a6.09,6.09,0,0,0,.75-.08v.08s-.988,3.891-.659,4.852a4.713,4.713,0,0,1,.047,2.2,13.226,13.226,0,0,0,.093,3.753c.368.917-.51,3.38-.51,3.38s.252.077.689.184c-.033.157-.071.33-.112.522-.577,2.726-1.612,8.951-.434,14.075,0,0,.659,2.746.752,3.482a5.354,5.354,0,0,1,.275,3.02c-.384,1.647.752,4.671.752,4.671a13.988,13.988,0,0,1,.236,4.209c-.329,1.326,3.438,16.2,3.438,16.2l.615-.088.137.53.612,2.361.066.258a2.034,2.034,0,0,0-1.1.692s-1.647,3.753-3.72,4.805c-.549.275-1.222.643-1.87,1.041-1.85,1.131-3.437,2.493-.741,2.529,2.954.038,7.809.195,9.55.253a4.155,4.155,0,0,0,1.963.3c4.849-.091,11.727-.6,11.87-1.052.069-.222-.219-.695-.533-1.12s-.695-.848-.695-.848l-.14-4.165s-.4-.357-1.008-.848l-.022-.291-.307-4.017-.041-.549a1.588,1.588,0,0,0,.577-.25l.332-4.16a24.142,24.142,0,0,0-.566-13.775s-2.26-4.712-1.647-6.406l.1-3.616s1.082-4.259,1.6-5.4a29.256,29.256,0,0,0,1.615-5.458,12.746,12.746,0,0,0,1.554-6.864l1.318-4.119,1.837-5.261s.519-3.2.708-3.844a29.458,29.458,0,0,0,0-4.119s1.592-12.685.261-17.641v-.19h.014v-.275c.022-.025,1.45-1.513.8-1.922a20.727,20.727,0,0,1-2.287-2.77c-.1-.118-.195-.225-.275-.321a9.417,9.417,0,0,0,2.265-2.515c.231-.376.513-.824.964-.843a1.217,1.217,0,0,1,.673.222c3.451,2.068,4.006,7.238,7.644,8.976a5.431,5.431,0,0,0,4.857-.14ZM863.893,428.57l-.03.275a1.481,1.481,0,0,0-.343.17,11.137,11.137,0,0,1-.755,2.608,2.275,2.275,0,0,0-.349.615l-.069-.124c-.022.049-.047.1-.069.151l-.126-.231-.036-.275-.785-6.071a27.822,27.822,0,0,1,.022-5.368c.33-1.831.275-8.237-1.837-10.8,0,0-.988-2.334-.093-3.844l.14-9.522.329-.321.047,8.786a8.86,8.86,0,0,0,2.12,5.036l.332,4.621a43.257,43.257,0,0,0,1.128,7.825v4.3s.228.038.593.091l-.058.549Z" transform="translate(-625.61 -231.209)" fill="url(#linear-gradient-2)"/>
  <path id="Path_686" data-name="Path 686" d="M906.243,373.462l-1.969,4.393-.728.426-4.9,2.869s-6.178-.6-6.359-.686-.472-5.338,1.126-6.442a1.054,1.054,0,0,1,.288-.146h0c.98-.329,1.354-1.68,1.483-2.927.019-.184.033-.362.041-.549a13.025,13.025,0,0,0,0-1.752s1.5-1.5,3.295-3.051c3.182-2.746,7.3-5.643,5.719-.7a16.5,16.5,0,0,0-.642,2.729c-.033.217-.055.428-.071.629-.192,2.433.568,3.745,1.334,4.443.082.077.168.143.25.206a3.019,3.019,0,0,0,1.134.56Z" transform="translate(-662.375 -267.897)" fill="#cf6f80"/>
  <path id="Path_687" data-name="Path 687" d="M843.707,715.652l-.686.319-4.621-1.052-.412-1.636-.6-2.361-.412-1.631h5.928l.763,6.076Z" transform="translate(-607.162 -514.535)" fill="#cf6f80"/>
  <path id="Path_688" data-name="Path 688" d="M901.033,744.9l-4.621-1.052L896,742.2c1.752-.525,4.3.95,4.3.95-.167.582,1.148,1.054,1.373,1.134l.036.275Z" transform="translate(-665.174 -543.465)" opacity="0.1"/>
  <path id="Path_689" data-name="Path 689" d="M907.665,753.942l-3.314,3.248-1.17,1.145-.634-.022c-1.194-.67.354-2.3,1.389-3.2.2-.179.387-.327.527-.437a10.1,10.1,0,0,0,1.881-3.215Z" transform="translate(-669.61 -550.263)" opacity="0.1"/>
  <path id="Path_690" data-name="Path 690" d="M906.344,751.46l1.321,2.471-3.314,3.248-1.17,1.156-.634-.022c-1.194-.67.354-2.3,1.389-3.2.2-.179.387-.327.527-.437A10.1,10.1,0,0,0,906.344,751.46Z" transform="translate(-669.61 -550.263)" opacity="0.1"/>
  <path id="Path_691" data-name="Path 691" d="M928.417,742.05l-6.087-2.059.181-1.738c1.587-.549,4.346,1.447,5.821,2.658Z" transform="translate(-684.275 -540.615)" opacity="0.1"/>
  <path id="Path_692" data-name="Path 692" d="M880.623,748.173l-3.314,3.248-1.17,1.145s-6.362-.228-9.9-.274c-2.619-.036-1.079-1.4.719-2.529.631-.4,1.293-.766,1.818-1.041,2.013-1.052,3.613-4.805,3.613-4.805,1.51-1.922,5.31.275,5.31.275-.184.64,1.417,1.145,1.417,1.145Z" transform="translate(-642.568 -544.219)" fill="#3f3d56"/>
  <path id="Path_693" data-name="Path 693" d="M877.309,768.948l-1.17,1.145s-6.362-.228-9.9-.274c-2.619-.036-1.079-1.4.719-2.529a2.875,2.875,0,0,1,2.273,1.648Z" transform="translate(-642.568 -561.747)" opacity="0.1"/>
  <path id="Path_694" data-name="Path 694" d="M873.067,714.157,866.98,712.1l.181-1.738.157-1.518.211-2.051h4.989l.165,2.21.3,4.017Z" transform="translate(-628.924 -512.721)" fill="#cf6f80"/>
  <path id="Path_695" data-name="Path 695" d="M915.995,748.908c-.137.456-6.82.961-11.532,1.052-4.091.079-1.875-2.323-.527-3.5.2-.179.387-.327.527-.437,1.052-.824,2.013-3.8,2.287-3.981a11.356,11.356,0,0,0,.733-2.609c2.059-1.466,7.183,3.339,7.183,3.339l.137,4.165s.352.4.675.849S916.06,748.685,915.995,748.908Z" transform="translate(-669.609 -541.338)" fill="#3f3d56"/>
  <path id="Path_696" data-name="Path 696" d="M915.995,768.206c-.137.456-6.82.961-11.532,1.052-4.091.08-1.875-2.323-.527-3.5a6.067,6.067,0,0,1,2.586,2.078h5.261a30.7,30.7,0,0,0,3.7-.752C915.78,767.512,916.06,767.984,915.995,768.206Z" transform="translate(-669.609 -560.637)" opacity="0.1"/>
  <path id="Path_697" data-name="Path 697" d="M898.222,728c.03.5.058.824.058.824l-5.538.807L892.33,728Z" transform="translate(-662.512 -533.245)" opacity="0.1"/>
  <path id="Path_698" data-name="Path 698" d="M928.925,727.71c-1.354.376-4.2.014-5.365-.159l.212-2.051h4.989Z" transform="translate(-685.167 -531.431)" opacity="0.1"/>
  <path id="Path_699" data-name="Path 699" d="M890.312,583.14a24.82,24.82,0,0,1,.549,13.775l-.321,4.165c-1.145.914-6.406,0-6.406,0v-4.3a45.134,45.134,0,0,1-1.1-7.825l-.321-4.621a9.008,9.008,0,0,1-2.059-5.036l-.046-8.786-.319.321-.137,9.52c-.87,1.51.091,3.844.091,3.844,2.059,2.562,2.106,8.968,1.785,10.8a30.979,30.979,0,0,0,0,5.629l-6.269.914s-3.663-14.871-3.342-16.2a14.342,14.342,0,0,0-.228-4.209s-1.1-3.021-.733-4.668a5.558,5.558,0,0,0-.275-3.02c-.091-.733-.733-3.479-.733-3.479-1.142-5.124-.137-11.348.423-14.075.178-.876.31-1.392.31-1.392s17.023-4.943,19.907-.824a5.912,5.912,0,0,1,.78,1.623c1.409,4.451-1.068,11.417-1.513,12.427-.5,1.142-1.554,5.4-1.554,5.4l-.093,3.616C888.116,578.428,890.312,583.14,890.312,583.14Z" transform="translate(-646.26 -405.593)" fill="#3f3d56"/>
  <circle id="Ellipse_121" data-name="Ellipse 121" cx="0.184" cy="0.184" r="0.184" transform="translate(239.472 184.184)" fill="#6c63ff"/>
  <circle id="Ellipse_122" data-name="Ellipse 122" cx="0.184" cy="0.184" r="0.184" transform="translate(230.362 188.775)" fill="#6c63ff"/>
  <circle id="Ellipse_123" data-name="Ellipse 123" cx="0.184" cy="0.184" r="0.184" transform="translate(229.725 185.878)" fill="#6c63ff"/>
  <circle id="Ellipse_124" data-name="Ellipse 124" cx="0.184" cy="0.184" r="0.184" transform="translate(230.982 186.106)" fill="#6c63ff"/>
  <circle id="Ellipse_125" data-name="Ellipse 125" cx="0.184" cy="0.184" r="0.184" transform="translate(230.444 187.657)" fill="#6c63ff"/>
  <circle id="Ellipse_126" data-name="Ellipse 126" cx="0.184" cy="0.184" r="0.184" transform="translate(238.695 187.204)" fill="#6c63ff"/>
  <circle id="Ellipse_127" data-name="Ellipse 127" cx="0.184" cy="0.184" r="0.184" transform="translate(242.539 188.256)" fill="#6c63ff"/>
  <circle id="Ellipse_128" data-name="Ellipse 128" cx="0.184" cy="0.184" r="0.184" transform="translate(243.775 187.02)" fill="#6c63ff"/>
  <circle id="Ellipse_129" data-name="Ellipse 129" cx="0.184" cy="0.184" r="0.184" transform="translate(239.84 186.29)" fill="#6c63ff"/>
  <circle id="Ellipse_130" data-name="Ellipse 130" cx="0.184" cy="0.184" r="0.184" transform="translate(232.374 185.035)" fill="#6c63ff"/>
  <circle id="Ellipse_131" data-name="Ellipse 131" cx="0.184" cy="0.184" r="0.184" transform="translate(233.901 186.106)" fill="#6c63ff"/>
  <circle id="Ellipse_132" data-name="Ellipse 132" cx="0.184" cy="0.184" r="0.184" transform="translate(231.276 190.752)" fill="#6c63ff"/>
  <circle id="Ellipse_133" data-name="Ellipse 133" cx="0.184" cy="0.184" r="0.184" transform="translate(231.907 192.97)" fill="#6c63ff"/>
  <circle id="Ellipse_134" data-name="Ellipse 134" cx="0.184" cy="0.184" r="0.184" transform="translate(233.98 193.745)" fill="#6c63ff"/>
  <circle id="Ellipse_135" data-name="Ellipse 135" cx="0.184" cy="0.184" r="0.184" transform="translate(232.739 193.885)" fill="#6c63ff"/>
  <circle id="Ellipse_136" data-name="Ellipse 136" cx="0.184" cy="0.184" r="0.184" transform="translate(231.641 194.931)" fill="#6c63ff"/>
  <circle id="Ellipse_137" data-name="Ellipse 137" cx="0.184" cy="0.184" r="0.184" transform="translate(232.558 187.473)" fill="#6c63ff"/>
  <circle id="Ellipse_138" data-name="Ellipse 138" cx="0.184" cy="0.184" r="0.184" transform="translate(232.558 189.722)" fill="#6c63ff"/>
  <circle id="Ellipse_139" data-name="Ellipse 139" cx="0.184" cy="0.184" r="0.184" transform="translate(233.72 191.202)" fill="#6c63ff"/>
  <circle id="Ellipse_140" data-name="Ellipse 140" cx="0.184" cy="0.184" r="0.184" transform="translate(232.665 191.869)" fill="#6c63ff"/>
  <circle id="Ellipse_141" data-name="Ellipse 141" cx="0.184" cy="0.184" r="0.184" transform="translate(230.543 194.931)" fill="#6c63ff"/>
  <circle id="Ellipse_142" data-name="Ellipse 142" cx="0.184" cy="0.184" r="0.184" transform="translate(233.799 192.256)" fill="#6c63ff"/>
  <circle id="Ellipse_143" data-name="Ellipse 143" cx="0.184" cy="0.184" r="0.184" transform="translate(242.539 185.694)" fill="#6c63ff"/>
  <circle id="Ellipse_144" data-name="Ellipse 144" cx="0.184" cy="0.184" r="0.184" transform="translate(240.732 188.256)" fill="#6c63ff"/>
  <circle id="Ellipse_145" data-name="Ellipse 145" cx="0.184" cy="0.184" r="0.184" transform="translate(239.472 192.053)" fill="#6c63ff"/>
  <circle id="Ellipse_146" data-name="Ellipse 146" cx="0.184" cy="0.184" r="0.184" transform="translate(239.06 194.571)" fill="#6c63ff"/>
  <circle id="Ellipse_147" data-name="Ellipse 147" cx="0.184" cy="0.184" r="0.184" transform="translate(241.213 186.655)" fill="#6c63ff"/>
  <circle id="Ellipse_148" data-name="Ellipse 148" cx="0.184" cy="0.184" r="0.184" transform="translate(240.548 189.354)" fill="#6c63ff"/>
  <circle id="Ellipse_149" data-name="Ellipse 149" cx="0.184" cy="0.184" r="0.184" transform="translate(241.097 191.386)" fill="#6c63ff"/>
  <circle id="Ellipse_150" data-name="Ellipse 150" cx="0.184" cy="0.184" r="0.184" transform="translate(238.214 193.454)" fill="#6c63ff"/>
  <circle id="Ellipse_151" data-name="Ellipse 151" cx="0.184" cy="0.184" r="0.184" transform="translate(239.84 192.786)" fill="#6c63ff"/>
  <circle id="Ellipse_152" data-name="Ellipse 152" cx="0.184" cy="0.184" r="0.184" transform="translate(239.291 193.336)" fill="#6c63ff"/>
  <circle id="Ellipse_153" data-name="Ellipse 153" cx="0.184" cy="0.184" r="0.184" transform="translate(242.539 192.537)" fill="#6c63ff"/>
  <circle id="Ellipse_154" data-name="Ellipse 154" cx="0.184" cy="0.184" r="0.184" transform="translate(242.539 193.154)" fill="#6c63ff"/>
  <circle id="Ellipse_155" data-name="Ellipse 155" cx="0.184" cy="0.184" r="0.184" transform="translate(240.732 194.571)" fill="#6c63ff"/>
  <circle id="Ellipse_156" data-name="Ellipse 156" cx="0.184" cy="0.184" r="0.184" transform="translate(240.205 195.115)" fill="#6c63ff"/>
  <circle id="Ellipse_157" data-name="Ellipse 157" cx="0.184" cy="0.184" r="0.184" transform="translate(241.463 193.454)" fill="#6c63ff"/>
  <circle id="Ellipse_158" data-name="Ellipse 158" cx="0.184" cy="0.184" r="0.184" transform="translate(240.021 194.39)" fill="#6c63ff"/>
  <circle id="Ellipse_159" data-name="Ellipse 159" cx="0.184" cy="0.184" r="0.184" transform="translate(243.22 192.053)" fill="#6c63ff"/>
  <circle id="Ellipse_160" data-name="Ellipse 160" cx="0.184" cy="0.184" r="0.184" transform="translate(243.591 193.154)" fill="#6c63ff"/>
  <circle id="Ellipse_161" data-name="Ellipse 161" cx="0.184" cy="0.184" r="0.184" transform="translate(240.914 192.786)" fill="#6c63ff"/>
  <circle id="Ellipse_162" data-name="Ellipse 162" cx="0.184" cy="0.184" r="0.184" transform="translate(241.463 194.656)" fill="#6c63ff"/>
  <circle id="Ellipse_163" data-name="Ellipse 163" cx="0.184" cy="0.184" r="0.184" transform="translate(242.539 194.39)" fill="#6c63ff"/>
  <circle id="Ellipse_164" data-name="Ellipse 164" cx="0.184" cy="0.184" r="0.184" transform="translate(242.355 195.115)" fill="#6c63ff"/>
  <circle id="Ellipse_165" data-name="Ellipse 165" cx="0.184" cy="0.184" r="0.184" transform="translate(241.463 195.299)" fill="#6c63ff"/>
  <circle id="Ellipse_166" data-name="Ellipse 166" cx="0.184" cy="0.184" r="0.184" transform="translate(242.355 190.642)" fill="#6c63ff"/>
  <circle id="Ellipse_167" data-name="Ellipse 167" cx="0.184" cy="0.184" r="0.184" transform="translate(229.744 192.072)" fill="#6c63ff"/>
  <circle id="Ellipse_168" data-name="Ellipse 168" cx="0.184" cy="0.184" r="0.184" transform="translate(229.744 192.69)" fill="#6c63ff"/>
  <circle id="Ellipse_169" data-name="Ellipse 169" cx="0.184" cy="0.184" r="0.184" transform="translate(230.425 191.592)" fill="#6c63ff"/>
  <circle id="Ellipse_170" data-name="Ellipse 170" cx="0.184" cy="0.184" r="0.184" transform="translate(230.979 193.745)" fill="#6c63ff"/>
  <circle id="Ellipse_171" data-name="Ellipse 171" cx="0.184" cy="0.184" r="0.184" transform="translate(230.795 192.69)" fill="#6c63ff"/>
  <circle id="Ellipse_172" data-name="Ellipse 172" cx="0.184" cy="0.184" r="0.184" transform="translate(229.744 193.926)" fill="#6c63ff"/>
  <circle id="Ellipse_173" data-name="Ellipse 173" cx="0.184" cy="0.184" r="0.184" transform="translate(229.56 190.181)" fill="#6c63ff"/>
  <path id="Path_700" data-name="Path 700" d="M850.48,541.57l.458,14,.5-.368.368-14.415Z" transform="translate(-616.955 -392.301)" opacity="0.1"/>
  <path id="Path_701" data-name="Path 701" d="M861.827,488.79s-3.158-2.976-3.844-1.373-2.153,4.209-2.153,4.209l3.479,3.295s.6-1.145,1.052-1.145a15.053,15.053,0,0,0,1.785-.275Z" transform="translate(-636.034 -358.376)" fill="#cf6f80"/>
  <path id="Path_702" data-name="Path 702" d="M815.518,421.494l-2.106,15.832-.791-1.211-2.641-4.05.412-4.349.211-7.254.063-2.172Z" transform="translate(-587.576 -303.436)" fill="#cf6f80"/>
  <path id="Path_703" data-name="Path 703" d="M912.289,364.928a15.2,15.2,0,0,0-.714,3.358,8.492,8.492,0,0,1-6.4,2.905,8.593,8.593,0,0,1-1.922-.22,13.224,13.224,0,0,0,.027-2.29S914.76,357.193,912.289,364.928Z" transform="translate(-670.433 -267.922)" opacity="0.1"/>
  <path id="Path_704" data-name="Path 704" d="M896.274,339.3a8.478,8.478,0,0,1-2.037,5.527A8.512,8.512,0,0,1,879.25,339.3a8.662,8.662,0,0,1,.1-1.318,8.512,8.512,0,0,1,16.922,1.318Z" transform="translate(-653.024 -245.095)" fill="#cf6f80"/>
  <path id="Path_705" data-name="Path 705" d="M870.044,441.346a14.638,14.638,0,0,1-2.444-2.175l.063-2.172,4.852,3.2-2.106,15.832-.777-1.211a6.115,6.115,0,0,1,.335-1.991c.549-1.1.137-2.793.137-3.342s.777-1.42.73-1.785a21.65,21.65,0,0,0-.275-2.287C870.365,444.551,871.279,442.4,870.044,441.346Z" transform="translate(-644.572 -322.146)" opacity="0.1"/>
  <path id="Path_706" data-name="Path 706" d="M894.367,555.293v.025s-6-.961-10.665.686c-3.828,1.351-8.7.3-10.332-.118.179-.876.31-1.392.31-1.392s17.024-4.943,19.907-.824A5.915,5.915,0,0,1,894.367,555.293Z" transform="translate(-648.758 -405.593)" opacity="0.1"/>
  <path id="Path_707" data-name="Path 707" d="M906.243,401.168l-1.969,4.393-5.629,3.295s-6.178-.6-6.359-.686-.472-5.338,1.126-6.442c-.45,1.269-.942,3.844,2.4,4.061a13.856,13.856,0,0,0,9.042-5.379A3.156,3.156,0,0,0,906.243,401.168Z" transform="translate(-662.375 -295.603)" opacity="0.1"/>
  <path id="Path_708" data-name="Path 708" d="M891.785,410.281l-.093,2.059L886.2,445.105s-5.994-.961-10.662.686-10.892-.275-10.892-.275.87-2.471.505-3.386a13.33,13.33,0,0,1-.093-3.753,4.863,4.863,0,0,0-.044-2.2c-.318-.961.64-4.852.64-4.852s-.228-4.163.321-5.261.137-2.793.137-3.342.777-1.42.73-1.785a21.767,21.767,0,0,0-.274-2.287c-.181-.87.733-3.02-.5-4.075s-2.655-1.966-2.518-2.515-1.417-.412-1.417-.412a3.4,3.4,0,0,1,.365-1.878,6.87,6.87,0,0,0,.274-2.974s1.1-.047.961-1.42a8.022,8.022,0,0,1,.047-2.241,2.644,2.644,0,0,0,1.785.365c1.329-.047,2.79.321,3.2-.091s2.243-1.831,3.158-1.51h0c-.071.14-2.26,4.487,2.109,4.756a13.853,13.853,0,0,0,9.292-5.722s.5-.549,2.15,1.238,3.064,1.1,3.064,1.1l1.831.137s-1.189,1.005-.458,1.691a4.767,4.767,0,0,1,.431.48,21.292,21.292,0,0,0,2.224,2.77C893.2,408.771,891.785,410.281,891.785,410.281Z" transform="translate(-640.594 -295.93)" fill="#06f"/>
  <path id="Path_709" data-name="Path 709" d="M849.166,496s-6.727,3.295-5.538,6.406,2.883,2.7,3.891,2.334,2.836-3.248,2.836-3.248Z" transform="translate(-627.08 -364.946)" fill="#cf6f80"/>
  <path id="Path_710" data-name="Path 710" d="M931.235,428.93c0,.294-1.716,4,0,4.962S931.235,428.93,931.235,428.93Z" transform="translate(-690.181 -316.292)" opacity="0.1"/>
  <path id="Path_711" data-name="Path 711" d="M879.6,424.25s-2.424,2.608-1.419,2.883S879.6,424.25,879.6,424.25Z" transform="translate(-652.074 -312.897)" opacity="0.1"/>
  <path id="Path_712" data-name="Path 712" d="M932.646,432.74s1.052,6.5,1.1,8.421.321,5.033.321,5.033.777,7.414-.412,10.434a17,17,0,0,0-1.008,6.315s-3.479,6.774-3.981,7.46.412,7.186,4.072,4.44,3.2-8.742,3.2-8.742l1.282-4.119,1.785-5.261s.5-3.2.686-3.844a30.315,30.315,0,0,0,0-4.119s2.15-17.619-.733-19.451S932.646,432.74,932.646,432.74Z" transform="translate(-688.778 -316.285)" fill="#cf6f80"/>
  <path id="Path_713" data-name="Path 713" d="M941.108,425.346s4.3-4.714,5.629-4.3,1.694.231,1.694.231.181-2.608-1.785-3.569-4.119-3.891-5.766-.412S941.108,425.346,941.108,425.346Z" transform="translate(-697.24 -306.648)" opacity="0.1"/>
  <path id="Path_714" data-name="Path 714" d="M941.108,424.346s4.3-4.714,5.629-4.3,1.694.231,1.694.231.181-2.608-1.785-3.569-4.119-3.891-5.766-.412S941.108,424.346,941.108,424.346Z" transform="translate(-697.24 -305.922)" fill="#06f"/>
  <path id="Path_715" data-name="Path 715" d="M903.014,354.773a8.712,8.712,0,0,1-1,.744,7.413,7.413,0,0,1-2.88,1.1,6.432,6.432,0,0,1-2.6-.146,6.288,6.288,0,0,1-2.1-.975,5.335,5.335,0,0,1-1.59-1.765c-.055-.1-.1-.2-.151-.3-.923-1.944-.675-4.259-1.082-6.4-.03-.151-.063-.3-.1-.456a7.468,7.468,0,0,0-2.114-3.753,23.216,23.216,0,0,0-5.492-3.353,10.031,10.031,0,0,0-3.547-1.3,4.6,4.6,0,0,1-.777-.167,8.512,8.512,0,1,1,14.885,6.845c-.033.217-.055.428-.072.629-.192,2.433.569,3.745,1.335,4.443.082.077.168.143.25.206,0,0,.5-.549,2.15,1.238s3.064,1.1,3.064,1.1l1.831.137s-1.189,1.005-.458,1.691A4.775,4.775,0,0,1,903.014,354.773Z" transform="translate(-653.27 -245.114)" opacity="0.1"/>
  <path id="Path_716" data-name="Path 716" d="M874.405,321.358a6.936,6.936,0,0,1,2.378-1.538,4.325,4.325,0,0,0,2.142-1.8c.719-1.488-.137-3.611,1.1-4.725a3.287,3.287,0,0,1,2.254-.6,12.178,12.178,0,0,1,3.844.511,24.14,24.14,0,0,1,5.162,3c1.686,1.079,3.671,1.947,5.632,1.562,1.145-.222,2.367-.857,3.4-.31a2.5,2.5,0,0,1,1.131,1.705,4.667,4.667,0,0,1-.121,2.488c-.447,1.348-1.493,2.433-1.955,3.775a1.826,1.826,0,0,0,.025,1.527,1.777,1.777,0,0,0,1.615.662,12.292,12.292,0,0,1,1.821-.115c1.741.2,2.746,2.183,2.746,3.935s-.607,3.46-.626,5.217a9.649,9.649,0,0,0,2.746,6.477,13,13,0,0,0,6.809,3.88,5.137,5.137,0,0,1-4.72.14c-3.534-1.738-4.075-6.905-7.414-8.973a1.137,1.137,0,0,0-.654-.222c-.437.027-.711.467-.936.84a8.469,8.469,0,0,1-5.8,4.135,6.205,6.205,0,0,1-6.285-2.886c-1.184-2.153-.758-4.78-1.332-7.155-1-4.119-4.22-5.327-7.6-7.106a10.028,10.028,0,0,0-3.547-1.3C874.5,324.263,872.892,323.148,874.405,321.358Z" transform="translate(-649.071 -231.971)" fill="#512e4e"/>
  <g id="Group_136" data-name="Group 136" transform="translate(224.628 80.933)" opacity="0.1">
    <path id="Path_717" data-name="Path 717" d="M891.843,317.823c.648-1.34.022-3.193.785-4.363a1.825,1.825,0,0,0-.25.189c-1.222,1.112-.365,3.234-1.085,4.723a2.581,2.581,0,0,1-.294.453A2.913,2.913,0,0,0,891.843,317.823Z" transform="translate(-886.175 -313.46)"/>
    <path id="Path_718" data-name="Path 718" d="M982.94,411.118c-3.537-1.738-4.077-6.906-7.43-8.976a1.15,1.15,0,0,0-.654-.223,1.123,1.123,0,0,0-.8.618.691.691,0,0,1,.248-.069,1.151,1.151,0,0,1,.653.222c3.353,2.07,3.894,7.238,7.43,8.976a5.14,5.14,0,0,0,4.717-.14c-.162-.036-.327-.074-.489-.115A5.151,5.151,0,0,1,982.94,411.118Z" transform="translate(-946.428 -377.631)"/>
    <path id="Path_719" data-name="Path 719" d="M895.117,363.285a6.206,6.206,0,0,1-6.282-2.886c-1.181-2.15-.758-4.783-1.332-7.155-1-4.119-4.223-5.327-7.6-7.106a9.968,9.968,0,0,0-3.545-1.3c-1.648-.217-3.232-1.3-1.851-3.04a3.348,3.348,0,0,0-.481.464c-1.5,1.79.1,2.905,1.782,3.125a9.966,9.966,0,0,1,3.545,1.3c3.377,1.779,6.59,2.976,7.6,7.106.574,2.372.154,5.016,1.332,7.156a6.222,6.222,0,0,0,6.282,2.886,8.067,8.067,0,0,0,4.646-2.586A7.88,7.88,0,0,1,895.117,363.285Z" transform="translate(-873.427 -334.018)"/>
  </g>
  <path id="Path_720" data-name="Path 720" d="M150.753,415.666c-1.7-.195-4.094-1.862-5.6-3.02.747-.437,1.241-.739,1.241-.739s-3.569-3.589-3.138-5.936-.857-13.045-.857-13.045-2-1.518-.928-5.384a24.75,24.75,0,0,0,1.071-4.832s-.643-4.9-.214-6.074a15.353,15.353,0,0,0,.431-3.743l.854-8.866.461-3.317c.777,2.543,2.079,4.223,4.119,2.8,4.712-3.314,1.214-14.152,1.214-14.152s-.607-2.331-1.032-4.281l.233-.621s-.143-2.414,1.071-3.243,0-18.707,0-18.707l-.4-10.84h0v-.321a10.044,10.044,0,0,0-5.2-8.443l-.291-.151c-.016-.1-.033-.2-.049-.3-.231-1.406-.489-3.1-.659-4.772-.019-.181-.036-.36-.052-.549a11.1,11.1,0,0,0,8.52-10.678,10.671,10.671,0,0,0-.4-2.9c-.019-.071-.041-.143-.063-.211.654-.653,1.189-.843,1.238-.417.071.62.607-.173.642-.794s.178-.173.549-.173.428-.656-.143-1,.107-.725.275-.794.178-.725,0-.725a.18.18,0,0,1-.063-.019h-.019a1,1,0,0,1-.091-.047h0l-.113-.071-.03-.019-.124-.088h0c-.327-.233-.7-.549-.7-.549l.178-.137c.178-.137-.214-.483-.549-.516h-.069c-.335-.052-.87-.244-.53-.4.077-.036.11-.077.115-.121h0a.165.165,0,0,0-.06-.126h0a.723.723,0,0,0-.165-.115h0l-.1-.047h0l-.1-.033h0a.753.753,0,0,0-.107-.022h-.2a7.743,7.743,0,0,1-1.348-.478v-.725l-.6-.28h0l-.5-.22.178-.667h-1.571l.214-.587-.722-.14-.17-.033v-.275l-.964-.379v-.415h-1.159l.445-.346h-.892c-2.331-1.6-8.9-1.483-11.513-.61s-3.38,1.518-6.947,9.02c-2.282,4.794.632,9.443,3.191,12.037h0c.085.088.17.17.255.253l.036.036.228.217.022.019.244.222.027.022.214.187.03.025.231.189h0l.209.162.036.027a4.4,4.4,0,0,0,.4.275l.038.025.165.107h.014c.055.036.11.066.162.1l.033.019.124.066h.027l.129.058h.022l.091.033h.025a.669.669,0,0,0,.091.019h.1a.135.135,0,0,0,.049-.022,3.423,3.423,0,0,1,1.06-.34l.275.22c.132.107.275.209.406.307.033.2.06.4.085.615a11.052,11.052,0,0,1-.258,4.02c-.027.1-.058.2-.088.3a5.4,5.4,0,0,0-2.965,2.26,77.965,77.965,0,0,0-4.426,7.595s-.453,3.215-1.227,3.979,1.428,14.426,1.428,14.426-2.641,5.244-.275,6.178-.214,1.691-.214,1.691.714,1.587-.643,1.724-2.142,2.556-2.142,2.556l-4.209,4.555,1.06.362c-.091.143-.184.291-.275.459a17.341,17.341,0,0,0-2.133,12.9c2,8.284,2.57,10.077,2.5,11.532s2.282,7.18,1.711,8.49-.89,5.868.091,7.043a1.145,1.145,0,0,1-.373,1.862s1.461,1.727.73,2.9.909,15.67.909,15.67,2.641,3.729,2.5,4.9-1.356,1.8-.275,2.279.643,1.172.643,1.172l.275.022c-.244.22-.478.45-.692.684a6.477,6.477,0,0,0-.585.736,3.421,3.421,0,0,0-.242.428c-.961,2.114,1.6,3.729,1.6,3.729h.873c2.485.1,9.509.275,12.82-.549l.06.038s12.562.675,15.058-1.052S153.394,415.968,150.753,415.666Zm-12.864.607-.091-.014-.143-.025h-.1l-.159-.025h-.066c-.118-.016-.236-.033-.351-.044a5.743,5.743,0,0,1-1.626-.5c-.362-.162-.73-.357-1.1-.566l.725-.016a5.1,5.1,0,0,0,.549-.019l.327-.017h0c.824,0,2,.11,2.315.667a2.863,2.863,0,0,0-.28.555Z" transform="translate(-99.746 -201.966)" fill="url(#linear-gradient-3)"/>
  <path id="Path_721" data-name="Path 721" d="M184.639,356.411c-.206,0-16.406,3.089-12.356-2.4a9.849,9.849,0,0,0,1.647-3.443,11.348,11.348,0,0,0,.247-4,14.1,14.1,0,0,0-1.345-4.64s13.386-2.952,11.258-.686c-.928.988-.9,4.006-.6,7.089.165,1.667.412,3.35.634,4.747C184.442,355.024,184.705,356.411,184.639,356.411Z" transform="translate(-139.701 -252.06)" fill="#ffccd0"/>
  <path id="Path_722" data-name="Path 722" d="M153.695,783.22s4.187,3.861,6.727,4.163,6.109,1.4,3.707,3.114-14.484,1.046-14.484,1.046-2.8-1.829-1.3-4.135S153.695,783.22,153.695,783.22Z" transform="translate(-122.485 -573.303)" fill="#3f3d56"/>
  <path id="Path_723" data-name="Path 723" d="M164.129,790.5a4.452,4.452,0,0,1-1.5.585c-4.023.958-12.979.461-12.979.461s-2.8-1.829-1.3-4.135,5.354-4.187,5.354-4.187,4.187,3.861,6.727,4.163l.36.047C163.28,787.786,166.418,788.86,164.129,790.5Z" transform="translate(-122.485 -573.303)" opacity="0.1"/>
  <path id="Path_724" data-name="Path 724" d="M197.7,801.617a4.457,4.457,0,0,1-1.5.585l-.275-.014s-2.408-1.571-1.562-3.638C196.847,798.907,199.986,799.98,197.7,801.617Z" transform="translate(-156.052 -584.424)" opacity="0.1"/>
  <path id="Path_725" data-name="Path 725" d="M201.945,781.5s4.187,3.844,6.727,4.16,6.109,1.4,3.707,3.116-14.484,1.043-14.484,1.043-2.8-1.826-1.3-4.119S201.945,781.5,201.945,781.5Z" transform="translate(-157.487 -572.055)" fill="#3f3d56"/>
  <path id="Path_726" data-name="Path 726" d="M201.945,781.5s4.187,3.844,6.727,4.16,6.109,1.4,3.707,3.116-14.484,1.043-14.484,1.043-2.8-1.826-1.3-4.119S201.945,781.5,201.945,781.5Z" transform="translate(-157.487 -572.055)" opacity="0.1"/>
  <path id="Path_727" data-name="Path 727" d="M143.964,608.036a7.868,7.868,0,0,1-3.462.708h-.025l-.3.017c-.176,0-.357.016-.549.019-4.017.129-9.2-.332-9.2-.332s.412-.686-.618-1.167.137-1.1.275-2.265-2.392-4.874-2.392-4.874-1.579-14.415-.876-15.582-.7-2.883-.7-2.883a1.155,1.155,0,0,0,.36-1.853c-.945-1.167-.634-5.7-.085-7s-1.716-7-1.647-8.443-.48-3.226-2.4-11.464a17.745,17.745,0,0,1,2.051-12.845,13.011,13.011,0,0,1,1.038-1.571h13.111l.332,3.086.016.17c.11,1.041.244,2.3.4,3.748C141.116,562.918,145.559,606.88,143.964,608.036Z" transform="translate(-103.624 -395.777)" fill="#3f3d56"/>
  <path id="Path_728" data-name="Path 728" d="M154.5,616.64a8.619,8.619,0,0,1-3.786.725,9.237,9.237,0,0,0-1.373.019s-.206-.47-2.677-2.2,0-5.629,0-5.629l-2.57-10.5a10.572,10.572,0,0,1-.1-4.451,1.562,1.562,0,0,0-1.183-2.059,1.446,1.446,0,0,0,0-2.54c-1.733-1.442-1.974-6.727-1.974-6.727s-2.471-3.295-1.373-4.393-.686-3.707-.686-3.707-2.608-4.119-2.334-5.492,3.981-.892,2.883-5.286,5.67,1.648,5.67,1.648l4.426-15.689C150.862,563.935,156.227,615.388,154.5,616.64Z" transform="translate(-114.161 -404.38)" opacity="0.1"/>
  <path id="Path_729" data-name="Path 729" d="M160,608.354s-7.414,4.668-7.894,3.776c-.3-.549-1.422-.662-2.227-.665h-.025c-.478,0-.837.036-.837.036s-.206-.47-2.677-2.2,0-5.629,0-5.629l-2.57-10.5a10.5,10.5,0,0,1-.107-4.451,1.562,1.562,0,0,0-1.183-2.059,1.446,1.446,0,0,0,0-2.54c-1.733-1.442-1.974-6.727-1.974-6.727S138.032,574.1,139.13,573s-.686-3.707-.686-3.707-2.608-4.119-2.334-5.492,0-1.1-1.1-5.492c-.824-3.311,1.307-10.755,2.411-14.22.36-1.134.61-1.842.61-1.842l10.217,2.057,10.239,2.062.275,3.638-.077.576-1.373,10.159-.824,8.816a15.62,15.62,0,0,1-.412,3.707c-.412,1.167.206,6.041.206,6.041a25.351,25.351,0,0,1-1.03,4.805c-1.03,3.844.892,5.354.892,5.354s1.236,10.64.824,12.974S160,608.354,160,608.354Z" transform="translate(-113 -398.497)" fill="#3f3d56"/>
  <path id="Path_730" data-name="Path 730" d="M171.63,690c1.03.173,6.348.275,4.942.928S171.63,690,171.63,690Z" transform="translate(-139.698 -505.679)" opacity="0.1"/>
  <path id="Path_731" data-name="Path 731" d="M169.5,700.4a22.26,22.26,0,0,1,2.814-.791,14.329,14.329,0,0,1,1.82,0c.618.145,1.774.549,1.126.793s-2,.033-2.784.275A9.242,9.242,0,0,1,169.5,700.4Z" transform="translate(-138.153 -512.615)" opacity="0.1"/>
  <path id="Path_732" data-name="Path 732" d="M149,696.672c.275-.036,2.4-.585,2.232,0S149,696.672,149,696.672Z" transform="translate(-123.282 -510.324)" opacity="0.1"/>
  <path id="Path_733" data-name="Path 733" d="M136.63,634.63c.206.275,1.406,3.02,1.991,3.02S136.63,634.63,136.63,634.63Z" transform="translate(-114.308 -465.512)" opacity="0.1"/>
  <path id="Path_734" data-name="Path 734" d="M187.258,341.241c-.928.988-.9,4.006-.6,7.089a11.006,11.006,0,0,1-2.825.368c-2.435,0-2.628-3.073-4.448-4.41-.288-2.677-3.388-2.361-3.388-2.361S189.386,338.975,187.258,341.241Z" transform="translate(-142.868 -252.06)" opacity="0.1"/>
  <path id="Path_735" data-name="Path 735" d="M186.5,299.624a10.983,10.983,0,1,1-.384-2.886A10.983,10.983,0,0,1,186.5,299.624Z" transform="translate(-134.552 -214.518)" fill="#ffccd0"/>
  <path id="Path_736" data-name="Path 736" d="M184.639,382.422c-.206,0-16.406,3.089-12.356-2.4a9.848,9.848,0,0,0,1.647-3.443c3.276-1.046,7.29.7,7.29.7l1.853,1.373a6.369,6.369,0,0,1,1.068.442C184.442,381.036,184.705,382.422,184.639,382.422Z" transform="translate(-139.701 -278.071)" opacity="0.1"/>
  <path id="Path_737" data-name="Path 737" d="M155.965,547.315l-.077.577c-.437.148-2.444.706-7.243-1.263-.772-.316-1.724-.689-2.781-1.1-3.407-1.3-7.932-2.946-11.238-4.119-1.584-.568-2.889-1.032-3.655-1.3a13,13,0,0,1,1.038-1.57h13.111l.332,3.086,10.239,2.051Z" transform="translate(-110.202 -395.806)" opacity="0.1"/>
  <path id="Path_738" data-name="Path 738" d="M149.735,378.276s-7.276-3.158-10.228,1.579a78.263,78.263,0,0,0-4.256,7.551s-.412,3.158-1.167,3.913,1.373,14.347,1.373,14.347-2.54,5.217-.275,6.142-.206,1.683-.206,1.683.686,1.579-.618,1.716-2.059,2.54-2.059,2.54l-4.05,4.53s13.226,4.668,18.421,6.8,7.114,1.3,7.32,1.236,3.364-8.718,3.364-8.718-.137-2.4,1.03-3.226,0-18.6,0-18.6l-.4-11.1a10.036,10.036,0,0,0-5-8.394,6.951,6.951,0,0,0-1.395-.618Z" transform="translate(-108.229 -278.798)" fill="#06f"/>
  <path id="Path_739" data-name="Path 739" d="M204.892,446.191l1.442,2.54s-11.532,3.295-11.985.137c-.069-.461,4.5-4.119,4.5-4.119Z" transform="translate(-156.178 -327.768)" fill="#6c63ff"/>
  <path id="Path_740" data-name="Path 740" d="M204.892,446.191l1.442,2.54s-11.532,3.295-11.985.137c-.069-.461,4.5-4.119,4.5-4.119Z" transform="translate(-156.178 -327.768)" opacity="0.1"/>
  <path id="Path_741" data-name="Path 741" d="M161.25,497.607s5.492-1.785,4.325-.343S161.25,497.607,161.25,497.607Z" transform="translate(-132.168 -365.455)" opacity="0.1"/>
  <path id="Path_742" data-name="Path 742" d="M184.07,501.46s2.809,3.509,3.482,2.2S184.07,501.46,184.07,501.46Z" transform="translate(-148.723 -368.907)" opacity="0.1"/>
  <path id="Path_743" data-name="Path 743" d="M186.118,296.761a7.1,7.1,0,0,0-.967,1.227c-.961,1.51-1.68,1.546-1.68,1.546s0,3.267-.445,3.608-2.987-1.447-3.02-1.892-3.138-5.286-4.487.857l-.253,4.978s-4.448.549-6.724,1.046a10.983,10.983,0,1,1,17.573-11.37Z" transform="translate(-134.551 -214.54)" opacity="0.1"/>
  <path id="Path_744" data-name="Path 744" d="M168.465,275.117h.859l-.431.343h1.118v.412l.925.376v.275l.859.173-.206.582h1.51l-.173.662,1.03.472v.719a6.069,6.069,0,0,0,1.373.481c.343,0,.912.31.549.48s.275.379.574.412.686.379.513.516l-.17.137a6.022,6.022,0,0,0,1.1.788c.173,0,.17.653,0,.722s-.824.445-.275.788.48,1,.137,1-.481-.448-.516.17-.549,1.409-.618.791-1.131.069-2.092,1.579-1.683,1.543-1.683,1.543,0,3.267-.445,3.608-2.987-1.444-3.02-1.892-3.138-5.286-4.487.859l-.25,4.975s-7.413.928-8,1.442-9.382-6.59-5.95-14.05,4.165-8.1,6.683-8.968S166.222,273.524,168.465,275.117Z" transform="translate(-123.939 -203.816)" fill="#3f3d56"/>
  <path id="Path_745" data-name="Path 745" d="M194.937,447.358s-.069,5.56-.549,6.933,3.295,14.209,3.295,14.209,3.02,6.768,2.471,8.855.206,15.445,4.736,12.15,1.167-14.072,1.167-14.072-1.442-6-1.442-6.741-1.51-11.862-1.51-11.862-1.167-3.638-.824-5.835.481-6.247.481-6.247Z" transform="translate(-156.177 -327.768)" fill="#ffccd0"/>
  <path id="Path_746" data-name="Path 746" d="M197.818,416.25s-5.508,1.785-5.739,6.658,0,5.286,0,5.286,8.21-4.119,11.985-.137l-.387-10.777Z" transform="translate(-154.458 -307.094)" opacity="0.1"/>
  <path id="Path_747" data-name="Path 747" d="M199.818,416.25s-5.508,1.785-5.739,6.658,0,5.286,0,5.286,8.21-4.119,11.985-.137l-.387-10.777Z" transform="translate(-155.909 -307.094)" fill="#06f"/>
  <g id="Group_137" data-name="Group 137" transform="translate(29.839 71.644)" opacity="0.1">
    <path id="Path_748" data-name="Path 748" d="M242.17,294.73c-.124.154.387.318.662.349a.445.445,0,0,1,.082.019c.019-.167-.393-.362-.667-.362Z" transform="translate(-220.695 -290.584)"/>
    <path id="Path_749" data-name="Path 749" d="M235.5,289.883s.253.118.549.236v-.406l-.549-.253Z" transform="translate(-215.871 -286.761)"/>
    <path id="Path_750" data-name="Path 750" d="M246.02,298l-.14.113s.316.275.615.494l.1-.082c.173-.137-.206-.481-.513-.516Z" transform="translate(-223.401 -292.956)"/>
    <path id="Path_751" data-name="Path 751" d="M176.4,267.655l.618.28.1-.4h-.689Z" transform="translate(-157.8 -265.722)"/>
    <path id="Path_752" data-name="Path 752" d="M174.589,326.473l-.25,4.975s-7.414.928-8,1.441c-.181.162-1.167-.423-2.331-1.529,1.389,1.458,2.669,2.265,2.88,2.079.585-.513,8-1.442,8-1.442l.25-4.975c.788-3.6,2.2-3.429,3.207-2.581C177.335,323.252,175.539,322.181,174.589,326.473Z" transform="translate(-164.01 -311.371)"/>
    <path id="Path_753" data-name="Path 753" d="M229.3,304.1c-.549-.343.1-.719.275-.788s.17-.722,0-.722a1.278,1.278,0,0,1-.423-.25c0,.181-.036.384-.126.423-.173.069-.824.445-.275.788s.481,1,.137,1-.481-.448-.516.17-.549,1.409-.618.791-1.131.069-2.092,1.579-1.683,1.543-1.683,1.543,0,3.267-.445,3.608c-.31.233-1.612-.549-2.4-1.192.4.6,2.543,2.051,2.952,1.741s.445-3.608.445-3.608.722-.033,1.683-1.543,2.024-2.2,2.092-1.579.585-.173.618-.791.173-.17.516-.17S229.848,304.443,229.3,304.1Z" transform="translate(-205.446 -296.104)"/>
    <path id="Path_754" data-name="Path 754" d="M171.52,265.083h.744l.011-.033-.692-.14Z" transform="translate(-154.26 -263.814)"/>
    <path id="Path_755" data-name="Path 755" d="M167.211,261.005v-.085H167Z" transform="translate(-150.981 -260.92)"/>
  </g>
  <path id="Path_756" data-name="Path 756" d="M248.66,533.021s22.608-34.338,49.242-14.844,33.177,31.851,55.442,24.986,21.439-20.357,39.012-15.4,23.66-11.285,23.66-11.285" transform="translate(-195.578 -376.69)" fill="none" stroke="#747474" stroke-miterlimit="10" stroke-width="4"/>
  <rect id="Rectangle_78" data-name="Rectangle 78" width="4.852" height="10.843" rx="2.426" transform="translate(220.359 132.323) rotate(23.32)" fill="#6b7581"/>
</svg>
