<svg id="Group_132" data-name="Group 132" xmlns="http://www.w3.org/2000/svg" width="323.75" height="203.316" viewBox="0 0 323.75 203.316">
  <path id="Path_539" data-name="Path 539" d="M356.643,368.279c-3.248,7.812-10.045,14.868-17.34,21.55q-9.62,8.813-20.58,17.032-3.037,2.282-6.172,4.506l-1.452,1.024q-1.931,1.366-3.927,2.706l-.16.108q-1.937,1.318-3.907,2.61a107.09,107.09,0,0,1-13.864,7.949c-1.711.793-3.477,1.532-5.3,2.193q-1.483.539-3.029,1.01c-1.688.513-3.422.961-5.233,1.329-.3.063-.608.123-.913.18-1.854.348-3.73.6-5.627.776a86.524,86.524,0,0,1-21.091-.918c-3.479-.545-6.9-1.246-10.219-2.045-.408-.1-.813-.2-1.221-.285-11.285-2.823-21.881-6.657-33.246-9.352q-5.875-1.395-11.979-2.367-2.978-.474-5.989-.856c-4.726-.587-9.512-.981-14.317-1.181a87.554,87.554,0,0,0-19.337.97q-1.232.225-2.433.508-1.523.357-2.989.813a53.221,53.221,0,0,0-7.669,3.157c-.488.24-.97.482-1.452.727h0c-1.512.77-3,1.557-4.518,2.322a57.02,57.02,0,0,1-8.482,3.6,44.9,44.9,0,0,1-4.871,1.243,71.783,71.783,0,0,1-13.644,1.241c-2.245,0-4.492-.048-6.714-.165H98.9c-.759-.04-1.52-.086-2.282-.143-3.468-.237-6.925-.6-10.33-1.1-11.668-1.711-22.734-4.945-31.635-9.879-12.09-6.7-19.767-16.682-18.615-26.658.827-7.187,5.964-13.861,10.838-20.395,9.067-12.167,17.56-24.61,22.029-37.727,3.625-10.647,4.706-21.9,13.048-31.472a43.734,43.734,0,0,1,10.068-8.308,64.291,64.291,0,0,1,9.32-4.712,80.563,80.563,0,0,1,11.234-3.665,89.423,89.423,0,0,1,10.073-1.894c1.842-.24,3.708-.425,5.584-.55q2.168-.151,4.355-.191h.225q1.338-.026,2.675,0a124.646,124.646,0,0,1,19.394,1.822c4.01.67,7.986,1.492,11.879,2.4q3.485.807,6.908,1.691c.7.18,1.392.362,2.079.548,16.234,4.349,30.517,10.356,46.157,15.284.08.026.157.051.237.071h0a96.347,96.347,0,0,0,9.765,2.453q3.632.727,7.415,1.272c3.856.57,7.795,1.021,11.762,1.409l.876.086c5.821.57,11.693,1,17.4,1.492,2.025.177,4.033.359,6.012.57q1.882.188,3.73.4c.884.1,1.771.205,2.658.314s1.825.223,2.738.339c.593.074,1.184.151,1.777.234,3.594.476,7.179,1.01,10.724,1.62,2.156.371,4.3.77,6.42,1.2q2.3.468,4.563.987,1.677.379,3.325.8a102.767,102.767,0,0,1,24.488,9.161C354.489,336.407,362.857,353.34,356.643,368.279Z" transform="translate(-34.922 -228.224)" fill="#6c63ff" opacity="0.1"/>
  <circle id="Ellipse_98" data-name="Ellipse 98" cx="6.169" cy="6.169" r="6.169" transform="translate(64.844 13.444)" fill="#6c63ff" opacity="0.1"/>
  <circle id="Ellipse_99" data-name="Ellipse 99" cx="6.169" cy="6.169" r="6.169" transform="translate(190.935 0)" fill="#6c63ff" opacity="0.1"/>
  <circle id="Ellipse_100" data-name="Ellipse 100" cx="6.169" cy="6.169" r="6.169" transform="translate(265.701 13.815)" fill="#6c63ff" opacity="0.1"/>
  <circle id="Ellipse_101" data-name="Ellipse 101" cx="10.339" cy="10.339" r="10.339" transform="translate(0 24.199)" fill="#6c63ff" opacity="0.1"/>
  <circle id="Ellipse_102" data-name="Ellipse 102" cx="10.339" cy="10.339" r="10.339" transform="translate(9.911 75.251)" fill="#6c63ff" opacity="0.1"/>
  <circle id="Ellipse_103" data-name="Ellipse 103" cx="10.339" cy="10.339" r="10.339" transform="translate(287.391 56.459)" fill="#6c63ff" opacity="0.1"/>
  <path id="Path_540" data-name="Path 540" d="M354.787,312.141a11.118,11.118,0,0,1-.151,2.6c-.57,2.65-2.983,4.469-5.319,5.85s-4.9,2.687-6.292,5.017a8.541,8.541,0,0,0,.824,9.229,13.606,13.606,0,0,0,8.285,4.849,19.183,19.183,0,0,0,16.633-4.538,18.138,18.138,0,0,0,5.507-16.257c-2.379.334-4.5-1.765-5.268-4.041s-.61-4.743-.91-7.13a2.446,2.446,0,0,0-.354-1.141,2.562,2.562,0,0,0-1.474-.8c-2.749-.756-7.375-2.41-10.225-1.777C353.478,304.583,354.744,309.985,354.787,312.141Z" transform="translate(-253.725 -243.878)" fill="#be6f72"/>
  <path id="Path_541" data-name="Path 541" d="M354.787,312.141a11.118,11.118,0,0,1-.151,2.6c-.57,2.65-2.983,4.469-5.319,5.85s-4.9,2.687-6.292,5.017a8.541,8.541,0,0,0,.824,9.229,13.606,13.606,0,0,0,8.285,4.849,19.183,19.183,0,0,0,16.633-4.538,18.138,18.138,0,0,0,5.507-16.257c-2.379.334-4.5-1.765-5.268-4.041s-.61-4.743-.91-7.13a2.446,2.446,0,0,0-.354-1.141,2.562,2.562,0,0,0-1.474-.8c-2.749-.756-7.375-2.41-10.225-1.777C353.478,304.583,354.744,309.985,354.787,312.141Z" transform="translate(-253.725 -243.878)" opacity="0.1"/>
  <path id="Path_542" data-name="Path 542" d="M341.317,746.319a57,57,0,0,1-8.482,3.6,44.94,44.94,0,0,1-4.871,1.244,30.665,30.665,0,0,1,.356-6.56,34.911,34.911,0,0,0,.636-3.745,9.823,9.823,0,0,0-1.127-5.259c3.177-.433,6.195-1.141,9.386-.932l.2.014a3.562,3.562,0,0,1,1.112.208,3,3,0,0,1,1.206,1.061,7.3,7.3,0,0,1,.453.7,11.122,11.122,0,0,1,1.315,5.205,34.612,34.612,0,0,1-.188,4.466Z" transform="translate(-243.578 -551.794)" fill="#be6f72"/>
  <path id="Path_543" data-name="Path 543" d="M406.131,749.189q-1.523.356-2.989.813a53.219,53.219,0,0,0-7.669,3.157,11.32,11.32,0,0,1-.234-2.362,13.187,13.187,0,0,1,10.082-2.073,1.33,1.33,0,0,1,.639.257A.852.852,0,0,1,406.131,749.189Z" transform="translate(-291.762 -561.684)" fill="#be6f72"/>
  <path id="Path_544" data-name="Path 544" d="M347.307,615.225a21.9,21.9,0,0,1-1.141,5.49c-.716,1.882-1.879,3.708-1.731,5.718.066.873.362,1.82.405,2.684q-1.232.225-2.433.508-1.523.357-2.989.813a53.212,53.212,0,0,0-7.669,3.157c-.488.24-.97.482-1.452.727h0c-.2-.026-.4-.057-.6-.094a5.835,5.835,0,0,1-3.733-2.039,3.274,3.274,0,0,1-.431-.856c-.465-1.389.02-3.12-.947-4.221l-.046.04-.034.023a9.589,9.589,0,0,1-1.734,1.249h0a11.621,11.621,0,0,1-9.412.907,10.306,10.306,0,0,1-1.765-.793c-1.306-.744-2.567-2-2.464-3.491.057-.833.533-1.631.4-2.456a5.136,5.136,0,0,0-.773-1.6c-1.908-3.423.368-7.823-.83-11.542-.029-.088-.06-.177-.091-.262-.088-.243-.188-.476-.285-.71-.245-.545-.519-1.081-.736-1.64a9.556,9.556,0,0,1-.428-1.446,18.1,18.1,0,0,1-.285-4.341,45.406,45.406,0,0,1,1.66-11.442c.174-.656.368-1.583.625-2.593h0a19.85,19.85,0,0,1,1.01-3.115,4.051,4.051,0,0,1,2.407-2.607c1.6-.374,4.039.417,5.658.61l6.4.764,12.8,1.531c2.21.265,4.532.571,6.354,1.814.12.083.237.168.354.26a7.225,7.225,0,0,1,1.283,1.306c.131.168.257.345.376.525a11.862,11.862,0,0,1,1.055,2.014c1.589,3.816,1.626,8.074,1.637,12.207A124.715,124.715,0,0,1,347.307,615.225Z" transform="translate(-228.035 -442.118)" fill="#3f3d56"/>
  <path id="Path_545" data-name="Path 545" d="M358.049,691.5c-.385-1.483-1.2-3.63-1.318-4.215a53.515,53.515,0,0,1-.873-5.938c-.316-3.554-.887-8.556.368-11.936,1.178.627,2.213,2.4,2.758,3.616,1.974,4.395-.248,9.791,1.606,14.237a2.343,2.343,0,0,1,.254.856,2.07,2.07,0,0,1-.394,1.05l-.625,1.038Z" transform="translate(-263.321 -505.176)" opacity="0.1"/>
  <path id="Path_546" data-name="Path 546" d="M486.458,202.121c2.1-3.422,4.974-6.788,4.794-10.789a21.368,21.368,0,0,0-.89-4.218,26.913,26.913,0,0,1-.2-12.346,13.944,13.944,0,0,1,10.085,2.259,5.756,5.756,0,0,1,2.227,2.5,7.247,7.247,0,0,1,.248,3.106c-.157,2.4-.371,4.957-1.848,6.845-.459.59-1.024,1.089-1.472,1.686A10.916,10.916,0,0,0,498,194.084l-4.848,13.191c-2.447,6.648-5.1,13.6-10.49,18.2-.131.111-3.993-5.373-4.312-5.924-1.292-2.256-.727-3.209.836-5.1C482.265,210.723,483.939,206.22,486.458,202.121Z" transform="translate(-350.655 -151.481)" fill="#be6f72"/>
  <path id="Path_547" data-name="Path 547" d="M267.205,665.33a21.926,21.926,0,0,1-.248,2.94c-.051.359-.111.716-.183,1.072-.973,5.076-3.394,9.905-5.088,14.85a86.3,86.3,0,0,0-3.993,18.675c-2.245,0-4.492-.048-6.714-.165h-.068c-.759-.04-1.52-.086-2.282-.143.687-6.046-.57-12.389.659-18.441.5-2.436,1.343-4.8,1.854-7.224a20.453,20.453,0,0,0,.357-2.162,5.8,5.8,0,0,1,.419-2.028,1.468,1.468,0,0,1,.1-.174,4.886,4.886,0,0,1,1-1.141,25.05,25.05,0,0,1,12.281-5.855C265.948,665.447,266.578,665.373,267.205,665.33Z" transform="translate(-186.966 -502.259)" fill="#fbbebe"/>
  <path id="Path_548" data-name="Path 548" d="M267.205,665.33a21.926,21.926,0,0,1-.248,2.94c-.051.359-.111.716-.183,1.072-.973,5.076-3.394,9.905-5.088,14.85a86.3,86.3,0,0,0-3.993,18.675c-2.245,0-4.492-.048-6.714-.165h-.068c-.759-.04-1.52-.086-2.282-.143.687-6.046-.57-12.389.659-18.441.5-2.436,1.343-4.8,1.854-7.224a20.453,20.453,0,0,0,.357-2.162,5.8,5.8,0,0,1,.419-2.028,1.468,1.468,0,0,1,.1-.174,4.886,4.886,0,0,1,1-1.141,25.05,25.05,0,0,1,12.281-5.855C265.948,665.447,266.578,665.373,267.205,665.33Z" transform="translate(-186.966 -502.259)" opacity="0.1"/>
  <path id="Path_549" data-name="Path 549" d="M213.768,685.918a44.684,44.684,0,0,1-.391,4.737c-.761,6.42-.9,13.12-1.426,19.636-.759-.04-1.52-.086-2.282-.143-3.468-.237-6.925-.6-10.33-1.1q.394-2.2.793-4.4a23.837,23.837,0,0,0,.556-5.442,31.847,31.847,0,0,0-.918-5.1c-.784-3.622-1.224-7.529-2.516-10.946a14.262,14.262,0,0,0-3.154-5.134c5.345-2.1,10.481-2.219,16.222-2a2.057,2.057,0,0,1,1.164.285,1.967,1.967,0,0,1,.585.884,22.123,22.123,0,0,1,1.606,6.508A21.353,21.353,0,0,1,213.768,685.918Z" transform="translate(-147.988 -509.851)" fill="#fbbebe"/>
  <circle id="Ellipse_104" data-name="Ellipse 104" cx="11.123" cy="11.123" r="11.123" transform="translate(97.708 44.546)" fill="#be6f72"/>
  <path id="Path_550" data-name="Path 550" d="M345.1,364.164c1.426-2.433,2.675-5.47,5.419-6.146a8.418,8.418,0,0,1,4.669.656,2.281,2.281,0,0,1,1.141.662,2.242,2.242,0,0,1,.345,1.181,77.308,77.308,0,0,1-.048,15.116c-.362,3.556-.973,7.1-1.081,10.669-.151,4.954.665,9.908.4,14.856a68.3,68.3,0,0,1-1.84,11.1L350.678,427.6a2.616,2.616,0,0,1-.55,1.3,2.567,2.567,0,0,1-1.01.57,37.578,37.578,0,0,1-30.411-2.382,9.226,9.226,0,0,1-3.271-2.621,7.68,7.68,0,0,1-.876-5.784c.371-1.968,1.172-3.825,1.711-5.755a44.3,44.3,0,0,0,1.218-9.223,73.086,73.086,0,0,0,.066-12.264c-.3-2.8-.924-5.564-1.395-8.345a92.054,92.054,0,0,1-1.2-12.672c-.071-2.535.046-5.35,1.8-7.179a8.267,8.267,0,0,1,3.157-1.859,9.33,9.33,0,0,1,6.092-.485c1.968.656,3.554,2.721,3.089,4.743-.214.938-.821,1.76-.97,2.712a3.91,3.91,0,0,0,1.426,3.383C334.69,376.382,342.536,368.567,345.1,364.164Z" transform="translate(-233.956 -282.498)" fill="#e3e8f4"/>
  <path id="Path_551" data-name="Path 551" d="M401.633,313.781a8.41,8.41,0,0,1,4.874-.285c1.03.245,2.142.679,3.092.22.345-.165.63-.436.978-.59.941-.414,2.162.094,2.995-.508a2.947,2.947,0,0,0,.873-1.7,15.215,15.215,0,0,1,5.028-7.621c-.3,2.187-.516,4.677.93,6.349a6.339,6.339,0,0,0,2.518,1.606,7.532,7.532,0,0,0,4.235.6,3.672,3.672,0,0,0,2.969-2.792c-.048,2.148-2.093,3.648-2.667,5.721-.217.776-.2,1.6-.348,2.393-.385,2.025-1.831,3.651-3.095,5.282a37.578,37.578,0,0,0-7.472,18.03,8.7,8.7,0,0,1-.485,2.282,14.339,14.339,0,0,1-.947,1.631c-2.091,3.531-1.446,7.986-.736,12.018a172.278,172.278,0,0,0,4.013,18.664,6.481,6.481,0,0,0,1.44,2.918c-.248,2.49-2.761,3.625-5.02,4.7a24.625,24.625,0,0,0-6.1,4.133,4.81,4.81,0,0,0-1.529,2.125c-.222.8-.063,1.683-.348,2.461s-1.426,1.338-1.928.682c-.628-2.347.445-4.8.4-7.233-.034-1.64-.57-3.234-.647-4.874a15.6,15.6,0,0,1,1.055-5.442c1.62-4.908,3.576-9.771,4.138-14.908s-.488-10.746-4.133-14.411c-4.326-4.369-6.728-10.293-11.365-14.306-.736-.636-1.569-1.426-1.446-2.39a2.662,2.662,0,0,1,.545-1.158c1.591-2.247,3.708-4.081,5.419-6.232S401.943,316.519,401.633,313.781Z" transform="translate(-290.081 -243.481)" fill="#3f3d56"/>
  <path id="Path_552" data-name="Path 552" d="M322.748,354.609a8.336,8.336,0,0,1-.813.924,2.682,2.682,0,0,1-1.281.4,41.412,41.412,0,0,1-5.068.453,15.641,15.641,0,0,0-4.278.265,7.635,7.635,0,0,0-4.4,3.793,18.813,18.813,0,0,0-1.78,5.667,75.788,75.788,0,0,0-1.3,13.088,34.422,34.422,0,0,0,6.232-6.468c1.369-1.857,2.61-3.91,4.563-5.151.9-.57,1.908-.947,2.812-1.5a16.125,16.125,0,0,0,4.446-4.848c.924-1.343,3.6-3.967,3.808-5.576A1.642,1.642,0,0,0,322.748,354.609Z" transform="translate(-226.423 -279.709)" fill="#3f3d56"/>
  <path id="Path_553" data-name="Path 553" d="M372.461,238.155a9.012,9.012,0,0,1,1.01.7c1.937,1.352,4.529,1.1,6.871.793a5.157,5.157,0,0,0,2.073-.57,3.241,3.241,0,0,0,1.358-3.026,6.024,6.024,0,0,0-1.395-3.137,11.285,11.285,0,0,0-7.8-4.255,5.02,5.02,0,0,0-2.336.248,18.815,18.815,0,0,0-2.464,1.683c-2.507,1.54-6.369.856-7.986,3.314-1.184,1.814-.339,4.278-.9,6.363-.416,1.557-1.617,2.975-1.386,4.563A7.361,7.361,0,0,0,360.6,247.2a10.461,10.461,0,0,1,1.309,5.77c1.1.776,2.629-.431,2.935-1.737s-.046-2.7.214-4.016c.459-2.313,2.5-4.01,3.422-6.132C369.141,239.567,370.219,237,372.461,238.155Z" transform="translate(-266.2 -190.101)" fill="#3f3d56"/>
  <path id="Path_554" data-name="Path 554" d="M279.711,328.139a2.15,2.15,0,0,0,.148,1.532c.57.856,1.877.548,2.9.676a3.955,3.955,0,0,1,3.092,3.3,10.857,10.857,0,0,1-.465,4.774q-1.375,5.313-3.274,10.476c-3.405-.4-6.99-1.711-8.8-4.617-1.643-2.644-1.474-6.012-2.518-8.944a22.355,22.355,0,0,0-3.348-5.624c2.091.262,3.585-2.128,3.708-4.232s-.539-4.241-.088-6.3c.105-.488,8.345,1.05,9.146,1.606C282.531,322.4,280.076,325.909,279.711,328.139Z" transform="translate(-200.419 -254.768)" fill="#fbbebe"/>
  <path id="Path_555" data-name="Path 555" d="M279.711,328.139a2.15,2.15,0,0,0,.148,1.532c.57.856,1.877.548,2.9.676a3.955,3.955,0,0,1,3.092,3.3,10.857,10.857,0,0,1-.465,4.774q-1.375,5.313-3.274,10.476c-3.405-.4-6.99-1.711-8.8-4.617-1.643-2.644-1.474-6.012-2.518-8.944a22.355,22.355,0,0,0-3.348-5.624c2.091.262,3.585-2.128,3.708-4.232s-.539-4.241-.088-6.3c.105-.488,8.345,1.05,9.146,1.606C282.531,322.4,280.076,325.909,279.711,328.139Z" transform="translate(-200.419 -254.768)" opacity="0.1"/>
  <circle id="Ellipse_105" data-name="Ellipse 105" cx="11.123" cy="11.123" r="11.123" transform="translate(66.335 47.683)" fill="#fbbebe"/>
  <path id="Path_556" data-name="Path 556" d="M223.359,273.839c.405-.633-.285-1.517.031-2.2.188-.411.665-.587,1.032-.856a3.847,3.847,0,0,0,1.075-1.395,16.211,16.211,0,0,0,1.483-10.823c-.262-1.232-.5-2.869.63-3.422a2.045,2.045,0,0,1,1-.171c2.031.066,3.993,1.426,5.964.944a3.423,3.423,0,0,0,2.51-2.986c.128-1.842-1.252-3.422-2.61-4.663-2.444-2.247-6.169-2.747-9.489-2.8l-6.175-.1c-1.976-.034-4.193.028-5.567,1.446-1.979,2.039-.984,5.376-1.269,8.2a8.556,8.556,0,0,1-3.137,5.747c-1.281,1.021-3.043,2-3.02,3.628a5.9,5.9,0,0,0,.4,1.629,7.858,7.858,0,0,1-1.181,6.36,16.959,16.959,0,0,1-4.811,4.563,13.412,13.412,0,0,0-2.772,2.225,6.56,6.56,0,0,0-1.446,3.688,4.849,4.849,0,0,0,.6,2.975c1.206,1.928,4.1,2.21,6.083,1.092a9.9,9.9,0,0,0,3.993-5.362c.479-1.263.967-2.709,2.193-3.277,1.551-.722,3.365.419,4.375,1.8s1.631,3.072,2.923,4.2a5.221,5.221,0,0,0,7.181-.593,8.073,8.073,0,0,0,1.426-5.467A7.966,7.966,0,0,0,223.359,273.839Z" transform="translate(-149.326 -202.065)" fill="#3f3d56"/>
  <path id="Path_557" data-name="Path 557" d="M187.027,355.53a4.094,4.094,0,0,1-3.539-1.224,14.06,14.06,0,0,1-2.242-3.169,55.782,55.782,0,0,0-5.747-7.969c-1.871-2.159-4.475-4.352-7.253-3.685a6.882,6.882,0,0,0-2.533,1.355,18.464,18.464,0,0,0-6.893,16.479c.217,1.817.71,3.594.915,5.419a34.738,34.738,0,0,1,.12,4.526c-.077,4.6-.234,9.46-2.712,13.333-3.842,5.989-5.9,13.142-8.719,19.679a67.165,67.165,0,0,0-3.331,11.037q-.8,3.331-1.589,6.659l-3.451,14.517a9.684,9.684,0,0,0-.337,4.563c.57,2.236,2.672,3.8,4.888,4.435a25.576,25.576,0,0,0,6.865.548,38.43,38.43,0,0,1,12.974,2.119,13.909,13.909,0,0,0,3.616,1.061,8.415,8.415,0,0,0,3.688-.682c3.214-1.243,5.969-3.422,8.93-5.182a35.286,35.286,0,0,1,5.818-2.815,6.382,6.382,0,0,0,2.8-1.569,5.067,5.067,0,0,0,.938-2.239c.964-4.495.317-9.152,0-13.738s-3.057-9.432-.79-13.43a10.761,10.761,0,0,0,1.235-2.478c.308-1.169.048-2.427.308-3.608a18.663,18.663,0,0,1,.964-2.493,13.142,13.142,0,0,0,.616-4.646,50.98,50.98,0,0,0-1.084-10.267c-.9-4.278,2.073-8.508,3.776-12.549a19.93,19.93,0,0,0,1.728-4.361,13.444,13.444,0,0,0-.285-4.221,36.927,36.927,0,0,1-.4-6.56,22.068,22.068,0,0,0-.208-5.887c-.471-1.914-1.814-3.77-3.745-4.164a1.529,1.529,0,0,0-1.289.2,1.668,1.668,0,0,0-.453.8c-.627,1.922-.5,3.993-.856,5.989S188.995,355.108,187.027,355.53Z" transform="translate(-109.001 -269.259)" fill="#f86d70"/>
  <path id="Path_558" data-name="Path 558" d="M197.574,434.46c.117-.79-.251-1.84-1.049-1.811-.736.029-1.064.95-1.061,1.688s.1,1.586-.419,2.1c-.462.459-1.226.445-1.763.819a1.449,1.449,0,0,0-.607,1.189c0,.4.18.776.191,1.172s-.254.856-.647.83a1.788,1.788,0,0,0,.26,2.168c.205.2.473.371.542.65a1.569,1.569,0,0,1-.046.585,1.531,1.531,0,0,0,1.212,1.748.961.961,0,0,0,.051,1.426,2.23,2.23,0,0,0,1.532.439,9.309,9.309,0,0,0,3.6-.744,2.145,2.145,0,0,0,.992-.685.856.856,0,0,0-.083-1.107,1.676,1.676,0,0,0,1.58-.285c.5-.6-.037-1.486-.57-2.065a1.141,1.141,0,0,0,.53-2.031c-.183-.134-.431-.251-.456-.476s.165-.371.245-.57c.183-.448-.234-.9-.636-1.175-.953-.633-2.356-.622-3.2-1.261S197.452,435.315,197.574,434.46Z" transform="translate(-146.463 -335.939)" fill="#be6f72"/>
  <path id="Path_559" data-name="Path 559" d="M403.5,287.257a13.505,13.505,0,0,1-2.079.049.453.453,0,0,0-.5.394l-1.326,9.948a4.04,4.04,0,0,1-.856,1.971,4.3,4.3,0,0,0-.967,3.283v16.9s-.086,2.253,1.646,2.253a25.026,25.026,0,0,0,6.24,0s1.386-.262,1.386-2.341V303.071a4.07,4.07,0,0,0-.856-3.308,4.141,4.141,0,0,1-.83-1.959l-1.378-10.156A.454.454,0,0,0,403.5,287.257Z" transform="translate(-293.546 -232.013)" fill="#3f3d56"/>
  <path id="Path_560" data-name="Path 560" d="M403.5,287.257a13.505,13.505,0,0,1-2.079.049.453.453,0,0,0-.5.394l-1.326,9.948a4.04,4.04,0,0,1-.856,1.971,4.3,4.3,0,0,0-.967,3.283v16.9s-.086,2.253,1.646,2.253a25.026,25.026,0,0,0,6.24,0s1.386-.262,1.386-2.341V303.071a4.07,4.07,0,0,0-.856-3.308,4.141,4.141,0,0,1-.83-1.959l-1.378-10.156A.454.454,0,0,0,403.5,287.257Z" transform="translate(-293.546 -232.013)" opacity="0.1"/>
  <rect id="Rectangle_73" data-name="Rectangle 73" width="8.405" height="14.212" rx="4.202" transform="translate(104.704 71.19)" fill="#6c63ff"/>
  <path id="Path_561" data-name="Path 561" d="M511.422,136.409a13.145,13.145,0,0,1-1.9.856.456.456,0,0,0-.311.553l2.607,9.7a4.027,4.027,0,0,1-.023,2.145,4.278,4.278,0,0,0,.371,3.4l6.508,15.595s.787,2.111,2.387,1.443a24.85,24.85,0,0,0,5.761-2.413s1.178-.776.379-2.692l-6.408-15.355a4.081,4.081,0,0,0-2.062-2.727,4.148,4.148,0,0,1-1.52-1.486l-5.182-8.841A.456.456,0,0,0,511.422,136.409Z" transform="translate(-373.219 -124.151)" fill="#3f3d56"/>
  <rect id="Rectangle_74" data-name="Rectangle 74" width="8.405" height="14.212" rx="4.202" transform="translate(139.508 28.997) rotate(-22.65)" fill="#6c63ff"/>
  <path id="Path_562" data-name="Path 562" d="M226.945,342.5c-3.066,1.263-4.278,5.194-3.559,8.428s2.883,5.929,4.994,8.493l5.915,7.216c1.634,2,3.422,4.1,5.915,4.794,3.645,1.018,7.29-1.3,10.441-3.4a157.294,157.294,0,0,1,29.992-15.618,10.087,10.087,0,0,0,2.932-1.517,5.406,5.406,0,0,0,1.272-6.274,6.281,6.281,0,0,0-5.553-3.44,7.5,7.5,0,0,0-5.909,3.035c-.659.876-1.141,1.877-1.777,2.766-1.609,2.236-4.118,3.619-6.574,4.868a167.891,167.891,0,0,1-18.253,7.986c-1.141.416-2.427.813-3.5.262a4.254,4.254,0,0,1-1.5-1.609,39.943,39.943,0,0,1-4.307-9.178c-.779-2.424-1.409-5.065-3.28-6.788a6.531,6.531,0,0,0-9.443,1.141s-2.33,3.408-.9,4.834S226.945,342.5,226.945,342.5Z" transform="translate(-168.778 -270.429)" fill="#fbbebe"/>
  <path id="Path_563" data-name="Path 563" d="M784.765,294.381a8.7,8.7,0,0,1,.368,3.508c-.074,1.443-.436,3.137-1.777,3.688-.873.351-1.951.086-2.727.616-.941.639-.9,2.014-.75,3.137.4,3.089.855,6.292,2.538,8.9a18.905,18.905,0,0,0,3.368,3.682c2.473,2.23,5.185,4.409,8.434,5.154a3.527,3.527,0,0,0,1.626.068,3.363,3.363,0,0,0,1.406-.856c1.882-1.728,2.852-4.2,4.107-6.431a23.9,23.9,0,0,0,2.444-4.9,8.556,8.556,0,0,0-2.618-8.633c-.556-.476-1.172-.876-1.711-1.369a8.78,8.78,0,0,1-2.567-4.983,21.807,21.807,0,0,1-.123-5.7,31.029,31.029,0,0,0-8.468.682,16.487,16.487,0,0,0-4.1.953C782.954,292.567,784.42,293.425,784.765,294.381Z" transform="translate(-566.644 -234.114)" fill="#fbbebe"/>
  <path id="Path_564" data-name="Path 564" d="M784.765,294.381a8.7,8.7,0,0,1,.368,3.508c-.074,1.443-.436,3.137-1.777,3.688-.873.351-1.951.086-2.727.616-.941.639-.9,2.014-.75,3.137.4,3.089.855,6.292,2.538,8.9a18.905,18.905,0,0,0,3.368,3.682c2.473,2.23,5.185,4.409,8.434,5.154a3.527,3.527,0,0,0,1.626.068,3.363,3.363,0,0,0,1.406-.856c1.882-1.728,2.852-4.2,4.107-6.431a23.9,23.9,0,0,0,2.444-4.9,8.556,8.556,0,0,0-2.618-8.633c-.556-.476-1.172-.876-1.711-1.369a8.78,8.78,0,0,1-2.567-4.983,21.807,21.807,0,0,1-.123-5.7,31.029,31.029,0,0,0-8.468.682,16.487,16.487,0,0,0-4.1.953C782.954,292.567,784.42,293.425,784.765,294.381Z" transform="translate(-566.644 -234.114)" opacity="0.1"/>
  <path id="Path_565" data-name="Path 565" d="M616.556,197.24c-4.632-1.589-6.845-7.795-11.693-8.491-.764-.111-1.549-.068-2.3-.245-2.792-.662-3.993-3.89-4.8-6.642a107.592,107.592,0,0,0-11.323-26.287c-2.13-3.422-5.5-6.235-7.036-9.982a7.749,7.749,0,0,0-1.169-2.507c-.636-.676-2-.773-2.341.088a2,2,0,0,0-.063.944l.334,3.551-5.8-.522a3.388,3.388,0,0,0-1.606.114,2.725,2.725,0,0,0-1.264,1.315c-1.962,3.688.128,8.519,3.591,10.852,4.044,2.724,9.819,3.137,12.506,7.2,1.6,2.419,1.629,5.53,2.681,8.231.5,1.292,1.235,2.478,1.82,3.73a77.02,77.02,0,0,1,2.55,7.469,65.856,65.856,0,0,0,4.9,10.165,26.185,26.185,0,0,0,5.02,7.079,24.685,24.685,0,0,0,4.78,3.137c4.124,2.253,8.987,4.421,13.356,2.692A29.25,29.25,0,0,0,616.556,197.24Z" transform="translate(-414.35 -128.581)" fill="#fbbebe"/>
  <path id="Path_566" data-name="Path 566" d="M754.187,733.382c-.351,3.722-2.61,7.093-3.137,10.675-3.479-.545-6.9-1.246-10.219-2.045-.408-.1-.813-.2-1.221-.285,1.877-5.134.243-10.883.739-16.351.048-.525.117-1.05.208-1.569,4.3-1.466,8.18-3.422,12.686-2.852.088.913.18,1.828.268,2.741q.271,2.735.536,5.464A22.167,22.167,0,0,1,754.187,733.382Z" transform="translate(-537.917 -541.948)" fill="#fbbebe"/>
  <path id="Path_567" data-name="Path 567" d="M857.181,742.447c-1.688.513-3.422.961-5.233,1.329-.3.063-.607.123-.913.18-1.854.348-3.731.6-5.627.776-.194-3.964-2.852-7.609-3.24-11.679a17.137,17.137,0,0,1,.031-3.037c.034-.4.074-.8.111-1.2l.8-8.205a12.659,12.659,0,0,1,1.931-.094c3.708.089,7.082,1.694,10.755,2.946a25.624,25.624,0,0,1,.285,5.236c-.14,4.455-.856,8.964.8,13.051C856.979,741.982,857.081,742.213,857.181,742.447Z" transform="translate(-611.188 -541.704)" fill="#fbbebe"/>
  <path id="Path_568" data-name="Path 568" d="M717.24,577.511c.5,3.89-1.489,7.615-2.35,11.44a40.529,40.529,0,0,0-.724,7.729l-.451,15.547a13.862,13.862,0,0,0,.388,4.629c.953,2.989,3.887,5.008,6.942,5.727s6.249.354,9.361-.057a9.749,9.749,0,0,0,4.381-1.32c1.737-1.212,2.5-3.371,3.152-5.385l1.851-5.684c2.131,4.8,1.229,10.042,2.507,15.133a2.932,2.932,0,0,0,.57,1.292,3.2,3.2,0,0,0,2.233.75c5.59.394,11.257.784,16.756-.285a7.288,7.288,0,0,0,4.133-1.882c1.215-1.32,1.426-3.263,1.412-5.057-.077-6.163-2.3-12.11-2.8-18.253-.214-2.632-.108-5.279-.2-7.92a53.024,53.024,0,0,0-.556-5.932,7.969,7.969,0,0,0-.73-2.6c-.855-1.6-2.632-2.464-4.315-3.137C745.721,576.938,731.341,576.989,717.24,577.511Z" transform="translate(-519.389 -439.325)" fill="#f86d70"/>
  <circle id="Ellipse_106" data-name="Ellipse 106" cx="12.264" cy="12.264" r="12.264" transform="translate(209.793 37.131)" fill="#fbbebe"/>
  <path id="Path_569" data-name="Path 569" d="M752.35,325.775c-.91,2-2.341,3.993-4.472,4.5a6.12,6.12,0,0,1-5.479-1.88,21.778,21.778,0,0,1-3.388-4.98,9.341,9.341,0,0,0-2.778-3.371c-1.688-1.1-3.867-1.067-5.858-.744a26.865,26.865,0,0,1-5.989.767c-2.518-.168-5.085-1.426-7.461-.587.77,3.445.493,7.233.405,10.764a4.852,4.852,0,0,1-.228,1.609,5.2,5.2,0,0,1-.83,1.335l-2.281,2.94a14.241,14.241,0,0,1,5.419,7.156,17.993,17.993,0,0,1,.317,5.185c-.054,5.108,1.055,10.2.7,15.293-.411,5.969-2.8,11.611-4.024,17.466a45.729,45.729,0,0,0-.587,15.287,143.929,143.929,0,0,0,39.466,7.43c2.387.131,4.965.151,6.925-1.221a7.533,7.533,0,0,0,2.852-5.062,22.49,22.49,0,0,0-.12-5.949q-.881-8.028-1.76-16.057a38.232,38.232,0,0,1,.645-15.917l2.852-13.707A28.22,28.22,0,0,1,768.3,340.3c.662-1.483,1.577-2.852,2.307-4.3a18.971,18.971,0,0,0,1.78-5.5,3.643,3.643,0,0,0-.023-1.683,3.9,3.9,0,0,0-2.108-1.957,61.229,61.229,0,0,0-16.873-5.918C752.989,322.635,753.066,324.209,752.35,325.775Z" transform="translate(-519.604 -254.779)" fill="#e3e8f4"/>
  <path id="Path_570" data-name="Path 570" d="M799.873,236.658c1.426-2.732,4.092-4.649,5.641-7.318a10.818,10.818,0,0,0,.348-9.982,36.13,36.13,0,0,1-1.711-3.3c-.476-1.323-.522-2.781-1.072-4.076A7.534,7.534,0,0,0,798.9,208.2a22.367,22.367,0,0,0-5.627-1.258l-6.48-.873a7.13,7.13,0,0,0-2.824,0,2.394,2.394,0,0,0-1.837,1.942c-.088,1.121.9,2.165.667,3.266-.083.388-.311.781-.18,1.158a1.175,1.175,0,0,0,.57.57c1.537.856,3.374.933,5.04,1.492s3.337,1.962,3.168,3.708c-.091.938-.7,1.914-.285,2.755.394.779,1.426.921,2.25,1.164a6.031,6.031,0,0,1,4.15,6.417c-.12.856-.428,1.674-.49,2.533-.208,3.006.265,3.865,2.721,5.613Z" transform="translate(-568.31 -173.876)" fill="#3f3d56"/>
  <path id="Path_571" data-name="Path 571" d="M880.489,336.76a4.158,4.158,0,0,1-.305,1.663c-.89,1.9-3.613,1.777-5.419,2.852-2.247,1.34-2.744,4.332-2.949,6.939a31.21,31.21,0,0,0,.211,8.841,11.888,11.888,0,0,0,4.489,7.415c2.957,2.056,6.979,2.128,10.356.876a23.141,23.141,0,0,0,8.644-6.32,27.547,27.547,0,0,0,5.647-8.493,2.7,2.7,0,0,0,.237-1.745c-.265-.856-1.2-1.244-1.957-1.711a8.635,8.635,0,0,1-3.565-4.906,21.3,21.3,0,0,1-.736-6.135c-.023-2.148-.029-4.495-1.4-6.152s-3.742-2.122-5.9-2.1c-1.768,0-6.662.168-7.869,1.711C878.983,330.773,880.56,334.923,880.489,336.76Z" transform="translate(-632.268 -260.978)" fill="#be6f72"/>
  <path id="Path_572" data-name="Path 572" d="M880.489,336.76a4.158,4.158,0,0,1-.305,1.663c-.89,1.9-3.613,1.777-5.419,2.852-2.247,1.34-2.744,4.332-2.949,6.939a31.21,31.21,0,0,0,.211,8.841,11.888,11.888,0,0,0,4.489,7.415c2.957,2.056,6.979,2.128,10.356.876a23.141,23.141,0,0,0,8.644-6.32,27.547,27.547,0,0,0,5.647-8.493,2.7,2.7,0,0,0,.237-1.745c-.265-.856-1.2-1.244-1.957-1.711a8.635,8.635,0,0,1-3.565-4.906,21.3,21.3,0,0,1-.736-6.135c-.023-2.148-.029-4.495-1.4-6.152s-3.742-2.122-5.9-2.1c-1.768,0-6.662.168-7.869,1.711C878.983,330.773,880.56,334.923,880.489,336.76Z" transform="translate(-632.268 -260.978)" opacity="0.1"/>
  <path id="Path_573" data-name="Path 573" d="M845.451,575.433a2.439,2.439,0,0,0,.593,1.164,2.356,2.356,0,0,0,.961.453c9.36,2.747,19.36,1.651,29.051.531a55.383,55.383,0,0,1-3.029-12.358c-.305-3.494.037-7.13-1.2-10.407-.365-.97-21.641,3.494-23.74,3.856-1.075.185-2.313.123-3.075.975-.918,1.032-1,3.491-1.092,4.777A31.4,31.4,0,0,0,845.451,575.433Z" transform="translate(-612.438 -423.165)" fill="#be6f72"/>
  <path id="Path_574" data-name="Path 574" d="M872.85,717.369c-1.711.793-3.477,1.532-5.3,2.193q-1.483.539-3.029,1.01c-1.689.513-3.423.961-5.234,1.329q-1.549-3.927-3.1-7.857c-.762-1.928-1.523-3.865-2.159-5.835a36.572,36.572,0,0,1-1.089-4.1,29.277,29.277,0,0,1,.707-14.194c3.953.744,7.817,1.229,11.71,1.794,2.079.285,4.164.622,6.274,1.018q.248,2.062.451,4.124.308,3.183.5,6.366Q873.018,710.285,872.85,717.369Z" transform="translate(-618.523 -519.829)" fill="#be6f72"/>
  <path id="Path_575" data-name="Path 575" d="M872.85,717.369c-1.711.793-3.477,1.532-5.3,2.193q-1.483.539-3.029,1.01c-1.689.513-3.423.961-5.234,1.329q-1.549-3.927-3.1-7.857c-.762-1.928-1.523-3.865-2.159-5.835a36.572,36.572,0,0,1-1.089-4.1,29.277,29.277,0,0,1,.707-14.194c3.953.744,7.817,1.229,11.71,1.794,2.079.285,4.164.622,6.274,1.018q.248,2.062.451,4.124.308,3.183.5,6.366Q873.018,710.285,872.85,717.369Z" transform="translate(-618.523 -519.829)" opacity="0.1"/>
  <path id="Path_576" data-name="Path 576" d="M927.435,721.68a18.468,18.468,0,0,1-.879,4.931c-.031.114-.06.225-.088.339a4.7,4.7,0,0,1-2.518-1.888,5.39,5.39,0,0,1-.676-1.583q-1.937,1.318-3.907,2.61a107.1,107.1,0,0,1-13.864,7.949c-1.711.793-3.477,1.532-5.3,2.193q-.57-2-1.084-4.018a37.191,37.191,0,0,1-.878-4.218,21.425,21.425,0,0,1,.947-9.6h0l.128-.371a20.975,20.975,0,0,1,1.868-3.933c.71-1.141,2.116-.95,3.551-.57.65.168,1.309.371,1.908.5,3.728.781,7.6-.026,11.408.188a13.635,13.635,0,0,1,5.233,1.332,7.186,7.186,0,0,1,3.89,4.278,6.365,6.365,0,0,1,.188.856A7.571,7.571,0,0,1,927.435,721.68Z" transform="translate(-651.176 -536.497)" fill="#be6f72"/>
  <path id="Path_577" data-name="Path 577" d="M661.065,219.777a132.6,132.6,0,0,0-19.431-15.059,53.364,53.364,0,0,1-5.134-3.659c-1.711-1.426-3.2-3.1-5.02-4.384a8.376,8.376,0,0,0-6.246-1.743c-2.182.422-4.121,2.51-3.8,4.694.285,1.922,2.014,3.24,3.611,4.344a77.462,77.462,0,0,0,9.349,5.827,29.319,29.319,0,0,1,3.317,1.768,24.875,24.875,0,0,1,5.088,5.342A74.279,74.279,0,0,0,663.9,234.875c.1.057,3.471-7.224,3.328-8.168C666.917,224.537,662.617,221.282,661.065,219.777Z" transform="translate(-453.42 -165.944)" fill="#be6f72"/>
  <path id="Path_578" data-name="Path 578" d="M870.038,605.425c-4.546.285-8.907,1.82-13.353,2.8s-9.278,1.358-13.4-.57l2.51,17.138a7.951,7.951,0,0,1,.077,2.866,10.77,10.77,0,0,0-.645,2.655c.066,1.449,1.426,2.467,2.707,3.137a24.2,24.2,0,0,0,12.093,2.786c-.311,1.255-.7,2.5-1.012,3.75,2.1,2.25,5.524,2.4,8.516,3.114,2.282.539,4.421,1.475,6.657,2.133a28.415,28.415,0,0,0,8.331,1.161,8.658,8.658,0,0,0,5.4-1.472c1.817-1.463,2.381-3.95,2.775-6.249a14.222,14.222,0,0,0,.285-3.879,15.374,15.374,0,0,0-1.295-4.278l-3.907-9.483c-.71-1.711-1.426-3.448-2.282-5.1C880.69,610.593,876.053,605.051,870.038,605.425Z" transform="translate(-612.02 -459.427)" fill="#3f3d56"/>
  <path id="Path_579" data-name="Path 579" d="M805.539,327.5a4.278,4.278,0,0,1,4.478-2.729,8.314,8.314,0,0,1,3.137,1.395l5.447,3.4a23.724,23.724,0,0,1,2.592,1.785c3.756,3.114,5.2,8.234,5.619,13.1s0,9.808.967,14.591c-2.3,1.905-4.849,3.516-7.147,5.419a17.963,17.963,0,0,0-3.334,3.277c-.724,1.007-1.241,2.159-2,3.137a7.546,7.546,0,0,1-5,2.778,5.419,5.419,0,0,1,2.281,3.531c.337,1.4.428,2.852.8,4.252.513,1.9,1.577,3.639,1.928,5.579a35.094,35.094,0,0,1,.225,4.067c.445,7.025,5.958,13.165,5.6,20.192a30.623,30.623,0,0,1-7.318-3.847c-1.015-.727-2-1.514-2.958-2.3l-7.264-5.889a60.364,60.364,0,0,1-9.911-9.349c-1.763-2.247-3.2-4.734-4.968-6.976a15.185,15.185,0,0,0-6.645-5.219c-.4.6-1.1,1.01-1.5,1.606a1.2,1.2,0,0,0-.166.308,1.35,1.35,0,0,0,.094.787,16.387,16.387,0,0,1,.57,3.534l.18,2.145a7.3,7.3,0,0,1,0,1.711,4.509,4.509,0,0,1-3.8,3.542,1.653,1.653,0,0,1-.8-.026,1.715,1.715,0,0,1-.947-1.224c-.722-2.436.385-5.005.473-7.541a18.052,18.052,0,0,0-.065-1.928l-.171-2.53c-1.657-.345-2.609-2.125-3.049-3.759-1.187-4.412-2.381-8.978-1.694-13.5a11.267,11.267,0,0,0,.285-3.645c-.285-1.617-1.449-2.929-2.062-4.452-2-4.965,2.245-10.356,1.851-15.686-.166-2.239-1.586-4.184-2.441-6.26a17.689,17.689,0,0,0-1.711-3.454,19.122,19.122,0,0,0-3.194-3.248,122,122,0,0,1-10.033-9.885,7.416,7.416,0,0,1-4.321-1.979,3.975,3.975,0,0,1-1.392-2.689,2.1,2.1,0,0,1,1.78-2.176,6.742,6.742,0,0,1,1.76.4c1.848.4,3.708-.955,4.532-2.664a12.476,12.476,0,0,0,.81-5.567A5.339,5.339,0,0,1,762,301.245a31.311,31.311,0,0,1,3.109,4.706,7.3,7.3,0,0,0,1.552,1.874c1.372,1.089,3.348,1.295,4.546,2.567.608.65.944,1.512,1.5,2.207,1.563,1.959,4.423,2.2,6.56,3.488s3.622,3.645,5.989,4.409c.856.285,1.788.322,2.635.639a5.9,5.9,0,0,1,3.422,4.874,17.668,17.668,0,0,1-.659,6.195l-1.1,4.766c-.243,1.055-.428,2.324.351,3.077a3.172,3.172,0,0,0,1.263.636c2,.65,4.221,1.289,6.1.368a7.212,7.212,0,0,0,2.219-1.939C802.273,335.832,804.125,331.536,805.539,327.5Z" transform="translate(-544.042 -240.716)" fill="#6c63ff"/>
  <path id="Path_580" data-name="Path 580" d="M997.644,672.046a8.474,8.474,0,0,1-4.184,6.372,5.989,5.989,0,0,1-4.532.314,4.7,4.7,0,0,1-2.518-1.888,5.4,5.4,0,0,1-.676-1.583.507.507,0,0,0-.02-.088,12.544,12.544,0,0,1-.265-3.072,40.067,40.067,0,0,1,.285-4.789,25.925,25.925,0,0,1,.787-3.959c.53-1.851,1.295-3.634,2-5.419.365-.941.716-1.885,1-2.852h0c.174-.57.322-1.158.442-1.751l.043-.214c.023-.12.043-.24.063-.359a17.082,17.082,0,0,1,1.1-4.777c1.711-3.448,5.042-2.567,5.55.613a5.6,5.6,0,0,1,.066.744c.077,4.024-1.52,7.957-.79,12a27.971,27.971,0,0,0,.776,2.915c.257.881.488,1.774.665,2.678A15.22,15.22,0,0,1,997.644,672.046Z" transform="translate(-713.635 -488.278)" fill="#be6f72"/>
  <path id="Path_581" data-name="Path 581" d="M993.241,520.857a31.964,31.964,0,0,0,.331,4.934c.773,3.822,3.708,7.2,3.383,11.089a2.993,2.993,0,0,1-1.258,2.433c-.827.468-2.2.431-2.467,1.372-.077.262-.037.547-.123.807a1.409,1.409,0,0,1-1.426.776,15.7,15.7,0,0,0-1.731-.154c-2.068.174-2.826,2.94-4.669,3.89a3.525,3.525,0,0,1-3.876-.659,4.828,4.828,0,0,1-1.392-3.81,28.262,28.262,0,0,1,.571-3.106,21.552,21.552,0,0,0-.014-5.619,33.976,33.976,0,0,0-1.406-8.114c-.425-1.226-.99-2.4-1.358-3.642a21.182,21.182,0,0,1-.7-5.445c-.111-3.859.154-7.986,2.459-11.089,1.731-2.327,4.212-4.218,6.172-6.371,1.226-1.349,1.58-1.771,2.935-.627,1.115.938,2.282,2.233,2.407,3.505.342,3.26,0,6.466.61,9.785A75.113,75.113,0,0,1,993.241,520.857Z" transform="translate(-707.664 -381.837)" fill="#6c63ff"/>
  <circle id="Ellipse_107" data-name="Ellipse 107" cx="14.545" cy="14.545" r="14.545" transform="translate(241.45 47.113)" fill="#be6f72"/>
  <path id="Path_582" data-name="Path 582" d="M910.741,284.055a1.627,1.627,0,0,1,2.421-.776l3.83,1.6a12.505,12.505,0,0,0,1.78-5.636,29.045,29.045,0,0,1,.217-3.668c.348-1.785,1.406-3.385,1.651-5.188a15.95,15.95,0,0,0-.368-4.369c-.65-4.483.049-9.058-.325-13.573s-2.185-9.352-6.212-11.425a37.776,37.776,0,0,0-3.556-1.363c-2.644-1.007-5.014-2.618-7.626-3.708s-5.681-1.589-8.214-.337-4.007,4.774-2.361,7.073a8.629,8.629,0,0,0,2.093,1.837c1.543,1.1,3.117,2.467,3.474,4.332.639,3.357-2.852,5.989-3.836,9.272a7.88,7.88,0,0,0-.094,3.933c.425,1.945,1.463,3.782,1.426,5.772-.028,2.182-1.335,4.158-1.58,6.329-.088.8-.034,1.6-.134,2.4a12.378,12.378,0,0,1-.921,3.032c-2.282,5.7-4.595,11.468-7.986,16.6a21.981,21.981,0,0,0,10.447-2.441,17.275,17.275,0,0,1-2.615,6.143,19.794,19.794,0,0,0,8.174-2.852,26.556,26.556,0,0,1-2.6,6.163c.1-.165,1.891-.57,2.222-.759a3.869,3.869,0,0,0,1.568-1.674c.97-1.734,1.574-3.825,2.473-5.627A81.941,81.941,0,0,1,910.741,284.055Z" transform="translate(-641.427 -194.572)" fill="#3f3d56"/>
  <path id="Path_583" data-name="Path 583" d="M575.495,101.257a13.5,13.5,0,0,1-2.079.048.453.453,0,0,0-.5.394l-1.326,9.948a4.037,4.037,0,0,1-.855,1.971,4.3,4.3,0,0,0-.967,3.283v16.9s-.086,2.253,1.646,2.253a25.024,25.024,0,0,0,6.24,0s1.386-.262,1.386-2.342V117.072a4.069,4.069,0,0,0-.856-3.308,4.142,4.142,0,0,1-.83-1.959l-1.377-10.156A.454.454,0,0,0,575.495,101.257Z" transform="translate(-416.491 -99.061)" fill="#3f3d56"/>
  <rect id="Rectangle_75" data-name="Rectangle 75" width="8.405" height="14.212" rx="4.202" transform="translate(153.759 18.142)" fill="#6c63ff"/>
  <path id="Path_584" data-name="Path 584" d="M644.5,152.257a13.5,13.5,0,0,1-2.079.048.454.454,0,0,0-.5.394l-1.326,9.948a4.038,4.038,0,0,1-.856,1.971,4.3,4.3,0,0,0-.967,3.283v16.9s-.086,2.253,1.646,2.253a25.027,25.027,0,0,0,6.24,0s1.386-.262,1.386-2.342V168.072a4.07,4.07,0,0,0-.856-3.308,4.141,4.141,0,0,1-.83-1.959l-1.378-10.156A.453.453,0,0,0,644.5,152.257Z" transform="translate(-465.812 -135.516)" fill="#3f3d56"/>
  <rect id="Rectangle_76" data-name="Rectangle 76" width="8.405" height="14.212" rx="4.202" transform="translate(173.438 32.687)" fill="#6c63ff"/>
  <g id="Group_131" data-name="Group 131" transform="translate(139.755 110.427)" opacity="0.2">
    <path id="Path_585" data-name="Path 585" d="M566.095,739.551a5.411,5.411,0,0,1-.106.915q-2.977-.474-5.989-.856v-.245a4.816,4.816,0,0,1,.713-2.418,2.653,2.653,0,0,1,4.829.148A4.809,4.809,0,0,1,566.095,739.551Z" transform="translate(-549.288 -662.819)" fill="#3f3d56"/>
    <ellipse id="Ellipse_108" data-name="Ellipse 108" cx="3.996" cy="3.052" rx="3.996" ry="3.052" transform="translate(10.741 75.664) rotate(-88.19)" fill="#3f3d56"/>
    <ellipse id="Ellipse_109" data-name="Ellipse 109" cx="3.996" cy="3.052" rx="3.996" ry="3.052" transform="translate(10.897 70.781) rotate(-88.19)" fill="#3f3d56"/>
    <ellipse id="Ellipse_110" data-name="Ellipse 110" cx="3.996" cy="3.052" rx="3.996" ry="3.052" transform="translate(11.049 65.898) rotate(-88.19)" fill="#3f3d56"/>
    <ellipse id="Ellipse_111" data-name="Ellipse 111" cx="3.996" cy="3.052" rx="3.996" ry="3.052" transform="translate(11.205 61.015) rotate(-88.19)" fill="#3f3d56"/>
    <path id="Path_586" data-name="Path 586" d="M526.442,504.078a14.175,14.175,0,0,1-1.084-1.711l8.06-1.064-8.676-.208a14.654,14.654,0,0,1,.088-11.591l11.442,6.4-10.481-8.225a14.625,14.625,0,1,1,23.626,17.112A14.488,14.488,0,0,1,551,507.511l-10.578,5.076,11.217-3.374a14.642,14.642,0,0,1-2.8,13.664,14.625,14.625,0,1,1-22.976-.724,14.625,14.625,0,0,1,.57-18.076Z" transform="translate(-522.44 -480.747)" fill="#6c63ff"/>
    <path id="Path_587" data-name="Path 587" d="M552.261,596.535a14.545,14.545,0,0,1-3.422,8.938,14.625,14.625,0,1,1-22.976-.724C523.989,602.2,552.313,594.9,552.261,596.535Z" transform="translate(-522.44 -563.343)" opacity="0.1"/>
  </g>
</svg>
