<svg id="Group_601" data-name="Group 601" xmlns="http://www.w3.org/2000/svg" width="272" height="196.105" viewBox="0 0 272 196.105">
  <circle id="Ellipse_899" data-name="Ellipse 899" cx="9.494" cy="9.494" r="9.494" transform="translate(43.81 13.825)" fill="#2f2e41"/>
  <path id="Path_2031" data-name="Path 2031" d="M235.615,534.73l5.833-20.23,1.986.621s-2.358,15.142-6.081,18.989Z" transform="translate(-211.228 -397.104)" fill="#2f2e41"/>
  <path id="Path_2032" data-name="Path 2032" d="M304.624,223.214s.745,7.943-.993,10.177,1.117,6.578,1.117,6.578l5.213,6.206,7.695-3.475,1.117-6.454-.745-4.468s-2.606-2.606-1.489-7.323S304.624,223.214,304.624,223.214Z" transform="translate(-258.022 -194.185)" fill="#ffb9b9"/>
  <path id="Path_2033" data-name="Path 2033" d="M304.624,223.214s.745,7.943-.993,10.177,1.117,6.578,1.117,6.578l5.213,6.206,7.695-3.475,1.117-6.454-.745-4.468s-2.606-2.606-1.489-7.323S304.624,223.214,304.624,223.214Z" transform="translate(-258.022 -194.185)" opacity="0.1"/>
  <path id="Path_2034" data-name="Path 2034" d="M166.73,575.281v5.088l6.826,1.365-.621-8.439Z" transform="translate(-115.66 -397.691)" fill="#ffb9b9"/>
  <path id="Path_2035" data-name="Path 2035" d="M230.213,571.608l-1.49,7.074,2.979,2.11,5.213-3.847-.621-6.082Z" transform="translate(-158.664 -396.004)" fill="#ffb9b9"/>
  <path id="Path_2036" data-name="Path 2036" d="M320.032,724.274a5.262,5.262,0,0,0-7.447-1.644s-.869,4.871-1.738,5.243-5.709,7.447,0,8.067,8.564-1.241,8.564-1.241-1.117.961.621.465.993-3.227.993-3.227Z" transform="translate(-261.515 -540.851)" fill="#2f2e41"/>
  <path id="Path_2037" data-name="Path 2037" d="M384.271,718.21s-3.847,2.73-4.468,1.489a1.7,1.7,0,0,0-1.613-1.117s-3.475,13.1-1.241,13.721a7.529,7.529,0,0,0,4.344-.224s2.979-2.086,2.979-.473,8.315,1.5,11.79,1.373,1.613-2.731,1.613-2.731l-4.592-4.468-5.213-7.571S385.512,716.1,384.271,718.21Z" transform="translate(-308.751 -537.766)" fill="#2f2e41"/>
  <path id="Path_2038" data-name="Path 2038" d="M283.022,445.694l5.213,50.017s2.855,30.531,3.351,31.028,3.723,2.11,10.8,0l-1.613-39.964,2.979-24.822,6.826,17.127s1.613,46.045,2.73,46.045,7.943,2.234,9.557-.5,1.365-32.145,1.365-32.145-.745-46.418-6.206-47.907S283.022,445.694,283.022,445.694Z" transform="translate(-244.114 -348.28)" fill="#2f2e41"/>
  <circle id="Ellipse_900" data-name="Ellipse 900" cx="8.564" cy="8.564" r="8.564" transform="translate(44.741 16.493)" fill="#ffb9b9"/>
  <path id="Path_2039" data-name="Path 2039" d="M279.911,263.18s-.869-5.337-.869-6.33-3.848-1.613-3.848-1.613-2.979-3.351-3.6-2.855-10.053,6.826-11.542,7.695-3.1,4.592-2.979,4.84,7.819,16.383,7.819,16.383,3.351,9.929.993,15.142-5.337,15.514-.993,17.624,25.443,6.7,29.29,2.73,6.578-5.089,7.571-5.089-4.1-17.251-2.979-18.865-.5-11.666-.5-11.666l5.709-16.01s-.5-8.936-11.791-10.922l-6.757-3.276Z" transform="translate(-226.11 -214.294)" fill="#06f"/>
  <path id="Path_2040" data-name="Path 2040" d="M252.212,456s-.621,5.957-.621,7.695-2.979,11.915,1.365,13.156,3.972-13.528,3.972-13.528v-7.571Z" transform="translate(-221.62 -356.348)" fill="#ffb9b9"/>
  <path id="Path_2041" data-name="Path 2041" d="M411.586,438.324s.745,5.709.372,6.95,3.6,12.039-1.737,12.659-3.972-12.908-3.972-12.908v-6.7Z" transform="translate(-329.488 -344.261)" fill="#ffb9b9"/>
  <path id="Path_2042" data-name="Path 2042" d="M252.227,530.776l3.6-19.113h1.117a7.518,7.518,0,0,1,1.117,7.2,90.665,90.665,0,0,0-2.73,11.915Z" transform="translate(-222.752 -395.136)" fill="#2f2e41"/>
  <path id="Path_2043" data-name="Path 2043" d="M252.959,291.647l-1.862,1.489s-2.482,39.467-1.862,42.446-2.234,7.2.248,7.571,5.461,1.986,6.826.993,1.613-4.592,2.11-5.461,1.365-11.17,1.365-11.17,2.606-10.3.993-18-3.1-15.514-3.1-15.514Z" transform="translate(-220.133 -242.512)" fill="#06f"/>
  <path id="Path_2044" data-name="Path 2044" d="M386.552,281.517l5.709,4.84,4.344,25.319s2.73,19.734.62,19.982-5.337-.372-6.7,0a2.906,2.906,0,0,1-2.482-.621s-1.489-7.943-1.489-8.067-.993-9.184-.993-9.184l-1.241-10.177,1.862-11.17Z" transform="translate(-314.383 -235.485)" fill="#06f"/>
  <path id="Path_2045" data-name="Path 2045" d="M215.137,598.241s-.807,2.317-1.919,5.472c-.516,1.467-1.1,3.116-1.7,4.8-.386,1.087-.778,2.188-1.164,3.263-.616,1.719-1.214,3.37-1.736,4.787-.69,1.87-1.25,3.336-1.55,4.02-1.365,3.1-26.312-1.862-28.3-3.1s-2.482-5.461-2.73-11.418c0-.031,0-.062,0-.093a21.714,21.714,0,0,1,.787-5.095c.256-1.05.563-2.177.906-3.347.459-1.57.98-3.216,1.525-4.854,2.341-7.037,5.1-13.915,5.1-13.915s4.84-3.351,6.578-5.585,11.294-3.972,11.294-3.972c2.73.124,8.936,10.674,11.418,13.9S215.137,598.241,215.137,598.241Z" transform="translate(-169.899 -435.049)" fill="#3f3d56"/>
  <circle id="Ellipse_901" data-name="Ellipse 901" cx="1.117" cy="1.117" r="1.117" transform="translate(30.22 142.094)" fill="#2f2e41"/>
  <circle id="Ellipse_902" data-name="Ellipse 902" cx="0.621" cy="0.621" r="0.621" transform="translate(32.454 143.831)" fill="#2f2e41"/>
  <path id="Path_2046" data-name="Path 2046" d="M217.057,656.871c-.516,1.467-1.1,3.116-1.7,4.8l-33.788-10.986c.459-1.57.98-3.216,1.525-4.854Z" transform="translate(-173.738 -488.206)" fill="#f2f2f2"/>
  <path id="Path_2047" data-name="Path 2047" d="M210.355,683.5c-.616,1.719-1.214,3.37-1.736,4.787L176.039,677.7a21.712,21.712,0,0,1,.787-5.095Z" transform="translate(-169.899 -506.779)" fill="#f2f2f2"/>
  <path id="Path_2048" data-name="Path 2048" d="M258.3,599.588s2.482,10.922.993,20.6,3.723,18.741,3.723,18.741" transform="translate(-226.968 -456.129)" fill="none" stroke="#2f2e41" stroke-miterlimit="10" stroke-width="3"/>
  <path id="Path_2049" data-name="Path 2049" d="M242.335,602.425s-4.84,17.624-4.964,20.106-2.11,20.23-4.592,22.092" transform="translate(-209.261 -458.097)" fill="none" stroke="#2f2e41" stroke-miterlimit="10" stroke-width="3"/>
  <path id="Path_2050" data-name="Path 2050" d="M307.084,178.1s-1.938-5.04.872-6.688l.775,2.229s7.075-4.265,8.917-3.3l-1.745,2.326s8.238,0,8.82,3.2l-2.908.1s3.1,2.035,3.2,5.331l-6.2.388,3,1.745s-11.243,1.551-13.957-2.908Z" transform="translate(-260.354 -158.264)" fill="#2f2e41"/>
  <path id="Path_2051" data-name="Path 2051" d="M303.078,190.166s2.234,4.468,5.213,3.351,0-5.213,0-5.213l-1.986-.993Z" transform="translate(-258.027 -170.136)" fill="#2f2e41"/>
  <path id="Path_2052" data-name="Path 2052" d="M589.742,221.755l-40.509-50.621a13.6,13.6,0,0,1-6.551,3.308c-7.626,1.5-15.074-3.706-16.635-11.632a14.692,14.692,0,0,1,5.072-14.312l-13.813-17.26-78.691,67.254,72.436,90.518Z" transform="translate(-352.048 -131.237)" fill="#f2f2f2"/>
  <circle id="Ellipse_903" data-name="Ellipse 903" cx="11.42" cy="11.42" r="11.42" transform="translate(175.939 17.959)" fill="#f2f2f2"/>
  <rect id="Rectangle_289" data-name="Rectangle 289" width="5.344" height="15.558" transform="translate(112.407 84.309) rotate(-49.171)" fill="#6c63ff"/>
  <rect id="Rectangle_290" data-name="Rectangle 290" width="5.344" height="13.791" transform="translate(188.084 156.628) rotate(-49.171)" fill="#6c63ff"/>
  <path id="Path_2053" data-name="Path 2053" d="M605.77,412.429v.314q-.011,1.181-.068,2.352a52.375,52.375,0,0,1-104.576.684q-.107-1.662-.107-3.349a52.115,52.115,0,0,1,9.631-30.274q.754-1.069,1.568-2.1c.374-.477.759-.944,1.147-1.407a52.385,52.385,0,0,1,72.991-6.926c.631.509,1.251,1.037,1.856,1.575q.727.647,1.429,1.322a52.234,52.234,0,0,1,15.948,33.406Q605.77,410.206,605.77,412.429Z" transform="translate(-395.337 -289.965)" fill="#3f3d56"/>
  <path id="Path_2054" data-name="Path 2054" d="M538.467,499.2a58.967,58.967,0,0,1-43.233-99.067l1.306,1.212a57.186,57.186,0,0,0,82.98,78.7l1.279,1.24A58.5,58.5,0,0,1,538.467,499.2Z" transform="translate(-380.41 -317.768)" fill="#6c63ff"/>
  <rect id="Rectangle_291" data-name="Rectangle 291" width="14.964" height="14.964" transform="translate(151.644 180.184)" fill="#6c63ff"/>
  <path id="Path_2055" data-name="Path 2055" d="M512.218,422.172a.291.291,0,0,1,.071.043c.281.232-.071.677-.029,1.044.05.47.677.574,1.151.62s1.072.431.848.852a5.252,5.252,0,0,1-3.609-.46,52.116,52.116,0,0,0-9.631,30.274q0,1.689.107,3.349a1.352,1.352,0,0,0,.324.175,6.925,6.925,0,0,1,1.1.3c.26.153.435.424.695.567.745.406,1.778-.374,2.473.11a6.393,6.393,0,0,1,.51.52c.641.556,1.7.182,2.437.6a2.892,2.892,0,0,1,.98,1.286,4.139,4.139,0,0,0,3.036,2.5,8.165,8.165,0,0,1,1.29.043c.42.1.834.463.766.887-.118.73.242,1.529.146,2.259-.175,1.336-2.067,1.921-2.227,3.257a8.06,8.06,0,0,1-.05.88c-.086.349-.349.634-.442.983a1.869,1.869,0,0,0,.812,1.76,4.8,4.8,0,0,1,1.425,1.45,7.474,7.474,0,0,1,.249,2.141c.214,1.564,1.564,2.722,2.954,3.47a3.084,3.084,0,0,1,1.154.841,4.653,4.653,0,0,1,.442,1.813c.292,1.507,1.561,2.751,1.6,4.286a9.116,9.116,0,0,1-.944,3.114,7.187,7.187,0,0,0-.324,3.363,52.62,52.62,0,0,0,6.46,4.685,1.884,1.884,0,0,0,.267-.6,1.184,1.184,0,0,0-.552-1.226,2.929,2.929,0,0,0,1.023-.656,1,1,0,0,0,.185-1.133,1.98,1.98,0,0,0,1.785-.363,1.594,1.594,0,0,0,.178-1.45,5.981,5.981,0,0,1-.356-1.475,26.538,26.538,0,0,0,4.354-.146,2.827,2.827,0,0,0-1.325-1.66A2.3,2.3,0,0,0,533,488.952a3.884,3.884,0,0,0,.028-1.97,1.047,1.047,0,0,1-.021-.513,1.01,1.01,0,0,1,.52-.5q1.625-.935,3.249-1.867a1.961,1.961,0,0,0,.52-.381,1.551,1.551,0,0,0,.114-1.5,7.559,7.559,0,0,1-.52-1.482c-.2-1.557,1.468-2.676,2.031-4.144a6.228,6.228,0,0,0,.306-1.814,2.154,2.154,0,0,0-.456-1.853c-.488-.41-1.247-.317-1.757-.7-.467-.349-.627-1.022-1.137-1.3-.463-.257-1.04-.093-1.557-.214-.905-.21-1.475-1.254-2.4-1.35-.52-.057-1.112.2-1.539-.1-.378-.271-.392-.809-.463-1.265a3.533,3.533,0,0,0-2.85-2.857,3.977,3.977,0,0,1-1.582-.349c-.463-.3-.673-.859-1.04-1.276a4.354,4.354,0,0,0-2.377-1.108q-1.764-.412-3.524-.827c-.624-.15-1.429-.228-1.767.321a2.407,2.407,0,0,0-.207.659,2.044,2.044,0,0,1-1.917,1.439,2.265,2.265,0,0,0-1.333-1.033,8.406,8.406,0,0,1-1.083-.257,1.517,1.517,0,0,1-.656-2.106,1.891,1.891,0,0,0-.324-2.27,3.067,3.067,0,0,0-2.27-.616c-.21-.46.143-.976.52-1.311s.841-.659.923-1.158c.132-.784-.869-1.379-1.628-1.147a2.835,2.835,0,0,0-1.564,1.7A5.122,5.122,0,0,1,506.61,457a1.238,1.238,0,0,1-1.2.492c-.627-.16-.866-.905-1-1.532a9.989,9.989,0,0,1-.335-2.569,3.353,3.353,0,0,1,.969-2.337c1.037-.955,2.633-.862,4.033-.709a1.027,1.027,0,0,1,.107-1.354,1.539,1.539,0,0,1,1.4-.342,1.916,1.916,0,0,1,1.08.645,10,10,0,0,1,.812,1.692c.3.552.98,1.023,1.532.727a1.293,1.293,0,0,0,.438-1.45,5.387,5.387,0,0,1-.331-1.586c.082-1.03,1.154-1.653,2.1-2.077s2.024-1,2.173-2.024a1.89,1.89,0,0,1,.114-.584,1.142,1.142,0,0,1,.424-.4,35.691,35.691,0,0,1,8.708-4.66c.164-.053.182,0,.349-.036.235-.135.078-.509-.146-.659s-.524-.267-.581-.531c-.039-.192.075-.385.1-.581a.725.725,0,0,0-.951-.734c-.253-.335.246-.723.652-.837a17.819,17.819,0,0,1,3.723-.606.663.663,0,0,1,.424.071.5.5,0,0,1,.032.691,3.9,3.9,0,0,1-.566.517,1.556,1.556,0,0,0-.406,1.564,3.55,3.55,0,0,0,2.1.563c.727-.118,1.372-.937,1.03-1.589-.317-.609-1.276-.748-1.439-1.414-.192-.78.912-1.475.663-2.238-.107-.335-.442-.534-.7-.773a2.108,2.108,0,0,1-.46-2.33,2.655,2.655,0,0,1-2.323-.727c-.556-.559-1-1.446-1.789-1.418-.723.021-1.347.866-2.024.609-.167-.064-.342-.192-.5-.118a.416.416,0,0,0-.189.31c-.171.823.125,1.76-.324,2.473-.488.773-1.618.88-2.209,1.578-.321.378-.445.887-.741,1.286s-.919.656-1.276.306a1.756,1.756,0,0,0-.477-2.138,4.59,4.59,0,0,0-1.055-.513,6.256,6.256,0,0,1-1.179-.656,1.169,1.169,0,0,1-.431-.463,1.065,1.065,0,0,1,.029-.734,3,3,0,0,1,2.383-1.974c.47-.064,1.019-.043,1.333-.4.164-.189.249-.477.492-.552a.717.717,0,0,1,.452.053l1.76.62a1.206,1.206,0,0,0,.627.1.422.422,0,0,0,.367-.445c-.057-.292-.506-.431-.463-.727a.462.462,0,0,1,.146-.249,6.3,6.3,0,0,1,4.992-1.97c.221.367-.128.8-.424,1.108s-.527.869-.171,1.108a.939.939,0,0,0,.467.107,4.071,4.071,0,0,1,1.247.378c.609.264,1.208.556,1.792.869a2.259,2.259,0,0,1,.043-1.154.784.784,0,0,1,.926-.5c.349.135.527.6.9.641.5.057.691-.677.485-1.133s-.62-.834-.652-1.336c-.025-.335.1-.752-.164-.955a.708.708,0,0,0-.317-.114q-3.356-.615-6.716-1.233c-.4-.075-.973-.018-.99.385-.011.228.192.452.1.659s-.41.2-.638.281a.866.866,0,0,0-.5.916,2.5,2.5,0,0,0,.421,1.03c-.438-.182-1.1-.214-1.536-.4a5.908,5.908,0,0,0-.385-1.479.522.522,0,0,0-.68-.42c-.577.089-1.154.175-1.732.264a.67.67,0,0,0-.4.153c-.225.239,0,.62-.011.948a.888.888,0,0,1-.688.766,2.592,2.592,0,0,1-1.1-.014l-2.423-.374a3.969,3.969,0,0,0,1.831-1.226c.321-.378.492-1.083.029-1.261a1.106,1.106,0,0,0-.42-.032c-1.1.007-1.963-.909-2.989-1.3a2.936,2.936,0,0,0-1.008-.185Z" transform="translate(-395.338 -332.08)" fill="#47d147"/>
  <path id="Path_2056" data-name="Path 2056" d="M688.8,440.775a1.287,1.287,0,0,1-1.09.517c-1.115-.1-1.586-1.7-2.69-1.885a.431.431,0,0,0-.292.028c-.164.089-.192.31-.2.5a6.143,6.143,0,0,0,.274,2.722c.524,1.24,1.881,2.28,1.6,3.595-1.532-.709-2.33-2.43-2.69-4.08a28.7,28.7,0,0,0-1.069-4.942c-.5.631-1.528.11-1.977-.552-.427-.627-.691-1.354-1.1-1.992a2.451,2.451,0,0,0-1.8-1.24,3.231,3.231,0,0,0-2.091,1.026,4.839,4.839,0,0,0-1.3,1.446,6.575,6.575,0,0,0-.335,2.811,4.291,4.291,0,0,1-.941,2.868,2.079,2.079,0,0,1-2.768.335,3.123,3.123,0,0,1-.773-1.393,67.814,67.814,0,0,1-2.095-7.475c-.128.577-.638,1.322-1.122.983a1,1,0,0,1-.256-.335,7.483,7.483,0,0,0-4.268-3c-1.689-.549-3.467-.805-5.138-1.411a13.133,13.133,0,0,1-2.669-1.329,2.1,2.1,0,0,0-.128,2.145,1.718,1.718,0,0,0,1.931.809c.371-.121.684-.378,1.051-.506a.822.822,0,0,1,1.023.292c.157.338-.078.748.039,1.1.175.538.99.581,1.275,1.072a.993.993,0,0,1-.267,1.147,4.8,4.8,0,0,1-1.076.663,21.4,21.4,0,0,0-3.1,2.687c-1.048.887-2.526,1.532-3.773.966.3-1.507-1.5-2.612-1.828-4.112-.11-.5-.053-1.019-.207-1.5a4.878,4.878,0,0,0-1.35-1.7,6.694,6.694,0,0,1-1.835-4.863,6.741,6.741,0,0,0,0-1.856,1.392,1.392,0,0,0-1.261-1.161c-1.414.064-3.2.171-3.941-1.037a1.112,1.112,0,0,1,0-1.393,1.346,1.346,0,0,1,1.022-.175c1.065.1,2.127.21,3.193.313a3.549,3.549,0,0,0,2.191-.256c.641-.388.919-1.425.324-1.885-.431-.335-1.208-.317-1.336-.848-.1-.445.388-.948.121-1.322-.189-.264-.616-.192-.876.007a5.722,5.722,0,0,1-.738.645,2.249,2.249,0,0,1-1.664-.16c-.549-.171-1.283-.185-1.546.324-.3.567.26,1.315-.032,1.885-.392.752-1.71.324-2.259.973-.627.741.428,1.853.217,2.8a1.746,1.746,0,0,1-1.721-.1,1.666,1.666,0,0,1-.72-1.553c.05-.428.274-.866.125-1.268a1.48,1.48,0,0,0-.752-.688q-1.55-.861-3.1-1.714a1.4,1.4,0,0,0,.531,1.6,5.513,5.513,0,0,1,1.322,1.229,1.615,1.615,0,0,1-.606,2.131.376.376,0,0,1-.31.053.429.429,0,0,1-.2-.267,6.589,6.589,0,0,0-2.679-3.509,3.181,3.181,0,0,0-4.062.648c-.2.292-.342.627-.52.937a5.408,5.408,0,0,1-4.871,2.369.939.939,0,0,1-.531-.125c-.307-.21-.292-.659-.246-1.03.068-.524.132-1.044.2-1.568a1.256,1.256,0,0,1,.346-.859c.353-.278.859-.1,1.308-.11a1.647,1.647,0,0,0,1.5-1.158,1.862,1.862,0,0,0-.52-1.853c-.2-.192-.477-.435-.371-.695a.578.578,0,0,1,.4-.271c.8-.232,1.653-.292,2.441-.57A2.537,2.537,0,0,0,627.881,413c.057-.249.082-.552.306-.677a.992.992,0,0,1,.356-.071,1.734,1.734,0,0,0,1.486-1.806,1.133,1.133,0,0,1,1.276.214,3.543,3.543,0,0,0,1.133.773c.83.228,1.632-.51,2.494-.513a3.12,3.12,0,0,0,1.076,0c.346-.125.552-.467.816-.72s.73-.41.976-.135c-.071-.517-.139-1.03-.21-1.543a3.033,3.033,0,0,0,2.469-.449l-2.69-.909a.58.58,0,0,1-.253-.135c-.2-.21,0-.538.157-.777.381-.574.445-1.518-.182-1.8a1.53,1.53,0,0,0-1.325.267c-.656.363-1.311.73-1.967,1.094-.061.374.4.588.677.837a1.135,1.135,0,0,1-.741,1.985,1.423,1.423,0,0,1,.253,1.2l-1.322.1a.568.568,0,0,1-.428-.086c-.143-.125-.121-.346-.157-.531a1.147,1.147,0,0,0-.969-.844,3.345,3.345,0,0,0-1.35.125.823.823,0,0,1-.584-.014.583.583,0,0,1-.228-.292,1.49,1.49,0,0,1,.3-1.432,8.2,8.2,0,0,1,1.126-1.037,6.563,6.563,0,0,0,1.956-3.029c.727-.306,1.479-.72,2.209-1.026a8.811,8.811,0,0,1,1.835-.616,8.667,8.667,0,0,1,1.8-.086c.819.014,1.642.029,2.462.046a5.927,5.927,0,0,1,2.156.31,2.011,2.011,0,0,1,1.315,1.607.494.494,0,0,1-.16.452.577.577,0,0,1-.31.071c-.681.021-.969.192-1.65.217a2.783,2.783,0,0,0,1.543,1.026c1.1.143,1.9-1,2.408-2a.972.972,0,0,0,1.016.9,2.048,2.048,0,0,0,.766-.3,15.069,15.069,0,0,1,7.144-1.846.769.769,0,0,1,.588-.848c.509-.1.966.338,1.211.794a4.273,4.273,0,0,0,.787,1.325c.388.342,1.14.324,1.293-.167.15-.474-.346-.88-.755-1.162s-.844-.795-.567-1.208a36.634,36.634,0,0,1,6.356-1.023,2.7,2.7,0,0,0,1.069-.185.831.831,0,0,0,.5-.88,2.429,2.429,0,0,1-2.53-.955,21.753,21.753,0,0,1,6.634.153l1.856,1.575c-.353.367-.823.713-.567,1.08a.79.79,0,0,0,.652.224c.449.007.9.018,1.343.018a52.234,52.234,0,0,1,15.948,33.406,1.576,1.576,0,0,0-1.34,1.746,6.93,6.93,0,0,0,1.3,2.555,3.922,3.922,0,0,1,.221.417Z" transform="translate(-478.432 -315.646)" fill="#47d147"/>
  <line id="Line_64" data-name="Line 64" x2="272" transform="translate(0 195.105)" fill="none" stroke="#3f3d56" stroke-miterlimit="10" stroke-width="2"/>
  <circle id="Ellipse_904" data-name="Ellipse 904" cx="4.52" cy="4.52" r="4.52" transform="translate(107.696 15.473)" fill="none" stroke="#3f3d56" stroke-miterlimit="10" stroke-width="2"/>
  <circle id="Ellipse_905" data-name="Ellipse 905" cx="4.52" cy="4.52" r="4.52" transform="translate(241.246 101.545)" fill="none" stroke="#3f3d56" stroke-miterlimit="10" stroke-width="2"/>
  <circle id="Ellipse_906" data-name="Ellipse 906" cx="4.52" cy="4.52" r="4.52" transform="translate(210.391 56.518)" fill="none" stroke="#3f3d56" stroke-miterlimit="10" stroke-width="2"/>
  <circle id="Ellipse_907" data-name="Ellipse 907" cx="5.072" cy="5.072" r="5.072" transform="translate(180.184 94.147)" fill="#3f3d56"/>
  <circle id="Ellipse_908" data-name="Ellipse 908" cx="6.686" cy="6.686" r="6.686" transform="translate(194.863 76.23)" fill="#fff"/>
  <path id="Path_2057" data-name="Path 2057" d="M785.759,373.222a9.453,9.453,0,0,0-13.367.166c-3.646,3.737-8.85,22.609-8.85,22.609s18.737-5.67,22.383-9.407a9.453,9.453,0,0,0-.166-13.367Zm-9.82,10.067a4.38,4.38,0,1,1,6.194-.077,4.38,4.38,0,0,1-6.194.077Z" transform="translate(-577.448 -297.237)" fill="#57b894"/>
</svg>
