<svg xmlns="http://www.w3.org/2000/svg" xmlns:xlink="http://www.w3.org/1999/xlink" width="283.008" height="205.823" viewBox="0 0 283.008 205.823">
  <defs>
    <linearGradient id="linear-gradient" x1="0.034" y1="1" x2="0.034" gradientUnits="objectBoundingBox">
      <stop offset="0" stop-color="gray" stop-opacity="0.251"/>
      <stop offset="0.54" stop-color="gray" stop-opacity="0.122"/>
      <stop offset="1" stop-color="gray" stop-opacity="0.102"/>
    </linearGradient>
    <linearGradient id="linear-gradient-2" x1="0.5" y1="1" x2="0.5" y2="0" xlink:href="#linear-gradient"/>
  </defs>
  <g id="Group_607" data-name="Group 607" transform="translate(0.004 -0.019)">
    <path id="Path_2058" data-name="Path 2058" d="M251.79,222.844h0a36.855,36.855,0,0,0-19.509,5.553,37.014,37.014,0,0,0-37.011-36.738h0a36.918,36.918,0,0,0-12.9,2.313v-8.958A37.014,37.014,0,0,0,145.354,148h0a37.014,37.014,0,0,0-37.014,37.014v98.232H288.8V259.857A37.014,37.014,0,0,0,251.79,222.844Z" transform="translate(-94.606 -123.552)" fill="#6c63ff" opacity="0.1"/>
    <path id="Path_2059" data-name="Path 2059" d="M821.67,599.308s5.2-8.147,5.811-11.627A44.859,44.859,0,0,1,829.292,581" transform="translate(-622.561 -444.027)" fill="none" stroke="#535461" stroke-miterlimit="10" stroke-width="2"/>
    <path id="Path_2060" data-name="Path 2060" d="M846.259,607.78l-3.259.278S844.728,611.049,846.259,607.78Z" transform="translate(-638.347 -463.848)" fill="#6c63ff"/>
    <path id="Path_2061" data-name="Path 2061" d="M833.258,600.82l2.6,2.079S832.494,604.23,833.258,600.82Z" transform="translate(-631.054 -458.697)" fill="#6c63ff"/>
    <path id="Path_2062" data-name="Path 2062" d="M848.764,596.8l-2.944.395S848.416,599.305,848.764,596.8Z" transform="translate(-640.435 -455.721)" fill="#6c63ff"/>
    <path id="Path_2063" data-name="Path 2063" d="M838.26,592.78l1.944,1.364S837.844,595.147,838.26,592.78Z" transform="translate(-634.803 -452.746)" fill="#6c63ff"/>
    <path id="Path_2064" data-name="Path 2064" d="M848.66,586.522a13.079,13.079,0,0,1,2.762-.5c.348.14.14,1.668-.834,1.739S848.66,586.522,848.66,586.522Z" transform="translate(-642.536 -447.73)" fill="#6c63ff"/>
    <path id="Path_2065" data-name="Path 2065" d="M840.746,581a10.556,10.556,0,0,1,1.6,1.819c.07.359-1.253,1.182-1.949,0A1.272,1.272,0,0,1,840.746,581Z" transform="translate(-636.245 -444.027)" fill="#6c63ff"/>
    <circle id="Ellipse_909" data-name="Ellipse 909" cx="0.696" cy="0.696" r="0.696" transform="translate(206.659 136.414)" fill="#ffd037"/>
    <circle id="Ellipse_910" data-name="Ellipse 910" cx="0.696" cy="0.696" r="0.696" transform="translate(205.406 136.066)" fill="#ffd037"/>
    <path id="Path_2066" data-name="Path 2066" d="M702.037,330.959a11.16,11.16,0,0,0-2.757,6.655,9.591,9.591,0,0,0,9.371-9.514A11.267,11.267,0,0,0,702.037,330.959Z" transform="translate(-531.977 -256.849)" fill="#6c63ff" opacity="0.1"/>
    <path id="Path_2067" data-name="Path 2067" d="M624.29,249.759a11.243,11.243,0,0,0,4.28,5.8,9.582,9.582,0,0,0-3.318-12.934A11.293,11.293,0,0,0,624.29,249.759Z" transform="translate(-476.29 -193.583)" fill="#6c63ff" opacity="0.1"/>
    <path id="Path_2068" data-name="Path 2068" d="M797.99,392.759a11.172,11.172,0,0,0-2.76,6.655A9.6,9.6,0,0,0,804.6,389.9,11.247,11.247,0,0,0,797.99,392.759Z" transform="translate(-602.992 -302.589)" fill="#6c63ff" opacity="0.1"/>
    <path id="Path_2069" data-name="Path 2069" d="M845.627,469.6a11.251,11.251,0,0,0,2.149,6.876,9.588,9.588,0,0,0,1.1-13.308A11.234,11.234,0,0,0,845.627,469.6Z" transform="translate(-640.273 -356.818)" fill="#6c63ff" opacity="0.1"/>
    <path id="Path_2070" data-name="Path 2070" d="M1076.557,403.682a11.245,11.245,0,0,0,2.152,6.876,9.591,9.591,0,0,0,1.094-13.308A11.256,11.256,0,0,0,1076.557,403.682Z" transform="translate(-811.19 -308.029)" fill="#6c63ff" opacity="0.1"/>
    <path id="Path_2071" data-name="Path 2071" d="M101.86,630.015s115.47-22.006,242.722,0S38.632,648.645,101.86,630.015Z" transform="translate(-85.114 -473.066)" fill="#06f"/>
    <path id="Path_2072" data-name="Path 2072" d="M330.323,647.442c.205,2.63-2.36,4.618-4.813,5.582s-5.252,1.559-6.944,3.576a3.282,3.282,0,0,0-.845,1.887c-.078,1.541,1.357,2.71,2.737,3.4,3.95,1.959,8.49,2.2,12.833,2.96s8.916,2.308,11.411,5.943c1.156,1.689,1.785,3.729,3.082,5.327a9.84,9.84,0,0,0,8.89,3.1,18.2,18.2,0,0,0,8.763-4.194c2.859-2.305,5.494-5.2,9.051-6.112,6.123-1.588,11.845,3.155,17.695,5.567,7.063,2.911,15.109,2.422,22.528.6a14.515,14.515,0,0,0,4.763-1.863c1.635-1.11,2.807-2.773,4.337-4.02,3.8-3.1,9.14-3.215,14.033-3.186l14.212.081c2.809.016,5.8-.021,8.152-1.559a8.456,8.456,0,0,0,3.529-7.466,12.08,12.08,0,0,0-3.615-7.646c-4.488-4.569-11.26-5.868-17.606-6.757-30.54-4.218-61.512-3.872-92.349-3.521a121.951,121.951,0,0,0-15.462.829c-1.271.177-6.564.439-7.063,1.788C327.173,643.014,330.2,645.875,330.323,647.442Z" transform="translate(-249.573 -486.907)" fill="#06f"/>
    <ellipse id="Ellipse_911" data-name="Ellipse 911" cx="10.45" cy="1.767" rx="10.45" ry="1.767" transform="translate(34.446 181.44)" fill="#06f"/>
    <ellipse id="Ellipse_912" data-name="Ellipse 912" cx="10.45" cy="1.767" rx="10.45" ry="1.767" transform="translate(42.751 196.102)" fill="#06f"/>
    <ellipse id="Ellipse_913" data-name="Ellipse 913" cx="6.998" cy="1.182" rx="6.998" ry="1.182" transform="translate(13.734 172.214)" fill="#06f"/>
    <ellipse id="Ellipse_914" data-name="Ellipse 914" cx="6.998" cy="1.182" rx="6.998" ry="1.182" transform="translate(70.742 187.362)" fill="#6c63ff"/>
    <ellipse id="Ellipse_915" data-name="Ellipse 915" cx="6.998" cy="1.182" rx="6.998" ry="1.182" transform="translate(220.861 177.542)" fill="#06f"/>
    <ellipse id="Ellipse_916" data-name="Ellipse 916" cx="6.998" cy="1.182" rx="6.998" ry="1.182" transform="translate(176.674 189.083)" fill="#06f"/>
    <ellipse id="Ellipse_917" data-name="Ellipse 917" cx="10.45" cy="1.767" rx="10.45" ry="1.767" transform="translate(247.168 181.44)" fill="#06f"/>
    <ellipse id="Ellipse_918" data-name="Ellipse 918" cx="16.879" cy="2.853" rx="16.879" ry="2.853" transform="translate(198.675 190.265)" fill="#06f"/>
    <ellipse id="Ellipse_919" data-name="Ellipse 919" cx="23.586" cy="3.986" rx="23.586" ry="3.986" transform="translate(112.122 197.869)" fill="#06f"/>
    <path id="Path_2073" data-name="Path 2073" d="M1033.144,525.23a12.612,12.612,0,0,0-2.3,13.121c2.984,7.838-5.114,20.878-5.114,20.878l.26-.042a15.382,15.382,0,0,0,10.208-23.545C1033.945,532.215,1032.1,528.2,1033.144,525.23Z" transform="translate(-773.591 -402.75)" fill="#6c63ff"/>
    <path id="Path_2074" data-name="Path 2074" d="M1033.144,525.23s-2.981,6.476,0,11.759.52,20.109-7.414,22.24" transform="translate(-773.591 -402.75)" fill="#06f" stroke="#535461" stroke-miterlimit="10" stroke-width="1"/>
    <path id="Path_2075" data-name="Path 2075" d="M1038.72,607.263s-6.029-.959-6.577,4.444-11.593,6.151-11.593,6.151l.208.138c9.116,5.977,17.832,3.812,16.52-4.135C1036.779,610.906,1036.828,607.938,1038.72,607.263Z" transform="translate(-769.757 -463.416)" fill="#6c63ff"/>
    <path id="Path_2076" data-name="Path 2076" d="M1038.72,607.263s-6.029-.959-6.577,4.444-11.593,6.151-11.593,6.151l.208.138c9.116,5.977,17.832,3.812,16.52-4.135C1036.779,610.906,1036.828,607.938,1038.72,607.263Z" transform="translate(-769.757 -463.416)" fill="#f5f5f5" opacity="0.2"/>
    <path id="Path_2077" data-name="Path 2077" d="M1038.72,607.45s-4.678,1.039-4.3,5.283-6.949,9.356-13.875,5.312" transform="translate(-769.757 -463.604)" fill="none" stroke="#535461" stroke-miterlimit="10" stroke-width="1"/>
    <path id="Path_2078" data-name="Path 2078" d="M815.57,577.869s-1.614-5.478.3-9.511a8.646,8.646,0,0,0,.7-5.429,14.737,14.737,0,0,0-.78-2.549" transform="translate(-617.575 -428.766)" fill="none" stroke="#535461" stroke-miterlimit="10" stroke-width="2"/>
    <path id="Path_2079" data-name="Path 2079" d="M815.943,547.106a9.618,9.618,0,0,1-1.216,2.62,9.618,9.618,0,0,1-1.216-2.62,1.216,1.216,0,0,1,2.432,0Z" transform="translate(-616.521 -418.041)" fill="#6c63ff"/>
    <path id="Path_2080" data-name="Path 2080" d="M823.643,559.456a9.59,9.59,0,0,1-2.443,1.536,9.589,9.589,0,0,1,.4-2.859,1.216,1.216,0,1,1,2.04,1.323Z" transform="translate(-622.213 -426.669)" fill="#6c63ff"/>
    <path id="Path_2081" data-name="Path 2081" d="M822.045,582.792a9.658,9.658,0,0,1-2.885.094,9.6,9.6,0,0,1,1.791-2.266,1.216,1.216,0,0,1,1.094,2.172Z" transform="translate(-620.703 -443.649)" fill="#6c63ff"/>
    <path id="Path_2082" data-name="Path 2082" d="M817.817,601.437a9.5,9.5,0,0,1-2.817.574,9.633,9.633,0,0,1,1.383-2.536,1.216,1.216,0,1,1,1.445,1.954Z" transform="translate(-617.624 -457.502)" fill="#6c63ff"/>
    <path id="Path_2083" data-name="Path 2083" d="M810.369,565.423a9.669,9.669,0,0,0,2.726.954,9.417,9.417,0,0,0-1.039-2.7,1.216,1.216,0,0,0-1.694,1.744Z" transform="translate(-613.936 -430.971)" fill="#6c63ff"/>
    <path id="Path_2084" data-name="Path 2084" d="M804.475,586.339a9.592,9.592,0,0,0,2.887.093,9.666,9.666,0,0,0-1.791-2.263,1.216,1.216,0,1,0-1.1,2.17Z" transform="translate(-609.316 -446.263)" fill="#6c63ff"/>
    <path id="Path_2085" data-name="Path 2085" d="M803.08,608.3a9.6,9.6,0,0,0,2.827.58,9.624,9.624,0,0,0-1.383-2.534,1.216,1.216,0,1,0-1.445,1.954Z" transform="translate(-608.407 -462.587)" fill="#6c63ff"/>
    <path id="Path_2086" data-name="Path 2086" d="M803.87,617.382s2.95-.59,3.734-1.375,4.327-2.165,4.719-1.18,5.307,4.324,1.965,4.914-7.864.78-8.836.393S803.87,617.382,803.87,617.382Z" transform="translate(-609.386 -468.811)" fill="#a8a8a8"/>
    <path id="Path_2087" data-name="Path 2087" d="M814.358,627.564c-3.342.59-7.864.78-8.836.395-.749-.3-1.268-1.738-1.474-2.409l-.1.021s.59,2.36,1.559,2.752,5.5.2,8.836-.392c.967-.172,1.242-.569,1.138-1.076C815.4,627.185,815.067,627.439,814.358,627.564Z" transform="translate(-609.445 -477)" opacity="0.2"/>
    <path id="Path_2088" data-name="Path 2088" d="M720.9,668.44s8.947-1.791,11.336-4.176,13.124-6.564,14.316-3.581,16.112,13.126,5.977,14.914-23.864,2.388-26.848,1.193S720.9,668.44,720.9,668.44Z" transform="translate(-547.978 -502.237)" fill="#a8a8a8"/>
    <path id="Path_2089" data-name="Path 2089" d="M752.519,699.352c-10.135,1.791-23.864,2.386-26.848,1.193-2.271-.91-3.849-5.275-4.473-7.305l-.3.062s1.79,7.157,4.771,8.35,16.7.6,26.848-1.193c2.926-.52,3.763-1.728,3.448-3.264C755.718,698.2,754.71,698.968,752.519,699.352Z" transform="translate(-547.978 -527.099)" opacity="0.2"/>
    <path id="Path_2090" data-name="Path 2090" d="M78.985,543.34c3.984,5.881,2.713,26.933,2.713,26.933s-20.01-6.627-24.007-12.508a12.861,12.861,0,1,1,21.295-14.426Z" transform="translate(-55.48 -411.972)" fill="#6c63ff"/>
    <path id="Path_2091" data-name="Path 2091" d="M78.985,543.34c3.984,5.881,2.713,26.933,2.713,26.933s-20.01-6.627-24.007-12.508a12.861,12.861,0,1,1,21.295-14.426Z" transform="translate(-55.48 -411.972)" fill="#06f" opacity="0.1"/>
    <path id="Path_2092" data-name="Path 2092" d="M77.51,546.27s15.005,11.583,20.574,30.369" transform="translate(-71.788 -418.323)" fill="none" stroke="#535461" stroke-miterlimit="10" stroke-width="1"/>
    <path id="Path_2093" data-name="Path 2093" d="M154.372,601.579s-10.655-1.819-3.365,15.829c0,0,7.4-2.822,7.981-9.844a5.6,5.6,0,0,0-4.457-5.956Z" transform="translate(-124.298 -459.219)" fill="#6c63ff"/>
    <path id="Path_2094" data-name="Path 2094" d="M161.791,601.65s2.032,9.761-3.521,15.852" transform="translate(-131.561 -459.311)" fill="#06f" stroke="#535461" stroke-miterlimit="10" stroke-width="1"/>
    <path id="Path_2095" data-name="Path 2095" d="M1010.589,600.3s1.427,1.869-.66,4.678-3.807,5.2-3.119,6.957c0,0,3.147-5.236,5.717-5.309S1013.406,603.45,1010.589,600.3Z" transform="translate(-759.474 -458.312)" fill="#6c63ff"/>
    <path id="Path_2096" data-name="Path 2096" d="M1010.829,600.3a2.408,2.408,0,0,1,.291.587c2.5,2.936,3.831,5.678,1.429,5.746-2.24.065-4.938,4.067-5.569,5.078q.033.118.078.231s3.147-5.236,5.717-5.309S1013.646,603.45,1010.829,600.3Z" transform="translate(-759.714 -458.312)" opacity="0.1"/>
    <path id="Path_2097" data-name="Path 2097" d="M1031.06,608.248c0,.658-.075,1.19-.166,1.19s-.164-.52-.164-1.19.094-.348.184-.348S1031.06,607.59,1031.06,608.248Z" transform="translate(-777.291 -463.879)" fill="#ffd037"/>
    <path id="Path_2098" data-name="Path 2098" d="M1032.294,611.2c-.577.314-1.079.5-1.123.424s.39-.4.967-.712.348-.086.392,0S1032.871,610.886,1032.294,611.2Z" transform="translate(-777.616 -466.047)" fill="#ffd037"/>
    <path id="Path_2099" data-name="Path 2099" d="M983.636,600.3s-1.427,1.869.657,4.678,3.807,5.2,3.118,6.957c0,0-3.15-5.236-5.717-5.309S980.817,603.45,983.636,600.3Z" transform="translate(-740.063 -458.312)" fill="#6c63ff"/>
    <path id="Path_2100" data-name="Path 2100" d="M983.626,600.3a2.3,2.3,0,0,0-.291.587c-2.5,2.936-3.833,5.678-1.429,5.746,2.238.065,4.938,4.067,5.567,5.078a2.427,2.427,0,0,1-.075.231s-3.15-5.236-5.717-5.309S980.806,603.45,983.626,600.3Z" transform="translate(-740.052 -458.312)" opacity="0.1"/>
    <path id="Path_2101" data-name="Path 2101" d="M982.56,608.248c0,.658.073,1.19.164,1.19s.164-.52.164-1.19-.091-.348-.182-.348S982.56,607.59,982.56,608.248Z" transform="translate(-741.64 -463.879)" fill="#ffd037"/>
    <path id="Path_2102" data-name="Path 2102" d="M978.054,611.2c.577.314,1.081.5,1.125.424s-.39-.4-.967-.712-.351-.086-.393,0S977.478,610.886,978.054,611.2Z" transform="translate(-738.046 -466.047)" fill="#ffd037"/>
    <path id="Path_2103" data-name="Path 2103" d="M984.31,638.018s3.992-.125,5.2-.98,6.141-1.879,6.44-.507,6,6.832,1.492,6.868-10.47-.7-11.671-1.432S984.31,638.018,984.31,638.018Z" transform="translate(-742.935 -484.631)" fill="#a8a8a8"/>
    <path id="Path_2104" data-name="Path 2104" d="M997.514,649.019c-4.506.036-10.47-.7-11.671-1.432-.915-.556-1.279-2.555-1.4-3.477h-.133s.26,3.217,1.453,3.95,7.165,1.468,11.671,1.432c1.3,0,1.752-.473,1.726-1.156C998.977,648.759,998.484,649.019,997.514,649.019Z" transform="translate(-742.935 -490.737)" opacity="0.2"/>
    <path id="Path_2105" data-name="Path 2105" d="M1035.9,734.089a3.026,3.026,0,0,0,1-1.5,1.34,1.34,0,0,0-.7-1.531,1.953,1.953,0,0,0-1.84.647,2.456,2.456,0,0,1-1.788.863,2.729,2.729,0,0,0,.842-2.549,1.067,1.067,0,0,0-.234-.52c-.356-.377-1-.216-1.424.083-1.351.951-1.728,2.786-1.736,4.439A8.341,8.341,0,0,1,1030,732.2a1.874,1.874,0,0,0-.688-1.619,2.079,2.079,0,0,0-1.04-.26,2.157,2.157,0,0,0-1.7.483,1.675,1.675,0,0,0,.065,2.079,6.72,6.72,0,0,0,1.759,1.409,3.926,3.926,0,0,1,1.258,1.2,1.3,1.3,0,0,1,.091.213h3.81A10.594,10.594,0,0,0,1035.9,734.089Z" transform="translate(-773.964 -553.769)" fill="#6c63ff"/>
    <path id="Path_2106" data-name="Path 2106" d="M343.739,754.853a3.049,3.049,0,0,0,1-1.5,1.348,1.348,0,0,0-.7-1.531c-.639-.244-1.323.2-1.84.647a2.457,2.457,0,0,1-1.79.863,2.721,2.721,0,0,0,.842-2.549,1.071,1.071,0,0,0-.234-.52c-.356-.379-1-.218-1.424.08-1.351.951-1.728,2.789-1.733,4.439a8.189,8.189,0,0,1-.026-1.819,1.879,1.879,0,0,0-.686-1.619,2.08,2.08,0,0,0-1.039-.244,2.163,2.163,0,0,0-1.7.483,1.671,1.671,0,0,0,.068,2.079,6.689,6.689,0,0,0,1.757,1.409,3.9,3.9,0,0,1,1.258,1.2,1.248,1.248,0,0,1,.094.216h3.8a10.594,10.594,0,0,0,2.354-1.627Z" transform="translate(-261.679 -569.135)" fill="#6c63ff"/>
    <path id="Path_2107" data-name="Path 2107" d="M268.162,562.736s-3.654-12.4.684-21.525a19.594,19.594,0,0,0,1.585-12.284,33.063,33.063,0,0,0-1.741-5.767" transform="translate(-211.83 -401.218)" fill="none" stroke="#535461" stroke-miterlimit="10" stroke-width="2"/>
    <path id="Path_2108" data-name="Path 2108" d="M269,493.162c0,1.518-2.752,5.925-2.752,5.925s-2.752-4.418-2.752-5.925a2.752,2.752,0,0,1,5.5,0Z" transform="translate(-209.444 -376.979)" fill="#6c63ff"/>
    <path id="Path_2109" data-name="Path 2109" d="M286.43,521.261c-.826,1.273-5.53,3.477-5.53,3.477s.083-5.2.91-6.468a2.752,2.752,0,0,1,4.621,2.991Z" transform="translate(-222.322 -396.669)" fill="#6c63ff"/>
    <path id="Path_2110" data-name="Path 2110" d="M282.811,573.863c-1.357.684-6.531.211-6.531.211s2.7-4.439,4.054-5.125a2.752,2.752,0,1,1,2.477,4.915Z" transform="translate(-218.903 -434.889)" fill="#6c63ff"/>
    <path id="Path_2111" data-name="Path 2111" d="M273.171,616.04c-1.221.9-6.4,1.3-6.4,1.3s1.907-4.831,3.118-5.735a2.752,2.752,0,1,1,3.272,4.418Z" transform="translate(-211.864 -466.216)" fill="#6c63ff"/>
    <path id="Path_2112" data-name="Path 2112" d="M256.281,534.42c1.089,1.06,6.167,2.157,6.167,2.157s-1.245-5.044-2.339-6.1a2.75,2.75,0,1,0-3.833,3.945Z" transform="translate(-203.48 -406.057)" fill="#6c63ff"/>
    <path id="Path_2113" data-name="Path 2113" d="M243.272,582.011c1.357.686,6.531.213,6.531.213s-2.7-4.441-4.054-5.125a2.75,2.75,0,0,0-2.477,4.912Z" transform="translate(-193.353 -440.922)" fill="#6c63ff"/>
    <path id="Path_2114" data-name="Path 2114" d="M239.9,631.569c1.211.9,6.408,1.32,6.408,1.32s-1.907-4.834-3.118-5.735a2.752,2.752,0,1,0-3.272,4.418Z" transform="translate(-191.086 -477.725)" fill="#6c63ff"/>
    <path id="Path_2115" data-name="Path 2115" d="M269,493.162c0,1.518-2.752,5.925-2.752,5.925s-2.752-4.418-2.752-5.925a2.752,2.752,0,0,1,5.5,0Z" transform="translate(-209.444 -376.979)" fill="#fc6681"/>
    <path id="Path_2116" data-name="Path 2116" d="M286.43,521.261c-.826,1.273-5.53,3.477-5.53,3.477s.083-5.2.91-6.468a2.752,2.752,0,0,1,4.621,2.991Z" transform="translate(-222.322 -396.669)" fill="#fc6681"/>
    <path id="Path_2117" data-name="Path 2117" d="M282.811,573.863c-1.357.684-6.531.211-6.531.211s2.7-4.439,4.054-5.125a2.752,2.752,0,1,1,2.477,4.915Z" transform="translate(-218.903 -434.889)" fill="#fc6681"/>
    <path id="Path_2118" data-name="Path 2118" d="M273.171,616.04c-1.221.9-6.4,1.3-6.4,1.3s1.907-4.831,3.118-5.735a2.752,2.752,0,1,1,3.272,4.418Z" transform="translate(-211.864 -466.216)" fill="#fc6681"/>
    <path id="Path_2119" data-name="Path 2119" d="M256.281,534.42c1.089,1.06,6.167,2.157,6.167,2.157s-1.245-5.044-2.339-6.1a2.75,2.75,0,1,0-3.833,3.945Z" transform="translate(-203.48 -406.057)" fill="#fc6681"/>
    <path id="Path_2120" data-name="Path 2120" d="M243.272,582.011c1.357.686,6.531.213,6.531.213s-2.7-4.441-4.054-5.125a2.75,2.75,0,0,0-2.477,4.912Z" transform="translate(-193.353 -440.922)" fill="#fc6681"/>
    <path id="Path_2121" data-name="Path 2121" d="M239.9,631.569c1.211.9,6.408,1.32,6.408,1.32s-1.907-4.834-3.118-5.735a2.752,2.752,0,1,0-3.272,4.418Z" transform="translate(-191.086 -477.725)" fill="#fc6681"/>
    <path id="Path_2122" data-name="Path 2122" d="M239.05,660.088s4.446-.883,5.631-2.061,6.523-3.238,7.115-1.764,8,6.473,2.965,7.357-11.858,1.177-13.342.59S239.05,660.088,239.05,660.088Z" transform="translate(-191.348 -499.353)" fill="#a8a8a8"/>
    <path id="Path_2123" data-name="Path 2123" d="M254.762,675.337c-5.042.881-11.858,1.177-13.342.587-1.128-.447-1.913-2.6-2.222-3.6l-.148.031s.889,3.532,2.37,4.122,8.3.294,13.342-.59c1.453-.26,1.868-.852,1.713-1.611C256.35,674.765,255.843,675.148,254.762,675.337Z" transform="translate(-191.348 -511.616)" opacity="0.2"/>
    <path id="Path_2124" data-name="Path 2124" d="M790.088,73.49v50.356a9.14,9.14,0,0,1-15.9,6.164l-.133-.146c-1.8-2.019-4.272-4.475-6.757-3.4a11.909,11.909,0,0,0-2.043,1.437,29.76,29.76,0,0,1,1.281,3.378c2.144,7.1.473,14.771-1.819,21.829s-5.218,14.049-5.611,21.458a64.175,64.175,0,0,0,.626,10.655c.78,6.72,1.577,13.571,4.387,19.724,1.538,3.378,3.714,6.772,3.254,10.444a106.232,106.232,0,0,1-35.8-4.548c8.02-8.074,8.009-20.886,7.474-32.253q-.642-13.732-1.3-27.469c-.125-2.682-.275-5.457-1.5-7.848-1.661-3.256-5.122-5.3-8.688-6.115s-7.276-.6-10.933-.364a5.854,5.854,0,0,1,.761-4.145,52.125,52.125,0,0,0,18.007,4.223,2.306,2.306,0,0,0,2.939-2.679,47.783,47.783,0,0,0-1.227-13.529c-.2.049-.4.1-.6.161-3.056.925-5.824,3.209-9.007,2.968-4.449-.338-7.087-5.322-11.279-6.853-3.212-1.175-6.744-.138-10.109.473s-7.354.569-9.566-2.04c-2.791-3.3-1.039-8.521-2.859-12.445-2.57-5.587-10.351-5.691-16.458-4.938a19.361,19.361,0,0,1,10.314-7.76c-2.162-3.88-9.761-3.706-9.717-8.147.016-1.723,1.388-3.092,2.661-4.254l5.717-5.213L676.092,68.8c-2.266-.855-4.8-1.978-5.554-4.278-.738-2.256.6-4.678,2.271-6.37l.044-.042A14.179,14.179,0,0,1,682.911,54H770.6a19.49,19.49,0,0,1,19.488,19.488Z" transform="translate(-510.551 -53.98)" fill="#6c63ff" opacity="0.1"/>
    <path id="Path_2125" data-name="Path 2125" d="M358.611,286.976s5.954,1.635,8.823-.538,4.111-1.473,4.111-1.473,6.837-.379,7.4-1.993-2.622-7.487-2.622-7.49c-.229-.507-.556-1.182-.707-1.182l.031-2.477h0l.99-10.359c2.287-5.86.042-13.435.042-13.435l-.408-1.879a4.714,4.714,0,0,1,.387-3.118l4.158-8.355a12.4,12.4,0,0,1,.78-1.6c.26-.478.605-1.068,1.04-1.775.127-.2.26-.413.405-.634.5-.78,1.115-1.668,1.85-2.69a21.83,21.83,0,0,0,3.306-8.082l.221.735h.1l.083.016h.016l.107.016h.042l1.276,16.253c.081,6.338,2.406,9.847,2.406,9.847l-.322,13.992c.439,3.378-.52,7.866-.959,9.657l-1.008,2.271a2.734,2.734,0,0,0-1.481,2.063,25.583,25.583,0,0,1-1.965,5.288c-.645.891-2.128,3.23-2.128,3.23s-.722,2.232-.281,3.069,4.049.759,4.049.759c4.132.915,7.3-1.318,7.1-2.833s.639-1.913.639-1.913c1.645-.52,1.484-1.635,1.484-1.635a10.227,10.227,0,0,0-1.242-6.658l-.26.6a9.094,9.094,0,0,1,.5-3.553c-.052.036-.1.073-.153.1l-.047.031h-.016c.26-2.284,2.661-6.52,2.661-6.52,4.418-7.734,2.807-18.22,2.807-18.22l-.676-3.256-.039-1.232a41.056,41.056,0,0,1,.652-8.779c.236-1.281.481-2.83.67-4.54a40.094,40.094,0,0,1,2.261-8.9l.177-.031h.023l.728-.127h.047s.14-.761.26-2.058c.07-.826.127-1.874.127-3.077a34.576,34.576,0,0,0-1.642-10.715l.13-.192s.317-.426.891-1.167h0c1.06-1.344,2.705-3.378,4.737-5.694a9.749,9.749,0,0,0,2.565-8.345s-2.62-9.615-3.8-15.416a17.559,17.559,0,0,0-2.887-6.866,13.513,13.513,0,0,0,.364-2.783,10.156,10.156,0,0,0-.751-5.042,4.332,4.332,0,0,0-4.129-2.552,1.586,1.586,0,0,1-.741,0,1.115,1.115,0,0,1-.486-.426,6.387,6.387,0,0,1-.759-4.922c.312-1.679.956-3.285,1.242-4.969a6.141,6.141,0,0,0-.915-4.886c-1.258-1.559-3.454-2.006-5.091-3.181-1.149-.826-2.011-2.014-3.222-2.744s-2.339-.455-3.662-.177a29.04,29.04,0,0,0-6.408,1.632,17.055,17.055,0,0,0-5.587,4.062,5.332,5.332,0,0,0-1.245,1.967c-.52,1.72.5,3.555.283,5.338a10.545,10.545,0,0,1-1.489,3.493,4.535,4.535,0,0,0-.577,3.654c.728,1.842,3.118,2.235,4.839,3.217a1.462,1.462,0,0,1,.574.5c.426.746-.447,1.52-1,2.183a3.29,3.29,0,0,0-.652,1.323,4.732,4.732,0,0,0-2.833,3.42c-.587,2.625.314,5.938,1.11,8.126-.868,4.878.26,6.8,1.091,7.536a4.158,4.158,0,0,1,1.45,2.859v.091c.055.889.148,1.77.273,2.651h0c-.029-.205-.057-.424-.073-.52a30.758,30.758,0,0,0-2.705,9.875,29.71,29.71,0,0,1-.66,3.443,18.891,18.891,0,0,0-.553,6.156l.133,1.754a.52.52,0,0,1-.353-.117l.915,1.676v2.8a10.435,10.435,0,0,1-.694,3.727c-.065.174-.138.346-.213.52a3.033,3.033,0,0,0-.307,1.533c-1.972,3.007-6.486,19.906-6.486,19.906-2.448,5.54.2,9.129.2,9.129s1.284,15.429,1.523,16.224.761,10.205.761,10.205h0v.748a1.872,1.872,0,0,0-.444-.13c-2.147-.12-2.729,3.269-2.729,3.269l-4.389,4.2s-2.006-.338-4.953,1.874S358.611,286.976,358.611,286.976Zm43.825-89.157v-.047l-.12.07h0l-.049.029h-.023L400.2,190.75a11.834,11.834,0,0,1-.151-5.873l1.559-6.85h0v-1.648l4.971,13.254C406.911,191.407,403.959,195.734,402.436,197.818Z" transform="translate(-277.72 -113.288)" fill="url(#linear-gradient)"/>
    <path id="Path_2126" data-name="Path 2126" d="M498.245,462.1a41.017,41.017,0,0,0-2.521,9.566c-.184,1.687-.424,3.217-.657,4.483a40.726,40.726,0,0,0-.639,8.669l.036,1.219.67,3.228s1.575,10.353-2.755,17.991c0,0-2.56,4.566-2.638,6.733l-1.733.668-3.5-.985s1.692-6.063,1.141-10.314l.314-13.818s-2.282-3.464-2.362-9.724l-1.338-17.152Z" transform="translate(-371.354 -356.026)" fill="#fdc2cc"/>
    <path id="Path_2127" data-name="Path 2127" d="M417.914,452.71s-.431,6.692-3.74,11.3-4.012,6.614-4.012,6.614l-4.077,8.251a4.711,4.711,0,0,0-.382,3.082l.4,1.855s2.206,7.482-.039,13.269L405,508.253h-6.219s-.52-9.29-.748-10.078-1.5-16.024-1.5-16.024-2.6-3.542-.2-9.015c0,0,5.434-20.473,6.889-20.117S417.914,452.71,417.914,452.71Z" transform="translate(-307.009 -349.076)" fill="#fdc2cc"/>
    <g id="Group_602" data-name="Group 602" transform="translate(97.364 103.634)" opacity="0.1">
      <path id="Path_2128" data-name="Path 2128" d="M431.252,483.809l-.4-1.856a4.7,4.7,0,0,1,.382-3.082l4.075-8.251s.707-2.006,4.015-6.614c3.178-4.418,3.7-10.78,3.737-11.268l.631-.029s-.431,6.692-3.74,11.3-4.013,6.614-4.013,6.614l-4.077,8.251a4.711,4.711,0,0,0-.382,3.082l.4,1.856s2.206,7.482-.039,13.269l-1.063,11.175h-.629l1.063-11.175C433.456,491.291,431.252,483.809,431.252,483.809Z" transform="translate(-430.15 -452.71)"/>
    </g>
    <path id="Path_2129" data-name="Path 2129" d="M504.46,513.989c.078-2.167,2.638-6.733,2.638-6.733,4.332-7.638,2.757-17.991,2.757-17.991l-.671-3.228-.039-1.219a40.9,40.9,0,0,1,.642-8.669c.231-1.266.473-2.8.657-4.483a40.788,40.788,0,0,1,2.51-9.545l.639-.021a41.018,41.018,0,0,0-2.521,9.566c-.184,1.687-.424,3.217-.657,4.483a40.722,40.722,0,0,0-.639,8.669l.036,1.219.671,3.228s1.575,10.353-2.755,17.991c0,0-2.56,4.566-2.638,6.733l-1.733.668-.359-.088Z" transform="translate(-386.704 -356.026)" opacity="0.1"/>
    <path id="Path_2130" data-name="Path 2130" d="M489.606,658.573a3.009,3.009,0,0,0,2.885-.353,9.249,9.249,0,0,0-.234,5.2c.707,2.833-6.616-2.284-6.616-2.284l1.577-3.573A2.374,2.374,0,0,0,489.606,658.573Z" transform="translate(-373.856 -500.691)" fill="#d39999"/>
    <path id="Path_2131" data-name="Path 2131" d="M490.114,658.71a2.921,2.921,0,0,0,2.326-.52,9.249,9.249,0,0,0-.234,5.2c.707,2.833-6.616-2.284-6.616-2.284l1.577-3.573a2.238,2.238,0,0,0,1.788,1.006C489.335,658.582,489.73,658.637,490.114,658.71Z" transform="translate(-373.819 -500.669)" opacity="0.1"/>
    <path id="Path_2132" data-name="Path 2132" d="M381.49,301.993h3.059v-17.36l-2.295-.413Z" transform="translate(-282.354 -210.345)" fill="#fdc2cc"/>
    <path id="Path_2133" data-name="Path 2133" d="M381.49,301.993h3.059v-17.36l-2.295-.413Z" transform="translate(-282.354 -210.345)" opacity="0.05"/>
    <path id="Path_2134" data-name="Path 2134" d="M472.665,665.719a3.062,3.062,0,0,1,2.8,1.614l1.063.829.52-1.222a10.149,10.149,0,0,1,1.219,6.575s.159,1.1-1.455,1.614c0,0-.826.4-.632,1.889s-2.913,3.7-6.967,2.8c0,0-3.545.078-3.976-.748s.276-3.033.276-3.033,1.455-2.308,2.126-3.163a25.471,25.471,0,0,0,1.928-5.221C469.76,666,471.641,664.815,472.665,665.719Z" transform="translate(-358.649 -506.498)" fill="#7e5659"/>
    <path id="Path_2135" data-name="Path 2135" d="M414.129,664.878l.031-2.445a11.344,11.344,0,0,1-6.372-.132s.239,2.458-.156,2.794,1.32,3.5,1.32,3.5l1.915,2.009,3.293-1.2.894-2.814S414.365,664.878,414.129,664.878Z" transform="translate(-316.076 -504.199)" fill="#d39999"/>
    <path id="Path_2136" data-name="Path 2136" d="M414.129,664.878l.031-2.445a11.344,11.344,0,0,1-6.372-.132s.239,2.458-.156,2.794,1.32,3.5,1.32,3.5l1.915,2.009,3.293-1.2.894-2.814S414.365,664.878,414.129,664.878Z" transform="translate(-316.076 -504.199)" opacity="0.1"/>
    <path id="Path_2137" data-name="Path 2137" d="M370.574,668.8s1.871.216,1.635,2.6.1,0,.1,0A6.842,6.842,0,0,1,375,673.329c.707,1.123,1.988-1,2.079-1.614s.891-.86.891-.86,3.118,5.8,2.573,7.4-7.263,1.967-7.263,1.967-1.219-.689-4.036,1.458-8.659.52-8.659.52-4.763-1.988-1.871-4.158,4.862-1.853,4.862-1.853l4.311-4.158S368.458,668.685,370.574,668.8Z" transform="translate(-279.226 -509.009)" fill="#7e5659"/>
    <path id="Path_2138" data-name="Path 2138" d="M440.22,139.93c1.19.72,2.037,1.894,3.165,2.708,1.606,1.162,3.76,1.593,5,3.142a6.155,6.155,0,0,1,.9,4.826c-.281,1.663-.912,3.248-1.219,4.906a6.334,6.334,0,0,0,.746,4.86,1.078,1.078,0,0,0,.475.421,1.559,1.559,0,0,0,.728,0,4.255,4.255,0,0,1,4.054,2.521,10.086,10.086,0,0,1,.738,4.979,10.272,10.272,0,0,1-.832,4.059c-1.039,2.126-3.209,3.441-5.351,4.446a41.34,41.34,0,0,1-4.272,1.726,6.374,6.374,0,0,1-3.1.465c-1.78-.307-3.041-1.923-4.73-2.56a10,10,0,0,0-4.394-.2c-1.255.109-2.692.109-3.555-.808-1.11-1.18-.611-3.079-.044-4.595a3.274,3.274,0,0,1-2.313-5.348c.538-.655,1.393-1.419.974-2.157a1.451,1.451,0,0,0-.561-.491c-1.7-.969-4.036-1.357-4.751-3.176a4.489,4.489,0,0,1,.567-3.61,10.5,10.5,0,0,0,1.46-3.449c.21-1.762-.78-3.573-.278-5.273a5.286,5.286,0,0,1,1.221-1.941,16.809,16.809,0,0,1,5.486-4.012,28.511,28.511,0,0,1,6.292-1.611C437.91,139.481,438.988,139.187,440.22,139.93Z" transform="translate(-326.523 -117.232)" fill="#865a61"/>
    <path id="Path_2139" data-name="Path 2139" d="M431.316,242.221s-4.987-.26-5.93,3.989,2.045,10.34,2.045,10.34Z" transform="translate(-329.124 -193.286)" fill="#fdc2cc"/>
    <path id="Path_2140" data-name="Path 2140" d="M431.316,242.221s-4.987-.26-5.93,3.989,2.045,10.34,2.045,10.34Z" transform="translate(-329.124 -193.286)" opacity="0.05"/>
    <path id="Path_2141" data-name="Path 2141" d="M436.51,225.464l1.889,1.5,8.82.392,5.5-3.779,5.6-9.615A6.91,6.91,0,0,1,453,208.5a11.933,11.933,0,0,1-.112-4.55s-8.976-4.647-7.874,2.6a9.674,9.674,0,0,1,.083,2.695c-.52,4.246-4.644,3.449-4.644,3.449l-1.58,2.44-1.819,5.977Z" transform="translate(-337.493 -163.878)" fill="#fdc2cc"/>
    <path id="Path_2142" data-name="Path 2142" d="M468.965,206.616a9.674,9.674,0,0,1,.083,2.695,7.96,7.96,0,0,0,7.913-.741,11.934,11.934,0,0,1-.112-4.55S467.865,199.374,468.965,206.616Z" transform="translate(-361.445 -163.928)" opacity="0.1"/>
    <circle id="Ellipse_920" data-name="Ellipse 920" cx="7.952" cy="7.952" r="7.952" transform="translate(102.961 29.881)" fill="#fdc2cc"/>
    <path id="Path_2143" data-name="Path 2143" d="M437.184,252.67c.19.013.382.031.572.049,1.04.1,5.4.338,7.879-2.625,2.775-3.316,6.471-7.412,6.622-7.578l3.76,1.138s-2.976-1.06-4.958,4.475a5.746,5.746,0,0,0,1.949,6.6,5.977,5.977,0,0,0,2.458,1.04.013.013,0,0,1,0,.013v2.43h0l-1.538,6.757a11.754,11.754,0,0,0,.146,5.8l2.339,8.29v.013c-.353.244-14.909,10.135-24.631,3.308.036-.3,1.237-10.026.405-14.787a32.971,32.971,0,0,1-.437-3.68v-.091a4.158,4.158,0,0,0-1.424-2.814c-.876-.78-2.063-2.859-.891-8.378a20.289,20.289,0,0,1,1.3-3.968l3.259-7.367a.013.013,0,0,1,.013,0l3,.06v.018c-.26.325-3.745,4.678-4.122,7.482C432.517,251.524,432.062,252.342,437.184,252.67Z" transform="translate(-331.894 -192.601)" fill="#d39999"/>
    <path id="Path_2144" data-name="Path 2144" d="M501.294,251.339s2.939,2.521,4.093,8.241,3.74,15.223,3.74,15.223a9.717,9.717,0,0,1-2.521,8.241c-3.56,4.083-5.93,7.3-5.93,7.3l-2.339,3.454a2.934,2.934,0,0,1-1.689,1.193,5.7,5.7,0,0,1-4.135-.294,2.409,2.409,0,0,1-1.052-3.041l.507-1.208s-4.828,3.046-5.247,1.364,5.616-3.358,5.616-3.358,4.987-.839,5.977-3.2c0,0,5.353-6.876,4.938-9.239l-5.185-13.851s-6.434-.852-4.228-8.116S501.294,251.339,501.294,251.339Z" transform="translate(-374.64 -198.991)" fill="#fdc2cc"/>
    <path id="Path_2145" data-name="Path 2145" d="M423.726,400.927s11.811,2.362,14.592,2.048l.3,1s4.485,1,14.618-.606q.993-.156,2.063-.351l.236-.042s.14-.751.26-2.032a35.183,35.183,0,0,0-1.715-14.293l-1.707-5.249s-10.533,6.315-17.508,5.733c-.621-.052-1.242-.1-1.863-.125-1.432-.052-3.638,0-5.088-1.154l-3.025.52v8.617a10.346,10.346,0,0,1-.683,3.68c-.065.172-.132.34-.208.52A2.626,2.626,0,0,0,423.726,400.927Z" transform="translate(-327.989 -296.298)" fill="#7e5659"/>
    <path id="Path_2146" data-name="Path 2146" d="M481.19,456.993v2.677s5.161,1.154,16.918-1c0,0,.14-.751.26-2.032C494.747,457.209,484.8,458.6,481.19,456.993Z" transform="translate(-370.562 -351.985)" opacity="0.1"/>
    <path id="Path_2147" data-name="Path 2147" d="M423.725,450.145s11.811,2.362,14.592,2.048l.3,1v-2.666c-1.344.556-10.948-1.757-14.426-2.625-.065.172-.132.34-.208.52A2.659,2.659,0,0,0,423.725,450.145Z" transform="translate(-327.988 -345.516)" opacity="0.1"/>
    <path id="Path_2148" data-name="Path 2148" d="M534.07,440.219l.876,5.431q.993-.156,2.063-.351a37.111,37.111,0,0,1-.707-5.816l-1.1-.943Z" transform="translate(-409.7 -338.589)" fill="#7e5659"/>
    <path id="Path_2149" data-name="Path 2149" d="M534.07,440.219l.876,5.431q.993-.156,2.063-.351a37.111,37.111,0,0,1-.707-5.816l-1.1-.943Z" transform="translate(-409.7 -338.589)" opacity="0.1"/>
    <g id="Group_603" data-name="Group 603" transform="translate(99.404 85.107)" opacity="0.05">
      <path id="Path_2150" data-name="Path 2150" d="M444.827,399.819c-.621-.052-1.24-.1-1.863-.125-1.39-.049-3.516,0-4.964-1.065l.507-.088c1.447,1.151,3.656,1.1,5.088,1.154.621.023,1.242.073,1.863.125.2.018.411.029.621.034A11.743,11.743,0,0,1,444.827,399.819Z" transform="translate(-438 -394.091)"/>
      <path id="Path_2151" data-name="Path 2151" d="M506.513,403.382q1-.156,2.063-.351l.237-.042s.138-.751.26-2.032a35.148,35.148,0,0,0-1.718-14.293l-1.606-4.938c.343-.192.52-.307.52-.307l1.707,5.249a35.182,35.182,0,0,1,1.715,14.293,19.172,19.172,0,0,1-.26,2.032l-.237.042q-1.068.195-2.063.351a64.862,64.862,0,0,1-10.621.912A66.563,66.563,0,0,0,506.513,403.382Z" transform="translate(-481.305 -381.42)"/>
      <path id="Path_2152" data-name="Path 2152" d="M476.64,464.42v.029h-.34C476.433,464.438,476.542,464.43,476.64,464.42Z" transform="translate(-466.347 -442.85)"/>
    </g>
    <ellipse id="Ellipse_921" data-name="Ellipse 921" cx="0.444" cy="0.917" rx="0.444" ry="0.917" transform="translate(125.396 100.824)" fill="#d39999"/>
    <path id="Path_2153" data-name="Path 2153" d="M426.746,346.141a30.5,30.5,0,0,1,2.656-9.761c.029.172.1.72.125.891a25.106,25.106,0,0,1,.06,2.757l-.668,12.1.894,3.779c.839,2.991-2.271.629-2.271.629a1.842,1.842,0,0,1-1.819,1.26l-.161-2.167a18.712,18.712,0,0,1,.543-6.081A29.512,29.512,0,0,0,426.746,346.141Z" transform="translate(-329.351 -262.978)" fill="#fdc2cc"/>
    <path id="Path_2154" data-name="Path 2154" d="M426.746,346.141a30.5,30.5,0,0,1,2.656-9.761c.029.172.1.72.125.891a25.106,25.106,0,0,1,.06,2.757l-.668,12.1.894,3.779c.839,2.991-2.271.629-2.271.629a1.842,1.842,0,0,1-1.819,1.26l-.161-2.167a18.712,18.712,0,0,1,.543-6.081A29.512,29.512,0,0,0,426.746,346.141Z" transform="translate(-329.351 -262.978)" opacity="0.05"/>
    <path id="Path_2155" data-name="Path 2155" d="M503.118,383.746c-.566.73-.876,1.151-.876,1.151l-2.339,3.454a2.929,2.929,0,0,1-1.687,1.193,5.7,5.7,0,0,1-4.135-.294,2.4,2.4,0,0,1-1.052-3.041l.52-1.208s-4.828,3.046-5.249,1.367,5.616-3.36,5.616-3.36,4.987-.839,5.977-3.2c0,0,.437-.561,1.04-1.416" transform="translate(-375.809 -294.07)" fill="#fdc2cc"/>
    <path id="Path_2156" data-name="Path 2156" d="M510.334,410.42s-5.717-.553-7.518-3.82L502,409.287s5.977,4.137,7.362,3.6Z" transform="translate(-385.964 -314.949)" fill="#7e5659"/>
    <path id="Path_2157" data-name="Path 2157" d="M510.334,410.42s-5.717-.553-7.518-3.82L502,409.287s5.977,4.137,7.362,3.6Z" transform="translate(-385.964 -314.949)" opacity="0.1"/>
    <path id="Path_2158" data-name="Path 2158" d="M427.241,415.44s-2,.707-2.391.314l.9,1.653,1.7-1.3Z" transform="translate(-328.864 -321.492)" fill="#7e5659"/>
    <path id="Path_2159" data-name="Path 2159" d="M427.241,415.44s-2,.707-2.391.314l.9,1.653,1.7-1.3Z" transform="translate(-328.864 -321.492)" opacity="0.1"/>
    <path id="Path_2160" data-name="Path 2160" d="M423.371,394.144V390.69l-.821,3.537Z" transform="translate(-312.743 -289.146)" opacity="0.1"/>
    <path id="Path_2161" data-name="Path 2161" d="M460.975,162.009a3.067,3.067,0,0,1-2.141,1.128,16.939,16.939,0,0,1-2.49,0,6.229,6.229,0,0,0-3.755.943,9.708,9.708,0,0,0-1.723,1.819c-1.611,1.97-3.849,3.81-6.385,3.6a1.648,1.648,0,0,1-1.185-.5,1.879,1.879,0,0,1-.3-1.076,24.755,24.755,0,0,1,.153-4.865,10.2,10.2,0,0,1,.738-2.9,9.809,9.809,0,0,1,1.765-2.523,10.81,10.81,0,0,1,3.085-2.471,5.526,5.526,0,0,1,3.857-.5c1.518.413,2.7,1.6,4.158,2.214C458.4,157.588,462.792,159.446,460.975,162.009Z" transform="translate(-342.25 -128.372)" opacity="0.1"/>
    <path id="Path_2162" data-name="Path 2162" d="M460.975,160.8a3.07,3.07,0,0,1-2.141,1.13,16.581,16.581,0,0,1-2.49,0,6.266,6.266,0,0,0-3.755.943,9.867,9.867,0,0,0-1.723,1.819c-1.611,1.967-3.849,3.81-6.385,3.6a1.648,1.648,0,0,1-1.185-.5,1.881,1.881,0,0,1-.3-1.078,24.722,24.722,0,0,1,.153-4.862,10.2,10.2,0,0,1,.738-2.9,9.809,9.809,0,0,1,1.765-2.523,10.812,10.812,0,0,1,3.085-2.471,5.526,5.526,0,0,1,3.857-.5c1.518.413,2.7,1.6,4.158,2.214C458.4,156.376,462.792,158.236,460.975,160.8Z" transform="translate(-342.25 -127.477)" fill="#865a61"/>
    <path id="Path_2163" data-name="Path 2163" d="M383.8,344.56l-.021.951-.213-.91Z" transform="translate(-283.893 -255.004)" fill="#fdc2cc"/>
    <path id="Path_2164" data-name="Path 2164" d="M383.8,344.56l-.021.951-.213-.91Z" transform="translate(-283.893 -255.004)" opacity="0.05"/>
    <g id="Group_604" data-name="Group 604" transform="translate(118.608 51.152)" opacity="0.05">
      <path id="Path_2165" data-name="Path 2165" d="M513.3,254.154c-2.206,7.263,4.228,8.116,4.228,8.116l5.172,13.859c.418,2.362-4.938,9.238-4.938,9.238a4.506,4.506,0,0,1-2.321,2.045,3.61,3.61,0,0,0,1.377-1.51s5.353-6.876,4.938-9.238l-5.169-13.859s-6.434-.852-4.228-8.116c.738-2.427,1.819-3.532,2.924-3.929A6.7,6.7,0,0,0,513.3,254.154Z" transform="translate(-511.897 -250.76)"/>
    </g>
    <g id="Group_605" data-name="Group 605" transform="translate(97.076 48.686)" opacity="0.1">
      <path id="Path_2166" data-name="Path 2166" d="M517.7,289.22a5.458,5.458,0,0,0,1.04.988,5.949,5.949,0,0,0,2.458,1.04h0v.26a5.935,5.935,0,0,1-2.232-.99A5.462,5.462,0,0,1,517.7,289.22Z" transform="translate(-494.66 -276.759)"/>
      <path id="Path_2167" data-name="Path 2167" d="M438.093,322.657v.091a32.467,32.467,0,0,0,.437,3.68c.78,4.493-.242,13.415-.39,14.649-.083-.055-.166-.109-.26-.166h0c.036-.3,1.237-10.026.405-14.787a33.036,33.036,0,0,1-.437-3.68v-.091a4.021,4.021,0,0,0-.7-1.993A4.077,4.077,0,0,1,438.093,322.657Z" transform="translate(-435.043 -299.807)"/>
      <path id="Path_2168" data-name="Path 2168" d="M436.891,241.634l-2.549-.049a.013.013,0,0,0-.013,0l-3.259,7.367a20.236,20.236,0,0,0-1.3,3.968c-.949,4.457-.353,6.676.372,7.773-.816-.962-1.658-3.155-.608-8.087a20.309,20.309,0,0,1,1.3-3.971l3.259-7.365,3,.057v.021A1.626,1.626,0,0,1,436.891,241.634Z" transform="translate(-429.043 -241.27)"/>
      <path id="Path_2169" data-name="Path 2169" d="M533.15,250.36h0Z" transform="translate(-506.095 -247.998)"/>
      <path id="Path_2170" data-name="Path 2170" d="M467,247.094l-2.544-.78h0c-.151.169-3.846,4.262-6.622,7.578-2.482,2.963-6.832,2.731-7.879,2.627-.19-.021-.382-.036-.572-.049-2.859-.182-3.971-.52-4.345-1.24.535.52,1.71.78,4.109.925.19.013.382.029.572.047,1.039.107,5.4.338,7.879-2.625,2.775-3.316,6.471-7.409,6.622-7.578h0l3.716,1.125A2.3,2.3,0,0,0,467,247.094Z" transform="translate(-440.883 -244.771)"/>
    </g>
    <path id="Path_2171" data-name="Path 2171" d="M400.961,681.791s-3.6.983-4.291-.561" transform="translate(-308.007 -518.21)" opacity="0.1"/>
    <path id="Path_2172" data-name="Path 2172" d="M486.425,678.87s-4.181,1.076-5.135-.59" transform="translate(-370.636 -516.027)" opacity="0.1"/>
    <path id="Path_2173" data-name="Path 2173" d="M618.068,550.894s-.52-2.079-.98-4.129c-.1-1.284-.322-2.95-.418-3.638v-.083a1.1,1.1,0,0,0-.294-.754c.26-.748,1.2-3.6,1.027-4.418-.2-.946-.93-3.254-1.793-4.015a2.311,2.311,0,0,0-1.136-.9,2.993,2.993,0,0,0-2.526.2l-4.387,2.461c-1.759-.26-3.186-.46-3.186-.46s-1.089-.13-2.451-.26c-.424-1.008-1.819-4.057-3.266-4.54a5.965,5.965,0,0,0-3.776.348h-.021l-.052.021h0c-2.859,1.323-2.526,6.923-2.417,8.147a20.314,20.314,0,0,1-1.72,1.915c-.98.863-1.284,3.118-.372,3.584.431.221,1.039.483,1.58.7-2.474,5.262-6.661,15.608-2.911,18.547,5.1,3.994,14.652,5.322,17.931,3.994a.519.519,0,0,0,.26-.018s5.314-1.266,6.557-2.682a9.193,9.193,0,0,0,1.858-4,7.776,7.776,0,0,0,2.495-4.363A13.445,13.445,0,0,0,618.068,550.894Zm-3.324-11.346.127-.629.21.117c-.034.174-.07.353-.117.538l-.2,1.211Zm-1-5.234c.226.151,1.726,1.266,1.427,4.111a1.365,1.365,0,0,0-.083-.322c-.065-.408-.359-.962-1.372-1.3a22.124,22.124,0,0,0-2.651-.59A8.779,8.779,0,0,1,613.744,534.314Zm-14.9.3a8.707,8.707,0,0,0-2.178-.036h-.018a1.039,1.039,0,0,0-.437.055,3.338,3.338,0,0,0-1.234.577c.52-2.908,2.037-3.152,2.368-3.17a8.054,8.054,0,0,1,1.5,2.575Zm16.512,23.066c-.159-2.375-.3-6.086-.382-8.248l.133-.021a3.444,3.444,0,0,0,.442-.088,16.45,16.45,0,0,0,.855,4.137C616.977,554.849,616.075,556.6,615.353,557.677Z" transform="translate(-449.226 -406.411)" fill="url(#linear-gradient-2)"/>
    <path id="Path_2174" data-name="Path 2174" d="M617.335,504.66l-2.962-.92-3.194,1.151-.229,2.006,1.577,1.021,2.5-.083,2.206-1.037.377-1.907Z" transform="translate(-452.183 -372.817)" fill="#cd939c"/>
    <path id="Path_2175" data-name="Path 2175" d="M617.335,504.66l-2.962-.92-3.194,1.151-.229,2.006,1.577,1.021,2.5-.083,2.206-1.037.377-1.907Z" transform="translate(-452.183 -372.817)" opacity="0.2"/>
    <path id="Path_2176" data-name="Path 2176" d="M607.331,541.3s-.808-6.939,2.4-8.342a3.317,3.317,0,0,1,2.458,1.315s-2.339-.13-2.529,4.74Z" transform="translate(-463.856 -408.472)" fill="#f6c6cd"/>
    <path id="Path_2177" data-name="Path 2177" d="M607.331,541.3s-.808-6.939,2.4-8.342a3.317,3.317,0,0,1,2.458,1.315s-2.339-.13-2.529,4.74Z" transform="translate(-463.856 -408.472)" opacity="0.1"/>
    <path id="Path_2178" data-name="Path 2178" d="M601.939,555.5a49.92,49.92,0,0,1-3.425,4.158c-.956.865-1.25,3.095-.361,3.555s2.6,1.12,2.6,1.12Z" transform="translate(-456.735 -425.154)" fill="#cd939c"/>
    <path id="Path_2179" data-name="Path 2179" d="M601.939,555.5a49.92,49.92,0,0,1-3.425,4.158c-.956.865-1.25,3.095-.361,3.555s2.6,1.12,2.6,1.12Z" transform="translate(-456.735 -425.154)" opacity="0.05"/>
    <path id="Path_2180" data-name="Path 2180" d="M623.593,535.926s-1.611-4.246-3.305-4.821a5.881,5.881,0,0,0-3.747.377s2.495-.26,4.026,4.114Z" transform="translate(-470.738 -406.962)" fill="#f6c6cd"/>
    <path id="Path_2181" data-name="Path 2181" d="M689.849,552.812s1.255-3.623,1.058-4.561-.9-3.225-1.744-3.981-1.843.426-1.843.426,2.157,1.3,1.219,5.234l-.281,1.746Z" transform="translate(-523.125 -416.656)" fill="#f6c6cd"/>
    <path id="Path_2182" data-name="Path 2182" d="M689.849,552.812s1.255-3.623,1.058-4.561-.9-3.225-1.744-3.981-1.843.426-1.843.426,2.157,1.3,1.219,5.234l-.281,1.746Z" transform="translate(-523.125 -416.656)" opacity="0.1"/>
    <path id="Path_2183" data-name="Path 2183" d="M661.8,544.053l4.912-2.809a2.859,2.859,0,0,1,2.458-.2,2.243,2.243,0,0,1,1.1.886s-2.37-.132-5,2.963Z" transform="translate(-504.237 -414.316)" fill="#f6c6cd"/>
    <path id="Path_2184" data-name="Path 2184" d="M691.356,582.668s.133,4.475,1.011,6.627-1.757,5.179-1.757,5.179l.483,2.6a7.482,7.482,0,0,0,2.9-4.7,13.581,13.581,0,0,0,0-5.616s-1.819-7.3-1.559-8.077S691.356,582.668,691.356,582.668Z" transform="translate(-525.56 -442.25)" fill="#f6c6cd"/>
    <path id="Path_2185" data-name="Path 2185" d="M691.356,582.668s.133,4.475,1.011,6.627-1.757,5.179-1.757,5.179l.483,2.6a7.482,7.482,0,0,0,2.9-4.7,13.581,13.581,0,0,0,0-5.616s-1.819-7.3-1.559-8.077S691.356,582.668,691.356,582.668Z" transform="translate(-525.56 -442.25)" opacity="0.1"/>
    <path id="Path_2186" data-name="Path 2186" d="M670.115,564s.4,2.282-4.257,1.273l-3.118,27.235s5.169-1.255,6.377-2.659,2.1-4.083,1.819-5.047-.647-12.024-.647-12.024Z" transform="translate(-504.932 -431.445)" fill="#cd939c"/>
    <path id="Path_2187" data-name="Path 2187" d="M594.888,575.89s-9.306,17.523-4.345,21.484,14.252,5.278,17.44,3.96c0,0,1.476.395,1.255-4.213s1.713-17.469,1.713-17.469Z" transform="translate(-450.419 -440.245)" fill="#cd939c"/>
    <path id="Path_2188" data-name="Path 2188" d="M597.086,578.9s-8.732,16.468-4.085,20.189,13.4,4.958,16.39,3.721c0,0,1.388.372,1.18-3.961s1.609-16.414,1.609-16.414Z" transform="translate(-452.308 -442.473)" fill="#f6c6cd"/>
    <path id="Path_2189" data-name="Path 2189" d="M679.26,586.623c-.359.26-2.4-.364-2.4-.364-2.211-.153-1.424-3.963-1.024-5.478.1-.377.177-.611.177-.611a2.842,2.842,0,0,0,2.89.756s.055.424.127,1.039C679.216,583.567,679.518,586.443,679.26,586.623Z" transform="translate(-514.275 -443.413)" opacity="0.1"/>
    <path id="Path_2190" data-name="Path 2190" d="M679.512,586.143c-.356.26-2.4-.361-2.4-.361-2.214-.156-1.427-3.966-1.024-5.478.1-.377.174-.613.174-.613a2.84,2.84,0,0,0,2.89.759s.055.424.13,1.039C679.468,583.079,679.77,585.956,679.512,586.143Z" transform="translate(-514.462 -443.058)" fill="#f6c6cd"/>
    <path id="Path_2191" data-name="Path 2191" d="M679.512,586.51c-.356.26-2.4-.361-2.4-.361-2.214-.156-1.427-3.963-1.024-5.478.1-.377.174-.611.174-.611a2.843,2.843,0,0,0,2.89.756s.055.424.13,1.039C679.468,583.449,679.77,586.323,679.512,586.51Z" transform="translate(-514.462 -443.332)" opacity="0.05"/>
    <path id="Path_2192" data-name="Path 2192" d="M680.624,581.488a12.438,12.438,0,0,1-3.194-1.185c.1-.377.174-.613.174-.613a2.84,2.84,0,0,0,2.89.759S680.548,580.872,680.624,581.488Z" transform="translate(-515.805 -443.058)" opacity="0.1"/>
    <path id="Path_2193" data-name="Path 2193" d="M683.817,579.905s-2.513,6.549,1.71,5.792c0,0,1.985-.208,1.975-1.712s-.494-4.815-.494-4.815Z" transform="translate(-519.982 -442.673)" fill="#f6c6cd"/>
    <path id="Path_2194" data-name="Path 2194" d="M678.172,572.076s-1.279,5.3,2.815,3.337,1.473-3.337,1.473-3.337l-1.954-1.276Z" transform="translate(-516.214 -436.478)" opacity="0.1"/>
    <path id="Path_2195" data-name="Path 2195" d="M678.172,571.826s-1.279,5.3,2.815,3.334,1.473-3.334,1.473-3.334l-1.954-1.276Z" transform="translate(-516.214 -436.293)" fill="#cd939c"/>
    <path id="Path_2196" data-name="Path 2196" d="M679.6,571.529a.946.946,0,0,0-.572,1.471,3.337,3.337,0,0,1,.377,1.7.78.78,0,0,0,.642.826,2.153,2.153,0,0,0,1.78-.691s1.512-.564,1.4-1.3-2.6-2.388-2.6-2.388Z" transform="translate(-516.864 -436.737)" opacity="0.1"/>
    <path id="Path_2197" data-name="Path 2197" d="M679.6,571.277a.948.948,0,0,0-.572,1.473,3.337,3.337,0,0,1,.377,1.7.78.78,0,0,0,.642.826,2.172,2.172,0,0,0,1.78-.691s1.512-.566,1.4-1.3-2.6-2.388-2.6-2.388Z" transform="translate(-516.864 -436.552)" fill="#f6c6cd"/>
    <circle id="Ellipse_922" data-name="Ellipse 922" cx="0.772" cy="0.772" r="0.772" transform="translate(163.546 135.84)" opacity="0.1"/>
    <circle id="Ellipse_923" data-name="Ellipse 923" cx="0.772" cy="0.772" r="0.772" transform="translate(163.546 135.775)" fill="#cd939c"/>
    <path id="Path_2198" data-name="Path 2198" d="M618.4,548.9s-7.347-.91-7.721-.629c0,0-3.9.665-3.9,7.939,0,0-.08,4.179,7.957,6.19,0,0,6.45.567,8.555-1.99s1.06-6.858,1.06-6.858.839-3.287,4.738-1.013c0,0,.408-1.3-1.351-1.923S618.4,548.9,618.4,548.9Z" transform="translate(-463.515 -419.761)" opacity="0.1"/>
    <path id="Path_2199" data-name="Path 2199" d="M618.4,548.391s-7.347-.91-7.721-.632c0,0-3.9.665-3.9,7.939,0,0-.08,4.181,7.957,6.193,0,0,6.45.566,8.555-1.991s1.06-6.858,1.06-6.858.839-3.287,4.738-1.016c0,0,.408-1.3-1.351-1.923S618.4,548.391,618.4,548.391Z" transform="translate(-463.515 -419.386)" fill="#cd939c"/>
    <path id="Path_2200" data-name="Path 2200" d="M620.209,548.6s-7.141-.855-7.505-.593c0,0-3.784.626-3.784,7.474,0,0-.078,3.932,7.734,5.826,0,0,6.271.52,8.316-1.874s1.039-6.455,1.039-6.455.816-3.1,4.6-.954c0,0,.4-1.219-1.3-1.819S620.209,548.6,620.209,548.6Z" transform="translate(-465.099 -419.571)" opacity="0.1"/>
    <path id="Path_2201" data-name="Path 2201" d="M620.209,548.35s-7.141-.855-7.505-.592c0,0-3.784.626-3.784,7.471,0,0-.078,3.935,7.734,5.826,0,0,6.271.52,8.316-1.874s1.039-6.453,1.039-6.453.816-3.1,4.6-.956c0,0,.4-1.216-1.3-1.819S620.209,548.35,620.209,548.35Z" transform="translate(-465.099 -419.386)" fill="#f6c6cd"/>
    <path id="Path_2202" data-name="Path 2202" d="M630.759,592.819s-1.941-.886-2.04.78c0,0-.658,1.679-.691,1.876s.1,1.908,1.614,1.843a2.339,2.339,0,0,0,2.04-1.247,6.233,6.233,0,0,1,.78-2.235c.45-.395-.33-.78-.626-.78A6.361,6.361,0,0,1,630.759,592.819Z" transform="translate(-479.238 -452.601)" fill="#cd939c"/>
    <path id="Path_2203" data-name="Path 2203" d="M629.749,591.809s-1.941-.886-2.04.78c0,0-.658,1.679-.691,1.876s.1,1.907,1.614,1.842a2.338,2.338,0,0,0,2.04-1.253,6.186,6.186,0,0,1,.78-2.237c.452-.4-.33-.78-.626-.78A6.458,6.458,0,0,1,629.749,591.809Z" transform="translate(-478.49 -451.853)" opacity="0.1"/>
    <path id="Path_2204" data-name="Path 2204" d="M630,591.556s-1.941-.889-2.04.78c0,0-.657,1.679-.691,1.876s.1,1.91,1.614,1.845a2.339,2.339,0,0,0,2.04-1.255,6.23,6.23,0,0,1,.78-2.235c.45-.395-.33-.78-.626-.78A6.412,6.412,0,0,1,630,591.556Z" transform="translate(-478.675 -451.665)" fill="#f6c6cd"/>
    <circle id="Ellipse_924" data-name="Ellipse 924" cx="0.704" cy="0.704" r="0.704" transform="translate(149.65 142.451)" opacity="0.1"/>
    <circle id="Ellipse_925" data-name="Ellipse 925" cx="0.704" cy="0.704" r="0.704" transform="translate(149.65 142.386)" fill="#cd939c"/>
    <path id="Path_2205" data-name="Path 2205" d="M616.25,608.978s-7.653-.891-12.994-3.638c0,0-4.212,10.618-.855,12.1s10.335,3.864,12.292,3.043c0,0,1.169.192.78-3.672A23.542,23.542,0,0,1,616.25,608.978Z" transform="translate(-459.312 -462.042)" fill="#cd939c"/>
    <path id="Path_2206" data-name="Path 2206" d="M614.474,612.5s-7.653-.839-12.994-3.423c0,0-4.215,9.99-.857,11.388s10.335,3.638,12.295,2.859c0,0,1.169.182.78-3.456A20.851,20.851,0,0,1,614.474,612.5Z" transform="translate(-457.996 -464.81)" opacity="0.1"/>
    <path id="Path_2207" data-name="Path 2207" d="M614.979,612.253s-7.651-.839-12.994-3.422c0,0-4.213,9.99-.855,11.388s10.335,3.638,12.295,2.859c0,0,1.167.182.78-3.456A20.955,20.955,0,0,1,614.979,612.253Z" transform="translate(-458.372 -464.625)" fill="#f6c6cd"/>
    <g id="Group_606" data-name="Group 606" transform="translate(144.637 128.268)" opacity="0.1">
      <path id="Path_2208" data-name="Path 2208" d="M631.618,549.759c-1.713-.592-9.1-1.611-9.1-1.611s-7.141-.858-7.505-.593a4.436,4.436,0,0,0-2.957,2.82,4.335,4.335,0,0,1,2.827-2.542c.361-.26,7.505.593,7.505.593s7.373,1.021,9.1,1.614c1.149.4,1.346,1.076,1.351,1.481l.091.049S633.331,550.351,631.618,549.759Z" transform="translate(-612.06 -547.504)"/>
      <path id="Path_2209" data-name="Path 2209" d="M673.494,566.11a2.255,2.255,0,0,0-.195.465,9.338,9.338,0,0,1-.3,5.244,9.151,9.151,0,0,0,.418-5.525S673.45,566.224,673.494,566.11Z" transform="translate(-657.163 -561.275)"/>
    </g>
  </g>
</svg>
