<svg xmlns="http://www.w3.org/2000/svg" width="342.647" height="284.855" viewBox="0 0 342.647 284.855">
  <g id="undraw_Eiffel_tower_3gw8" transform="translate(0)">
    <path id="Path_3025" data-name="Path 3025" d="M421.651,445.638l-34.448,16.3,30.486-22.8a172.031,172.031,0,0,0-16.645-21.9L251.656,454.372,386.6,402.9A172.006,172.006,0,0,0,367,387.962L139.368,424.627a170.6,170.6,0,0,0-37.362,106.463H444.654a170.5,170.5,0,0,0-23-85.452Z" transform="translate(-102.006 -266.877)" fill="#f2f2f2"/>
    <path id="Path_3026" data-name="Path 3026" d="M423.993,324.268A171.443,171.443,0,0,0,217.29,368.7C271.1,356.909,364.8,336.5,423.993,324.268Z" transform="translate(-177.629 -213.768)" fill="#f2f2f2"/>
    <path id="Path_3027" data-name="Path 3027" d="M717.131,727.363q-7.094-1.2-13.644-2.064l1.726-3.347c-.582-.2-3.14,1.715-3.14,1.715l2.266-9.716c-2.928.353-4.416,10.273-4.416,10.273l-3.271-3.354,1.584,3.771a302.03,302.03,0,0,0-34.616-2.179L665.1,719.6c-.582-.2-3.14,1.715-3.14,1.715l2.266-9.716c-2.928.353-4.416,10.273-4.416,10.273l-3.271-3.354,1.677,3.994a194.427,194.427,0,0,0-19.9,1.352c1.494-4.463,6.571-8.707,6.571-8.707-3.877,1.153-5.911,3.085-6.974,4.887A78.252,78.252,0,0,1,642.435,693s-8.014,17.439-6.991,29.145l.122,2.079a79.869,79.869,0,0,0-10.21,1.985Z" transform="translate(-445.309 -466.976)" fill="#3f3d56"/>
    <path id="Path_3028" data-name="Path 3028" d="M408.974,725.548q-7.094-1.2-13.644-2.064l1.726-3.347c-.582-.2-3.14,1.715-3.14,1.715l2.266-9.716c-2.928.353-4.416,10.273-4.416,10.273l-3.271-3.354,1.584,3.771a302.03,302.03,0,0,0-34.616-2.179l1.478-2.865c-.582-.2-3.14,1.715-3.14,1.715l2.266-9.716c-2.928.353-4.416,10.273-4.416,10.273l-3.271-3.354,1.677,3.994a194.461,194.461,0,0,0-19.9,1.352c1.494-4.463,6.571-8.707,6.571-8.707-3.877,1.153-5.911,3.085-6.974,4.887a78.251,78.251,0,0,1,4.523-27.037s-8.014,17.439-6.991,29.145l.122,2.079A79.869,79.869,0,0,0,317.2,724.4Z" transform="translate(-243.167 -465.786)" fill="#3f3d56"/>
    <path id="Path_3029" data-name="Path 3029" d="M495.869,798.326c0,5.32-49.443,21.33-110.433,21.33S275,803.646,275,798.326s49.443,2.064,110.433,2.064S495.869,793.006,495.869,798.326Z" transform="translate(-215.487 -534.801)" fill="#3f3d56"/>
    <path id="Path_3030" data-name="Path 3030" d="M495.869,798.326c0,5.32-49.443,21.33-110.433,21.33S275,803.646,275,798.326s49.443,2.064,110.433,2.064S495.869,793.006,495.869,798.326Z" transform="translate(-215.487 -534.801)" opacity="0.1"/>
    <ellipse id="Ellipse_1576" data-name="Ellipse 1576" cx="110" cy="9.5" rx="110" ry="9.5" transform="translate(60 253.855)" fill="#3f3d56"/>
    <ellipse id="Ellipse_1577" data-name="Ellipse 1577" cx="93.5" cy="5.5" rx="93.5" ry="5.5" transform="translate(83 255.855)" opacity="0.1"/>
    <path id="Path_3031" data-name="Path 3031" d="M405.992,597.861c.154,21.917-12.821,29.66-28.892,29.773q-.56,0-1.115,0-1.117-.016-2.212-.086c-14.512-.925-25.838-8.89-25.982-29.272-.149-21.093,26.623-47.9,28.631-49.885l0,0,.115-.113S405.838,575.946,405.992,597.861Z" transform="translate(-263.234 -372.035)" fill="#47d147"/>
    <path id="Path_3032" data-name="Path 3032" d="M407.031,624.289l10.538-14.946-10.554,16.578L407,627.63q-1.117-.016-2.212-.086l.992-21.934-.01-.17.019-.032.094-2.073L395.07,586.866,405.9,601.783l.03.439.75-16.572-9.277-17.032,9.37,14.119.66-34.352,0-.114v.113l.041,27.087,9.039-10.8L407.457,577.8l-.137,14.835,8.414-14.295L407.3,594.82l-.076,8.249,12.216-19.9L407.2,605.946Z" transform="translate(-294.248 -372.036)" fill="#3f3d56"/>
    <path id="Path_3033" data-name="Path 3033" d="M513.793,293.836H541l-9.036-14.6-6.366-.531,3.73-3.73-22.732-36.743v-6h-3.057l-18.546-44.406,3.2-4.4-3.2-2.4h-1.777L472.83,86.807h1.558l2.4-6.8V66.8h-3.2V60.4h-4V48h-.8V36h-.8V48h-1.2V60.4h-3.6v6.4h-3.6v13.2l2.8,6.8H464l-7.786,94.213h-.033l-5.2,1.6,2.8,4.8.2.4h-.2l-15.569,44.406h-4.033l.4,6-33.6,55.608h27.6v-6.4h-1.6s5.2-35.2,42.806-38.405c38.405-.8,45.606,37.605,45.606,37.605h-1.6Zm18.736-13,1.067,3.734-4.8-3.2Zm-5.867,1.067,5.867,3.734-6.4-.533Zm-6.934,3.734,3.734-4.267,1.6,4.267Zm-6.248-23.6,1.372,3.2-5.944-3.2Zm-1.772-2.057.457-2.743,5.029,3.2Zm8.554,14.459,1.6,3.734-6.934-3.734Zm-7.239-2.8,3.2-3.658,1.372,3.658Zm5.487-.457.457-2.743,5.029,3.2Zm5.487,7.525-2.134-4.267h5.867Zm.914-7.982-4.115-2.743,3.2-.457Zm-1.372-4.572-5.486-.457,3.2-3.2Zm-6.858-.457-1.829-3.658h5.029Zm1.429-6.172-4.115-2.743,3.2-.457Zm-1.372-4.572-5.486-.457,3.2-3.2Zm-6.858-.457-1.829-3.658h5.029Zm-6.172-6.115.457-2.743,5.029,3.2Zm4.343,5.658-5.944-3.2h4.572Zm2.057-6.115-4.115-2.743,3.2-.457Zm-1.372-4.572-5.486-.457,3.2-3.2Zm-3.658-4.115-3.2,3.658-1.829-3.658Zm-5.029,3.2-5.944-3.2h4.572Zm-44.929-10.2,8.266-36.805h12.8l10.942,36.805Zm28.126,10.6-5.944-3.2h4.572Zm-10.516-.8-1.6,1.829-.914-1.829Zm-2.515,1.6-2.972-1.6h2.286Zm-19.831-22.8,6-3.6-1.6,6.8Zm3.2,4h-9.6l5.2-3.2ZM468.31,97.178l-1.693,1.693-1.693-1.693Zm-3.385-.739,1.693-1.693,1.693,1.693Zm3.385,4.8h-3.385l1.693-1.693Zm-1.354-2.031,1.693-1.693V100.9Zm1.631,3.6v4l-2-2Zm-1.631-8.4,1.693-1.693V96.1Zm.431-4.4,1.333-1.334v2.667Zm1.067,1.6h-2.667l1.334-1.334Zm-1.334-1.867-1.334-1.334h2.667Zm-.267.267-1.334,1.334V88.674Zm1.457,2.37-1.693,1.693-1.693-1.693Zm-2.031,2.031L464.587,96.1V92.716Zm0,4.8-1.693,1.693V97.516Zm1.908,3.2-2,2-2-2Zm0,4.8h-4l2-2Zm.4,1.6v4l-2-2Zm-.4-.4-2,2-2-2Zm0,4.8h-4l2-2Zm.308,1.939v4.924l-2.462-2.462ZM468,120.566h-4.924l2.462-2.462Zm.492,1.785v4.924l-2.462-2.462Zm-.492-.492-2.462,2.462-2.462-2.462Zm0,5.909h-4.924l2.462-2.462Zm.385,2.046v6l-3-3Zm-.6,6.6h-6l3-3Zm.6,2.2v6l-3-3Zm-.6-.6-3,3-3-3Zm0,7.2h-6l3-3Zm.492,2.462v7.078l-3.539-3.539Zm-.708,7.786h-7.078l3.539-3.539Zm.615,3.754v8l-4-4Zm-.8,8.8h-8l4-4Zm.739,3.293v8.617l-4.308-4.308Zm-.862-.862-4.308,4.308-4.308-4.308Zm0,10.34h-8.617l4.308-4.308Zm-9.678,25.234h-8l4.8-2.8Zm-2.4-3.6,5.2-3.2-1.2,7.2Zm3.2,5.6-1.2,6.8-3.2-3.6Zm-2-.8-4,3.2-2.8-3.2Zm-.4,8h-8.4l4.4-3.2Zm2.743,24-1.829,3.658-3.2-3.658Zm1.372,0h4.572l-5.944,3.2Zm30.112-19.319-4.173,3.492-2.059-6.677Zm-7.193-5.525-1.659-6.7,4.608,2.894Zm5-3.147,4.608,2.894-8.382.571Zm-.508-1.569-4.209-2.921,6.785-.462Zm-5.488-4.037,3-3.011,4.98,2.468Zm-1.569.508-1.687-7.1,5.406,2.84Zm-9.742-25.349,4.308-4.308,4.308,4.308Zm-.862-.862v-8.617l4.308,4.308Zm.862-9.478h8.617l-4.308,4.308Zm-.123-2.431,4-4,4,4Zm-.8-.8v-8l4,4Zm-.092-12.463v-7.078l3.539,3.539Zm4.247-2.831,3.539,3.539H470.4Zm-2.923-52.715-1.693,1.693V97.516Zm-1.354-2.031h3.385l-1.693,1.693Zm-.277,11.632,2,2-2,2Zm.4-.4h4l-2,2Zm-.308,13.94,2.462,2.462-2.462,2.462Zm.492-.492H474.9l-2.462,2.462Zm-.385,16.756,3,3-3,3Zm.6-.6h6l-3,3Zm3,4.2,3,3h-6Zm.6-.6,3-3v6Zm-3.6-5.2,3-3,3,3Zm-.6-.6v-6l3,3Zm2.847-10.509,2.462,2.462h-4.923Zm.492-.492,2.462-2.462v4.924Zm-2.954-4.247,2.462-2.462,2.462,2.462Zm-.492-.492v-4.924l2.462,2.462Zm2.308-8.863,2,2h-4Zm.4-.4,2-2v4Zm-2.4-3.6,2-2,2,2Zm-.4-.4v-4l2,2Zm1.97-7.263,1.693,1.693h-3.385Zm.339-.339,1.693-1.693V100.9Zm-2.031-2.77,1.693-1.693,1.693,1.693Zm-.339-.338V92.716l1.693,1.693Zm1.8-6.093,1.334-1.334v2.667Zm1.067,1.6H469.52l1.334-1.334Zm-1.333-1.867-1.334-1.334h2.667Zm-.267.267-1.333,1.334V88.674Zm17.688,149.621-3.2,3.658-1.829-3.658Zm-.985-15.51,4.173-3.492,5.406,2.84Zm10.3-1.9-5.433-3.239,3.03-2.612Zm-6.685-3.956-4.98-2.468,7.983-.544Zm2.441-5.379-4.581-2.495L491.338,207Zm-3.02-9.017-4.581-2.495,2.6-2.984Zm-2.431-6.25-2.975,3.411-5.406-2.84Zm-7.7-17.684-4.308-4.308,4.308-4.308Zm-.8-12.709-4-4,4-4Zm-4.8-4.8-4-4h8Zm3.6-7.663-3.539-3.539,3.539-3.539Zm-4.247-4.247-3.539-3.539h7.078Zm2.847-14.694-3-3,3-3Zm-3.6-3.6-3-3h6Zm2.2-12.14-2.462-2.462,2.462-2.462Zm-2.954-2.954-2.462-2.462H474.9Zm1.754-10.309-2-2,2-2Zm-2.4-2.4-2-2h4Zm1.6-8.309L471.7,94.408l1.693-1.693Zm-2.031-2.031-1.693-1.693h3.385Zm-7.57,8.74,2,2-2,2Zm0,6,2,2-2,2ZM468,114.657l-2.462,2.462-2.462-2.462Zm-5.416.492,2.462,2.462-2.462,2.462Zm0,7.2,2.462,2.462-2.462,2.462Zm5.2,6.863-3,3-3-3Zm-6.6.6,3,3-3,3Zm0,8.8,3,3-3,3Zm6.385,8.355-3.539,3.539-3.539-3.539Zm-7.786.708,3.539,3.539-3.539,3.539Zm7.6,10.74-4,4-4-4Zm-8.8.8,4,4-4,4Zm-.8,12.094,4.308,4.308-4.308,4.308Zm1.8,27.111-5.2,3.2-3.2-3.2Zm-8.8.8,2.8,2.8-4.4,2.8Zm-2.4,8.8,2.8,3.2-4.4,2.8Zm6,8.4-4.8,2.8-3.2-2.8Zm-9.2,1.2,3.2,2.4-5.2,3.6Zm2.286,21.6-5.944,3.2,1.372-3.2Zm-5.944,0-1.829,3.658-3.2-3.658Zm-6.4.457,3.2,3.2-5.486.457Zm5.144,11.144-5.944,3.2,1.372-3.2Zm-7.887-2,5.029-3.2.457,2.743Zm0-4.115,3.2.457-4.115,2.743Zm1.943,6.115-1.829,3.658-3.2-3.658Zm-6.4.457,3.2,3.2-5.486.457Zm-.476,23.146-6.934,3.734,1.6-3.734Zm-9.068-2.8,5.029-3.2.457,2.743Zm6.4,0,1.372-3.658,3.2,3.658Zm8.687-9.6-5.944,3.2,1.372-3.2Zm-8.287-1.6,5.029-3.2.457,2.743Zm0-4.115,3.2.457-4.115,2.743Zm2.343,5.715-1.829,3.658-3.2-3.658Zm-6.4.457,3.2,3.2-5.486.457Zm-2.743,5.029,3.2.457-4.115,2.743Zm2.134,6.915L418.38,278.7l-3.734-4.267Zm-10.668,6.4,3.734.533-4.8,3.2Zm0,4.8,5.867-3.734.533,3.2Zm.533-6.4,2.667-4.267,3.734,3.734Zm6.934,6.4,1.6-4.267,3.734,4.267Zm7.468-.533-3.734-4.267,6.4-.533Zm3.2-6.4h-5.867l7.468-3.734Zm3.2-7.525-3.2-3.658,5.486-.457Zm2.743-5.487H428.9l6.4-3.2Zm-2.343-5.258,1.372-3.658,3.2,3.658Zm6.4-.457-3.2-3.658,5.487-.457Zm2.743-5.486H435.7l6.4-3.2Zm-1.943-5.658,1.372-3.658,3.2,3.658Zm6.4-.457-3.2-3.658,5.486-.457Zm-2.286-5.486,6.4-3.2-1.372,3.2Zm6.687,1.829,3.2.457-4.115,2.743Zm0,4.115,5.029-3.2.457,2.743Zm.457-5.486,2.286-3.658,3.2,3.2Zm5.944,5.486,1.372-3.658,3.2,3.658Zm6.4-.457-3.2-3.658,5.487-.457Zm-2.286-5.486,6.4-3.2-1.372,3.2Zm6.229-.629,3.2,1.6h-2.514Zm.914,2.286,2.743.229-1.6,1.829Zm2.057,2.286L470.9,245l.686,1.829Zm4.115-4.572,1.143,1.829-2.743-.229Zm-1.372,4.343.229-1.372,2.515,1.6Zm1.143-1.6,1.6-.229.457,1.6Zm2.286-4.915,6.4,3.2h-5.029Zm1.829,4.572,5.486.457-3.2,3.658Zm4.115,4.572,3.2-3.658,1.372,3.658Zm8.23-9.144,2.286,3.658-5.486-.457Zm-2.743,8.687.457-2.743,5.029,3.2Zm2.286-3.2,3.2-.457.914,3.2Zm3.086-5.887,6.4,3.2h-5.029Zm1.829,4.572,5.487.457-3.2,3.658Zm7.315.914,1.372,3.658H498.22Zm.229,9.316-1.372-3.2,6.4,3.2Zm.457,1.372,5.487.457-3.2,3.658Zm7.315.914,1.372,3.658h-4.572Zm-2.343,5.715,6.4,3.2H508.45Zm1.829,4.572,5.487.457-3.2,3.658Zm3.886,7.906,7.468,3.734h-5.868Zm2.134,5.334,6.4.533-3.734,4.267Z" transform="translate(-298.123 -36)" fill="#3f3d56"/>
    <rect id="Rectangle_314" data-name="Rectangle 314" width="5.201" height="2.4" transform="translate(163.063 32.405)" opacity="0.1"/>
    <rect id="Rectangle_315" data-name="Rectangle 315" width="5.201" height="2.4" transform="translate(171.464 32.405)" opacity="0.1"/>
    <path id="Path_3034" data-name="Path 3034" d="M865.623,765.617c-4.312,2.543-6.009,7.654-6.009,7.654s5.294.989,9.606-1.554,6.009-7.654,6.009-7.654S869.935,763.074,865.623,765.617Z" transform="translate(-598.975 -513.465)" fill="#3f3d56"/>
    <path id="Path_3035" data-name="Path 3035" d="M866.706,755.128c-2.415,4.385-7.474,6.232-7.474,6.232s-1.144-5.263,1.271-9.648,7.474-6.232,7.474-6.232S869.121,750.743,866.706,755.128Z" transform="translate(-598.548 -501.399)" fill="#47d147"/>
  </g>
</svg>
