<svg xmlns="http://www.w3.org/2000/svg" width="342.647" height="273.665" viewBox="0 0 342.647 273.665">
  <g id="undraw_travel_plans_li01_1_" data-name="undraw_travel_plans_li01 (1)" transform="translate(0 0)">
    <ellipse id="Ellipse_1587" data-name="Ellipse 1587" cx="51.825" cy="8.913" rx="51.825" ry="8.913" transform="translate(0 255.839)" fill="#3f3d56"/>
    <path id="Path_3077" data-name="Path 3077" d="M941.446,640.866c.1,19.149,11.062,25.771,24.537,25.693q.469,0,.934-.016.937-.026,1.854-.1c12.157-.967,21.569-8.05,21.475-25.859-.1-18.429-22.826-41.557-24.53-43.266l0,0-.1-.1S941.346,621.718,941.446,640.866Z" transform="translate(-933.456 -408.929)" fill="#47d147"/>
    <path id="Path_3078" data-name="Path 3078" d="M993.294,663.623,984.3,650.682l9.023,14.367.032,1.492q.937-.027,1.854-.1l-1.063-19.151.007-.148-.017-.028-.1-1.81,8.893-14.506L994,643.948l-.021.384-.8-14.469,7.6-14.981-7.707,12.438-.916-30,0-.1v.1l.251,23.664-7.694-9.337,7.739,11.375.271,12.959-7.2-12.4,7.244,14.3.151,7.206-10.452-17.252L992.962,647.6Z" transform="translate(-959.895 -408.928)" fill="#3f3d56"/>
    <ellipse id="Ellipse_1588" data-name="Ellipse 1588" cx="16.334" cy="17.02" rx="16.334" ry="17.02" transform="translate(40.37 52.298)" fill="#2f2e41"/>
    <ellipse id="Ellipse_1589" data-name="Ellipse 1589" cx="11.092" cy="11.558" rx="11.092" ry="11.558" transform="translate(48.043 63.707)" fill="#ffb8b8"/>
    <path id="Path_3079" data-name="Path 3079" d="M933.788,290.1s-4.8,11.558-2.4,12.808,3.6,6.872,3.6,6.872l-6.3,13.745L920,329.144h-5.1s-5.1-23.741-3.3-26.552S920,298.218,920,298.218a15.308,15.308,0,0,0,.9-7.185C920.3,287.6,933.788,290.1,933.788,290.1Z" transform="translate(-868.057 -208.584)" fill="#ffb8b8"/>
    <path id="Path_3080" data-name="Path 3080" d="M836.29,363.045l7.794-6.56s14.09-10.309,12.291-2.811-9.893,8.122-9.893,8.122l-13.49,11.246Z" transform="translate(-763.365 -248.733)" fill="#ffb8b8"/>
    <path id="Path_3081" data-name="Path 3081" d="M905.1,480.973s3.6,15.619,0,36.861l-1.5,8.434s0,6.56-1.5,9.059c0,0-3.9,37.173-6,37.173s-8.694-1.25-9.293-2.187,11.692-90.9,11.692-90.9Z" transform="translate(-831.574 -332.299)" fill="#2f2e41"/>
    <path id="Path_3082" data-name="Path 3082" d="M905.1,480.973s3.6,15.619,0,36.861l-1.5,8.434s0,6.56-1.5,9.059c0,0-3.9,37.173-6,37.173s-8.694-1.25-9.293-2.187,11.692-90.9,11.692-90.9Z" transform="translate(-831.574 -332.299)" opacity="0.1"/>
    <path id="Path_3083" data-name="Path 3083" d="M902.373,738.6l4.644,17.933s9.288,5.693,3.551,6.832a23.031,23.031,0,0,1-11.473-1.139l-2.732-8.255-2.732-1.708v8.824h-.82L890.9,749.419s.273-5.978,1.912-6.547,2.459-3.7,2.459-3.7Z" transform="translate(-838.693 -500.895)" fill="#2f2e41"/>
    <path id="Path_3084" data-name="Path 3084" d="M902.373,738.6l4.644,17.933s9.288,5.693,3.551,6.832a23.031,23.031,0,0,1-11.473-1.139l-2.732-8.255-2.732-1.708v8.824h-.82L890.9,749.419s.273-5.978,1.912-6.547,2.459-3.7,2.459-3.7Z" transform="translate(-838.693 -500.895)" opacity="0.1"/>
    <path id="Path_3085" data-name="Path 3085" d="M918.217,465.6s-2.4,9.371-3.3,10.933c0,0-1.2,26.552-5.1,35.611l-4.2,11.558s-6.9,34.05-5.1,37.8c0,0-9.293,2.187-9.893,0,0,0,.3-18.118-.6-20.617s-2.4-16.244,4.8-26.24v-30.3s-11.392-10-4.8-22.8S918.217,465.6,918.217,465.6Z" transform="translate(-843.493 -317.55)" fill="#2f2e41"/>
    <path id="Path_3086" data-name="Path 3086" d="M923.052,751.1l5.1,19.68s10.193,6.247,3.9,7.5-12.591-1.25-12.591-1.25l-3-9.059-3-1.874v9.684h-.9l-2.1-12.808s.3-6.56,2.1-7.185,2.7-4.061,2.7-4.061Z" transform="translate(-866.915 -509.026)" fill="#2f2e41"/>
    <path id="Path_3087" data-name="Path 3087" d="M884.112,321.7s7.547,4.52,7.547,4.832-.9,5.31-.9,5.31,9.293,9.684,3,18.118c0,0-2.1,1.562-2.1,6.56v5s17.687,11.558,13.191,15.307-9.293,3.124-10.792,5.31-10.193-1.874-11.992-2.5-2.1-1.25-3.6.937-9.893-1.562-9.893-1.562a54.541,54.541,0,0,0-6.6-1.562,4.024,4.024,0,0,1-2.1-.625l12.891-13.745-6.445-17.025s19.036-12.339,19.036-15.775A46.282,46.282,0,0,0,884.112,321.7Z" transform="translate(-821.432 -229.71)" fill="#3f3d56"/>
    <path id="Path_3088" data-name="Path 3088" d="M913.308,323.9a15.051,15.051,0,0,1,.9,13.432,184.2,184.2,0,0,1-7.794,16.869l7.495,2.5h6.9s14.39-2.5,12.891,3.124S922,362.951,922,362.951h-6s-13.49,1.562-15.289-.937c0,0-4.8-.312-2.7-10.309s8.226-27.107,8.226-27.107Z" transform="translate(-862.267 -231.145)" fill="#ffb8b8"/>
    <ellipse id="Ellipse_1590" data-name="Ellipse 1590" cx="10.461" cy="5.546" rx="10.461" ry="5.546" transform="translate(50.831 58.992)" fill="#2f2e41"/>
    <ellipse id="Ellipse_1591" data-name="Ellipse 1591" cx="1.499" cy="3.436" rx="1.499" ry="3.436" transform="translate(46.694 71.048)" fill="#ffb8b8"/>
    <ellipse id="Ellipse_1592" data-name="Ellipse 1592" cx="8.994" cy="9.371" rx="8.994" ry="9.371" transform="translate(40.399 44.808)" fill="#2f2e41"/>
    <ellipse id="Ellipse_1593" data-name="Ellipse 1593" cx="36.898" cy="38.448" rx="36.898" ry="38.448" transform="translate(204.112 19.907)" fill="#47d147" opacity="0.3"/>
    <ellipse id="Ellipse_1594" data-name="Ellipse 1594" cx="21.803" cy="22.719" rx="21.803" ry="22.719" transform="translate(290.655 142.592)" fill="#47d147" opacity="0.3"/>
    <ellipse id="Ellipse_1595" data-name="Ellipse 1595" cx="44.613" cy="46.487" rx="44.613" ry="46.487" transform="translate(127.969 118.824)" fill="#47d147" opacity="0.3"/>
    <path id="Path_3089" data-name="Path 3089" d="M153.861,312.467l.656-.146q-.211-1.03-.439-2.053l-.653.159Q153.651,311.443,153.861,312.467Z" transform="translate(166.604 -222.276)" fill="#47d147"/>
    <path id="Path_3090" data-name="Path 3090" d="M158.318,142.939c.344-1.332.717-2.677,1.109-4l-.641-.207c-.394,1.329-.77,2.682-1.116,4.022Zm209.827-.305.647-.184c-.351-1.344-.732-2.7-1.132-4.034l-.64.209c.4,1.324.776,2.673,1.125,4.009ZM160.676,135c.439-1.305.906-2.616,1.388-3.9l-.624-.255c-.485,1.288-.955,2.607-1.4,3.92Zm205.079-.333.633-.233c-.447-1.315-.923-2.638-1.415-3.933l-.624.257c.489,1.287.962,2.6,1.406,3.909Zm-202.164-7.4c.528-1.263,1.087-2.535,1.661-3.781l-.6-.3c-.578,1.253-1.14,2.533-1.671,3.8ZM362.8,126.9l.614-.282c-.539-1.276-1.107-2.558-1.69-3.811l-.6.3c.579,1.245,1.144,2.52,1.679,3.788Zm-195.758-7.141c.618-1.224,1.266-2.45,1.925-3.645l-.582-.348c-.663,1.2-1.315,2.436-1.937,3.667Zm192.265-.367.593-.328c-.628-1.231-1.286-2.466-1.955-3.669l-.58.351C358.034,116.946,358.688,118.173,359.311,119.4Zm-188.288-6.847c.7-1.171,1.434-2.345,2.177-3.489l-.556-.392c-.748,1.152-1.485,2.333-2.191,3.511ZM355.3,112.18l.568-.372c-.712-1.177-1.454-2.358-2.208-3.508l-.554.394c.749,1.143,1.487,2.316,2.195,3.487Zm-179.8-6.525c.779-1.11,1.592-2.225,2.417-3.315l-.527-.433c-.83,1.1-1.649,2.218-2.433,3.335Zm175.288-.361.54-.415c-.794-1.121-1.618-2.241-2.448-3.329l-.525.435c.826,1.081,1.645,2.194,2.434,3.309ZM180.451,99.12c.859-1.053,1.749-2.1,2.645-3.123l-.495-.472c-.9,1.026-1.8,2.083-2.661,3.142Zm165.356-.347.509-.455c-.868-1.055-1.768-2.109-2.675-3.132l-.493.474c.9,1.017,1.8,2.064,2.658,3.113Zm-159.959-5.8c.933-.986,1.894-1.967,2.858-2.914l-.461-.509c-.969.953-1.937,1.939-2.875,2.932Zm154.535-.327.476-.493c-.942-.989-1.913-1.971-2.886-2.919l-.458.51c.967.943,1.932,1.919,2.869,2.9ZM191.666,87.26c1-.912,2.026-1.817,3.055-2.689l-.423-.542c-1.035.878-2.07,1.788-3.074,2.706Zm142.881-.3.44-.528c-1.008-.913-2.045-1.819-3.082-2.691l-.421.544c1.031.867,2.062,1.767,3.064,2.674ZM197.869,82c1.057-.832,2.147-1.656,3.237-2.45l-.384-.573c-1.1.8-2.193,1.628-3.257,2.465Zm130.46-.271.4-.56c-1.07-.834-2.167-1.658-3.262-2.448l-.382.575C326.175,80.081,327.266,80.9,328.329,81.729Zm-123.9-4.5c1.116-.75,2.261-1.489,3.4-2.2l-.343-.6c-1.149.712-2.3,1.455-3.423,2.21Zm117.335-.237.362-.589c-1.124-.749-2.276-1.487-3.424-2.192l-.341.6c1.141.7,2.286,1.433,3.4,2.178ZM211.308,72.965c1.163-.662,2.358-1.311,3.549-1.93l-.3-.626c-1.2.623-2.4,1.276-3.571,1.942Zm103.574-.2.319-.615c-1.173-.66-2.373-1.307-3.568-1.922l-.3.627c1.188.611,2.381,1.254,3.546,1.911Zm-96.408-3.522c1.208-.57,2.445-1.126,3.678-1.651l-.254-.647c-1.24.529-2.486,1.088-3.7,1.662Zm89.252-.161.275-.638c-1.214-.568-2.456-1.12-3.692-1.642l-.252.648c1.229.519,2.463,1.068,3.67,1.632Zm-81.839-3c1.25-.477,2.524-.936,3.788-1.363l-.207-.665c-1.271.43-2.553.892-3.811,1.372Zm74.445-.123.229-.657c-1.253-.474-2.53-.929-3.8-1.353l-.205.666c1.259.421,2.528.874,3.773,1.344ZM233.509,63.5c1.277-.378,2.578-.736,3.865-1.064l-.159-.679c-1.3.33-2.6.69-3.889,1.071Zm59.222-.089.181-.673c-1.284-.376-2.593-.732-3.892-1.059l-.157.68C290.153,62.688,291.455,63.042,292.731,63.416Zm-51.456-1.889c1.3-.278,2.621-.535,3.93-.763l-.111-.689c-1.317.23-2.647.488-3.954.768Zm43.685-.066.133-.685c-1.31-.276-2.641-.531-3.956-.756l-.109.69c1.308.224,2.631.477,3.933.751Zm-35.8-1.309c1.318-.178,2.655-.332,3.973-.46l-.062-.7c-1.327.128-2.671.283-4,.462Zm27.912-.041.084-.694c-1.322-.175-2.667-.326-4-.451l-.06.7c1.324.124,2.661.274,3.975.448Zm-19.952-.726c1.322-.077,2.666-.13,3.995-.156l-.013-.7c-1.337.027-2.689.08-4.019.157Zm11.99-.018.035-.7c-1.332-.074-2.685-.122-4.02-.145l-.011.7C266.441,59.245,267.785,59.293,269.109,59.366Z" transform="translate(-49.096 -58.523)" fill="#47d147"/>
    <path id="Path_3091" data-name="Path 3091" d="M788.729,313.577q.206-1.025.43-2.042l-.654-.156q-.225,1.024-.432,2.055Z" transform="translate(-680.922 -222.998)" fill="#47d147"/>
    <path id="Path_3092" data-name="Path 3092" d="M790.462,443.993l.658-.135q-.194-1.024-.371-2.055l-.66.123Q790.267,442.963,790.462,443.993Z" transform="translate(-683.559 -307.836)" fill="#47d147"/>
    <path id="Path_3093" data-name="Path 3093" d="M261.169,546.436q1.094,0,2.182-.022l-.013-.7c-1.326.027-2.662.029-3.989.006l-.011.7Q260.251,546.436,261.169,546.436Zm-5.842-.159.035-.7c-1.327-.073-2.665-.172-3.978-.294l-.06.7C252.645,546.1,253.992,546.2,255.327,546.277Zm12.034-.02c1.332-.077,2.678-.181,4-.309l-.062-.7c-1.316.127-2.654.23-3.977.307Zm-20.026-.723.084-.694c-1.32-.174-2.648-.375-3.947-.6l-.108.69c1.307.223,2.643.425,3.971.6Zm28.016-.046c1.326-.179,2.661-.385,3.97-.613l-.111-.689c-1.3.226-2.628.432-3.945.609Zm-35.935-1.3.133-.685c-1.3-.274-2.612-.576-3.894-.9l-.157.68c1.29.323,2.608.627,3.918.9Zm43.849-.073c1.309-.28,2.626-.588,3.915-.916l-.159-.679c-1.281.326-2.591.633-3.891.911Zm-51.651-1.883.181-.673c-1.272-.371-2.558-.773-3.82-1.195l-.2.666c1.27.425,2.563.829,3.843,1.2Zm59.448-.1c1.282-.379,2.578-.789,3.85-1.219l-.207-.665c-1.265.427-2.552.835-3.827,1.211Zm-67.08-2.448.228-.657c-1.24-.467-2.49-.966-3.716-1.482l-.251.648c1.233.519,2.491,1.021,3.739,1.491Zm74.733-.136c1.254-.477,2.516-.986,3.751-1.512l-.254-.647c-1.227.522-2.482,1.028-3.728,1.5Zm-82.156-2.988.274-.638c-1.207-.563-2.42-1.156-3.6-1.764l-.3.627c1.191.611,2.411,1.208,3.626,1.775Zm89.6-.178c1.216-.573,2.437-1.177,3.632-1.8l-.3-.626c-1.187.615-2.4,1.215-3.609,1.784Zm-96.789-3.51.318-.615c-1.166-.655-2.334-1.339-3.471-2.035l-.34.6c1.144.7,2.319,1.389,3.492,2.048Zm103.986-.219c1.172-.664,2.347-1.36,3.494-2.068l-.342-.6c-1.139.7-2.307,1.4-3.472,2.056Zm-110.9-4.01.361-.589c-1.111-.738-2.228-1.51-3.32-2.3l-.381.575c1.1.79,2.222,1.567,3.34,2.31Zm117.808-.259c1.12-.751,2.243-1.535,3.337-2.329l-.383-.573c-1.088.789-2.2,1.568-3.317,2.315Zm-124.406-4.488.4-.56c-1.058-.822-2.119-1.678-3.151-2.543l-.421.545c1.038.871,2.105,1.732,3.17,2.559Zm131-.3c1.062-.833,2.127-1.7,3.163-2.576l-.423-.543c-1.03.871-2.088,1.732-3.144,2.56Zm-137.246-4.942.439-.528c-1-.9-2-1.837-2.966-2.777l-.457.511c.973.946,1.977,1.886,2.984,2.794Zm143.48-.329c1-.914,2-1.86,2.974-2.809l-.46-.509c-.963.943-1.957,1.883-2.956,2.792Zm-149.35-5.371.475-.494c-.938-.98-1.867-1.988-2.764-3l-.492.475C181.861,510.954,182.8,511.968,183.74,512.953Zm155.2-.357c.935-.985,1.866-2,2.769-3.026l-.494-.473c-.9,1.017-1.823,2.029-2.752,3.008ZM178.284,506.82l.508-.456c-.865-1.047-1.723-2.123-2.549-3.2l-.524.437c.831,1.082,1.694,2.165,2.564,3.218Zm166.082-.38c.864-1.054,1.721-2.14,2.548-3.228l-.526-.434c-.822,1.081-1.675,2.16-2.533,3.208Zm-171.1-6.153.539-.416c-.792-1.113-1.572-2.252-2.318-3.385l-.553.4c.75,1.14,1.535,2.286,2.332,3.407Zm176.078-.4c.788-1.118,1.567-2.265,2.315-3.411l-.555-.393c-.743,1.139-1.517,2.28-2.3,3.391Zm-180.621-6.5.567-.374c-.708-1.164-1.406-2.36-2.074-3.554l-.58.352c.673,1.2,1.375,2.405,2.087,3.576Zm185.129-.4c.707-1.174,1.4-2.377,2.068-3.577l-.581-.35c-.661,1.193-1.353,2.389-2.056,3.555Zm-189.176-6.827.592-.33c-.627-1.222-1.239-2.469-1.818-3.705l-.6.307C163.433,483.671,164.048,484.925,164.679,486.155Zm193.185-.4c.623-1.225,1.231-2.478,1.81-3.724l-.6-.3c-.575,1.239-1.18,2.484-1.8,3.7ZM161.153,478.63l.613-.283c-.537-1.261-1.059-2.553-1.552-3.837l-.623.259C160.088,476.062,160.613,477.361,161.153,478.63Zm200.2-.394c.535-1.269,1.053-2.565,1.541-3.851l-.624-.257c-.485,1.278-1,2.565-1.532,3.827ZM158.168,470.85l.632-.236c-.447-1.3-.876-2.632-1.276-3.948l-.639.211c.4,1.324.834,2.661,1.284,3.973Zm206.128-.371c.444-1.308.87-2.643,1.267-3.968l-.64-.208c-.395,1.316-.818,2.643-1.259,3.943Zm-208.553-7.623.647-.186c-.351-1.325-.684-2.68-.989-4.026l-.653.161C155.055,460.16,155.389,461.523,155.743,462.856Zm210.946-.359c.349-1.337.679-2.7.981-4.05l-.654-.158c-.3,1.342-.628,2.7-.975,4.024Z" transform="translate(-46.993 -318.56)" fill="#47d147"/>
    <path id="Path_3094" data-name="Path 3094" d="M151.776,442.756q.192-1.031.366-2.069l-.661-.12q-.173,1.031-.363,2.056Z" transform="translate(169.753 -307.032)" fill="#47d147"/>
    <path id="Path_3095" data-name="Path 3095" d="M634.368,444.872l.624-.257c-.243-.641-.48-1.3-.7-1.952l-.632.234C633.882,443.559,634.121,444.223,634.368,444.872Z" transform="translate(-474.957 -308.395)" fill="#47d147"/>
    <path id="Path_3096" data-name="Path 3096" d="M365.956,493.041c.8,0,1.614-.017,2.41-.051l-.027-.7c-1.32.056-2.67.065-3.994.027l-.018.7Q365.138,493.041,365.956,493.041Zm-5.661-.28.064-.7c-1.321-.131-2.654-.312-3.961-.537l-.109.689c1.322.228,2.67.411,4.006.543Zm12.1-.083c1.334-.151,2.68-.353,4-.6l-.118-.688c-1.3.243-2.634.442-3.953.592Zm-20.068-1.29.155-.68c-1.292-.319-2.588-.689-3.852-1.1l-.2.668c1.279.415,2.59.789,3.9,1.112Zm28.017-.193c1.3-.341,2.609-.734,3.883-1.166l-.208-.665c-1.26.428-2.551.816-3.839,1.153Zm-35.727-2.309.243-.651c-1.235-.5-2.469-1.053-3.67-1.642l-.286.632c1.214.6,2.464,1.155,3.712,1.661Zm43.406-.3c1.245-.525,2.487-1.1,3.692-1.713l-.294-.628c-1.191.605-2.419,1.175-3.649,1.694ZM337.311,485.3l.327-.61c-1.159-.674-2.309-1.4-3.419-2.152l-.366.586C334.975,483.888,336.139,484.62,337.311,485.3Zm57.974-.4c1.163-.7,2.317-1.446,3.43-2.225l-.374-.58c-1.1.77-2.242,1.51-3.391,2.2Zm-64.74-4.191.4-.558c-1.06-.834-2.105-1.715-3.105-2.619l-.44.528C328.416,478.973,329.473,479.864,330.545,480.707Zm71.447-.5c1.062-.858,2.108-1.764,3.107-2.692l-.447-.522c-.988.918-2.021,1.813-3.072,2.661Zm-77.548-5.015.473-.5c-.941-.975-1.861-2-2.735-3.034l-.5.461c.884,1.05,1.814,2.083,2.766,3.069Zm83.578-.582c.938-1,1.856-2.044,2.727-3.107l-.51-.454c-.861,1.051-1.768,2.085-2.7,3.072Zm-88.9-5.745.533-.424c-.8-1.1-1.582-2.24-2.313-3.394l-.56.385C317.519,466.6,318.306,467.755,319.119,468.866Zm94.146-.655c.8-1.123,1.572-2.289,2.295-3.465l-.565-.377c-.714,1.162-1.478,2.315-2.269,3.426Zm-98.593-6.37.584-.344c-.652-1.2-1.273-2.445-1.845-3.692l-.605.3c.578,1.262,1.206,2.518,1.866,3.734Zm102.949-.715c.645-1.227,1.257-2.492,1.818-3.759l-.609-.293c-.554,1.253-1.159,2.5-1.8,3.716Z" transform="translate(-151.781 -317.769)" fill="#47d147"/>
    <path id="Path_3097" data-name="Path 3097" d="M306.7,442.626c.237-.652.468-1.319.685-1.985l-.635-.225c-.215.658-.443,1.318-.678,1.962Z" transform="translate(-37.467 -306.934)" fill="#47d147"/>
    <path id="Path_3098" data-name="Path 3098" d="M310.128,315.7l.622-.261c-.251-.651-.516-1.305-.787-1.943l-.614.283C309.617,314.411,309.879,315.056,310.128,315.7Z" transform="translate(-41.932 -224.376)" fill="#47d147"/>
    <path id="Path_3099" data-name="Path 3099" d="M420.029,242.041l.593-.327c-.634-1.249-1.318-2.491-2.034-3.692l-.57.369C418.726,239.579,419.4,240.806,420.029,242.041ZM317.6,241.023c.648-1.221,1.347-2.435,2.077-3.608l-.563-.38c-.738,1.187-1.446,2.415-2.1,3.65Zm98.169-6.126.544-.409c-.794-1.146-1.636-2.277-2.5-3.363l-.516.447C414.151,232.645,414.984,233.764,415.769,234.9Zm-93.778-.932c.8-1.116,1.658-2.218,2.535-3.275l-.507-.457c-.888,1.069-1.751,2.184-2.565,3.313Zm88.612-5.531.485-.483c-.937-1.021-1.921-2.021-2.924-2.972l-.452.517C408.7,226.435,409.676,227.424,410.6,228.433Zm-83.331-.829c.945-.991,1.936-1.96,2.944-2.881l-.442-.526c-1.02.931-2.022,1.911-2.978,2.913Zm77.361-4.833.416-.548c-1.064-.877-2.171-1.727-3.289-2.524l-.379.577C402.487,221.064,403.581,221.9,404.633,222.771Zm-71.289-.71c1.067-.845,2.176-1.663,3.3-2.431l-.368-.584c-1.134.776-2.256,1.6-3.335,2.459Zm64.629-4.041.34-.6c-1.169-.715-2.378-1.4-3.592-2.026l-.3.626C395.622,216.64,396.817,217.314,397.973,218.021Zm-57.881-.577c1.17-.685,2.378-1.335,3.588-1.932l-.287-.632c-1.224.6-2.445,1.261-3.629,1.954Zm50.654-3.167.256-.646c-1.253-.539-2.541-1.039-3.828-1.486l-.212.663c1.271.442,2.544.936,3.783,1.469Zm-43.358-.432c1.25-.509,2.532-.977,3.81-1.393l-.2-.667c-1.293.42-2.59.894-3.855,1.409Zm35.7-2.227.167-.677c-1.313-.352-2.655-.66-3.989-.915l-.121.687c1.319.253,2.645.557,3.943.905Zm-28-.278c1.3-.322,2.636-.6,3.959-.826l-.109-.69c-1.338.229-2.686.51-4.005.835Zm20.06-1.244.075-.695c-1.343-.158-2.713-.269-4.072-.331l-.029.7c1.343.062,2.7.172,4.026.328Zm-12.1-.119c1.332-.13,2.688-.214,4.031-.248l-.016-.7c-1.358.035-2.73.119-4.077.251Z" transform="translate(-154.375 -156.424)" fill="#47d147"/>
    <path id="Path_3100" data-name="Path 3100" d="M630.25,312.705c.26-.639.533-1.28.813-1.905l-.608-.295c-.283.633-.56,1.281-.823,1.927Z" transform="translate(-469.679 -222.43)" fill="#47d147"/>
    <path id="Path_3101" data-name="Path 3101" d="M650.27,384.24a3.848,3.848,0,0,1,3.746,3.18,4,4,0,0,1-2.267,4.446,3.721,3.721,0,0,1-4.626-1.454,4.091,4.091,0,0,1,.471-5.011A3.677,3.677,0,0,1,650.27,384.24Z" transform="translate(-498.358 -270.393)" fill="#3f3d56"/>
    <path id="Path_3102" data-name="Path 3102" d="M605.029,384.24a3.848,3.848,0,0,1,3.745,3.181,4,4,0,0,1-2.267,4.446,3.721,3.721,0,0,1-4.626-1.454,4.092,4.092,0,0,1,.471-5.011A3.7,3.7,0,0,1,605.029,384.24Z" transform="translate(-437.941 -270.393)" fill="#3f3d56"/>
    <path id="Path_3103" data-name="Path 3103" d="M597.37,321.477c10.56,0,19.12,8.92,19.12,19.923s-8.56,19.923-19.12,19.923-19.12-8.92-19.12-19.923S586.81,321.477,597.37,321.477Zm-3.716,8.308a1.791,1.791,0,0,0-1.31.558,2,2,0,0,0,.606,3.164,1.8,1.8,0,0,0,2.03-.417,2,2,0,0,0,.4-2.115A1.858,1.858,0,0,0,593.654,329.785Zm11.3,23.23a5.652,5.652,0,1,0-5.417-5.645,5.537,5.537,0,0,0,5.417,5.645Zm-8.517-11.252v5.445a.93.93,0,1,0,1.858,0v-3.986c0-.792.929-.968,3.571-2.553a1.8,1.8,0,0,0,1.074-1.639,2.013,2.013,0,0,0-.54-1.355l-4.163-4.18a1.773,1.773,0,0,0-1.532-.546,1.817,1.817,0,0,0-1.341.945l-1.713,3.636h-2.787a.969.969,0,0,0,0,1.936H594.2c.621,0,1.121-1.391,2.206-3.116l2.839,3.116c-1.039.847-2.8,1.5-2.8,2.3Zm-6.659,11.246a5.649,5.649,0,1,0-5.417-5.644,5.534,5.534,0,0,0,5.417,5.644Z" transform="translate(-437.87 -229.567)" fill="#3f3d56"/>
    <path id="Path_3104" data-name="Path 3104" d="M759.37,321.477c10.56,0,19.12,8.92,19.12,19.923s-8.56,19.923-19.12,19.923-19.12-8.92-19.12-19.923S748.81,321.477,759.37,321.477Zm5.068,14.243a3.1,3.1,0,1,0,3.042,3.1,3.2,3.2,0,0,0-.9-2.206,2.941,2.941,0,0,0-2.137-.891Zm-16.215,13.424h2.026v-3.1H768.49v3.1h2.026V333.657H768.49v9.292h-8.1V335.72h-8.11a4.091,4.091,0,0,0-4.052,4.132Z" transform="translate(-654.211 -229.567)" fill="#3f3d56"/>
    <path id="Path_3105" data-name="Path 3105" d="M149.6,363.246h5.69a.238.238,0,0,1,.232.242v8.469a.238.238,0,0,1-.232.242H149.6a.952.952,0,0,1-.929-.968v-7.017a.952.952,0,0,1,.929-.968Z" transform="translate(167.191 -256.737)" fill="#3f3d56"/>
    <path id="Path_3106" data-name="Path 3106" d="M160.206,394.046a1.458,1.458,0,0,1-.075,2.9,1.418,1.418,0,0,1-1.428-1.335,1.492,1.492,0,0,1,.405-1.145A1.366,1.366,0,0,1,160.206,394.046Z" transform="translate(157.865 -276.768)" fill="#3f3d56"/>
    <path id="Path_3107" data-name="Path 3107" d="M126.993,394.046a1.458,1.458,0,0,1-.075,2.9,1.418,1.418,0,0,1-1.428-1.335,1.492,1.492,0,0,1,.405-1.145A1.366,1.366,0,0,1,126.993,394.046Z" transform="translate(202.218 -276.768)" fill="#3f3d56"/>
    <path id="Path_3108" data-name="Path 3108" d="M123.636,363.246h5.678a.964.964,0,0,1,.94.98v6.993a.964.964,0,0,1-.94.98h-5.678a.238.238,0,0,1-.232-.242v-8.469A.238.238,0,0,1,123.636,363.246Z" transform="translate(200.936 -256.737)" fill="#3f3d56"/>
    <path id="Path_3109" data-name="Path 3109" d="M108.37,321.477c10.56,0,19.12,8.92,19.12,19.923s-8.56,19.923-19.12,19.923S89.25,352.4,89.25,341.4,97.81,321.477,108.37,321.477Zm-9.289,28.03a2.38,2.38,0,0,0,2.322,2.42h13.933a2.38,2.38,0,0,0,2.322-2.42v-16.7a1.9,1.9,0,0,0-1.858-1.936H100.939a1.9,1.9,0,0,0-1.858,1.936Z" transform="translate(215.157 -229.567)" fill="#3f3d56"/>
    <path id="Path_3110" data-name="Path 3110" d="M124.275,353.2H137.86a.806.806,0,0,1,.752.406.88.88,0,0,1,0,.883.806.806,0,0,1-.752.406H124.275a.806.806,0,0,1-.752-.406.88.88,0,0,1,0-.883A.806.806,0,0,1,124.275,353.2Z" transform="translate(192.46 -250.203)" fill="#3f3d56"/>
    <path id="Path_3111" data-name="Path 3111" d="M315.485,380.035c.383,0,.7.593.7,1.331s-.313,1.331-.7,1.331-.7-.593-.7-1.331S315.1,380.035,315.485,380.035Z" transform="translate(-49.188 -267.657)" fill="#3f3d56"/>
    <path id="Path_3112" data-name="Path 3112" d="M300.255,380.035c.383,0,.7.593.7,1.331s-.313,1.331-.7,1.331-.7-.593-.7-1.331S299.872,380.035,300.255,380.035Z" transform="translate(-28.849 -267.657)" fill="#3f3d56"/>
    <path id="Path_3113" data-name="Path 3113" d="M271.37,321.477c10.56,0,19.12,8.92,19.12,19.923s-8.56,19.923-19.12,19.923-19.12-8.92-19.12-19.923S260.81,321.477,271.37,321.477Zm8.941,19.246-1.057-5.856c-.273-1.591-.981-2.843-2.311-2.843h-2l-.116-.478a1.872,1.872,0,0,0-1.8-1.458h-3.309a1.873,1.873,0,0,0-1.8,1.452l-.116.484H265.8c-1.3,0-1.991,1.228-2.316,2.837v.006l-1.062,5.862a.247.247,0,0,0,.084.237.224.224,0,0,0,.241.029l1.475-.708a.229.229,0,0,0,.134-.175l.941-5.178c.174-.665.418-.968.935-.968h10.282c.511,0,.79.321.935.968l.941,5.178a.242.242,0,0,0,.134.175l1.469.7a.225.225,0,0,0,.24-.03.248.248,0,0,0,.085-.236Zm-20.476,3.769,3.176,8.221a6.472,6.472,0,0,0,3.292-1.331,13.442,13.442,0,0,0,4.6,1.125c.163.006.319.012.464.012s.3,0,.464-.012a13.582,13.582,0,0,0,4.6-1.125,6.472,6.472,0,0,0,3.292,1.331l3.176-8.221a1.164,1.164,0,0,0,.075-.405,1.1,1.1,0,0,0-.61-.992l-10.8-5.172a.439.439,0,0,0-.389,0l-10.81,5.172a1.1,1.1,0,0,0-.61.992,1.164,1.164,0,0,0,.076.405Z" transform="translate(-2.518 -229.567)" fill="#3f3d56"/>
    <path id="Path_3114" data-name="Path 3114" d="M434.37,321.477c10.56,0,19.12,8.92,19.12,19.923s-8.56,19.923-19.12,19.923-19.12-8.92-19.12-19.923S423.81,321.477,434.37,321.477Zm-8.808,21.865c.2,0,.853-.006,1.045-.018l3.768-.1a.113.113,0,0,1,.1.054l5.655,8.808a.917.917,0,0,0,.784.448h1.376c.325,0,.435-.339.319-.653l-2.909-8.645a.124.124,0,0,1,.012-.11.114.114,0,0,1,.093-.053l7.065-.163a.468.468,0,0,1,.383.188l2.189,2.765a.926.926,0,0,0,.732.369h.97a.228.228,0,0,0,.19-.1.249.249,0,0,0,.03-.22l-1.155-4.156a1.024,1.024,0,0,1,0-.72l1.155-4.156a.249.249,0,0,0-.03-.22.228.228,0,0,0-.19-.1h-.975a.908.908,0,0,0-.731.369l-2.148,2.722a.461.461,0,0,1-.383.188l-7.106-.109a.113.113,0,0,1-.094-.053.123.123,0,0,1-.011-.111l2.909-8.639c.116-.315.006-.653-.319-.653h-1.376a.925.925,0,0,0-.784.448l-5.649,8.814a.106.106,0,0,1-.1.054l-3.768-.1c-.186-.012-.848-.018-1.045-.018-2.578,0-4.2.871-4.2,1.942s1.626,1.936,4.2,1.936Z" transform="translate(-220.194 -229.567)" fill="#3f3d56"/>
    <path id="Path_3115" data-name="Path 3115" d="M146.947,555a4.2,4.2,0,1,0-4.025-4.194A4.112,4.112,0,0,0,146.947,555Zm0-7.69a3.5,3.5,0,1,1-3.354,3.5,3.427,3.427,0,0,1,3.354-3.5Z" transform="translate(173.671 -376.012)" fill="#f0f0f0"/>
    <path id="Path_3116" data-name="Path 3116" d="M399.947,286a4.2,4.2,0,1,0-4.025-4.194A4.112,4.112,0,0,0,399.947,286Zm0-7.69a3.5,3.5,0,1,1-3.354,3.5A3.427,3.427,0,0,1,399.947,278.312Z" transform="translate(-164.194 -201.035)" fill="#f0f0f0"/>
    <path id="Path_3117" data-name="Path 3117" d="M622.771,612.833l4.517-5.046-4.842-4.707-4.517,5.046Zm3.8-5.02-3.822,4.27-4.1-3.982,3.822-4.27Z" transform="translate(-461.978 -412.743)" fill="#f0f0f0"/>
  </g>
</svg>
