<svg id="undraw_Traveling_re_weve" xmlns="http://www.w3.org/2000/svg" width="326.115" height="295.29" viewBox="0 0 326.115 295.29">
  <path id="Path_2235" data-name="Path 2235" d="M672.417,374.121c-17.361-12.979-44.553-25.253-74.6-33.676-27.36-7.669-54.047-11.371-75.149-10.426l-.11-2.454c21.354-.956,48.317,2.777,75.922,10.515,30.33,8.5,57.816,20.92,75.41,34.074Z" transform="translate(-407.226 -255.319)" fill="#3f3d56"/>
  <path id="Path_2236" data-name="Path 2236" d="M660.632,368.338a81.748,81.748,0,0,1-7.075,33.376q-.586,1.319-1.221,2.614a82.057,82.057,0,0,1-155.8-35.99q0-2.848.194-5.652.092-1.426.238-2.835a82.05,82.05,0,0,1,163.659,8.487Z" transform="translate(-397.244 -239.539)" fill="#f2f2f2"/>
  <path id="Path_2237" data-name="Path 2237" d="M653.679,447.511q-.586,1.319-1.221,2.614-3.6.391-7.571.567c-2.194.1-4.451.147-6.758.147-20.148,0-44.4-3.719-69.167-10.661-27.606-7.738-52.581-18.561-70.326-30.477q-.906-.608-1.781-1.218.092-1.426.238-2.835,1.411,1.006,2.911,2.014c17.537,11.774,42.261,22.482,69.621,30.151,24.555,6.883,48.574,10.57,68.491,10.57q3.416,0,6.659-.145Q649.5,448.025,653.679,447.511Z" transform="translate(-397.365 -285.337)" opacity="0.1"/>
  <path id="Path_2238" data-name="Path 2238" d="M624.041,418.948c-20.147,0-44.4-3.719-69.167-10.662-27.605-7.737-52.581-18.561-70.327-30.477-18.116-12.165-26.611-24.151-23.92-33.751s16.178-15.426,37.977-16.4l.11,2.454c-10.18.456-18.476,1.969-24.658,4.5s-9.889,5.925-11.064,10.114.237,9.031,4.2,14.391,10.269,10.977,18.729,16.658c17.535,11.774,42.26,22.482,69.621,30.151,24.555,6.882,48.573,10.57,68.491,10.571q3.414,0,6.658-.145c10.18-.456,18.476-1.969,24.659-4.5,6.167-2.522,9.889-5.924,11.064-10.114,2.108-7.523-4.264-17.3-17.942-27.524l1.471-1.967c7.039,5.262,12.25,10.45,15.487,15.417,3.471,5.326,4.6,10.284,3.35,14.737-2.691,9.6-16.178,15.425-37.977,16.4C628.6,418.9,626.347,418.948,624.041,418.948Z" transform="translate(-383.276 -255.41)" fill="#3f3d56"/>
  <circle id="Ellipse_934" data-name="Ellipse 934" cx="0.94" cy="0.94" r="0.94" transform="translate(182.573 30.076)" fill="#f2f2f2"/>
  <circle id="Ellipse_935" data-name="Ellipse 935" cx="1.617" cy="1.617" r="1.617" transform="translate(57.167 69.518)" fill="#ccc"/>
  <circle id="Ellipse_936" data-name="Ellipse 936" cx="3.195" cy="3.195" r="3.195" transform="translate(52.142 131.245)" fill="#ccc"/>
  <circle id="Ellipse_937" data-name="Ellipse 937" cx="2.129" cy="2.129" r="2.129" transform="translate(245.001 34.528)" fill="#ccc"/>
  <circle id="Ellipse_938" data-name="Ellipse 938" cx="3.457" cy="3.457" r="3.457" transform="translate(319.2 121.581)" fill="#ccc"/>
  <circle id="Ellipse_939" data-name="Ellipse 939" cx="1.483" cy="1.483" r="1.483" transform="translate(294.138 68.334)" fill="#ccc"/>
  <circle id="Ellipse_940" data-name="Ellipse 940" cx="2.314" cy="2.314" r="2.314" transform="translate(113.193 48.445)" fill="#ccc"/>
  <circle id="Ellipse_941" data-name="Ellipse 941" cx="1.483" cy="1.483" r="1.483" transform="translate(288.946 116.544)" fill="#ccc"/>
  <circle id="Ellipse_942" data-name="Ellipse 942" cx="1.846" cy="1.846" r="1.846" transform="translate(0 121.64)" fill="#ccc"/>
  <circle id="Ellipse_943" data-name="Ellipse 943" cx="1.999" cy="1.999" r="1.999" transform="translate(27.896 91.102)" fill="#ccc"/>
  <path id="Path_2239" data-name="Path 2239" d="M250.59,3.945h-3.945V0h-2.117V3.945H240.58V6.064h3.947V10.01h2.117V6.064h3.945Z" transform="translate(-92.314)" fill="#ccc"/>
  <path id="Path_2240" data-name="Path 2240" d="M401.422,351.287h-2.478V348.81h-1.329v2.477h-2.477v1.329h2.477v2.478h1.329v-2.478h2.478Z" transform="translate(-151.62 -133.843)" fill="#ccc"/>
  <path id="Path_2241" data-name="Path 2241" d="M495.2,331.1h-1.852v-1.852h-.995V331.1H490.5v.995h1.852v1.852h.995v-1.852H495.2Z" transform="translate(-188.211 -126.336)" fill="#ccc"/>
  <circle id="Ellipse_944" data-name="Ellipse 944" cx="6.895" cy="6.895" r="6.895" transform="translate(122.716 108.116)" opacity="0.1"/>
  <circle id="Ellipse_945" data-name="Ellipse 945" cx="6.895" cy="6.895" r="6.895" transform="translate(198.869 177.374)" opacity="0.1"/>
  <circle id="Ellipse_946" data-name="Ellipse 946" cx="6.895" cy="6.895" r="6.895" transform="translate(175.678 118.771)" opacity="0.1"/>
  <circle id="Ellipse_947" data-name="Ellipse 947" cx="6.895" cy="6.895" r="6.895" transform="translate(126.163 156.691)" opacity="0.1"/>
  <circle id="Ellipse_948" data-name="Ellipse 948" cx="6.895" cy="6.895" r="6.895" transform="translate(212.658 81.791)" opacity="0.1"/>
  <circle id="Ellipse_949" data-name="Ellipse 949" cx="6.895" cy="6.895" r="6.895" transform="translate(235.536 128.486)" opacity="0.1"/>
  <circle id="Ellipse_950" data-name="Ellipse 950" cx="9.088" cy="9.088" r="9.088" transform="translate(210.465 50.765)" fill="#fff"/>
  <path id="Path_2242" data-name="Path 2242" d="M683.67,286.191a12.849,12.849,0,0,0-12.849,12.849c0,7.1,12.849,30.4,12.849,30.4s12.849-23.3,12.849-30.4A12.849,12.849,0,0,0,683.67,286.191Zm0,19.117a5.954,5.954,0,1,1,5.954-5.954,5.954,5.954,0,0,1-5.954,5.954Z" transform="translate(-464.118 -239.499)" fill="#47d147"/>
  <circle id="Ellipse_951" data-name="Ellipse 951" cx="9.088" cy="9.088" r="9.088" transform="translate(120.487 75.417)" fill="#fff"/>
  <path id="Path_2243" data-name="Path 2243" d="M537.67,326.191a12.849,12.849,0,0,0-12.849,12.849c0,7.1,12.849,30.4,12.849,30.4s12.849-23.3,12.849-30.4A12.849,12.849,0,0,0,537.67,326.191Zm0,19.117a5.954,5.954,0,1,1,5.954-5.954,5.954,5.954,0,0,1-5.954,5.954Z" transform="translate(-408.096 -254.848)" fill="#3f3d56"/>
  <circle id="Ellipse_952" data-name="Ellipse 952" cx="9.088" cy="9.088" r="9.088" transform="translate(234.5 96.371)" fill="#fff"/>
  <path id="Path_2244" data-name="Path 2244" d="M722.67,360.191a12.849,12.849,0,0,0-12.849,12.849c0,7.1,12.849,30.4,12.849,30.4s12.849-23.3,12.849-30.4A12.849,12.849,0,0,0,722.67,360.191Zm0,19.117a5.954,5.954,0,1,1,5.954-5.954,5.954,5.954,0,0,1-5.954,5.954Z" transform="translate(-479.082 -267.894)" fill="#ccc"/>
  <circle id="Ellipse_953" data-name="Ellipse 953" cx="9.088" cy="9.088" r="9.088" transform="translate(80.428 141.976)" fill="#fff"/>
  <path id="Path_2245" data-name="Path 2245" d="M472.67,434.191a12.849,12.849,0,0,0-12.849,12.849c0,7.1,12.849,30.4,12.849,30.4s12.849-23.3,12.849-30.4A12.849,12.849,0,0,0,472.67,434.191Zm0,19.117a5.954,5.954,0,1,1,5.954-5.954,5.954,5.954,0,0,1-5.954,5.954Z" transform="translate(-383.154 -296.289)" fill="#47d147"/>
  <ellipse id="Ellipse_954" data-name="Ellipse 954" cx="4.166" cy="13.271" rx="4.166" ry="13.271" transform="translate(278.476 206.366) rotate(-39.938)" fill="#2f2e41"/>
  <circle id="Ellipse_955" data-name="Ellipse 955" cx="26.542" cy="26.542" r="26.542" transform="translate(235.417 182.714)" fill="#2f2e41"/>
  <rect id="Rectangle_305" data-name="Rectangle 305" width="8.063" height="14.447" transform="translate(265.129 230.085)" fill="#2f2e41"/>
  <rect id="Rectangle_306" data-name="Rectangle 306" width="8.063" height="14.447" transform="translate(249.003 230.085)" fill="#2f2e41"/>
  <ellipse id="Ellipse_956" data-name="Ellipse 956" cx="6.719" cy="2.52" rx="6.719" ry="2.52" transform="translate(259.754 242.18)" fill="#2f2e41"/>
  <ellipse id="Ellipse_957" data-name="Ellipse 957" cx="6.719" cy="2.52" rx="6.719" ry="2.52" transform="translate(243.627 241.844)" fill="#2f2e41"/>
  <path id="Path_2246" data-name="Path 2246" d="M746.722,487.622c2.37-9.544,12.831-15.161,23.366-12.545s17.154,12.474,14.784,22.018-10.233,9.575-20.768,6.959S744.353,497.167,746.722,487.622Z" transform="translate(-493.098 -311.731)" fill="#47d147"/>
  <ellipse id="Ellipse_958" data-name="Ellipse 958" cx="4.166" cy="13.271" rx="4.166" ry="13.271" transform="translate(218.289 195.016) rotate(-64.626)" fill="#2f2e41"/>
  <circle id="Ellipse_959" data-name="Ellipse 959" cx="8.849" cy="8.849" r="8.849" transform="translate(249.142 194.805)" fill="#fff"/>
  <circle id="Ellipse_960" data-name="Ellipse 960" cx="2.95" cy="2.95" r="2.95" transform="translate(251.404 197.533)" fill="#3f3d56"/>
  <path id="Path_2247" data-name="Path 2247" d="M755.767,568.882a5.9,5.9,0,1,1-11.608,2.113h0l0-.011c-.58-3.206,1.9-4.341,5.1-4.921S755.186,565.676,755.767,568.882Z" transform="translate(-492.225 -346.791)" fill="#fff"/>
  <path id="Path_2248" data-name="Path 2248" d="M652.913,455.772a18.426,18.426,0,1,0,1.045,27.212l22.6,19.071a1.7,1.7,0,1,0,2.192-2.593l0,0-22.6-19.071A18.427,18.427,0,0,0,652.913,455.772Zm-1.457,22.78a13.8,13.8,0,1,1-1.648-19.453h0a13.8,13.8,0,0,1,1.648,19.453Z" transform="translate(-445.616 -302.903)" fill="#3f3d56"/>
  <path id="Path_2249" data-name="Path 2249" d="M633.893,486.559A13.805,13.805,0,0,1,631.55,468q-.4.4-.765.835a13.8,13.8,0,1,0,21.1,17.805q.369-.437.695-.9a13.806,13.806,0,0,1-18.688.813Z" transform="translate(-447.506 -309.262)" opacity="0.3"/>
  <ellipse id="Ellipse_961" data-name="Ellipse 961" cx="13.271" cy="4.166" rx="13.271" ry="4.166" transform="matrix(0.357, -0.934, 0.934, 0.357, 78.678, 200.122)" fill="#2f2e41"/>
  <circle id="Ellipse_962" data-name="Ellipse 962" cx="26.542" cy="26.542" r="26.542" transform="translate(36.234 182.713)" fill="#2f2e41"/>
  <rect id="Rectangle_307" data-name="Rectangle 307" width="8.063" height="14.447" transform="translate(50.681 230.085)" fill="#2f2e41"/>
  <rect id="Rectangle_308" data-name="Rectangle 308" width="8.063" height="14.447" transform="translate(66.808 230.085)" fill="#2f2e41"/>
  <ellipse id="Ellipse_963" data-name="Ellipse 963" cx="6.719" cy="2.52" rx="6.719" ry="2.52" transform="translate(50.681 242.18)" fill="#2f2e41"/>
  <ellipse id="Ellipse_964" data-name="Ellipse 964" cx="6.719" cy="2.52" rx="6.719" ry="2.52" transform="translate(66.808 241.844)" fill="#2f2e41"/>
  <circle id="Ellipse_965" data-name="Ellipse 965" cx="9.071" cy="9.071" r="9.071" transform="translate(54.377 193.464)" fill="#fff"/>
  <circle id="Ellipse_966" data-name="Ellipse 966" cx="3.024" cy="3.024" r="3.024" transform="translate(60.424 199.512)" fill="#3f3d56"/>
  <path id="Path_2250" data-name="Path 2250" d="M395.261,496.1c-2.143-9.6,4.708-19.3,15.3-21.662s20.919,3.5,23.063,13.1-4.878,13.138-15.472,15.5S397.4,505.7,395.261,496.1Z" transform="translate(-358.231 -311.533)" fill="#47d147"/>
  <ellipse id="Ellipse_967" data-name="Ellipse 967" cx="4.166" cy="13.271" rx="4.166" ry="13.271" transform="translate(19.106 195.016) rotate(-64.626)" fill="#2f2e41"/>
  <path id="Path_2251" data-name="Path 2251" d="M416.127,563.5c0,2.6,6.689,7.727,14.111,7.727s14.381-7.313,14.381-9.911-6.959.5-14.381.5S416.127,560.9,416.127,563.5Z" transform="translate(-366.388 -344.671)" fill="#fff"/>
  <circle id="Ellipse_968" data-name="Ellipse 968" cx="26.542" cy="26.542" r="26.542" transform="translate(122.341 230.783)" fill="#2f2e41"/>
  <rect id="Rectangle_309" data-name="Rectangle 309" width="8.063" height="14.447" transform="translate(136.789 278.156)" fill="#2f2e41"/>
  <rect id="Rectangle_310" data-name="Rectangle 310" width="8.063" height="14.447" transform="translate(152.915 278.156)" fill="#2f2e41"/>
  <ellipse id="Ellipse_969" data-name="Ellipse 969" cx="6.719" cy="2.52" rx="6.719" ry="2.52" transform="translate(136.789 290.25)" fill="#2f2e41"/>
  <ellipse id="Ellipse_970" data-name="Ellipse 970" cx="6.719" cy="2.52" rx="6.719" ry="2.52" transform="translate(152.915 289.915)" fill="#2f2e41"/>
  <path id="Path_2252" data-name="Path 2252" d="M534.98,574.1c-2.143-9.6,4.708-19.3,15.3-21.662s20.919,3.5,23.063,13.1-4.878,13.138-15.472,15.5S537.123,583.7,534.98,574.1Z" transform="translate(-411.843 -341.462)" fill="#3f3d56"/>
  <path id="Path_2253" data-name="Path 2253" d="M562.642,615.464s1.925-8.471-1.733-8.086-8.664.578-10.012.578-9.049-.963-10.2,4.043-2.7,11.167.578,15.018c0,0,1.155,16.943,5.583,18.1s16.173,2.5,20.409-3.081a14.359,14.359,0,0,0,2.5-11.745h-1.925Z" transform="translate(-413.652 -362.738)" fill="#47d147"/>
  <path id="Path_2254" data-name="Path 2254" d="M545.62,641.438s3.273,1.54,10.012.578V644.9l-10.012-.77Z" transform="translate(-416.076 -375.812)" opacity="0.1"/>
  <path id="Path_2255" data-name="Path 2255" d="M581.211,639.077l-2.18-1.152,9.694-18.344a4.58,4.58,0,0,0-3.926-6.718l-10.173-.274.066-2.465,10.173.274a7.045,7.045,0,0,1,6.039,10.334Z" transform="translate(-427.206 -363.797)" fill="#47d147"/>
  <path id="Path_2256" data-name="Path 2256" d="M540.75,639.077l-9.694-18.344a7.045,7.045,0,0,1,6.039-10.334l10.174-.274.066,2.465-10.173.274a4.58,4.58,0,0,0-3.926,6.718l9.694,18.344Z" transform="translate(-410.175 -363.797)" fill="#47d147"/>
  <ellipse id="Ellipse_971" data-name="Ellipse 971" cx="4.622" cy="14.725" rx="4.622" ry="14.725" transform="translate(154.721 254.451) rotate(-62.122)" fill="#2f2e41"/>
</svg>
