<svg xmlns="http://www.w3.org/2000/svg" xmlns:xlink="http://www.w3.org/1999/xlink" width="709" height="825" viewBox="0 0 709 825">
  <defs>
    <linearGradient id="linear-gradient" x1="0.5" y1="1" x2="0.5" gradientUnits="objectBoundingBox">
      <stop offset="0" stop-color="gray" stop-opacity="0.251"/>
      <stop offset="0.54" stop-color="gray" stop-opacity="0.122"/>
      <stop offset="1" stop-color="gray" stop-opacity="0.102"/>
    </linearGradient>
    <linearGradient id="linear-gradient-5" xlink:href="#linear-gradient"/>
    <linearGradient id="linear-gradient-10" xlink:href="#linear-gradient"/>
    <linearGradient id="linear-gradient-11" xlink:href="#linear-gradient"/>
  </defs>
  <g id="Group_674" data-name="Group 674" transform="translate(-153 -3111)">
    <g id="Ellipse_897" data-name="Ellipse 897" transform="translate(251 3227)" fill="none" stroke="#445d7a" stroke-width="2" stroke-dasharray="15" opacity="0.54">
      <ellipse cx="280" cy="322" rx="280" ry="322" stroke="none"/>
      <ellipse cx="280" cy="322" rx="279" ry="321" fill="none"/>
    </g>
    <rect id="Rectangle_258" data-name="Rectangle 258" width="221" height="203" transform="translate(641 3310)" fill="#fff"/>
    <g id="Group_469" data-name="Group 469" transform="translate(0 10.774)">
      <g id="Group_468" data-name="Group 468" transform="translate(245 3100)">
        <rect id="Rectangle_255" data-name="Rectangle 255" width="270" height="227" transform="translate(0 0.226)" fill="#fff"/>
        <g id="Group_140" data-name="Group 140" transform="translate(17.646 45.554)">
          <path id="Path_770" data-name="Path 770" d="M452.292,187h-218.4a7.706,7.706,0,0,0-7.7,7.7v23.5a7.706,7.706,0,0,0,7.7,7.7h218.4a7.706,7.706,0,0,0,7.7-7.7V194.7A7.706,7.706,0,0,0,452.292,187Zm6.888,31.2a6.9,6.9,0,0,1-6.888,6.888h-218.4A6.9,6.9,0,0,1,227,218.2V194.7a6.9,6.9,0,0,1,6.888-6.888h218.4a6.9,6.9,0,0,1,6.888,6.888Z" transform="translate(-226.19 -187)" fill="#03254c"/>
          <path id="Path_771" data-name="Path 771" d="M452.292,346.173h-218.4a7.708,7.708,0,0,1-7.7-7.7v-23.5a7.708,7.708,0,0,1,7.7-7.7h218.4a7.708,7.708,0,0,1,7.7,7.7v23.5A7.708,7.708,0,0,1,452.292,346.173Zm-218.4-38.089A6.9,6.9,0,0,0,227,314.973v23.5a6.9,6.9,0,0,0,6.888,6.888h218.4a6.9,6.9,0,0,0,6.888-6.888v-23.5a6.9,6.9,0,0,0-6.888-6.888Z" transform="translate(-226.19 -251.761)" fill="#ccc"/>
          <path id="Path_772" data-name="Path 772" d="M452.292,466.447h-218.4a7.708,7.708,0,0,1-7.7-7.7v-23.5a7.708,7.708,0,0,1,7.7-7.7h218.4a7.707,7.707,0,0,1,7.7,7.7v23.5a7.707,7.707,0,0,1-7.7,7.7Zm-218.4-38.089A6.9,6.9,0,0,0,227,435.247v23.5a6.9,6.9,0,0,0,6.888,6.888h218.4a6.9,6.9,0,0,0,6.888-6.888v-23.5a6.9,6.9,0,0,0-6.888-6.888Z" transform="translate(-226.19 -316.523)" fill="#ccc"/>
          <path id="Path_773" data-name="Path 773" d="M291.177,226.907a13.4,13.4,0,1,1,13.4-13.4A13.4,13.4,0,0,1,291.177,226.907Z" transform="translate(-253.967 -194.058)" fill="#47d147"/>
          <path id="Path_774" data-name="Path 774" d="M502.547,245.28H359.511a3.242,3.242,0,0,1,0-6.483H502.547a3.242,3.242,0,0,1,0,6.483Z" transform="translate(-296.231 -214.889)" fill="#ccc"/>
          <path id="Path_775" data-name="Path 775" d="M455.949,215.431H359.511a3.242,3.242,0,0,1,0-6.483h96.437a3.242,3.242,0,1,1,0,6.483Z" transform="translate(-296.231 -198.817)" fill="#ccc"/>
          <path id="Path_776" data-name="Path 776" d="M291.177,347.18a13.4,13.4,0,1,1,13.4-13.4,13.4,13.4,0,0,1-13.4,13.4Z" transform="translate(-253.967 -258.819)" fill="#e6e6e6"/>
          <path id="Path_777" data-name="Path 777" d="M502.547,365.554H359.511a3.242,3.242,0,0,1,0-6.483H502.547a3.242,3.242,0,0,1,0,6.483Z" transform="translate(-296.231 -279.651)" fill="#e6e6e6"/>
          <path id="Path_778" data-name="Path 778" d="M455.949,335.7H359.511a3.242,3.242,0,0,1,0-6.483h96.437a3.242,3.242,0,0,1,0,6.483Z" transform="translate(-296.231 -263.579)" fill="#e6e6e6"/>
          <path id="Path_779" data-name="Path 779" d="M291.177,467.454a13.4,13.4,0,1,1,13.4-13.4A13.4,13.4,0,0,1,291.177,467.454Z" transform="translate(-253.967 -323.58)" fill="#e6e6e6"/>
          <path id="Path_780" data-name="Path 780" d="M502.547,485.828H359.511a3.242,3.242,0,0,1,0-6.483H502.547a3.242,3.242,0,1,1,0,6.483Z" transform="translate(-296.231 -344.412)" fill="#e6e6e6"/>
          <path id="Path_781" data-name="Path 781" d="M455.949,455.979H359.511a3.242,3.242,0,1,1,0-6.483h96.437a3.242,3.242,0,0,1,0,6.483Z" transform="translate(-296.231 -328.34)" fill="#e6e6e6"/>
          <path id="Path_395" data-name="Path 395" d="M299.475,226.24a1.532,1.532,0,0,1-.922-.306l-.016-.012-3.473-2.657a1.543,1.543,0,1,1,1.878-2.45l2.25,1.725,5.316-6.935a1.543,1.543,0,0,1,2.163-.286h0l-.033.046.034-.046a1.545,1.545,0,0,1,.285,2.163l-6.253,8.154a1.544,1.544,0,0,1-1.228.6Z" transform="translate(-262.949 -202.077)" fill="#fff"/>
        </g>
      </g>
    </g>
    <path id="Path_782" data-name="Path 782" d="M2381.582,3812.612" transform="translate(-2048 -200)" fill="none" stroke="#707070" stroke-width="1"/>
    <text id="Select_your_package" data-name="Select your package" transform="translate(309 3133)" fill="#03254c" font-size="14" font-family="Poppins-Regular, Poppins" opacity="0.75"><tspan x="0" y="0">Select Your Package</tspan></text>
    <g id="Group_470" data-name="Group 470">
      <rect id="Rectangle_256" data-name="Rectangle 256" width="216" height="255" transform="translate(576 3681)" fill="#fff"/>
      <g id="Group_145" data-name="Group 145" transform="translate(-140.211 913.756)">
        <rect id="Rectangle_83" data-name="Rectangle 83" width="143.562" height="125.387" transform="translate(742.496 2829.895)" fill="#e2e2e2"/>
        <path id="Path_783" data-name="Path 783" d="M416.738,183.627l4.407,17.627-1.889,25.812,17,13.22,5.666-44.069-3.148-10.7Z" transform="translate(375.343 2655.483)" fill="#ffb8b8"/>
        <path id="Path_784" data-name="Path 784" d="M431.351,226.02l3.148-17,6.3-11.962,15.738,63.585-35.884,5.036-9.443-50.993,8.052-13.748,5.8,10.6Z" transform="translate(376.468 2652.751)" fill="#fff"/>
        <path id="Path_785" data-name="Path 785" d="M472.082,325.994h-59.7l.322-4.742,13.845-8.812h18.888l26.444,11.333Z" transform="translate(376.228 2629.287)" fill="#2f2e41"/>
        <circle id="Ellipse_177" data-name="Ellipse 177" cx="15.109" cy="15.109" r="15.109" transform="translate(788.933 2818.335)" fill="#ffb8b8"/>
        <path id="Path_786" data-name="Path 786" d="M635.225,418.9l-14.478-11.966,1.447,31.3.141,3,.181,3.969.4,8.661.643,13.845H592.043l-2.15-6.631-.854,6.631H560.214c-.2-3.476-.311-7.666-.131-11.9a58.884,58.884,0,0,1,1.477-11.524,18.785,18.785,0,0,1,3.155-7.133l-5.667-20.144L556.527,429.6,538.9,430.858s.01-.322.04-.924v-.01c.251-6.2,2.11-41.283,11.293-48.165l18.7-18.376s.01,1.336.191,3.587v.01c.141,1.909.4,4.471.874,7.435v.03c1.055,6.681,3.145,15.372,7.3,23.048,1.537,2.833,2.783,5.245,3.8,7.294,4.391,8.892,4.391,10.971,4.391,10.971l1.818-21.671.01-.08.01-.08,2.421-29.016.361-4.33v-.01s28.745,4.823,37.556,18.044c7.083,10.61,20.255,27.74,25.158,34.059.06.07.11.141.171.211l.733.954c.141.181.271.342.382.492s.221.271.3.382l.322.412Z" transform="translate(226.106 2487.571)" fill="#06f" opacity="0.61"/>
        <circle id="Ellipse_178" data-name="Ellipse 178" cx="1.889" cy="1.889" r="1.889" transform="translate(810.967 2910.878)" fill="#2f2e41"/>
        <circle id="Ellipse_179" data-name="Ellipse 179" cx="1.889" cy="1.889" r="1.889" transform="translate(813.485 2927.876)" fill="#2f2e41"/>
        <path id="Path_787" data-name="Path 787" d="M491.772,304.106l-5.666,5.666L482.329,299.7l4.106-3.471Z" transform="translate(362.004 2632.584)" fill="#ffb8b8"/>
        <path id="Path_788" data-name="Path 788" d="M404.094,307.189l5.666,5.666,1.259-12.591L407.242,299Z" transform="translate(377.914 2632.02)" fill="#ffb8b8"/>
        <path id="Path_789" data-name="Path 789" d="M565.211,323.422s-4.407-5.59,0-8.386v1.4s9.443-10.482,15.109-7.687l5.036-1.4v1.4l3.148-1.4-.63,2.1h4.407l-1.889,1.4s14.48-.7,5.666,9.783c0,0,4.189,6.285.206,9.781,0,0-3.354-7.685-7.761-5.588a7.018,7.018,0,0,1-7.555-.7s-8.814-.7-7.555,3.494.63,5.59.63,5.59-3.148,2.1-2.518,3.494.63,5.59.63,5.59-3.148-4.892-4.407-4.193S559.544,331.808,565.211,323.422Z" transform="translate(221.204 2498.394)" fill="#2f2e41"/>
        <path id="Path_790" data-name="Path 790" d="M541.421,445l-2.518,1.614v1.534a15,15,0,0,0,2.518,7.555c2.518,3.777,16.368,16.368,16.368,16.368l3.777-13.221L556.53,446.26l-3.148-3.777Z" transform="translate(226.107 2470.914)" fill="#06f" opacity="0.65"/>
        <path id="Path_791" data-name="Path 791" d="M666.5,425.1l6.908.7,1.906,2.447s1.259,5.666-1.259,8.814S649.5,466.019,649.5,466.019l-9.443-11.332,16.368-20.146-.63-2.518Z" transform="translate(205.537 2474.449)" fill="#06f" opacity="0.65"/>
        <circle id="Ellipse_186" data-name="Ellipse 186" cx="5.023" cy="5.023" r="5.023" transform="translate(753.492 2974.211)" fill="#e2e2e2"/>
        <circle id="Ellipse_187" data-name="Ellipse 187" cx="5.023" cy="5.023" r="5.023" transform="translate(753.492 2997.762)" fill="#e2e2e2"/>
        <rect id="Rectangle_89" data-name="Rectangle 89" width="95.446" height="8.038" transform="translate(779.615 2975.217)" fill="#e2e2e2"/>
        <rect id="Rectangle_90" data-name="Rectangle 90" width="95.446" height="8.038" transform="translate(779.615 2998.767)" fill="#e2e2e2"/>
      </g>
    </g>
    <g id="Group_154" data-name="Group 154" transform="translate(637 3312.593)">
      <g id="Group_148" data-name="Group 148" transform="translate(61.147 15.688)" opacity="0.5">
        <rect id="Rectangle_95" data-name="Rectangle 95" width="98.286" height="135.8" fill="url(#linear-gradient)"/>
      </g>
      <rect id="Rectangle_96" data-name="Rectangle 96" width="95.785" height="132.799" transform="translate(62.398 16.688)" fill="#fff"/>
      <rect id="Rectangle_99" data-name="Rectangle 99" width="20.507" height="20.507" transform="translate(66.899 38.196)" fill="url(#linear-gradient)"/>
      <rect id="Rectangle_100" data-name="Rectangle 100" width="20.507" height="20.507" transform="translate(66.969 78.836)" fill="url(#linear-gradient)"/>
      <rect id="Rectangle_101" data-name="Rectangle 101" width="20.507" height="20.507" transform="translate(67.039 118.975)" fill="url(#linear-gradient)"/>
      <rect id="Rectangle_102" data-name="Rectangle 102" width="19.007" height="19.007" transform="translate(67.65 38.946)" fill="#47d147"/>
      <rect id="Rectangle_103" data-name="Rectangle 103" width="19.007" height="19.007" transform="translate(67.65 79.211)" fill="#ff4d4d"/>
      <rect id="Rectangle_104" data-name="Rectangle 104" width="19.007" height="19.007" transform="translate(67.65 119.476)" fill="#ff4d4d"/>
      <rect id="Rectangle_105" data-name="Rectangle 105" width="26.052" height="1.818" transform="translate(99.161 44.813)" fill="#e0e0e0"/>
      <rect id="Rectangle_106" data-name="Rectangle 106" width="43.016" height="1.818" transform="translate(99.161 47.542)" fill="#e0e0e0"/>
      <rect id="Rectangle_107" data-name="Rectangle 107" width="39.987" height="1.818" transform="translate(99.161 50.268)" fill="#e0e0e0"/>
      <rect id="Rectangle_108" data-name="Rectangle 108" width="26.052" height="1.818" transform="translate(99.161 85.078)" fill="#e0e0e0"/>
      <rect id="Rectangle_109" data-name="Rectangle 109" width="43.016" height="1.818" transform="translate(99.161 87.807)" fill="#e0e0e0"/>
      <rect id="Rectangle_110" data-name="Rectangle 110" width="39.987" height="1.818" transform="translate(99.161 90.533)" fill="#e0e0e0"/>
      <rect id="Rectangle_111" data-name="Rectangle 111" width="26.052" height="1.818" transform="translate(99.161 125.343)" fill="#e0e0e0"/>
      <rect id="Rectangle_112" data-name="Rectangle 112" width="43.016" height="1.818" transform="translate(99.161 128.071)" fill="#e0e0e0"/>
      <rect id="Rectangle_113" data-name="Rectangle 113" width="39.987" height="1.818" transform="translate(99.161 130.797)" fill="#e0e0e0"/>
      <path id="Path_810" data-name="Path 810" d="M286.938,169.4l3.451,3.166,4.889-7.19L297,166.818l-6.615,8.628-4.889-5.464Z" transform="translate(-214.099 -122.087)" fill="url(#linear-gradient-5)"/>
      <path id="Path_811" data-name="Path 811" d="M289.75,171.5l3,2.751L297,168l1.5,1.25-5.752,7.5L288.5,172Z" transform="translate(-216.349 -124.052)" fill="#fff"/>
      <path id="Path_812" data-name="Path 812" d="M289.75,333.5l3,2.751L297,330l1.5,1.25-5.752,7.5L288.5,334Z" transform="translate(-216.349 -245.537)" fill="#fff"/>
      <path id="Path_813" data-name="Path 813" d="M289.75,495.5l3,2.751L297,492l1.5,1.25-5.752,7.5L288.5,496Z" transform="translate(-216.349 -367.022)" fill="#fff"/>
      <g id="Group_149" data-name="Group 149" transform="translate(163.097 55.698)" opacity="0.5">
        <line id="Line_28" data-name="Line 28" x2="2" transform="translate(-0.097 34.709)" fill="none" stroke="#69f0ae" stroke-miterlimit="10" stroke-width="5"/>
        <line id="Line_29" data-name="Line 29" x2="33.185" transform="translate(4.099 34.017)" fill="none" stroke="#69f0ae" stroke-miterlimit="10" stroke-width="5" stroke-dasharray="11.54 11.54"/>
        <path id="Path_814" data-name="Path 814" d="M807,346.5h1.5V345" transform="translate(-768.273 -312.483)" fill="none" stroke="#69f0ae" stroke-miterlimit="10" stroke-width="5"/>
        <line id="Line_30" data-name="Line 30" y1="27.215" transform="translate(40.227 2.438)" fill="none" stroke="#69f0ae" stroke-miterlimit="10" stroke-width="5" stroke-dasharray="11.45 11.45"/>
        <line id="Line_31" data-name="Line 31" y1="1" transform="translate(39.903 -0.291)" fill="none" stroke="#69f0ae" stroke-miterlimit="10" stroke-width="5"/>
      </g>
      <path id="Path_815" data-name="Path 815" d="M131.012,182.5H97.5v31.512" transform="translate(-73.116 -134.926)" fill="none" stroke="#69f0ae" stroke-miterlimit="10" stroke-width="5" stroke-dasharray="12" opacity="0.5"/>
      <path id="Path_816" data-name="Path 816" d="M308.5,611.5v18.007h50.018" transform="translate(-231.347 -456.636)" fill="none" stroke="#69f0ae" stroke-miterlimit="10" stroke-width="5" stroke-dasharray="12" opacity="0.5"/>
      <g id="Group_150" data-name="Group 150" transform="translate(179.926 12.437)" opacity="0.5">
        <path id="Path_817" data-name="Path 817" d="M757.984,58.278,738.712,42,719.74,58.243l-.17-.1v.13h-.13l.13.073V79.764h38.284l-.233-.13h.363Z" transform="translate(-719.44 -42)" fill="url(#linear-gradient)"/>
      </g>
      <path id="Path_818" data-name="Path 818" d="M760.263,81.138H723.5V60.631L741.757,45l18.507,15.631Z" transform="translate(-542.559 -31.813)" fill="#fff"/>
      <path id="Path_819" data-name="Path 819" d="M722.5,107.5l18.257,10.254L759.263,107.5" transform="translate(-541.809 -78.682)" fill="#e0e0e0"/>
      <g id="Group_151" data-name="Group 151" transform="translate(188.069 19.189)" opacity="0.5">
        <path id="Path_820" data-name="Path 820" d="M763.259,88.625,752,95.76V69h22.258V82.61Z" transform="translate(-752 -69)" fill="url(#linear-gradient)"/>
      </g>
      <path id="Path_821" data-name="Path 821" d="M764.754,90.257,754,97.26V71h21.258V84.355Z" transform="translate(-565.431 -51.311)" fill="#fafafa"/>
      <path id="Path_822" data-name="Path 822" d="M723,127.507h36.764L723,107Z" transform="translate(-542.184 -78.307)" opacity="0.05"/>
      <path id="Path_823" data-name="Path 823" d="M723,128.507h36.764L723,108Z" transform="translate(-542.184 -79.057)" fill="#f5f5f5"/>
      <rect id="Rectangle_114" data-name="Rectangle 114" width="16" height="2" transform="translate(191 23.407)" fill="#fff"/>
      <rect id="Rectangle_115" data-name="Rectangle 115" width="16" height="1" transform="translate(191 25.407)" fill="#fff"/>
      <rect id="Rectangle_116" data-name="Rectangle 116" width="16" height="1" transform="translate(191 27.407)" fill="#6c63ff"/>
      <rect id="Rectangle_117" data-name="Rectangle 117" width="16" height="1" transform="translate(191 29.407)" fill="#fff"/>
      <rect id="Rectangle_118" data-name="Rectangle 118" width="16" height="1" transform="translate(191 31.407)" fill="#6c63ff"/>
      <path id="Path_824" data-name="Path 824" d="M806.2,123.5V123l-10.939,6.08.3.165Z" transform="translate(-596.372 -90.306)" opacity="0.05"/>
      <g id="Group_152" data-name="Group 152" transform="translate(135.304 156.989)" opacity="0.5">
        <rect id="Rectangle_119" data-name="Rectangle 119" width="43.503" height="43.766" fill="url(#linear-gradient)"/>
      </g>
      <rect id="Rectangle_120" data-name="Rectangle 120" width="42" height="42" transform="translate(136 157.407)" fill="#f5f5f5"/>
      <rect id="Rectangle_121" data-name="Rectangle 121" width="36" height="32" transform="translate(139 159.407)" fill="#fff"/>
      <path id="Path_825" data-name="Path 825" d="M755.733,751.252c-10.091,0-18.257-2.573-18.257-5.752-10.091,0-18.257,2.238-18.257,5v12h36.513Z" transform="translate(-580.169 -570.254)" fill="#e0e0e0"/>
      <circle id="Ellipse_192" data-name="Ellipse 192" cx="4" cy="4" r="4" transform="translate(165 162.407)" fill="#ff4d4d"/>
      <g id="Group_153" data-name="Group 153" transform="translate(0 81.899)" opacity="0.5">
        <rect id="Rectangle_122" data-name="Rectangle 122" width="51.019" height="36.138" fill="url(#linear-gradient)"/>
      </g>
      <rect id="Rectangle_123" data-name="Rectangle 123" width="47" height="35" transform="translate(2 82.407)" fill="#fff"/>
      <path id="Path_826" data-name="Path 826" d="M241.423,410.84a9.327,9.327,0,0,0-1.2.08l1.2,9.173-9.231-.615c-.012.2-.023.408-.023.615a9.253,9.253,0,1,0,9.253-9.253Z" transform="translate(-214.926 -319.29)" fill="#e0e0e0"/>
      <path id="Path_827" data-name="Path 827" d="M232.29,404.16a9.253,9.253,0,0,0-8.03,8.558l9.231.615Z" transform="translate(-208.994 -314.28)" fill="#47d147"/>
    </g>
    <text id="get_your_agent" data-name="get your agent" transform="translate(617 3704)" fill="#03254c" font-size="14" font-family="Poppins-Regular, Poppins" opacity="0.75"><tspan x="0" y="0">Get Your Agent</tspan></text>
    <text id="Customize_book" data-name="Customize &amp; book" transform="translate(689 3325)" fill="#03254c" font-size="14" font-family="Poppins-Regular, Poppins" opacity="0.75"><tspan x="0" y="0">Customize &amp; Book</tspan></text>
    <g id="Group_471" data-name="Group 471">
      <rect id="Rectangle_257" data-name="Rectangle 257" width="258" height="274" transform="translate(153 3463)" fill="#fff"/>
      <g id="Group_159" data-name="Group 159" transform="translate(163.93 3505.896)">
        <g id="Group_155" data-name="Group 155" transform="translate(60.837 4.674)" opacity="0.6">
          <path id="Path_828" data-name="Path 828" d="M259.93,36.739,266.2,34.97l9.57.776-9.857,2.777Z" transform="translate(-244.574 -29.428)" fill="#06f"/>
          <path id="Path_829" data-name="Path 829" d="M259.93,36.739,266.2,34.97l9.57.776-9.857,2.777Z" transform="translate(-244.574 -29.428)" fill="#06f" opacity="0.2"/>
          <path id="Path_830" data-name="Path 830" d="M404.4,112.309l8.964-2.531,4.886,1.324,36.438-10.273s5.528-.978,5.733.879L413.364,114.9Z" transform="translate(-404.4 -100.571)" fill="#06f"/>
          <path id="Path_831" data-name="Path 831" d="M477.707,107.637,438.58,118.669l-3.58-1.3,47.192-13.305S483.381,106.037,477.707,107.637Z" transform="translate(-426.036 -103.038)" fill="#06f"/>
          <path id="Path_832" data-name="Path 832" d="M477.707,107.637,438.58,118.669l-3.58-1.3,47.192-13.305S483.381,106.037,477.707,107.637Z" transform="translate(-426.036 -103.038)" fill="#06f" opacity="0.2"/>
          <path id="Path_833" data-name="Path 833" d="M270.6,43.741l6.272-1.766L296.165,29.2l-13.742,3.876Z" transform="translate(-252.119 -25.348)" fill="#06f"/>
        </g>
        <path id="Path_834" data-name="Path 834" d="M766.2,493.063a8.4,8.4,0,0,0-4.174-.671c-2.344.41-4,2.636-4.687,4.918s-.677,4.716-1.122,7.06-1.512,4.772-3.615,5.9-4.587.68-6.922.41a43.71,43.71,0,0,0-9.219-.085c-2.575.249-5.6,1.119-6.351,3.591-.618,2.021.609,4.078,1.43,6.026a14.007,14.007,0,0,1-.1,11.492c-1.784,3.6-5.3,6.181-6.784,9.916a4.91,4.91,0,0,0-.357,2.988,5.458,5.458,0,0,0,1.063,1.927c1.172,1.5,2.554,2.821,3.615,4.394,2.212,3.281,2.812,7.37,3.07,11.319a82.556,82.556,0,0,1-.064,11.656c2.883-.949,6.07-.1,9.04-.715,6.324-1.3,10.273-8.788,16.715-9.245,3.047-.214,6.325,1.219,9.043-.176a6.837,6.837,0,0,0,2.894-3.3,11.665,11.665,0,0,0,.7-7.821c-.478-1.813-1.406-3.586-1.224-5.452a7.355,7.355,0,0,1,2.212-4.171c3.131-3.325,7.678-5.358,9.928-9.333a10.638,10.638,0,0,0-1.263-11.969,31.871,31.871,0,0,1-2.279-2.475,10.275,10.275,0,0,1-1.555-5.305c-.308-4.467.451-9.192-.993-13.531C773.885,496.464,769.886,494.378,766.2,493.063Z" transform="translate(-569.673 -372.891)" fill="#ff4d4d" opacity="0.6"/>
        <path id="Path_835" data-name="Path 835" d="M796.185,495.3s-12.822,71.216-29.475,79.708" transform="translate(-599.739 -374.996)" fill="none" stroke="#535461" stroke-miterlimit="10" stroke-width="1" opacity="0.6"/>
        <path id="Path_836" data-name="Path 836" d="M745.54,562.59s13.733,1.887,27.454,15.991" transform="translate(-584.771 -422.574)" fill="none" stroke="#535461" stroke-miterlimit="10" stroke-width="1" opacity="0.6"/>
        <path id="Path_837" data-name="Path 837" d="M831,624.215a35.581,35.581,0,0,1,27.082-8.58" transform="translate(-645.196 -459.937)" fill="none" stroke="#535461" stroke-miterlimit="10" stroke-width="1" opacity="0.6"/>
        <path id="Path_838" data-name="Path 838" d="M724.95,660.75s19.287,1.638,26.429,9.046" transform="translate(-570.212 -491.979)" fill="none" stroke="#535461" stroke-miterlimit="10" stroke-width="1" opacity="0.6"/>
        <path id="Path_839" data-name="Path 839" d="M805.27,714.536a31.911,31.911,0,0,1,20.769,4.482" transform="translate(-627.003 -529.824)" fill="none" stroke="#535461" stroke-miterlimit="10" stroke-width="1" opacity="0.6"/>
        <path id="Path_840" data-name="Path 840" d="M348.43,617.885a5.286,5.286,0,0,1,2.6-.419,4.154,4.154,0,0,1,2.929,3.07,40.712,40.712,0,0,1,.7,4.394,5.084,5.084,0,0,0,2.256,3.679c1.312.7,2.862.425,4.318.255a27.27,27.27,0,0,1,5.75-.053c1.605.155,3.492.7,3.963,2.241.387,1.26-.381,2.546-.879,3.761a8.747,8.747,0,0,0,.062,7.168c1.093,2.209,3.307,3.855,4.233,6.187a3.058,3.058,0,0,1,.223,1.866,3.4,3.4,0,0,1-.662,1.2c-.727.934-1.594,1.758-2.256,2.742a14.11,14.11,0,0,0-1.916,7.063,51.5,51.5,0,0,0,.041,7.274c-1.8-.586-3.785-.064-5.639-.448-3.969-.794-6.43-5.454-10.449-5.747-1.9-.135-3.946.762-5.642-.108a4.259,4.259,0,0,1-1.8-2.051,7.277,7.277,0,0,1-.436-4.877,10.092,10.092,0,0,0,.765-3.4,4.608,4.608,0,0,0-1.38-2.6c-1.954-2.074-4.79-3.342-6.193-5.824a6.635,6.635,0,0,1,.788-7.467,19.6,19.6,0,0,0,1.421-1.544,6.516,6.516,0,0,0,.97-3.31c.193-2.786-.293-5.736.618-8.443C343.632,620.018,346.127,618.717,348.43,617.885Z" transform="translate(-296.768 -461.344)" fill="#ff4d4d" opacity="0.6"/>
        <path id="Path_841" data-name="Path 841" d="M373.24,619.32s8,44.433,18.385,49.729" transform="translate(-321.531 -462.686)" fill="none" stroke="#535461" stroke-miterlimit="10" stroke-width="1" opacity="0.6"/>
        <path id="Path_842" data-name="Path 842" d="M407.878,661.3s-8.568,1.172-17.128,9.974" transform="translate(-333.912 -492.368)" fill="none" stroke="#535461" stroke-miterlimit="10" stroke-width="1" opacity="0.6"/>
        <path id="Path_843" data-name="Path 843" d="M355.107,699.781a22.214,22.214,0,0,0-16.9-5.352" transform="translate(-296.763 -515.704)" fill="none" stroke="#535461" stroke-miterlimit="10" stroke-width="1" opacity="0.6"/>
        <path id="Path_844" data-name="Path 844" d="M422.269,722.54s-12.031,1.014-16.489,5.642" transform="translate(-344.539 -535.669)" fill="none" stroke="#535461" stroke-miterlimit="10" stroke-width="1" opacity="0.6"/>
        <path id="Path_845" data-name="Path 845" d="M380.727,756.1a19.969,19.969,0,0,0-12.957,2.8" transform="translate(-317.663 -559.284)" fill="none" stroke="#535461" stroke-miterlimit="10" stroke-width="1" opacity="0.6"/>
        <path id="Path_846" data-name="Path 846" d="M725.368,115.843c-.99,0-2.089,0-2.841.059a3.456,3.456,0,0,0-.984.2l-5.082,1.825c4.1.1,8.39.07,12.6.038l23.593-.179c2.408-.018,4.936-.041,6.946-.185,1.345-.1,2.344-.237,3.574-.349,4.467-.4,10.982-.322,16.8-.293s12.842-.132,14.89-.715H782.371c-1.348,0-2.759,0-3.949-.067-1.388-.079-2.238-.234-3.46-.34-2.021-.173-4.81-.193-7.4-.205C753.332,115.579,739.274,115.916,725.368,115.843Z" transform="translate(-564.209 -106.544)" fill="#f4f4f4"/>
        <path id="Path_847" data-name="Path 847" d="M494.179,235.7c-.34,0-.721,0-.981.018a1.386,1.386,0,0,0-.34.059l-1.758.53c1.418.029,2.894.021,4.347,0l8.144-.053c.832,0,1.7,0,2.4-.053.463-.029.806-.07,1.233-.1,1.541-.117,3.788-.094,5.794-.088a37.317,37.317,0,0,0,5.138-.208h-4.306c-.466,0-.952,0-1.362-.021-.48-.023-.77-.067-1.2-.1-.7-.05-1.658-.056-2.554-.059C503.825,235.62,498.98,235.731,494.179,235.7Z" transform="translate(-404.866 -191.385)" fill="#f4f4f4"/>
        <path id="Path_848" data-name="Path 848" d="M848.774,216.907c-.586,0-1.245,0-1.7.029a2.393,2.393,0,0,0-.586.1l-3.032.917c2.452.053,5.006.035,7.514.021l14.079-.091c1.435,0,2.944-.021,4.142-.094.8-.047,1.394-.12,2.133-.176,2.666-.2,6.55-.161,10.021-.152a64.77,64.77,0,0,0,8.882-.36h-7.452c-.8,0-1.646,0-2.344-.035-.829-.041-1.333-.117-2.051-.17-1.2-.088-2.868-.1-4.415-.1C865.454,216.775,857.067,216.945,848.774,216.907Z" transform="translate(-654.006 -178.074)" fill="#f4f4f4"/>
        <path id="Path_849" data-name="Path 849" d="M528.222,396.547h.035l-1.816-9.687a5.247,5.247,0,0,0-1.643-3.808l-8.4-4.1-.05.114a9.512,9.512,0,0,1-1.5-2.51l.146-.208a5.032,5.032,0,0,0,.967-1.969,3.336,3.336,0,0,0,.05-.557l.126-.064a3.111,3.111,0,0,0,3.463-2.519,1.8,1.8,0,0,1,.032-.214,3.114,3.114,0,0,1-2.83,2.344,8.554,8.554,0,0,0,3.808-7.115c0-.12,0-.237,0-.354a3.1,3.1,0,0,0,1.43-2.083,1.8,1.8,0,0,1,.032-.214,3.105,3.105,0,0,1-1.485,1.933,8.513,8.513,0,0,0-.524-2.317h.211a3.114,3.114,0,0,0,3.114-3.114v-.217a3.09,3.09,0,0,1-3.515,2.868l-.067-.152a5.094,5.094,0,0,0,3.58-4.145v-.217a3.1,3.1,0,0,1-.627,1.667,3.111,3.111,0,1,0-6.152-.923q-.271-.17-.556-.322a3.114,3.114,0,0,1,2.815-2.276h-.217a3.114,3.114,0,0,0-2.976,2.1,8.56,8.56,0,0,0-10.78,3.088c-.659.477-1.509,1.172-1.465,1.778a5.921,5.921,0,0,0-.741.911c-1.172,1.866-.976,4.239-.97,6.445s-.393,4.716-2.232,5.935a2.95,2.95,0,0,0,2.282.018,8.749,8.749,0,0,0,2.018-1.172,4.5,4.5,0,0,0,1.424-1.374c.023-.044.047-.088.067-.132a7.071,7.071,0,0,0,1.286.68c.179,1.447.217,3.117-.425,3.668l-.1.082-.026.021a2.746,2.746,0,0,1,.123-.278s-1.731,1.643-5.449,1.555-5.621,3.632-5.621,3.632l-2.6,11.158h.041l-.041.182h.041l-.041.182.07-.015a.838.838,0,0,0,.624.615c.226.053.5.126.817.223,0,2.1-.1,4.857-.56,5.566,0,0-1.21,6.4-.952,8.2.2,1.377.542,8.563.7,11.964a35.461,35.461,0,0,0-.7,3.515l-3.893,23.353s-2.935,18.681-2.777,24.328l-.51,3.26s-7.909,9.922-5.58,11.319,5.891,2.015,9.3-3.255a8.536,8.536,0,0,1,2.171-3.255,3.2,3.2,0,0,0,1.075-2.724l-.231-2.311.416.141.023-.079.234.079s3.893-12.8,3.46-21.71c0,0,7.221-25.682,12.69-29.721v-.17a2.7,2.7,0,0,1,.507-.252l1.172,24.867-1.172,27.41-.281,1.649s-7.909,9.922-5.58,11.319,5.891,2.015,9.3-3.255a8.535,8.535,0,0,1,2.171-3.255,3.2,3.2,0,0,0,1.075-2.724l-.363-3.627c1.345-4.608,4.883-17.913,3.4-25.617l2.4-16.381c2.423-2.721,2.1-9.652,2.1-9.652,1.9-3.978,2.344-19.627,2.344-19.627l.48-7.725a6.446,6.446,0,0,1,1.078-.085.719.719,0,0,0,.237-.041l.152.021.067-.141a.723.723,0,0,0,.179-.205l.143.044-.035-.185h.035Zm-6.767,15.707q-.325-.8-.724-1.6l-.193.021a1.621,1.621,0,0,0-.064-.193.944.944,0,0,1-.053-.182,1.008,1.008,0,0,1,.062-.193,6.686,6.686,0,0,0,.293-.8,3.02,3.02,0,0,0,.46-1.664,16.452,16.452,0,0,1,.217,4.6Zm-.724-6.615-.5-5.17q.073-.211.152-.407l.65,6.559Zm-22.922.688a1.817,1.817,0,0,0-.434,1.406v.173a5.875,5.875,0,0,0,.217,1.553l-.759,3.222.111-6.187a13.682,13.682,0,0,0,1.295-2.086A3.374,3.374,0,0,1,497.809,406.328Z" transform="translate(-396.512 -276.738)" fill="url(#linear-gradient-10)"/>
        <path id="Path_850" data-name="Path 850" d="M551.785,385.787c-1.131,1.8-.94,4.084-.935,6.21s-.378,4.543-2.15,5.718a2.842,2.842,0,0,0,2.2.015,8.43,8.43,0,0,0,1.942-1.137,4.327,4.327,0,0,0,1.371-1.324,5.154,5.154,0,0,0,.316-2.636,27.935,27.935,0,0,1,.413-4.716c.141-.958,1.069-3.591-.073-4.1C553.835,383.362,552.245,385.052,551.785,385.787Z" transform="translate(-445.592 -296.115)" fill="#72351c"/>
        <path id="Path_851" data-name="Path 851" d="M488.882,740.049l-.747,4.781s-7.616,9.559-5.378,10.9,5.677,1.942,8.961-3.137a8.225,8.225,0,0,1,2.092-3.137h0a3.082,3.082,0,0,0,1.037-2.636l-.738-7.382Z" transform="translate(-398.675 -547.618)" fill="#333"/>
        <path id="Path_852" data-name="Path 852" d="M567.119,746.6l-.747,4.781s-7.619,9.556-5.372,10.9,5.677,1.942,8.961-3.137a8.225,8.225,0,0,1,2.092-3.137h0a3.082,3.082,0,0,0,1.037-2.636L572.345,746Z" transform="translate(-453.996 -552.256)" fill="#333"/>
        <path id="Path_853" data-name="Path 853" d="M515.077,545.515s-3.583,2.584-4.915,11.583l-3.75,22.5s-3.172,20.418-2.587,24.334l6.333,2.168s3.75-12.333,3.334-20.916c0,0,7.616-27.123,12.957-29.039l1.125,23.956-1.172,27,5.416,1.084s5.5-17.166,3.75-26.247L538.4,562.6s3.249-10.332-1.251-19.249Z" transform="translate(-413.812 -408.97)" fill="#4d8af0"/>
        <g id="Group_156" data-name="Group 156" transform="translate(95.919 134.38)" opacity="0.1">
          <path id="Path_854" data-name="Path 854" d="M540.4,587.417l-.021-.407c-5.334,1.916-12.957,29.039-12.957,29.039.384,7.892-2.757,18.95-3.263,20.681l.68.234s3.75-12.333,3.334-20.916C528.173,616.052,535.13,591.307,540.4,587.417Z" transform="translate(-524.16 -574.22)"/>
          <path id="Path_855" data-name="Path 855" d="M604.077,543.35l-.715.07c4.447,8.9,1.216,19.179,1.216,19.179l-2.833,19.334c1.658,8.6-3.187,24.454-3.706,26.107l.706.141s5.5-17.166,3.75-26.247l2.833-19.334S608.574,552.267,604.077,543.35Z" transform="translate(-576.398 -543.35)"/>
        </g>
        <path id="Path_856" data-name="Path 856" d="M525.77,487.964a.809.809,0,0,0,.627.785,12.528,12.528,0,0,1,4.789,2.3c2.666,2.083-2.833-4.166-2.833-4.166l-1.834.416Z" transform="translate(-429.379 -369.042)" fill="#f55f44"/>
        <path id="Path_857" data-name="Path 857" d="M525.77,487.964a.809.809,0,0,0,.627.785,12.528,12.528,0,0,1,4.789,2.3c2.666,2.083-2.833-4.166-2.833-4.166l-1.834.416Z" transform="translate(-429.379 -369.042)" opacity="0.1"/>
        <path id="Path_858" data-name="Path 858" d="M615.09,499.278s4.321-3.026,7.54-2.982a.7.7,0,0,0,.709-.7h0S617.009,493.112,615.09,499.278Z" transform="translate(-492.534 -374.855)" fill="#f55f44"/>
        <path id="Path_859" data-name="Path 859" d="M623.339,495.593s-6.333-2.487-8.249,3.679c0,0,4.666-3.583,7.909-3" transform="translate(-492.534 -374.852)" opacity="0.1"/>
        <circle id="Ellipse_193" data-name="Ellipse 193" cx="8.249" cy="8.249" r="8.249" transform="translate(106.974 83.339)" fill="#72351c"/>
        <path id="Path_860" data-name="Path 860" d="M564.827,406.394s1.172,4.833,0,5.832-3.5,2.833-1.758,4.25,8.082,3.835,10.165,2.666,4.5-.832,3.917-3.249-5.17-1.9-5.244-13.894Z" transform="translate(-455.31 -309.027)" fill="#fdb797"/>
        <path id="Path_861" data-name="Path 861" d="M527.24,485.6s.249,6.667-.5,7.833c0,0-1.172,6.152-.917,7.909s.75,13.25.75,13.25-.917,10.083,4,9.166-.75-11.5-.75-11.5l.249-13.75a12.828,12.828,0,0,0,2.5-6.152C532.818,489.036,527.24,485.6,527.24,485.6Z" transform="translate(-429.391 -368.137)" opacity="0.1"/>
        <path id="Path_862" data-name="Path 862" d="M526.96,485.6s.249,6.667-.5,7.833c0,0-1.172,6.152-.917,7.909s.75,13.25.75,13.25-.917,10.083,4,9.166-.75-11.5-.75-11.5l.249-13.75a12.828,12.828,0,0,0,2.5-6.152C532.538,489.036,526.96,485.6,526.96,485.6Z" transform="translate(-429.193 -368.137)" fill="#fdb797"/>
        <path id="Path_863" data-name="Path 863" d="M615.2,488.16l-.668,10.751s-.416,15.083-2.25,18.915c0,0,.5,10.584-4.417,10.332s.832-11.583.832-11.583,2.636-11.764,1.277-15.505L608.7,488.16Z" transform="translate(-486.022 -369.947)" opacity="0.1"/>
        <path id="Path_864" data-name="Path 864" d="M615.493,488.16l-.668,10.751s-.416,15.083-2.25,18.915c0,0,.5,10.584-4.417,10.332s.832-11.583.832-11.583,2.636-11.764,1.277-15.505l-1.277-12.91Z" transform="translate(-486.227 -369.947)" fill="#fdb797"/>
        <path id="Path_865" data-name="Path 865" d="M542.54,441.933s3.981,1.831,6.152-3.627l8.091,3.958a5.056,5.056,0,0,1,1.582,3.668l1.758,9.333s-5.917-2-7.748,3.5l.5,5.252.018.053a5.656,5.656,0,0,1-.261,3.919.879.879,0,0,0,0,.694,2.566,2.566,0,0,1-2.344,3.334c-2.261.252-4.748,0-6.5.5s-7-1-8.75,0-5.416-.75-5.416-.75l1-4.25s-.668-2.083.167-2.833.334-7.25-.416-9.081c0,0-3-2.833-4.749-2.344l2.5-10.751s1.834-3.583,5.416-3.5,5.249-1.5,5.249-1.5S536.7,441.35,542.54,441.933Z" transform="translate(-429.273 -334.134)" opacity="0.1"/>
        <path id="Path_866" data-name="Path 866" d="M542.949,440.949c1.078.293,3.99.615,5.739-3.77l8.088,3.949a5.056,5.056,0,0,1,1.582,3.668l1.758,9.333s-5.917-2-7.748,3.5l.5,5.249.328,1.043a2.973,2.973,0,0,1-.416,2.663.943.943,0,0,0-.161.961,2.566,2.566,0,0,1-2.344,3.334c-2.261.252-4.748,0-6.5.5s-7-1-8.75,0-5.416-.75-5.416-.75l1-4.251s-.668-2.083.167-2.833.334-7.25-.416-9.081c0,0-3-2.833-4.748-2.344l2.5-10.751s1.834-3.583,5.416-3.5,5.249-1.5,5.249-1.5-1.948,3.586,3.2,4.347A8.264,8.264,0,0,1,542.949,440.949Z" transform="translate(-429.266 -333.328)" opacity="0.1"/>
        <path id="Path_867" data-name="Path 867" d="M542.963,441.546c1.078.293,3.99.615,5.739-3.77l8.088,3.963a5.056,5.056,0,0,1,1.582,3.668l1.758,9.333s-5.917-2-7.748,3.5l.5,5.249.018.053a5.657,5.657,0,0,1-.261,3.919.879.879,0,0,0,0,.694,2.566,2.566,0,0,1-2.344,3.334c-2.261.252-4.749,0-6.5.5s-7-1-8.75,0-5.416-.75-5.416-.75l1-4.251s-.668-2.083.167-2.833.334-7.25-.416-9.081c0,0-3-2.833-4.749-2.343l2.5-10.751s1.834-3.583,5.416-3.5S538.8,437,538.8,437s-1.948,3.586,3.2,4.347A8.271,8.271,0,0,1,542.963,441.546Z" transform="translate(-429.28 -333.774)" fill="#f55f44"/>
        <path id="Path_868" data-name="Path 868" d="M578.223,403.4l-7.083,4.418a23.039,23.039,0,0,1,.41,2.3,6.811,6.811,0,0,0,2.549.492,7.155,7.155,0,0,0,4.584-2.083A27.534,27.534,0,0,1,578.223,403.4Z" transform="translate(-461.459 -310.017)" opacity="0.1"/>
        <circle id="Ellipse_194" data-name="Ellipse 194" cx="6.834" cy="6.834" r="6.834" transform="translate(105.642 86.505)" fill="#fdb797"/>
        <circle id="Ellipse_195" data-name="Ellipse 195" cx="3" cy="3" r="3" transform="translate(119.556 82.091)" fill="#72351c"/>
        <path id="Path_869" data-name="Path 869" d="M609.861,379.162a3,3,0,0,1-2.991-2.792v.208a3,3,0,1,0,6,0v-.208a3,3,0,0,1-3.008,2.792Z" transform="translate(-486.722 -290.905)" fill="#72351c"/>
        <path id="Path_870" data-name="Path 870" d="M605.113,388.137a3,3,0,0,1-2.437-3.287c-.018.067-.032.135-.047.2a3,3,0,1,0,5.9,1.087c0-.07.023-.138.029-.205a3,3,0,0,1-3.445,2.2Z" transform="translate(-483.688 -296.9)" fill="#72351c"/>
        <path id="Path_871" data-name="Path 871" d="M597.153,412.607a3,3,0,0,1-2.437-3.287c-.018.067-.032.135-.047.2a3,3,0,1,0,5.9,1.087c0-.07.023-.138.029-.205A3,3,0,0,1,597.153,412.607Z" transform="translate(-478.06 -314.202)" fill="#72351c"/>
        <path id="Path_872" data-name="Path 872" d="M609.861,373.783A3,3,0,0,1,606.87,371v.208a3,3,0,1,0,6,0V371a3,3,0,0,1-3.008,2.783Z" transform="translate(-486.722 -287.108)" fill="#72351c"/>
        <path id="Path_873" data-name="Path 873" d="M601.786,367.851a3,3,0,0,1,2.824-2.962H604.4a3,3,0,0,0-.064,6h.208A3,3,0,0,1,601.786,367.851Z" transform="translate(-482.833 -282.787)" fill="#72351c"/>
        <path id="Path_874" data-name="Path 874" d="M612.79,471.52a10.758,10.758,0,0,1,0,4.5s-.416,3.917.249,4.584" transform="translate(-490.817 -358.182)" opacity="0.1"/>
        <path id="Path_875" data-name="Path 875" d="M543.69,474.65a10.758,10.758,0,0,1,0,4.5s-.416,3.917.249,4.584" transform="translate(-441.959 -360.395)" opacity="0.1"/>
        <path id="Path_876" data-name="Path 876" d="M543.41,529.144a2.982,2.982,0,0,0,2,0,4.168,4.168,0,0,1,2.417,0" transform="translate(-441.852 -398.806)" opacity="0.1"/>
        <path id="Path_877" data-name="Path 877" d="M546.82,506.744a17.3,17.3,0,0,0,6.916-1.084s8.5,2.083,10.915.586" transform="translate(-444.263 -382.321)" opacity="0.1"/>
        <rect id="Rectangle_124" data-name="Rectangle 124" width="5.249" height="3.249" rx="1.624" transform="translate(96.391 160.334)" fill="#fdb797"/>
        <path id="Path_878" data-name="Path 878" d="M525.77,634.5s2.686-.126,2.809-.126,2.443.375,2.443.375h-.855Z" transform="translate(-429.379 -473.327)" fill="#f0e4e4"/>
        <path id="Path_879" data-name="Path 879" d="M590.35,588.522s2.686-.082,2.809-.082,2.443.249,2.443.249h-.855Z" transform="translate(-475.042 -440.851)" fill="#f0e4e4"/>
        <path id="Path_880" data-name="Path 880" d="M590.35,590.512s2.686-.082,2.809-.082,2.443.249,2.443.249h-.855Z" transform="translate(-475.042 -442.258)" fill="#f0e4e4"/>
        <path id="Path_881" data-name="Path 881" d="M590.35,592.5s2.686-.082,2.809-.082,2.443.249,2.443.249h-.855Z" transform="translate(-475.042 -443.666)" fill="#f0e4e4"/>
        <path id="Path_882" data-name="Path 882" d="M590.35,594.492s2.686-.082,2.809-.082,2.443.249,2.443.249h-.855Z" transform="translate(-475.042 -445.073)" fill="#f0e4e4"/>
        <path id="Path_883" data-name="Path 883" d="M525.77,642.437s2.686-.1,2.809-.1,2.443.293,2.443.293h-.855Z" transform="translate(-429.379 -478.962)" fill="#f0e4e4"/>
        <path id="Path_884" data-name="Path 884" d="M525.77,641.447s2.686-.1,2.809-.1,2.443.293,2.443.293h-.855Z" transform="translate(-429.379 -478.262)" fill="#f0e4e4"/>
        <path id="Path_885" data-name="Path 885" d="M525.77,640.447s2.686-.1,2.809-.1,2.443.293,2.443.293h-.855Z" transform="translate(-429.379 -477.555)" fill="#f0e4e4"/>
        <path id="Path_886" data-name="Path 886" d="M525.77,639.447s2.686-.1,2.809-.1,2.443.293,2.443.293h-.855Z" transform="translate(-429.379 -476.848)" fill="#f0e4e4"/>
        <path id="Path_887" data-name="Path 887" d="M525.77,633.216s2.686-.126,2.809-.126,2.443.375,2.443.375h-.855Z" transform="translate(-429.379 -472.422)" fill="#f0e4e4"/>
        <path id="Path_888" data-name="Path 888" d="M525.77,631.506s2.686-.126,2.809-.126,2.443.375,2.443.375h-.855Z" transform="translate(-429.379 -471.213)" fill="#f0e4e4"/>
        <path id="Path_889" data-name="Path 889" d="M584.241,380.84c-.557,2.393.313,5.036.955,7.534s.993,5.437-.369,7.253a2.385,2.385,0,0,0,2.147-.527,8.244,8.244,0,0,0,1.544-1.816,4.848,4.848,0,0,0,.932-1.9,7.441,7.441,0,0,0-.486-3.181,40.991,40.991,0,0,1-1.008-5.639c-.152-1.172-.038-4.491-1.3-4.8C585.509,377.48,584.466,379.867,584.241,380.84Z" transform="translate(-470.596 -291.874)" opacity="0.1"/>
        <path id="Path_890" data-name="Path 890" d="M584.811,380.53c-.557,2.393.313,5.036.955,7.534s.993,5.437-.369,7.253a2.384,2.384,0,0,0,2.135-.524,8.244,8.244,0,0,0,1.544-1.816,4.849,4.849,0,0,0,.932-1.9,7.441,7.441,0,0,0-.486-3.181,40.971,40.971,0,0,1-1.008-5.639c-.152-1.172-.038-4.491-1.3-4.8C586.07,377.181,585.033,379.56,584.811,380.53Z" transform="translate(-470.999 -291.658)" fill="#72351c"/>
        <path id="Path_891" data-name="Path 891" d="M565.623,378.472c.568.606.7,1.512,1.192,2.182A4.272,4.272,0,0,0,570.2,382a1.9,1.9,0,0,1,.984.211c.53.349.545,1.116.9,1.64a1.928,1.928,0,0,0,2.839.015,4.673,4.673,0,0,0,1.087-2.982,18.619,18.619,0,0,0-.038-3.6,5.537,5.537,0,0,0-1.526-3.685,6.407,6.407,0,0,0-2.692-1.151,7.839,7.839,0,0,0-4.136-.293,7.458,7.458,0,0,0-1.887.952q-1.239.788-2.44,1.632c-.9.633-2.575,1.887-.94,2.566C563.429,377.746,564.753,377.55,565.623,378.472Z" transform="translate(-454.756 -287.798)" opacity="0.1"/>
        <path id="Path_892" data-name="Path 892" d="M566.193,378.192c.568.606.7,1.512,1.192,2.182a4.272,4.272,0,0,0,3.383,1.348,1.9,1.9,0,0,1,.984.211c.53.349.545,1.116.9,1.64a1.928,1.928,0,0,0,2.839.015,4.673,4.673,0,0,0,1.087-2.982,18.619,18.619,0,0,0-.038-3.6,5.538,5.538,0,0,0-1.526-3.685,6.407,6.407,0,0,0-2.692-1.151,7.839,7.839,0,0,0-4.136-.293,7.458,7.458,0,0,0-1.886.952q-1.239.788-2.44,1.632c-.9.633-2.575,1.887-.94,2.566C564,377.466,565.323,377.261,566.193,378.192Z" transform="translate(-455.159 -287.601)" fill="#72351c"/>
        <path id="Path_893" data-name="Path 893" d="M590.94,588.522s2.686-.082,2.809-.082,2.443.249,2.443.249h-.855Z" transform="translate(-475.459 -440.851)" fill="#f0e4e4"/>
        <path id="Path_894" data-name="Path 894" d="M590.94,590.512s2.686-.082,2.809-.082,2.443.249,2.443.249h-.855Z" transform="translate(-475.459 -442.258)" fill="#f0e4e4"/>
        <path id="Path_895" data-name="Path 895" d="M590.94,592.5s2.686-.082,2.809-.082,2.443.249,2.443.249h-.855Z" transform="translate(-475.459 -443.666)" fill="#f0e4e4"/>
        <path id="Path_896" data-name="Path 896" d="M590.94,594.492s2.686-.082,2.809-.082,2.443.249,2.443.249h-.855Z" transform="translate(-475.459 -445.073)" fill="#f0e4e4"/>
        <path id="Path_897" data-name="Path 897" d="M586.81,704.082S589.5,704,589.619,704s2.443.249,2.443.249h-.855Z" transform="translate(-472.539 -522.56)" fill="#f0e4e4"/>
        <path id="Path_898" data-name="Path 898" d="M586.81,706.072s2.686-.082,2.809-.082,2.443.249,2.443.249h-.855Z" transform="translate(-472.539 -523.967)" fill="#f0e4e4"/>
        <path id="Path_899" data-name="Path 899" d="M586.81,708.062s2.686-.082,2.809-.082,2.443.249,2.443.249h-.855Z" transform="translate(-472.539 -525.374)" fill="#f0e4e4"/>
        <path id="Path_900" data-name="Path 900" d="M586.81,710.052s2.686-.082,2.809-.082,2.443.249,2.443.249h-.855Z" transform="translate(-472.539 -526.781)" fill="#f0e4e4"/>
        <path id="Path_901" data-name="Path 901" d="M705.5,616.19h-4.672V597.278h1.55V595.52H684.881v1.758h1.731V616.19h-4.851a5.983,5.983,0,0,0-6.081,5.859V651a5.859,5.859,0,0,0,3.855,5.454,2.538,2.538,0,0,0-.026.352,2.727,2.727,0,0,0,5.446.056H702.68a2.73,2.73,0,0,0,5.437-.231,2.546,2.546,0,0,0-.023-.331,5.859,5.859,0,0,0,3.486-5.3V622.048A5.97,5.97,0,0,0,705.5,616.19Zm-17.421-18.912h11.3V616.19h-11.3Z" transform="translate(-535.375 -445.857)" fill="url(#linear-gradient-11)"/>
        <rect id="Rectangle_125" data-name="Rectangle 125" width="1.4" height="21.712" transform="translate(151.513 151.414)" fill="#333"/>
        <rect id="Rectangle_126" data-name="Rectangle 126" width="1.4" height="21.712" transform="translate(163.769 151.414)" fill="#333"/>
        <rect id="Rectangle_127" data-name="Rectangle 127" width="16.812" height="1.752" transform="translate(149.849 150.363)" fill="#333"/>
        <rect id="Rectangle_128" data-name="Rectangle 128" width="34.496" height="40.56" rx="17.248" transform="translate(141.005 170.971)" fill="#47d147" opacity="0.78"/>
        <circle id="Ellipse_196" data-name="Ellipse 196" cx="2.619" cy="2.619" r="2.619" transform="translate(144.681 208.856)" fill="#333"/>
        <circle id="Ellipse_197" data-name="Ellipse 197" cx="1.09" cy="1.09" r="1.09" transform="translate(146.21 210.385)" fill="#f0e4e4"/>
        <circle id="Ellipse_198" data-name="Ellipse 198" cx="2.619" cy="2.619" r="2.619" transform="translate(166.939 208.684)" fill="#333"/>
        <circle id="Ellipse_199" data-name="Ellipse 199" cx="1.09" cy="1.09" r="1.09" transform="translate(168.468 210.213)" fill="#f0e4e4"/>
        <path id="Path_902" data-name="Path 902" d="M710.755,668.45H688.893a6.3,6.3,0,0,0-4.453,1.837,6.29,6.29,0,0,1,3.052-.8h21.862a6.319,6.319,0,0,1,6.319,6.319v27.923a6.3,6.3,0,0,1-1.866,4.482,6.316,6.316,0,0,0,3.266-5.534V674.763A6.319,6.319,0,0,0,710.755,668.45Z" transform="translate(-541.569 -497.424)" opacity="0.1"/>
        <circle id="Ellipse_200" data-name="Ellipse 200" cx="5.952" cy="5.952" r="5.952" transform="translate(152.216 185.21)" opacity="0.1"/>
        <path id="Path_903" data-name="Path 903" d="M308.658,441.879H298.449s-3.19-111.647,10.209-146.1h2.551S302.277,422.1,308.658,441.879Z" transform="translate(-268.414 -233.922)" fill="rgba(68,93,122,0.48)" opacity="0.78"/>
        <path id="Path_904" data-name="Path 904" d="M230.115,140.636s-8.293,22.966-4.467,33.175c0,0,5.742-21.053,12.441-24.243s13.718,24.243,13.718,24.243,3.829-17.225-3.19-31.262c0,0,14.035,7.654,21.053,22.331,0,0,1.277-9.57-15.312-29.346,0,0,14.673,3.829,24.243,12.76,0,0,3.19-7.03-16.589-18.5,0,0,2.551-8.293,17.869-4.467,0,0,0-10.839-24.243-8.932,0,0,0-7.03,15.95-5.742,0,0,0-8.932-18.5-5.742,0,0,3.829-5.742,6.38-7.03a12.829,12.829,0,0,0-8.932,2.551s.639-11.483-8.932-15.95l-1.277,15.971S229.6,87.814,232.033,90.242c.639.639,2.551,8.293,1.913,12.122,0,0-10.839-8.932-24.243.639,0,0,16.589,1.277,19.141,7.03,0,0-14.035-2.551-17.225-.639,0,0,10.839,3.829,10.209,6.38,0,0-19.141,0-21.677,7.03,0,0,19.779,2.551,21.053,4.467,0,0-22.966,16.589-24.243,21.053,0,0,23.6-14.035,27.434-14.035s-17.225,20.415-15.95,25.521C208.423,159.777,225.647,139.362,230.115,140.636Z" transform="translate(-196.89 -84.52)" fill="#47d147" opacity="0.78"/>
        <g id="Group_157" data-name="Group 157" transform="translate(110.056 26.102)" opacity="0.5">
          <path id="Path_905" data-name="Path 905" d="M677.1,441.287h7.643s2.4-83.587-7.643-109.4h-1.91S681.872,426.479,677.1,441.287Z" transform="translate(-645.085 -285.556)" fill="#6c63ff"/>
          <path id="Path_906" data-name="Path 906" d="M609.69,215.756s6.21,17.2,3.345,24.841c0,0-4.3-15.766-9.315-18.162S593.45,240.6,593.45,240.6s-2.865-12.889,2.387-23.409c0,0-10.511,5.733-15.766,16.721,0,0-.955-7.165,11.466-21.97,0,0-10.988,2.865-18.162,9.556,0,0-2.387-5.255,12.421-13.853,0,0-1.91-6.21-13.375-3.345,0,0,0-8.12,18.162-6.688,0,0,0-5.255-11.943-4.3,0,0,0-6.688,13.853-4.3,0,0-2.865-4.3-4.778-5.255a9.622,9.622,0,0,1,6.688,1.91s-.477-8.6,6.688-11.943l.955,11.943s8.029-9.462,6.21-7.643c-.478.477-1.91,6.21-1.432,9.081,0,0,8.12-6.688,18.162.477,0,0-12.421.955-14.331,5.255,0,0,10.511-1.91,12.889-.477,0,0-8.12,2.865-7.643,4.778,0,0,14.33,0,16.243,5.255,0,0-14.808,1.91-15.766,3.345,0,0,17.2,12.421,18.162,15.766,0,0-17.676-10.511-20.541-10.511s12.889,15.285,11.943,19.108C625.934,230.087,613.036,214.813,609.69,215.756Z" transform="translate(-572.42 -173.72)" fill="#6c63ff"/>
        </g>
        <g id="Group_158" data-name="Group 158" transform="translate(165.436 47.882)" opacity="0.3">
          <path id="Path_907" data-name="Path 907" d="M810.4,404.556h-4.473s-1.4-48.9,4.47-63.986h1.119S807.6,395.894,810.4,404.556Z" transform="translate(-792.802 -313.473)" fill="#ff4d4d"/>
          <path id="Path_908" data-name="Path 908" d="M775.994,272.656s-3.632,10.059-1.957,14.53c0,0,2.513-9.222,5.449-10.619s6.008,10.619,6.008,10.619,1.676-7.543-1.4-13.692a24.275,24.275,0,0,1,9.222,9.778s.56-4.192-6.705-12.854c0,0,6.427,1.676,10.619,5.589,0,0,1.4-3.073-7.265-8.1,0,0,1.119-3.632,7.824-1.957,0,0,0-4.751-10.619-3.911,0,0,0-3.073,6.987-2.513,0,0,0-3.911-8.1-2.513,0,0,1.676-2.513,2.795-3.073a5.535,5.535,0,0,0-3.911,1.119s.293-5.03-3.911-6.987l-.56,6.987s-4.687-5.534-3.632-4.47a12.064,12.064,0,0,1,.838,5.308s-4.751-3.911-10.619.293c0,0,7.265.56,8.384,3.073,0,0-6.152-1.119-7.543-.293,0,0,4.751,1.676,4.47,2.795,0,0-8.384,0-9.5,3.073,0,0,8.662,1.119,9.222,1.957,0,0-10.06,7.265-10.619,9.222,0,0,10.338-6.152,12.01-6.152s-7.546,8.946-6.987,11.173C766.494,281.034,774.04,272.094,775.994,272.656Z" transform="translate(-761.47 -248.07)" fill="#ff4d4d"/>
        </g>
      </g>
    </g>
    <text id="enjoy_your_tour" data-name="enjoy your tour" transform="translate(220 3490)" fill="#03254c" font-size="14" font-family="Montserrat-Regular, Montserrat" opacity="0.75"><tspan x="0" y="0">Enjoy Your Tour</tspan></text>
  </g>
</svg>
