<svg xmlns="http://www.w3.org/2000/svg" width="208.801" height="210.383" viewBox="0 0 208.801 210.383">
  <g id="Group_652" data-name="Group 652" transform="translate(0.251 1.839)">
    <path id="Path_2212" data-name="Path 2212" d="M470.8,216.4a104.047,104.047,0,0,1-8.408,41.112l-.346.8a104.573,104.573,0,0,1-113.763,60.926q-.941-.167-1.878-.346a103.472,103.472,0,0,1-18.885-5.569q-1.487-.6-2.953-1.239c-.667-.29-1.334-.59-2-.9A104.411,104.411,0,1,1,470.8,216.4Z" transform="translate(-262.251 -113.839)" fill="#fcfbfb"/>
    <path id="Path_2213" data-name="Path 2213" d="M442.2,468.759q-.941-.167-1.878-.346a429.308,429.308,0,0,0-6.579-61.556c-2.61-13.921-6.233-28.191-11.259-40.948a127.436,127.436,0,0,0-5.89-12.923c-5.078-9.591-11.237-17.665-18.706-23.135l1.1-1.5q9.317,6.829,16.747,19.175,2.229,3.7,4.281,7.889,2.2,4.485,4.2,9.523,1.274,3.206,2.462,6.635a240.823,240.823,0,0,1,8.791,33.97q.8,4.216,1.526,8.639A438.049,438.049,0,0,1,442.2,468.759Z" transform="translate(-355.953 -261.789)" opacity="0.2"/>
    <path id="Path_2214" data-name="Path 2214" d="M421.022,645.686c-.667-.29-1.334-.59-2-.9a151.642,151.642,0,0,0-4-23.966,78.638,78.638,0,0,0-3.648-10.873c-2.474-5.791-5.677-10.715-9.819-13.751l1.1-1.5c4.337,3.175,7.682,8.195,10.267,14.066a96.49,96.49,0,0,1,6.15,21.674C420.037,635.9,420.642,641.183,421.022,645.686Z" transform="translate(-358.489 -445.87)" opacity="0.2"/>
    <circle id="Ellipse_929" data-name="Ellipse 929" cx="9.294" cy="9.294" r="9.294" transform="translate(22.257 49.431)" opacity="0.2"/>
    <circle id="Ellipse_930" data-name="Ellipse 930" cx="9.294" cy="9.294" r="9.294" transform="translate(25.249 129.433)" opacity="0.2"/>
    <path id="Path_2215" data-name="Path 2215" d="M482.568,310.833c-1.971,11.119,2.38,21.187,2.38,21.187s7.546-7.959,9.517-19.078-2.38-21.187-2.38-21.187S484.539,299.715,482.568,310.833Z" transform="translate(-414.121 -236.498)" opacity="0.2"/>
    <path id="Path_2216" data-name="Path 2216" d="M345.36,408.9a41.485,41.485,0,0,0,21.262,1.389,37.852,37.852,0,0,0-38.405-14.043A41.485,41.485,0,0,0,345.36,408.9Z" transform="translate(-307.8 -308.169)" opacity="0.2"/>
    <path id="Path_2217" data-name="Path 2217" d="M351.033,647.151a28.935,28.935,0,0,0,14.914.945,26.369,26.369,0,0,0-26.919-9.843A28.934,28.934,0,0,0,351.033,647.151Z" transform="translate(-315.272 -475.578)" opacity="0.2"/>
    <circle id="Ellipse_931" data-name="Ellipse 931" cx="40.701" cy="40.701" r="40.701" transform="translate(63.449 45.853)" fill="#d0cde1"/>
    <path id="Path_2218" data-name="Path 2218" d="M547.833,465.506s5.088,24.166,5.088,26.71,24.166,13.991,24.166,13.991l21.622-3.816,7.631-22.894s-12.719-19.078-12.719-26.71Z" transform="translate(-459.582 -347.791)" fill="#d0cde1"/>
    <path id="Path_2219" data-name="Path 2219" d="M548.95,537.61l-.346.8a104.573,104.573,0,0,1-113.763,60.926q-.941-.167-1.878-.346a103.48,103.48,0,0,1-18.885-5.569q-1.487-.6-2.953-1.239c-.667-.29-1.334-.59-2-.9a104.277,104.277,0,0,1-17.065-9.971l-4.825-14,2.712-2.069,5.578-4.259,5.952-4.544,1.547-1.183,23.354-17.828,1.724-1.316,12.139-9.266,0,0s13.127,21.39,32.207,15.03a26.309,26.309,0,0,0,18.662-24.6Z" transform="translate(-348.592 -392.363)" fill="#47d147"/>
    <path id="Path_2220" data-name="Path 2220" d="M463.617,236.56s12.922-28,37.69-21.537,38.767,16.153,39.844,25.845-.538,24.229-.538,24.229-2.692-19.922-19.922-15.614-44.151,1.077-44.151,1.077l-4.307,38.767s-4.846-7-10.23-2.692S446.387,245.175,463.617,236.56Z" transform="translate(-394.763 -182.797)" fill="#445d7a"/>
    <path id="Path_2221" data-name="Path 2221" d="M402.523,705.373q-1.487-.6-2.953-1.239c-.667-.29-1.334-.59-2-.9A104.658,104.658,0,0,1,370.52,685.1a36.6,36.6,0,0,1,5.164-5.835h19.079l2.86,9.618Z" transform="translate(-337.037 -504.318)" fill="#47d147"/>
    <path id="Path_2222" data-name="Path 2222" d="M854.064,576.32l16.367,2.891A104.382,104.382,0,0,1,852.9,606.568Z" transform="translate(-670.421 -433.167)" fill="#47d147"/>
  </g>
</svg>
