<svg xmlns="http://www.w3.org/2000/svg" width="108.182" height="108.182" viewBox="0 0 108.182 108.182">
  <g id="beach" transform="translate(-16 -16)">
    <path id="Path_2000" data-name="Path 2000" d="M272.227,451.606a1.8,1.8,0,1,0,0-3.606H257.8a1.8,1.8,0,1,0,0,3.606Z" transform="translate(-185.909 -334.636)" fill="#fcfbfb"/>
    <path id="Path_2001" data-name="Path 2001" d="M17.8,451.606H32.227a1.8,1.8,0,0,0,0-3.606H17.8a1.8,1.8,0,0,0,0,3.606Z" transform="translate(0 -334.636)" fill="#fcfbfb"/>
    <path id="Path_2002" data-name="Path 2002" d="M217.8,480a1.8,1.8,0,1,0,0,3.606h7.212a1.8,1.8,0,1,0,0-3.606Z" transform="translate(-154.924 -359.424)" fill="#fcfbfb"/>
    <path id="Path_2003" data-name="Path 2003" d="M56,481.8a1.8,1.8,0,0,0,1.8,1.8H83.046a1.8,1.8,0,0,0,0-3.606H57.8A1.8,1.8,0,0,0,56,481.8Z" transform="translate(-30.985 -359.424)" fill="#fcfbfb"/>
    <path id="Path_2004" data-name="Path 2004" d="M125.158,119.939a25.172,25.172,0,0,0-11.006-2.3,30.184,30.184,0,0,0-3.679.223L120.836,107.5a1.8,1.8,0,0,0,0-2.55c-1.871-1.871-4.867-2.245-8.439-1.054a25.182,25.182,0,0,0-9.411,6.154q-.763.763-1.456,1.563V97.8a1.8,1.8,0,0,0-1.8-1.8c-2.645,0-5.029,1.854-6.712,5.221a25.172,25.172,0,0,0-2.3,11.006,28.983,28.983,0,0,0,.613,6.022,29.106,29.106,0,0,0-6.022-.613,25.172,25.172,0,0,0-11.006,2.3c-3.367,1.684-5.221,4.067-5.221,6.712a1.8,1.8,0,0,0,1.8,1.8H83.4c-3.845,5.484-4.654,11.009-1.767,13.9a1.8,1.8,0,0,0,2.55,0l9.187-9.187a5.4,5.4,0,0,0,8.165,1.121c.081.073.165.142.25.21a51.381,51.381,0,0,1,3.5,17.465,23.12,23.12,0,0,0-12.354,4.816c-.225.173-.448.351-.669.531-10.128.068-19.247,4.175-24.123,10.815H24v3.606H99.728c7.224,0,12.621,2.856,12.621,5.409s-5.4,5.409-12.621,5.409a1.8,1.8,0,1,0,0,3.606,25.172,25.172,0,0,0,11.006-2.3c3.367-1.684,5.221-4.067,5.221-6.712a6.838,6.838,0,0,0-3.1-5.409h15.721a1.8,1.8,0,0,0,1.67-2.484,29.73,29.73,0,0,0-9.3-12.468,24.338,24.338,0,0,0-5.261-3.078h.268a60.962,60.962,0,0,0-5.24-25.243h17.861a1.8,1.8,0,0,0,1.8-1.8C130.379,124.007,128.525,121.623,125.158,119.939ZM97.925,100.448V116.9a18.3,18.3,0,0,0-1.287,3.214c-.109-.058-.216-.117-.328-.173-.3-.148-.6-.287-.918-.422a24.1,24.1,0,0,1-1.073-7.29C94.319,106.7,95.993,102.234,97.925,100.448Zm-5.173,28.23-9.258,9.258c-.1-2.282,1.355-5.882,4.482-9.482h4.851C92.8,128.529,92.774,128.6,92.751,128.679Zm-19.227-3.83c1.786-1.931,6.247-3.606,11.779-3.606s9.993,1.675,11.779,3.606Zm24.4,7.212a1.8,1.8,0,1,1,1.8-1.8A1.8,1.8,0,0,1,97.925,132.061Zm1.916-9.774c.425-2.874,2.579-6.573,5.7-9.69,3.912-3.912,8.248-5.884,10.879-5.779L103.428,119.8c-.094.045-.19.088-.282.135A11.987,11.987,0,0,0,99.84,122.287Zm5.3,9.774a1.8,1.8,0,1,1,1.8-1.8,1.8,1.8,0,0,1-1.8,1.8ZM84.118,168.122H72.9c3.726-3.664,9.315-6.174,15.505-6.953a31.087,31.087,0,0,0-4.292,6.953Zm34.639-8.482a25.4,25.4,0,0,1,7,8.482H88.122a25.4,25.4,0,0,1,7-8.482,18.94,18.94,0,0,1,23.635,0Zm-6.423-7.074a22.112,22.112,0,0,0-3.44-.583,56.16,56.16,0,0,0-2.862-16.391,5.4,5.4,0,0,0,3.03-1.616,58.557,58.557,0,0,1,3.272,18.589Zm-9.961-27.717c1.786-1.931,6.247-3.606,11.779-3.606s9.993,1.675,11.779,3.606Z" transform="translate(-6.197 -61.97)" fill="#fcfbfb"/>
    <path id="Path_2005" data-name="Path 2005" d="M147.833,448H129.8a1.8,1.8,0,1,0,0,3.606h18.03a1.8,1.8,0,0,0,0-3.606Z" transform="translate(-86.757 -334.636)" fill="#fcfbfb"/>
    <path id="Path_2006" data-name="Path 2006" d="M113.015,64a9.015,9.015,0,1,0,9.015,9.015A9.015,9.015,0,0,0,113.015,64Zm0,14.424a5.409,5.409,0,1,1,5.409-5.409A5.409,5.409,0,0,1,113.015,78.424Z" transform="translate(-68.167 -37.182)" fill="#fcfbfb"/>
    <path id="Path_2007" data-name="Path 2007" d="M139.606,21.409V17.8a1.8,1.8,0,1,0-3.606,0v3.606a1.8,1.8,0,1,0,3.606,0Z" transform="translate(-92.954)" fill="#fcfbfb"/>
    <path id="Path_2008" data-name="Path 2008" d="M207.212,97.8a1.8,1.8,0,0,0-1.8-1.8H201.8a1.8,1.8,0,0,0,0,3.606h3.606A1.8,1.8,0,0,0,207.212,97.8Z" transform="translate(-142.53 -61.97)" fill="#fcfbfb"/>
    <path id="Path_2009" data-name="Path 2009" d="M139.606,165.409V161.8a1.8,1.8,0,1,0-3.606,0v3.606a1.8,1.8,0,1,0,3.606,0Z" transform="translate(-92.954 -111.545)" fill="#fcfbfb"/>
    <path id="Path_2010" data-name="Path 2010" d="M56,97.8a1.8,1.8,0,0,0,1.8,1.8h3.606a1.8,1.8,0,0,0,0-3.606H57.8A1.8,1.8,0,0,0,56,97.8Z" transform="translate(-30.985 -61.97)" fill="#fcfbfb"/>
    <path id="Path_2011" data-name="Path 2011" d="M85.059,42.509l-2.549-2.55a1.8,1.8,0,1,0-2.55,2.55l2.55,2.549a1.8,1.8,0,1,0,2.55-2.55Z" transform="translate(-49.135 -18.151)" fill="#fcfbfb"/>
    <path id="Path_2012" data-name="Path 2012" d="M184.334,45.057l2.55-2.55a1.8,1.8,0,1,0-2.55-2.55l-2.549,2.55a1.8,1.8,0,1,0,2.55,2.55Z" transform="translate(-128.011 -18.149)" fill="#fcfbfb"/>
    <path id="Path_2013" data-name="Path 2013" d="M184.334,146.884a1.8,1.8,0,1,0,2.55-2.55l-2.55-2.549a1.8,1.8,0,1,0-2.55,2.55Z" transform="translate(-128.011 -97.026)" fill="#fcfbfb"/>
    <path id="Path_2014" data-name="Path 2014" d="M79.96,144.334a1.8,1.8,0,1,0,2.55,2.55l2.549-2.55a1.8,1.8,0,1,0-2.55-2.55Z" transform="translate(-49.135 -97.026)" fill="#fcfbfb"/>
    <path id="Path_2015" data-name="Path 2015" d="M101.409,259.605a1.805,1.805,0,0,1,1.8,1.8,1.8,1.8,0,0,0,3.606,0,1.8,1.8,0,0,1,3.606,0,1.8,1.8,0,0,0,3.606,0,5.406,5.406,0,0,0-9.015-4.028A5.406,5.406,0,0,0,96,261.409a1.8,1.8,0,0,0,3.606,0A1.805,1.805,0,0,1,101.409,259.605Z" transform="translate(-61.97 -185.908)" fill="#fcfbfb"/>
    <path id="Path_2016" data-name="Path 2016" d="M32,309.409a1.8,1.8,0,0,0,3.606,0,1.8,1.8,0,0,1,3.606,0,1.8,1.8,0,1,0,3.606,0,1.8,1.8,0,1,1,3.606,0,1.8,1.8,0,1,0,3.606,0,5.406,5.406,0,0,0-9.015-4.028A5.406,5.406,0,0,0,32,309.409Z" transform="translate(-12.394 -223.09)" fill="#fcfbfb"/>
  </g>
</svg>
