<svg xmlns="http://www.w3.org/2000/svg" width="101.35" height="101.442" viewBox="0 0 101.35 101.442">
  <g id="destination" transform="translate(-0.233)">
    <g id="Group_508" data-name="Group 508" transform="translate(0.233 30.492)">
      <g id="Group_507" data-name="Group 507">
        <path id="Path_1970" data-name="Path 1970" d="M25.105,153.9A24.9,24.9,0,0,0,.233,178.774c0,8.515,4.051,17.67,12.039,27.211,1.187,1.418,2.37,2.731,3.5,3.93-5.158,1.408-8.255,3.937-8.255,6.89,0,5.226,9.059,8.047,17.582,8.047s17.582-2.82,17.582-8.047c0-2.95-3.1-5.48-8.251-6.889a80.98,80.98,0,0,0,6.378-7.585,1.487,1.487,0,1,0-2.395-1.765,79.867,79.867,0,0,1-7.684,8.877,1.487,1.487,0,0,0-.649.644c-2.148,2.111-3.955,3.676-4.981,4.532-1.014-.847-2.794-2.392-4.914-4.475a1.488,1.488,0,0,0-.746-.741c-6.738-6.777-16.238-18.486-16.238-30.629a21.9,21.9,0,0,1,43.794,0c0,5.273-1.8,10.967-5.34,16.925a1.488,1.488,0,1,0,2.557,1.521c3.821-6.424,5.758-12.63,5.758-18.445A24.9,24.9,0,0,0,25.105,153.9Zm-.91,63.811a1.488,1.488,0,0,0,1.821,0A75.606,75.606,0,0,0,32,212.394c5.017,1.023,7.715,2.993,7.715,4.411,0,1.059-1.451,2.308-3.788,3.26A29.656,29.656,0,0,1,25.1,221.877c-8.917,0-14.607-3-14.607-5.072,0-1.42,2.7-3.389,7.718-4.412A75.6,75.6,0,0,0,24.195,217.713Z" transform="translate(-0.233 -153.902)" fill="#fcfbfb"/>
      </g>
    </g>
    <g id="Group_510" data-name="Group 510" transform="translate(14.291 44.55)">
      <g id="Group_509" data-name="Group 509">
        <path id="Path_1971" data-name="Path 1971" d="M82,224.854A10.726,10.726,0,0,0,75.531,227a1.488,1.488,0,1,0,1.781,2.383,7.819,7.819,0,1,1-2.848,4.116,1.487,1.487,0,1,0-2.859-.821A10.816,10.816,0,1,0,82,224.854Z" transform="translate(-71.187 -224.854)" fill="#fcfbfb"/>
      </g>
    </g>
    <g id="Group_512" data-name="Group 512" transform="translate(62.662 0)">
      <g id="Group_511" data-name="Group 511">
        <path id="Path_1972" data-name="Path 1972" d="M342.6,43.216c.757-.812,1.536-1.687,2.318-2.621,6.193-7.4,9.333-14.507,9.333-21.135a19.463,19.463,0,0,0-37.39-7.575,1.487,1.487,0,0,0,2.74,1.159,16.488,16.488,0,0,1,31.676,6.416c0,12.293-12.906,24.07-16.486,27.1-.789-.667-2.031-1.758-3.487-3.185a1.486,1.486,0,0,0-.662-.657C325.5,37.545,318.3,28.656,318.3,19.46a1.488,1.488,0,0,0-2.975,0c0,6.627,3.14,13.738,9.333,21.135.782.933,1.561,1.808,2.317,2.62-3.835,1.152-6.048,3.113-6.048,5.475,0,1.992,1.616,3.747,4.549,4.942a28.1,28.1,0,0,0,18.617,0c2.933-1.2,4.549-2.951,4.549-4.942C348.644,46.333,346.429,44.37,342.6,43.216Zm-7.809,9.027c-7.041,0-10.882-2.347-10.882-3.554,0-.786,1.747-2.224,5.478-3.017a58.111,58.111,0,0,0,4.494,3.988,1.488,1.488,0,0,0,1.821,0,58.05,58.05,0,0,0,4.494-3.987,13.634,13.634,0,0,1,4.11,1.487c.857.522,1.368,1.094,1.368,1.53C345.669,49.9,341.828,52.243,334.787,52.243Z" transform="translate(-315.327 0)" fill="#fcfbfb"/>
      </g>
    </g>
    <g id="Group_514" data-name="Group 514" transform="translate(73.467 10.804)">
      <g id="Group_513" data-name="Group 513">
        <path id="Path_1973" data-name="Path 1973" d="M378.515,54.532a8.656,8.656,0,1,0,8.656,8.656A8.666,8.666,0,0,0,378.515,54.532Zm0,14.337a5.681,5.681,0,1,1,5.681-5.681A5.687,5.687,0,0,1,378.515,68.869Z" transform="translate(-369.859 -54.532)" fill="#fcfbfb"/>
      </g>
    </g>
    <g id="Group_516" data-name="Group 516" transform="translate(59.379 47.202)">
      <g id="Group_515" data-name="Group 515">
        <path id="Path_1974" data-name="Path 1974" d="M302.2,238.239h-.679a11.224,11.224,0,0,0-1.478.1,1.488,1.488,0,1,0,.393,2.949,8.268,8.268,0,0,1,1.085-.071h.679a1.488,1.488,0,0,0,0-2.975Z" transform="translate(-298.753 -238.239)" fill="#fcfbfb"/>
      </g>
    </g>
    <g id="Group_518" data-name="Group 518" transform="translate(54.457 91.832)">
      <g id="Group_517" data-name="Group 517">
        <path id="Path_1975" data-name="Path 1975" d="M277.363,463.5h-.007l-1.965.009a1.488,1.488,0,0,0,.007,2.975h.007l1.965-.009a1.488,1.488,0,0,0-.007-2.975Z" transform="translate(-273.911 -463.496)" fill="#fcfbfb"/>
      </g>
    </g>
    <g id="Group_520" data-name="Group 520" transform="translate(61.14 66.47)">
      <g id="Group_519" data-name="Group 519">
        <path id="Path_1976" data-name="Path 1976" d="M311.094,335.489H309.13a1.488,1.488,0,1,0,0,2.975h1.965a1.488,1.488,0,0,0,0-2.975Z" transform="translate(-307.642 -335.489)" fill="#fcfbfb"/>
      </g>
    </g>
    <g id="Group_522" data-name="Group 522" transform="translate(52.829 49.754)">
      <g id="Group_521" data-name="Group 521">
        <path id="Path_1977" data-name="Path 1977" d="M269.578,251.6a1.488,1.488,0,0,0-2.1-.085,11.183,11.183,0,0,0-1.5,1.694,1.488,1.488,0,1,0,2.417,1.736,8.22,8.22,0,0,1,1.1-1.243A1.488,1.488,0,0,0,269.578,251.6Z" transform="translate(-265.698 -251.12)" fill="#fcfbfb"/>
      </g>
    </g>
    <g id="Group_524" data-name="Group 524" transform="translate(62.316 91.796)">
      <g id="Group_523" data-name="Group 523">
        <path id="Path_1978" data-name="Path 1978" d="M317.03,463.314h-.007l-1.964.009a1.488,1.488,0,0,0,.007,2.975h.007l1.964-.009a1.488,1.488,0,0,0-.007-2.975Z" transform="translate(-313.578 -463.314)" fill="#fcfbfb"/>
      </g>
    </g>
    <g id="Group_526" data-name="Group 526" transform="translate(46.598 91.868)">
      <g id="Group_525" data-name="Group 525">
        <path id="Path_1979" data-name="Path 1979" d="M237.7,463.675h-.007l-1.965.009a1.488,1.488,0,0,0,.007,2.975h.007l1.965-.009a1.488,1.488,0,0,0-.007-2.975Z" transform="translate(-234.246 -463.675)" fill="#fcfbfb"/>
      </g>
    </g>
    <g id="Group_528" data-name="Group 528" transform="translate(53.983 63.782)">
      <g id="Group_527" data-name="Group 527">
        <path id="Path_1980" data-name="Path 1980" d="M275.348,323.357a8.213,8.213,0,0,1-1.306-1.023,1.487,1.487,0,1,0-2.062,2.144,11.179,11.179,0,0,0,1.781,1.4,1.488,1.488,0,1,0,1.587-2.516Z" transform="translate(-271.523 -321.919)" fill="#fcfbfb"/>
      </g>
    </g>
    <g id="Group_530" data-name="Group 530" transform="translate(51.026 56.736)">
      <g id="Group_529" data-name="Group 529">
        <path id="Path_1981" data-name="Path 1981" d="M259.723,289.516a8.222,8.222,0,0,1-.151-1.568v-.083a1.487,1.487,0,0,0-1.47-1.5h-.018a1.488,1.488,0,0,0-1.487,1.47v.117a11.2,11.2,0,0,0,.205,2.137,1.488,1.488,0,0,0,2.92-.569Z" transform="translate(-256.597 -286.361)" fill="#fcfbfb"/>
      </g>
    </g>
    <g id="Group_532" data-name="Group 532" transform="translate(68.999 66.47)">
      <g id="Group_531" data-name="Group 531">
        <path id="Path_1982" data-name="Path 1982" d="M350.761,335.489H348.8a1.488,1.488,0,1,0,0,2.975h1.965a1.488,1.488,0,0,0,0-2.975Z" transform="translate(-347.309 -335.489)" fill="#fcfbfb"/>
      </g>
    </g>
    <g id="Group_534" data-name="Group 534" transform="translate(92.295 68.086)">
      <g id="Group_533" data-name="Group 533">
        <path id="Path_1983" data-name="Path 1983" d="M468.927,345.057a14.166,14.166,0,0,0-1.821-1.221,1.487,1.487,0,0,0-1.46,2.592,11.22,11.22,0,0,1,1.437.964,1.488,1.488,0,0,0,1.844-2.335Z" transform="translate(-464.888 -343.645)" fill="#fcfbfb"/>
      </g>
    </g>
    <g id="Group_536" data-name="Group 536" transform="translate(85.893 91.578)">
      <g id="Group_535" data-name="Group 535">
        <path id="Path_1984" data-name="Path 1984" d="M437.494,463.5a1.488,1.488,0,0,0-1.677-1.27,11.191,11.191,0,0,1-1.484.1h-.278a1.488,1.488,0,0,0,.007,2.975h.285a14.2,14.2,0,0,0,1.877-.133A1.488,1.488,0,0,0,437.494,463.5Z" transform="translate(-432.575 -462.211)" fill="#fcfbfb"/>
      </g>
    </g>
    <g id="Group_538" data-name="Group 538" transform="translate(93.291 88.217)">
      <g id="Group_537" data-name="Group 537">
        <path id="Path_1985" data-name="Path 1985" d="M474,445.712a1.487,1.487,0,0,0-2.1-.051,11.231,11.231,0,0,1-1.343,1.094,1.488,1.488,0,1,0,1.7,2.445,14.235,14.235,0,0,0,1.7-1.385A1.488,1.488,0,0,0,474,445.712Z" transform="translate(-469.918 -445.25)" fill="#fcfbfb"/>
      </g>
    </g>
    <g id="Group_540" data-name="Group 540" transform="translate(97.997 81.429)">
      <g id="Group_539" data-name="Group 539">
        <path id="Path_1986" data-name="Path 1986" d="M495.943,411.013a1.488,1.488,0,0,0-1.737,1.186,11.14,11.14,0,0,1-.452,1.67,1.488,1.488,0,1,0,2.8,1,14.109,14.109,0,0,0,.573-2.118A1.488,1.488,0,0,0,495.943,411.013Z" transform="translate(-493.667 -410.987)" fill="#fcfbfb"/>
      </g>
    </g>
    <g id="Group_542" data-name="Group 542" transform="translate(97.55 73.757)">
      <g id="Group_541" data-name="Group 541">
        <path id="Path_1987" data-name="Path 1987" d="M495.018,375.181a14.046,14.046,0,0,0-.77-2.057,1.488,1.488,0,1,0-2.7,1.258,11.053,11.053,0,0,1,.606,1.62,1.488,1.488,0,1,0,2.86-.821Z" transform="translate(-491.412 -372.265)" fill="#fcfbfb"/>
      </g>
    </g>
    <g id="Group_544" data-name="Group 544" transform="translate(76.858 66.47)">
      <g id="Group_543" data-name="Group 543">
        <path id="Path_1988" data-name="Path 1988" d="M390.427,335.489h-1.965a1.488,1.488,0,0,0,0,2.975h1.965a1.488,1.488,0,0,0,0-2.975Z" transform="translate(-386.975 -335.489)" fill="#fcfbfb"/>
      </g>
    </g>
    <g id="Group_546" data-name="Group 546" transform="translate(70.175 91.76)">
      <g id="Group_545" data-name="Group 545">
        <path id="Path_1989" data-name="Path 1989" d="M356.7,463.134h-.007l-1.965.009a1.488,1.488,0,0,0,.007,2.975h.007l1.965-.009a1.488,1.488,0,0,0-.007-2.975Z" transform="translate(-353.243 -463.134)" fill="#fcfbfb"/>
      </g>
    </g>
    <g id="Group_548" data-name="Group 548" transform="translate(84.717 66.47)">
      <g id="Group_547" data-name="Group 547">
        <path id="Path_1990" data-name="Path 1990" d="M430.158,335.5c-.21-.009-.424-.014-.633-.014h-1.4a1.488,1.488,0,0,0,0,2.975h1.4q.252,0,.5.011l.067,0a1.488,1.488,0,0,0,.065-2.974Z" transform="translate(-426.64 -335.49)" fill="#fcfbfb"/>
      </g>
    </g>
    <g id="Group_550" data-name="Group 550" transform="translate(78.033 91.725)">
      <g id="Group_549" data-name="Group 549">
        <path id="Path_1991" data-name="Path 1991" d="M396.36,462.955h-.007l-1.965.009a1.488,1.488,0,0,0,.007,2.975h.007l1.965-.009a1.488,1.488,0,0,0-.007-2.975Z" transform="translate(-392.908 -462.955)" fill="#fcfbfb"/>
      </g>
    </g>
  </g>
</svg>
