<svg xmlns="http://www.w3.org/2000/svg" width="98.978" height="98.975" viewBox="0 0 98.978 98.975">
  <g id="parachute" transform="translate(0 -0.006)">
    <path id="Path_1992" data-name="Path 1992" d="M82.108,8.963a3.41,3.41,0,0,0-2.525-.469,3.385,3.385,0,0,0-1.669-1.94A58.986,58.986,0,0,0,61.665,1.1a3.387,3.387,0,0,0-2.153.311A3.373,3.373,0,0,0,57.557.481a68.7,68.7,0,0,0-16.137,0,3.372,3.372,0,0,0-1.955.934A3.385,3.385,0,0,0,37.313,1.1a58.985,58.985,0,0,0-16.25,5.449,3.385,3.385,0,0,0-1.669,1.94,3.411,3.411,0,0,0-2.525.469C6.149,15.832,0,25.764,0,36.211a27.016,27.016,0,0,0,.4,4.644,3.334,3.334,0,0,0,2.5,2.689,3.5,3.5,0,0,0,.855.107,3.355,3.355,0,0,0,1.4-.309L34.045,71.687H15.608a5.746,5.746,0,1,0,0,11.492h6.774a1.45,1.45,0,0,0,0-2.9H21.16V74.587H36.03v6.29a5.318,5.318,0,0,0-2.453-.6H29.155a1.45,1.45,0,0,0,0,2.9h4.422a2.456,2.456,0,0,1,2.453,2.454v11.9a1.45,1.45,0,0,0,2.9,0V94.948L41.744,91.7a9.263,9.263,0,0,0,2.263-6.065V74.587h10.77V85.635A9.262,9.262,0,0,0,57.039,91.7l2.815,3.248v2.584a1.45,1.45,0,0,0,2.9,0v-11.9a2.456,2.456,0,0,1,2.453-2.454h4.422a1.45,1.45,0,0,0,0-2.9H65.207a5.318,5.318,0,0,0-2.453.6v-6.29h14.87v5.692H76.4a1.45,1.45,0,0,0,0,2.9h6.968a5.746,5.746,0,1,0,0-11.492H64.542L93.56,43.209a3.35,3.35,0,0,0,1.657.442,3.5,3.5,0,0,0,.855-.107,3.334,3.334,0,0,0,2.5-2.689,27.015,27.015,0,0,0,.4-4.644c0-10.448-6.148-20.379-16.869-27.249Zm4.107,68.47a2.85,2.85,0,0,1-2.846,2.846H80.523V74.587h2.846A2.849,2.849,0,0,1,86.216,77.433ZM60.729,4.064a.492.492,0,0,1,.409-.108A56.088,56.088,0,0,1,76.59,9.133a.5.5,0,0,1,.272.448V27a.489.489,0,0,1-.214.411.5.5,0,0,1-.465.058,67.059,67.059,0,0,0-15.189-3.559.505.505,0,0,1-.447-.5,1.458,1.458,0,0,0-.011-.173c0-.072.011-.143.011-.215V4.453a.5.5,0,0,1,.183-.389ZM25.252,29.676a65.737,65.737,0,0,1,13.083-2.887,3.419,3.419,0,0,0,.614-.133l5.959,24.711a9.267,9.267,0,0,0-4.778,8.1v4.258Zm24.139,20.53a9.256,9.256,0,0,0-1.74.166l-5.775-23.95c.069,0,.139,0,.208-.005,2.376-.183,4.867-.276,7.4-.276,2.475,0,4.9.09,7.226.264L50.944,50.339a9.3,9.3,0,0,0-1.553-.133Zm0,2.9a6.371,6.371,0,0,1,6.193,4.911H43.2A6.371,6.371,0,0,1,49.392,53.106Zm9.261,6.361A9.268,9.268,0,0,0,53.7,51.274l5.969-24.755a3.4,3.4,0,0,0,.972.271,66.118,66.118,0,0,1,12.742,2.772L58.653,63.277V59.467ZM41.331,3.86a.5.5,0,0,1,.434-.5,65.737,65.737,0,0,1,15.449,0,.5.5,0,0,1,.434.5V23.024a.5.5,0,0,1-.163.373.488.488,0,0,1-.367.13c-2.45-.189-5.016-.285-7.628-.285s-5.178.1-7.628.285a.486.486,0,0,1-.367-.13.5.5,0,0,1-.163-.373ZM22.115,9.582a.5.5,0,0,1,.272-.448A56.089,56.089,0,0,1,37.84,3.956a.491.491,0,0,1,.409.108.5.5,0,0,1,.182.389V23.024c0,.072.007.144.011.215a1.461,1.461,0,0,0-.011.173.505.505,0,0,1-.447.5A67.069,67.069,0,0,0,22.8,27.469a.5.5,0,0,1-.466-.058A.489.489,0,0,1,22.115,27V9.582Zm-18.5,31.15a.447.447,0,0,1-.353-.376A24.09,24.09,0,0,1,2.9,36.211c0-9.44,5.662-18.482,15.534-24.807a.494.494,0,0,1,.522-.019.483.483,0,0,1,.26.439V28.631a.51.51,0,0,1-.3.458A40.036,40.036,0,0,0,4.154,40.546.511.511,0,0,1,3.612,40.732Zm3.646.6a37.573,37.573,0,0,1,12.889-9.62,3.422,3.422,0,0,0,1.543-1.445,3.409,3.409,0,0,0,.712.123L40.445,71.687h-2.26Zm5.5,36.1a2.85,2.85,0,0,1,2.846-2.846H18.26v5.692H15.608A2.849,2.849,0,0,1,12.762,77.433Zm28.345,8.2A6.363,6.363,0,0,1,39.553,89.8l-.623.719V74.587h2.178Zm8.285-13.948a6.368,6.368,0,0,1-6.361-6.361V60.917H55.753v4.409a6.369,6.369,0,0,1-6.361,6.361ZM59.854,85.633V90.52L59.23,89.8a6.362,6.362,0,0,1-1.554-4.166V74.587h2.178V85.633ZM58.142,71.687,76.186,30.393c.058,0,.116.008.173.008a3.41,3.41,0,0,0,.929-.131,3.421,3.421,0,0,0,1.543,1.446,37.661,37.661,0,0,1,12.71,9.413L60.4,71.687ZM95.719,40.355a.447.447,0,0,1-.353.377.511.511,0,0,1-.543-.186A40.038,40.038,0,0,0,80.059,29.088a.51.51,0,0,1-.3-.458V11.824a.483.483,0,0,1,.26-.439.494.494,0,0,1,.522.019c9.872,6.326,15.534,15.368,15.534,24.807A24.1,24.1,0,0,1,95.719,40.355Z" transform="translate(0 0)" fill="#fcfbfb"/>
  </g>
</svg>
